<?xml version="1.0" encoding="utf-8"?>
<!-- Generator: Adobe Illustrator 18.1.0, SVG Export Plug-In . SVG Version: 6.00 Build 0)  -->
<svg version="1.1" id="Layer_1" xmlns="http://www.w3.org/2000/svg" xmlns:xlink="http://www.w3.org/1999/xlink" x="0px" y="0px"
	 viewBox="1027.9 229.2 1189.6 84.8" enable-background="new 1027.9 229.2 1189.6 84.8" xml:space="preserve">
<g id="rocket">
</g>
<g id="wolken_1_">
	<path id="wolken_3_" fill="#FFFFFF" d="M1023.6,267.5c5.3,6.5,10.5,6.5,10.5,6.5c17.8,2,20.6-13.8,20.6-13.8
		c9.8,6,17.1-0.5,17.1-0.5c7.8,7,18.1,0.2,18.1,0.2c18.8,9.5,25.9-10.8,25.9-10.8c4.5,9,13.8,6.7,13.8,6.7
		c1.7,11,10.4,14.3,10.4,14.3c16.1,5,23.4-8,23.4-8c13.1,3,18.1-8.7,18.1-8.7c2.7,8,11,8.3,11,8.3c-1,1.3,0.3,18.3,17.1,18.3
		c16.7,0,17.7-15,17.7-15c4.7,2.3,7.4-3,7.4-3c16.4,11,24.4-2,24.4-2c1,4.7,8,1.7,8,1.7c18.4,21.3,30.8,0.3,30.8,0.3
		c9.7,6.7,11.7-2.7,11.7-2.7c6.7,6.7,18.1,0.7,18.1,0.7c12.4,12,24.1,2.7,24.1,2.7c6.4,13,21.1,7.7,21.1,7.7
		c20.1,22.7,33.1-1,33.1-1c19.4,4.7,24.8-13.3,24.8-13.3c6.4-0.3,8.7-5.7,8.7-5.7c4,3.3,13.7,0,13.7,0c13.4,15.7,26.4,1.7,26.4,1.7
		c6,7.3,12.7,4.7,12.7,4.7c2,32,27.8,18.7,27.8,18.7c1.7,7.7,10.7,9.7,10.7,9.7c5,13,18.1,11.3,18.1,11.3c12.7,21.3,30.1,4,30.1,4
		c4.8,16.3,21.3,7.4,21.3,7.4c8,13,17.7,1,17.7,1c12.3,1.8,16.1-8.5,16.1-8.5c11,5.8,13.1-6,13.1-6s8,6.2,17.3,6.2
		c9.3,0,13.3-14,13.3-14c6,1.8,9.5-3,9.5-3s10.8,4.2,20.3-0.2s7.5-18.5,7.5-18.5c24.4,13,28.1-10.2,28.1-10.2
		c11,4.8,16.8-4.8,16.8-4.8c5,13,16.3,10.2,16.3,10.2c13.6,22.5,31.1,1.5,31.1,1.5c2.8,7,12.3,4.5,12.3,4.5
		c6,15.8,21.3,12.2,21.3,12.2c3,13.2,16.3,13,16.3,13c18.8,0,18.6-17.5,18.6-17.5c12.8-2.5,11-15.5,11-15.5
		c14.1,12.2,25.6-2.8,25.6-2.8c12.8,21.5,30.9,3.5,30.9,3.5c6.8-0.5,8.8-9,8.8-9c2.8,7,7.5,2.2,7.5,2.2c18.1,31,33.9,4.5,33.9,4.5
		c15.1,13.8,23.6-1.2,23.6-1.2c16.3,15.2,27.1-1,27.1-1c11.5,6.8,16.6-3.5,16.6-3.5c4.3,8.2,13.8,4.8,13.8,4.8
		c2.8,15.2,20.3,9.2,20.3,9.2c16.8,16.2,23.9-3.5,23.9-3.5c0.3,4.8,4.3,11.8,16.3,12.5c12.1,0.8,16.6-13,16.6-13
		c11,4.2,17.8-1.2,17.8-1.2s1.5,11,17.1,11.5c0,0,8,0.5,10.4-3.9c0,0,10.8,15.6,20.8,0V-36c-23.7,0-38.7-0.1-39.3-0.3h-516.6h-346.6
		c0,0-149.9-6.6-291.3,0.7L1023.6,267.5z"/>
</g>
</svg>
