<?xml version="1.0" encoding="utf-8"?>
<!-- Generator: Adobe Illustrator 16.0.0, SVG Export Plug-In . SVG Version: 6.00 Build 0)  -->
<!DOCTYPE svg PUBLIC "-//W3C//DTD SVG 1.1//EN" "http://www.w3.org/Graphics/SVG/1.1/DTD/svg11.dtd">
<svg version="1.1" id="Layer_1" xmlns="http://www.w3.org/2000/svg" xmlns:xlink="http://www.w3.org/1999/xlink" x="0px" y="0px"
	 width="1132px" height="719.848px" viewBox="0 0 1132 719.848" enable-background="new 0 0 1132 719.848" xml:space="preserve">
<path fill="#FFFFFF" d="M530.004,173.24c2.823-0.423,4.142-0.554,5.432-0.824c16.886-3.545,25.324,1.89,29.548,18.766
	c0.415,1.659,1.905,3.565,3.419,4.346c8.311,4.292,12.609,11.023,13.364,20.237c0.089,1.076,0.442,2.422,1.174,3.105
	c4.726,4.416,7.29,9.77,7.071,16.361c9.684,0.982,19.09,1.922,24.333,11.007c5.022,8.703,1.854,17.732-0.357,26.979
	c7.391,1.199,10.729,6.537,13.239,12.358c2.209-0.47,3.824-0.841,5.45-1.154c9.866-1.899,18.411,1.489,22.612,10.406
	c2.469,5.239,5.799,7.226,11.053,8.952c6.131,2.015,11.477,4.808,18.413,2.718c2.86-0.861,5.785-0.841,8.441-2.904
	c9.348-7.259,19.434-8.429,29.723-2.152c3.018,1.841,5.106,1.587,8.067,0.01c14.677-7.818,26.501-3.831,33.744,11.103
	c0.726,1.494,1.338,3.043,2.017,4.561c1.417,3.164,8.134,5.617,11.396,4.325c5.733-2.27,10.927-4.826,9.181-12.558
	c-0.133-0.585,0.229-1.291,0.396-1.932c3.97-15.188,21.871-21.608,36.405-13.153c1.574,0.916,3.933,2.093,5.271,1.546
	c8.997-3.673,16.913-2.066,24.107,4.246c1.451-3.086,2.376-6.217,4.222-8.649c1.851-2.438,4.618-4.177,6.965-6.205
	c-0.304-1.572-0.599-3.038-0.868-4.509c-1.824-9.891,2.733-19.207,11.63-23.78c11.383-5.851,22.285-3.391,30.167,6.688
	c0.909,1.163,2.252,2.499,3.57,2.728c3.275,0.567,6.653,0.54,10.673,0.795c8.07-9.001,17.866-14.149,29.366-6.838
	c3.115-1.66,5.497-2.831,7.777-4.175c1.786-1.053,3.774-2.036,5.083-3.557c1.823-2.117,2.946-4.82,4.632-7.077
	c6.463-8.655,14.63-10.929,24.654-6.823c2.864,1.173,5.546,2.791,8.227,4.161c7.629-6.407,8.356-6.472,16.433-1.316
	c4.749-6.636,11.729-7.76,19.396-7.64c1.786,0.027,4.191-1.633,5.312-3.222c6.012-8.52,14.027-11.889,24.239-10.387
	c1.08,0.158,2.176,0.216,3.446,0.338c2.144-9.246,7.545-15.406,16.687-16.653c5.652-0.771,9.062-3.054,11.083-8.117
	c0.482-1.211,1.353-2.292,2.152-3.351c7.646-10.101,17.263-12.284,28.604-6.593c1.607,0.799,3.361,1.308,5.047,1.956
	c0,166,0,332,0,498c-12.04,6.854-22.279,3.097-31.321-5.879c-6.999,5.734-13.991,8.935-22.526,4.236
	c-6.59,13.288-16.063,12.078-26.465,4.902c-1.944,19.672-7.212,28.095-20.334,30.702c-15.74,3.129-21.027-8.312-25.493-20.57
	c-8.87,4.748-16.149,4.069-20.687-5.969c-5.741,6.439-11.923,9.589-19.596,6.357c-3.064-1.29-4.92-0.975-7.468,1.155
	c-8.853,7.398-17.958,7.101-26.757,0.085c-1.579-1.26-4.535-1.69-6.613-1.28c-12.262,2.427-20.993-1.236-26.334-12.49
	c-2.133-4.492-3.963-6.464-9.159-4.818c-2.188,0.692-5.306-0.423-7.616-1.523c-3.033-1.443-5.687-3.688-8.716-5.729
	c-5.058,10.035-12.201,16.908-24.342,16.71c-12.909-0.211-18.355-8.808-21.977-19.488c-6.572,2.459-12.894,2.818-17.83-1.824
	c-3.448-3.244-6.561-3.33-10.657-2.467c-9.166,1.936-16.382-1.524-21.569-9.07c-2.127-3.093-3.604-6.631-5.562-10.316
	c-6.717,3.25-13.146,3.027-18.684-2.439c-12.245,20.928-21.571,23.791-34.853,11.009c-2.091,2.33-4.035,4.808-6.294,6.96
	c-10.16,9.689-27.21,8.164-34.254-3.678c-2.962-4.979-3.729-11.236-5.722-16.832c-0.516-1.45-2.041-3.805-2.827-3.698
	c-6.651,0.894-11.187-2.096-15.075-8.112c-3.712,11.291-9.438,19.64-21.945,19.875c-11.461,0.217-20.401-3.974-24.834-15.564
	c-7.176,3.796-14.119,3.67-21.312,1.837c-1.119-0.285-3.381,1.412-4.171,2.75c-4.692,7.943-10.646,13.83-20.648,13.086
	c-9.763-0.728-17.798-4.265-21.054-14.568c-0.106-0.339-0.611-0.552-1.1-0.965c-0.688,0.998-1.264,1.792-1.794,2.615
	c-6.261,9.73-13.967,11.826-23.051,4.88c-4.838-3.699-9.395-4.913-15.019-4.065c-1.138,0.171-2.33,0.021-3.495-0.026
	c-6.487-0.262-10.953-3.428-13.465-9.398c-0.564-1.343-1.181-2.663-1.534-3.456c-3.835-0.348-7.339-0.01-10.306-1.113
	c-3.078-1.146-5.637-3.687-8.471-5.649c-7.287,7.368-8.671,7.61-22.208,3.65c-11.627,13.273-23.809,11.12-35.727,0.481
	c-11.545,11.188-14.978,11.282-31.721,1.292c-18.589,21.692-32.064,13.974-45.189-7.118c-3.996,2.264-7.417,1.202-9.777-2.346
	c-2.696,3.104-4.749,6.49-7.704,8.628c-4.126,2.985-8.887,5.116-13.446,7.478c-11.254,5.829-22.022,3.232-29.433-7.001
	c-0.94-1.3-1.918-2.572-3.124-4.187c-10.419,10.801-21.614,12.498-33.701,3.759c-0.48,1.08-0.83,1.513-0.849,1.96
	c-0.359,8.617-4.505,14.27-12.718,17.219c-1.342,0.481-2.426,2.844-2.851,4.531c-2.641,10.495-9.264,17.285-18.105,18.212
	c-14.061,1.475-21.537-2.453-27.039-13.753c-0.714-1.467-2.954-3.065-4.522-3.104c-10.696-0.251-18.41-4.868-23.268-14.45
	c-0.615-1.213-2.338-2.757-3.444-2.679c-5.902,0.417-10.807-1.223-14.562-6.156c-1.424,1.137-2.609,2.03-3.735,2.991
	c-11.319,9.661-25.097,12.054-35.78-3.648c-1.062-1.561-3.717-2.815-5.66-2.856c-7.186-0.146-11.768-3.952-15.303-9.635
	c-0.759-1.221-1.45-2.482-2.448-4.202c-6.429,6.886-13.667,9.441-22.434,5.646c-0.688,1.804-1.186,3.183-1.735,4.541
	c-4.366,10.801-12.494,15.453-23.783,13.2c-3.696-0.737-7.21-2.387-10.808-3.617c0-208.667,0-417.333,0-626
	c2.156-0.839,4.301-1.706,6.469-2.512c12.687-4.71,22.515-0.366,27.171,12.278c1.424,3.868,1.993,8.043,3.193,12.004
	c0.358,1.185,1.335,2.401,2.367,3.117c2.408,1.672,5.021,3.049,7.958,4.786c2.383-1.112,5.774-3.269,9.478-4.273
	c4.111-1.115,8.528-1.051,12.776-1.725c13.449-2.134,23.194,4.255,26.5,17.463c0.392,1.565,0.936,3.093,1.529,5.027
	c13.508-5.586,24.836-4.103,32.538,10.103c1.309-2.174,1.838-3.924,3.015-4.847c3.677-2.884,7.413-7.295,11.47-7.705
	c5.745-0.58,9.099-2.698,12.546-6.912c6.465-7.903,15.469-9.438,25.835-5.311c9.37,3.731,14.443,11.463,14.451,21.235
	c0.001,1.585,1.473,4.038,2.873,4.614c10.321,4.249,15.817,11.723,16.564,22.845c0.072,1.073,0.917,2.723,1.773,3.014
	c5.633,1.917,10.126,4.877,11.301,11.401c2.084-0.61,3.67-1.03,5.228-1.536c15.542-5.055,28.146,0.243,31.148,17.018
	c0.299,1.666,2.334,3.459,4.011,4.363c6.353,3.424,10.256,8.305,10.734,15.679c0.08,1.23,0.519,2.438,0.881,4.059
	c8.583-3.665,16.252-3.013,22.721,3.286c16.58-14.796,20.622-14.573,39.793,1.663c2.984-4.312,5.438-9.176,9.094-12.842
	c6.432-6.45,16.504-6.305,27.333,0.048c4.832,2.836,9.049,6.713,15.315,4.783c0.83-0.256,2.122,0.077,2.864,0.607
	c2.882,2.058,4.589,0.447,6.842-1.363c3.332-2.679,6.901-5.447,10.841-6.908c8.633-3.201,14.535,2.375,20.129,7.726
	c2.704,2.587,4.931,5.673,7.355,8.513c8.856-7.082,9.459-7.085,19.32-0.357c10.142-5.604,13.347-6.489,20.017-3.453
	c3.839,1.747,6.359,0.928,8.607-1.968c0,0,14.128-10.864,17.794,7.136c0,0,18.333-9,16.333,13.333
	C526.167,158.757,541.174,158.723,530.004,173.24z"/>
</svg>
