<?xml version="1.0" encoding="utf-8"?>
<!-- Generator: Adobe Illustrator 18.1.0, SVG Export Plug-In . SVG Version: 6.00 Build 0)  -->
<svg version="1.1" id="Layer_1" xmlns="http://www.w3.org/2000/svg" xmlns:xlink="http://www.w3.org/1999/xlink" x="0px" y="0px"
	 viewBox="1027.9 229.2 1189.6 84.8" enable-background="new 1027.9 229.2 1189.6 84.8" xml:space="preserve">
<g id="rocket">
</g>
<g id="wolken_1_">
	<path id="wolken_3_" fill="#FFFFFF" d="M2218.3,275.8c-5.3-6.5-10.5-6.5-10.5-6.5c-17.8-2-20.5,13.8-20.5,13.8
		c-9.8-6-17,0.5-17,0.5c-7.8-7-18-0.2-18-0.2c-18.8-9.5-25.8,10.8-25.8,10.8c-4.5-9-13.8-6.7-13.8-6.7c-1.7-11-10.3-14.3-10.3-14.3
		c-16-5-23.3,8-23.3,8c-13-3-18,8.7-18,8.7c-2.7-8-11-8.3-11-8.3c1-1.3-0.3-18.3-17-18.3c-16.7,0-17.7,15-17.7,15
		c-4.7-2.3-7.3,3-7.3,3c-16.3-11-24.3,2-24.3,2c-1-4.7-8-1.7-8-1.7c-18.3-21.3-30.7-0.3-30.7-0.3c-9.7-6.7-11.7,2.7-11.7,2.7
		c-6.7-6.7-18-0.7-18-0.7c-12.3-12-24-2.7-24-2.7c-6.3-13-21-7.7-21-7.7c-20-22.7-33,1-33,1c-19.3-4.7-24.7,13.3-24.7,13.3
		c-6.3,0.3-8.7,5.7-8.7,5.7c-4-3.3-13.7,0-13.7,0c-13.3-15.7-26.4-1.7-26.4-1.7c-6-7.3-12.7-4.7-12.7-4.7c-2-32-27.7-18.7-27.7-18.7
		c-1.7-7.7-10.7-9.7-10.7-9.7c-5-13-18-11.3-18-11.3c-12.7-21.3-30-4-30-4c-4.8-16.3-21.2-7.4-21.2-7.4c-8-13-17.6-1-17.6-1
		c-12.3-1.8-16,8.5-16,8.5c-11-5.8-13,6-13,6s-8-6.2-17.3-6.2c-9.3,0-13.3,14-13.3,14c-6-1.8-9.5,3-9.5,3s-10.8-4.2-20.3,0.2
		s-7.5,18.5-7.5,18.5c-24.3-13-28,10.2-28,10.2c-11-4.8-16.8,4.8-16.8,4.8c-5-13-16.3-10.2-16.3-10.2c-13.5-22.5-31-1.5-31-1.5
		c-2.8-7-12.3-4.5-12.3-4.5c-6-15.8-21.3-12.2-21.3-12.2c-3-13.2-16.3-13-16.3-13c-18.8,0-18.5,17.5-18.5,17.5
		c-12.8,2.5-11,15.5-11,15.5c-14-12.2-25.5,2.8-25.5,2.8c-12.8-21.5-30.8-3.5-30.8-3.5c-6.8,0.5-8.8,9-8.8,9c-2.8-7-7.5-2.2-7.5-2.2
		c-18-31-33.8-4.5-33.8-4.5c-15-13.8-23.5,1.2-23.5,1.2c-16.3-15.2-27,1-27,1c-11.5-6.8-16.5,3.5-16.5,3.5
		c-4.3-8.2-13.8-4.8-13.8-4.8c-2.8-15.2-20.3-9.2-20.3-9.2c-16.8-16.2-23.8,3.5-23.8,3.5c-0.3-4.8-4.3-11.8-16.3-12.5
		s-16.5,13-16.5,13c-11-4.2-17.8,1.2-17.8,1.2s-1.5-11-17-11.5c0,0-8-0.5-10.4,3.9c0,0-10.7-15.6-20.7,0v303.5
		c23.6,0,38.6,0.1,39.2,0.3h514.7h345.3c0,0,149.3,6.6,290.2-0.7L2218.3,275.8z"/>
</g>
</svg>
