<?xml version="1.0" encoding="utf-8"?>
<!-- Generator: Adobe Illustrator 18.1.1, SVG Export Plug-In . SVG Version: 6.00 Build 0)  -->
<svg version="1.1" id="Layer_1" xmlns="http://www.w3.org/2000/svg" xmlns:xlink="http://www.w3.org/1999/xlink" x="0px" y="0px"
	 viewBox="0 0 300 150" enable-background="new 0 0 300 150" xml:space="preserve">
<g id="wolken_1_">
	<path id="wolken_3_" fill="#FFFFFF" d="M1188.9,71.7c-8.2-10-16.2-10-16.2-10c-27.5-3.1-31.6,21.3-31.6,21.3
		c-15.1-9.3-26.2,0.8-26.2,0.8c-12-10.8-27.8-0.3-27.8-0.3c-29-14.7-39.8,16.7-39.8,16.7c-6.9-13.9-21.3-10.3-21.3-10.3
		c-2.6-17-15.9-22.1-15.9-22.1C985.4,59.9,974.1,80,974.1,80c-20.1-4.6-27.8,13.4-27.8,13.4c-4.2-12.3-17-12.8-17-12.8
		c1.5-2-0.5-28.2-26.2-28.2s-27.3,23.1-27.3,23.1c-7.3-3.5-11.3,4.6-11.3,4.6c-25.1-17-37.5,3.1-37.5,3.1
		c-1.5-7.3-12.3-2.6-12.3-2.6c-28.2-32.9-47.4-0.5-47.4-0.5c-15-10.3-18.1,4.2-18.1,4.2c-10.3-10.3-27.8-1.1-27.8-1.1
		c-19-18.5-37-4.2-37-4.2c-9.7-20.1-32.4-11.9-32.4-11.9c-30.9-35-50.9,1.5-50.9,1.5c-29.8-7.3-38.1,20.5-38.1,20.5
		c-9.7,0.5-13.4,8.8-13.4,8.8c-6.2-5.1-21.1,0-21.1,0c-20.5-24.2-40.7-2.6-40.7-2.6c-9.3-11.3-19.6-7.3-19.6-7.3
		c-3.1-49.4-42.7-28.9-42.7-28.9c-2.6-11.9-16.5-15-16.5-15c-7.7-20.1-27.8-17.4-27.8-17.4c-19.6-32.9-46.3-6.2-46.3-6.2
		c-7.4-25.1-32.7-11.4-32.7-11.4C289.8-10.7,275,7.8,275,7.8c-19-2.8-24.7,13.1-24.7,13.1c-17-8.9-20.1,9.3-20.1,9.3
		s-12.3-9.6-26.7-9.6c-14.3,0-20.5,21.6-20.5,21.6c-9.3-2.8-14.7,4.6-14.7,4.6s-16.7-6.5-31.3,0.3c-14.7,6.8-11.6,28.5-11.6,28.5
		C88,55.6,82.3,91.4,82.3,91.4c-17-7.4-25.9,7.4-25.9,7.4c-7.7-20.1-25.1-15.7-25.1-15.7c-20.8-34.7-47.8-2.3-47.8-2.3
		c-4.3-10.8-19-6.9-19-6.9C-44.8,49.4-68.4,55-68.4,55C-73,34.6-93.6,34.9-93.6,34.9c-29,0-28.5,27-28.5,27
		c-19.7,3.9-17,23.9-17,23.9c-21.6-18.8-39.3,4.3-39.3,4.3c-19.7-33.2-47.5-5.4-47.5-5.4c-10.5,0.8-13.6,13.9-13.6,13.9
		c-4.3-10.8-11.6-3.4-11.6-3.4c-27.8-47.8-52.2-6.9-52.2-6.9c-23.1-21.3-36.3,1.9-36.3,1.9c-25.1-23.5-41.7,1.5-41.7,1.5
		c-17.7-10.5-25.5,5.4-25.5,5.4c-6.6-12.7-21.3-7.4-21.3-7.4c-4.3-23.5-31.3-14.2-31.3-14.2c-25.9-25-36.7,5.4-36.7,5.4
		c-0.5-7.4-6.6-18.2-25.1-19.3c-18.5-1.1-25.5,20.1-25.5,20.1c-17-6.5-27.5,1.9-27.5,1.9s-2.3-17-26.2-17.7c0,0-12.3-0.8-16,6
		c0,0-16.5-24.1-31.9,0v468.3c36.4,0,59.6,0.2,60.5,0.5h794.1h532.8c0,0,230.4,10.2,447.8-1.1L1188.9,71.7z"/>
</g>
</svg>
