<?xml version="1.0" encoding="utf-8"?>
<!-- Generator: Adobe Illustrator 16.0.0, SVG Export Plug-In . SVG Version: 6.00 Build 0)  -->
<!DOCTYPE svg PUBLIC "-//W3C//DTD SVG 1.1//EN" "http://www.w3.org/Graphics/SVG/1.1/DTD/svg11.dtd">
<svg version="1.1" id="Layer_1" xmlns="http://www.w3.org/2000/svg" xmlns:xlink="http://www.w3.org/1999/xlink" x="0px" y="0px"
	viewBox="0 25 48.1 24.354" enable-background="new 0 25 48.1 24.354" xml:space="preserve">
<g id="Layer_1_1_">
</g>
<g id="Layer_2">
	<g>
		<g>
			<g>
				<g>
					<path id="XMLID_1_" fill="#E8E8E8" d="M24.05,31.206c-11.433,0-21.071,7.672-24.05,18.146h48.1
						C45.12,38.88,35.481,31.206,24.05,31.206z"/>
				</g>
				<g>
					<defs>
						<path id="SVGID_1_" d="M24.05,31.206c-11.433,0-21.071,7.672-24.05,18.146h48.1C45.12,38.88,35.481,31.206,24.05,31.206z"/>
					</defs>
					<clipPath id="SVGID_2_">
						<use xlink:href="#SVGID_1_"  overflow="visible"/>
					</clipPath>
					<g id="Flag_2_" clip-path="url(#SVGID_2_)">
						<path fill="#C1C1C1" d="M29.388,33.376c0,0,0.004,0.031,0.119-0.109c0.115-0.145,0.117-0.293,0.175-0.678
							c0.058-0.382,0.692-1.099,0.692-1.099l1.164,0.649c-0.143,0.041-0.67,0.772-0.729,1.305c-0.058,0.527-0.266,0.578-0.266,0.578
							L29.388,33.376z"/>
						<path fill="#C1C1C1" d="M25.761,31.503l0.041,0.076l4.675,2.609c0.089-0.006,0.046-0.08,0.046-0.08l-4.675-2.61L25.761,31.503
							z"/>
					</g>
				</g>
			</g>
		</g>
		<g id="Astronaut_shaduw_1_">
			<g id="Backpack_copy_1_">
			</g>
			<g id="Rechterhand_V2_copy_1_">
			</g>
			<g id="linkerhand_copy_1_">
			</g>
			<g>
				<path fill="#C1C1C1" d="M25.829,33.437c0.324,0.332,0.646,0.666,0.969,1c0.053,0.051,0.104,0.101,0.159,0.15
					c0.108,0.201,0.357,0.323,0.343,0.596c-0.085,0.155-0.192,0.289-0.348,0.381c-0.302,0.052-0.442-0.172-0.612-0.35
					c-0.053-0.055-0.113-0.152-0.182-0.009c-0.018-0.042-0.032-0.085-0.051-0.126c0.044-0.043,0.063-0.061-0.002-0.125
					c-0.393-0.396-0.773-0.807-1.161-1.213c0.005-0.014,0.009-0.026,0.015-0.04c0.013-0.011,0.024-0.024,0.038-0.037
					c0.154-0.155,0.309-0.308,0.463-0.462l0.062-0.061L25.829,33.437z"/>
				<path fill="#C1C1C1" d="M26.109,35.081c0.044-0.043,0.063-0.061-0.002-0.125c-0.393-0.396-0.773-0.807-1.161-1.213
					c-0.061,0.092-0.05,0.159,0.033,0.242c0.32,0.322,0.635,0.656,0.951,0.986C25.98,35.024,26.026,35.083,26.109,35.081z"/>
				<path fill="#C1C1C1" d="M26.954,35.563c-0.302,0.052-0.443-0.172-0.613-0.35c-0.052-0.055-0.113-0.152-0.182-0.009
					c0.104,0.113,0.211,0.226,0.316,0.338C26.629,35.709,26.788,35.69,26.954,35.563z"/>
				<path fill="#C1C1C1" d="M24.96,33.704c0.013-0.011,0.025-0.023,0.039-0.037C24.986,33.681,24.973,33.693,24.96,33.704z"/>
				<path fill="#C1C1C1" d="M26.924,33.101c-0.015-0.01-0.024-0.017-0.037-0.024l-0.002,0.005c0.011,0.009,0.022,0.018,0.034,0.025
					L26.924,33.101z"/>
				<path fill="#C1C1C1" d="M26.85,33.052c-0.002-0.002-0.005-0.005-0.009-0.007c0.002,0.004,0.004,0.007,0.007,0.011L26.85,33.052z
					"/>
				<path id="hand_5_" fill="#C1C1C1" d="M27.725,32.849c0,0,0.032,0.205,0.214,0.125c0,0,0.242-0.113,0.283-0.316
					c0,0,0.009-0.05-0.148,0.021c0,0-0.223,0.166-0.199,0.06c0,0,0.197-0.076,0.07-0.131c0,0-0.089-0.003-0.168,0.055
					c0,0-0.043,0.015-0.068,0.05C27.704,32.706,27.656,32.729,27.725,32.849z"/>
				<path id="schaduw_10_" fill="#C1C1C1" d="M27.704,32.706c0.025-0.037,0.069-0.05,0.069-0.05
					c0.079-0.058,0.168-0.054,0.168-0.054s-0.035,0.011-0.081,0.039c-0.057,0.034-0.126,0.076-0.139,0.086
					C27.709,32.739,27.672,32.739,27.704,32.706z"/>
				<path id="schaduw_9_" fill="#C1C1C1" d="M27.888,32.771c0,0,0.07-0.016,0.12-0.053c0.028-0.02,0.062-0.046,0.09-0.053
					c0.021-0.006,0.076-0.03,0.085-0.025c0.009,0.004-0.037,0.051-0.046,0.062C28.11,32.737,28.025,32.812,27.888,32.771z"/>
				<path fill="#C1C1C1" d="M25.521,33.479c0,0,0.141-0.099,0.279-0.026c0,0,0.062-0.081,0.062-0.138c0,0-0.025-0.019-0.027-0.06
					c0,0,0.004-0.151-0.183-0.146C25.653,33.11,25.357,33.206,25.521,33.479z"/>
				<path fill="#C1C1C1" d="M25.475,33.359c-0.028-0.183,0.179-0.249,0.179-0.249c0.187-0.006,0.183,0.146,0.183,0.146
					c0.002,0.041,0.027,0.06,0.027,0.06l-0.021,0.009l-0.016-0.05l-0.01-0.037l-0.175-0.057L25.475,33.359z"/>
				<path id="Benen__x2F__schoenen_3_" fill="#C1C1C1" d="M25.045,33.575c0,0-0.035,0.009-0.046-0.05c0,0-0.051,0.004-0.039-0.06
					c0,0-0.095-0.013-0.083-0.054c0,0-0.074,0.021-0.056-0.06c0,0-0.057-0.066-0.108-0.096c0,0-0.089-0.042-0.126-0.12
					c0,0-0.039-0.018-0.028-0.055c0,0-0.044-0.004-0.048-0.055c0,0-0.04-0.009-0.042-0.058c0,0-0.044-0.023-0.039-0.052
					c0,0-0.014,0.013-0.033-0.011c0,0-0.05-0.035-0.032-0.069c0,0-0.018-0.011-0.051-0.044c-0.03-0.035-0.076-0.074-0.103-0.074
					c-0.025,0-0.058-0.009-0.053-0.048c0.008-0.039,0.002-0.05-0.02-0.053c-0.022-0.002-0.026-0.028-0.026-0.028
					s-0.035,0.008-0.039-0.021c-0.005-0.028-0.046-0.021-0.062-0.026c-0.016-0.004-0.135-0.074-0.175-0.133
					c-0.039-0.059-0.069-0.173-0.128-0.201c-0.059-0.027-0.05-0.061-0.05-0.061s-0.104,0.025-0.133-0.076
					c0,0-0.074-0.061-0.101-0.116c0,0-0.062,0.004-0.062-0.042c0,0-0.057-0.004-0.06-0.061c0,0-0.067-0.051-0.069-0.096
					c0,0,0-0.022-0.059-0.084c-0.061-0.062-0.077-0.17,0.098-0.31c0.177-0.14,0.221-0.087,0.272-0.026c0,0,0.018,0.021,0.04,0.076
					c0,0,0.006-0.037,0.043,0.002c0,0,0.025,0.042,0.021,0.077c0,0,0.094-0.011,0.074,0.028c0,0,0.061,0.011,0.052,0.052
					c0,0,0.024-0.03,0.039-0.021c0.014,0.01,0.129,0.143,0.129,0.143s0.009,0.02-0.018,0.025c0,0,0.055,0.03,0.058,0.06
					c0,0,0.085,0.028,0.067,0.054c0,0,0.066-0.037,0.085,0.01c0,0,0.059-0.021,0.104,0.045c0,0,0.049-0.013,0.088,0.056
					c0,0,0.125,0.055,0.129,0.108c0,0,0.071,0.082,0.117,0.084s0.113,0,0.091,0.055c0,0,0.059,0,0.055,0.064
					c0,0,0.085,0.099,0.128,0.104c0,0,0.064,0.009,0.046,0.052c0,0,0.044,0.07,0.097,0.079c0,0,0.032,0.052,0.058,0.062
					c0.022,0.012,0.098,0.045,0.135,0.063s0.113,0.062,0.113,0.062s-0.03-0.028,0.03-0.092c0,0,0.041-0.055-0.069-0.062
					c0,0-0.074-0.028-0.041-0.142c0,0-0.019-0.084-0.085-0.095c0,0-0.026,0.004-0.013-0.073c0,0,0.008-0.024-0.021-0.053
					c-0.028-0.025-0.028-0.098-0.028-0.098s-0.066-0.033-0.081-0.047c-0.013-0.013-0.046-0.064-0.046-0.092
					c0,0-0.054-0.052-0.057-0.086c0,0-0.056-0.016-0.113-0.082c-0.058-0.065-0.177-0.154-0.161-0.235c0,0,0.021-0.054-0.009-0.054
					c0,0-0.026-0.017-0.021-0.031c0,0-0.093-0.062-0.072-0.111c0,0-0.009-0.05-0.063-0.07c0,0-0.05-0.05-0.09-0.103
					c-0.039-0.052,0.114-0.101,0.097-0.142c-0.018-0.043-0.103-0.148-0.06-0.209c0,0-0.048-0.127-0.015-0.176
					c0.031-0.048,0.131-0.177,0.243-0.218c0,0,0.069-0.05,0.115,0.024c0.046,0.075,0.062,0.278,0.007,0.34
					c0,0-0.013,0.062,0.042,0.062c0,0,0.005,0.078,0.034,0.164c0,0,0.081,0.009,0.088,0.048c0,0,0.071,0.031,0.056,0.083
					c0,0,0.006,0.095,0.048,0.157c0,0,0.107-0.007,0.156,0.008c0,0,0.062,0.005,0.065,0.031c0,0,0.1,0.004,0.062,0.043l-0.016,0.002
					c0,0,0.214,0.118,0.191,0.166c0,0,0.09,0.044,0.051,0.081c0,0-0.024,0.019,0.032,0.03c0,0,0.06,0.04,0.064,0.062
					c0.008,0.024,0.044,0.022,0.044,0.049c-0.002,0.025,0.048,0.055,0.048,0.055s0.079,0.031,0.095,0.009s0.064,0.037,0.051,0.089
					l0.14,0.16c0,0,0.055,0.111,0.095,0.087c0.039-0.026,0.057-0.011,0.094,0.098c0.037,0.109,0.03,0.099-0.116,0.224l0.074,0.166
					c0,0,0.037,0.041,0.06,0.098c0,0,0.021,0.143,0.052,0.155l-1.015,0.823c0,0-0.043-0.019-0.055-0.056c0,0-0.002-0.02-0.028-0.011
					c0,0-0.025,0-0.052-0.046c0,0-0.035,0.015-0.055-0.031L25.045,33.575z"/>
				<path id="shaduw_linkerbeen_3_" fill="#C1C1C1" d="M23.601,31.954c0,0,0.237-0.159,0.312-0.114
					c0.076,0.044,0.161,0.118,0.161,0.118l-0.081,0.092l0.161-0.041c0,0,0.146-0.009,0.166,0.118
					c0.021,0.127,0.249,0.194,0.249,0.194s0.233,0.131,0.215,0.235c-0.021,0.104-0.026,0.134-0.052,0.192
					c-0.022,0.059,0.251-0.113,0.251-0.113s0.137,0.043,0.146,0.111c0.014,0.066,0.099,0.098,0.104,0.1
					c0.009,0.002,0.026,0.114-0.039,0.172c0,0,0.021,0.024-0.031,0.079c-0.056,0.056,0.098,0.07,0.301-0.23
					c0.072-0.107,0.104-0.263,0.076-0.282c-0.03-0.02-0.163-0.054-0.196-0.018c-0.083,0.092-0.037,0.156-0.037,0.156l-0.002-0.043
					c0,0-0.076-0.042-0.113-0.062c-0.037-0.021-0.11-0.052-0.136-0.063c-0.023-0.011-0.057-0.062-0.057-0.062
					c-0.056-0.012-0.097-0.079-0.097-0.079c0.019-0.041-0.046-0.052-0.046-0.052c-0.044-0.002-0.129-0.101-0.129-0.101
					c0.004-0.064-0.055-0.064-0.055-0.064c0.023-0.056-0.044-0.054-0.089-0.056c-0.046-0.002-0.118-0.082-0.118-0.082
					c-0.005-0.056-0.129-0.109-0.129-0.109c-0.039-0.065-0.087-0.055-0.087-0.055c-0.046-0.063-0.105-0.047-0.105-0.047
					c-0.015-0.043-0.085-0.009-0.085-0.009c0.019-0.026-0.066-0.054-0.066-0.054c-0.003-0.026-0.058-0.059-0.058-0.059
					c0.024-0.007,0.019-0.026,0.019-0.026l-0.037,0.026C23.917,31.726,23.753,31.729,23.601,31.954z"/>
				<path id="shaduw_rechterbeen_3_" fill="#C1C1C1" d="M26.269,32.903c-0.03-0.014-0.052-0.155-0.052-0.155
					c-0.022-0.058-0.06-0.099-0.06-0.099l-0.073-0.166c0.146-0.125,0.151-0.113,0.114-0.223s-0.055-0.122-0.094-0.098
					c-0.039,0.025-0.094-0.087-0.094-0.087l-0.141-0.159c0.014-0.053-0.034-0.109-0.051-0.09c-0.015,0.02-0.094-0.01-0.094-0.01
					s-0.05-0.027-0.048-0.054c0.002-0.025-0.037-0.023-0.044-0.048c-0.006-0.023-0.065-0.062-0.065-0.062
					c-0.057-0.014-0.032-0.031-0.032-0.031c0.039-0.037-0.05-0.081-0.05-0.081c0.021-0.048-0.191-0.166-0.191-0.166l0.016-0.002
					c0.034-0.04-0.081-0.046-0.081-0.046c-0.005-0.026-0.062-0.033-0.062-0.033c-0.049-0.013-0.145,0.013-0.145,0.013
					c-0.042-0.062-0.049-0.177-0.049-0.177c0.021-0.05-0.054-0.083-0.054-0.083c-0.007-0.039-0.144-0.083-0.144-0.083
					s-0.024-0.004-0.103,0.05c-0.076,0.056-0.182,0.107-0.032,0.12c0.146,0.014,0.271-0.12,0.31,0.092c0,0-0.122,0.209,0.091,0.174
					c0,0,0.1-0.104,0.094,0.049l-0.085,0.193l0.186-0.103c0,0,0.138-0.009,0.104,0.073c-0.033,0.084,0.062,0.279,0.179,0.24
					c0.115-0.039,0.131,0.044,0.179,0.1c0.049,0.057,0.054,0.14,0.188,0.242c0.134,0.103,0.145,0.25,0.145,0.25l-0.016,0.136
					l0.065-0.022l-0.06,0.207c0,0,0.063-0.128,0.096-0.104c0.031,0.026,0.006,0.164,0.006,0.164s0.073,0.069,0.094,0.039
					L26.269,32.903z"/>
				<path id="linkerschoen_3_" fill="#C1C1C1" d="M23.433,31.954c0,0-0.062,0.004-0.062-0.042c0,0-0.057-0.004-0.059-0.062
					c0,0-0.067-0.05-0.07-0.096c0,0,0-0.021-0.059-0.083c-0.059-0.061-0.076-0.17,0.099-0.31c0.178-0.141,0.221-0.087,0.272-0.026
					c0,0,0.018,0.022,0.039,0.077c0,0,0.007-0.037,0.044,0.002c0,0,0.025,0.042,0.021,0.076c0,0,0.095-0.012,0.074,0.027
					c0,0,0.062,0.012,0.053,0.054c0,0,0.023-0.031,0.039-0.021c0,0,0.102,0.126,0.129,0.143c0,0,0.012,0.023-0.018,0.025
					c0,0-0.212-0.023-0.403,0.348C23.53,32.069,23.433,32.009,23.433,31.954z"/>
				<path id="Rechterschoen_3_" fill="#C1C1C1" d="M24.844,30.996c-0.006-0.039-0.015-0.031-0.015-0.031
					c-0.03-0.085-0.03-0.126-0.03-0.126c-0.056,0.002-0.044-0.109-0.044-0.109c0.052-0.061,0.044-0.218-0.002-0.291
					c-0.047-0.076-0.116-0.024-0.116-0.024c-0.111,0.043-0.212,0.17-0.244,0.218c-0.033,0.049,0.016,0.174,0.016,0.174
					c-0.044,0.062,0.002,0.141,0.021,0.18c0.018,0.041-0.021,0.124-0.061,0.172c-0.041,0.053,0.091,0.104,0.091,0.104
					c0.057,0.021,0.062,0.069,0.062,0.069s0.019-0.046,0.055-0.065c0,0-0.138-0.115-0.106-0.146c0.033-0.033,0.064-0.021,0.108-0.03
					C24.62,31.079,24.759,30.784,24.844,30.996z"/>
				<path id="rechterbroekzak_3_" fill="#C1C1C1" d="M25.722,31.815c0,0-0.072,0.08-0.138,0.117c0,0-0.074,0.088-0.1,0.121
					c0,0-0.006,0.053,0.063,0.109s0.133,0.247,0.151,0.286c0,0,0.052,0.177,0.125,0.147c0,0,0.194-0.106,0.259-0.112
					c0.146-0.125,0.151-0.114,0.114-0.224c-0.037-0.108-0.055-0.121-0.094-0.098c-0.039,0.025-0.094-0.087-0.094-0.087l-0.141-0.159
					c0.014-0.053-0.034-0.109-0.051-0.09c-0.015,0.02-0.094-0.009-0.094-0.009"/>
				<path id="Linkerlijn_3_" fill="#C1C1C1" d="M24.366,32.835c-0.018,0.035,0.033,0.07,0.033,0.07
					c0.021,0.025,0.032,0.011,0.032,0.011s0.039-0.155,0.229-0.329c0,0,0.046-0.053,0.064-0.079c0.021-0.026,0.052-0.032,0.067-0.05
					c0.013-0.018,0.062-0.064,0.081-0.062c0.018,0.002,0.02-0.021,0.002-0.03c-0.017-0.011-0.046-0.011-0.062-0.024
					c0,0-0.017-0.008-0.03,0.006c-0.013,0.013-0.166,0.125-0.31,0.313c0,0-0.048,0.069-0.079,0.114
					C24.366,32.815,24.384,32.815,24.366,32.835z"/>
				<path id="Rechterlijn_3_" fill="#C1C1C1" d="M25.079,32.065c0,0,0.002,0.068,0.027,0.098l0.021,0.03c0,0-0.005-0.05,0.006-0.081
					c0.012-0.031,0.021-0.102,0.146-0.184l0.188-0.146c0,0,0.134-0.076,0.168-0.065c0.023,0.007-0.065-0.062-0.065-0.062
					s-0.129,0.028-0.234,0.118C25.226,31.86,25.098,31.978,25.079,32.065z"/>
				<path id="Romp_5_" fill="#C1C1C1" d="M26.269,32.903c0,0,0.009,0.059,0.086,0.131c0.034,0.035,0.119,0.061,0.161,0.109
					c0.041,0.045,0.055,0.137,0.104,0.186c0.057,0.055,0.104,0.05,0.149,0.096c0.125,0.128,0.196,0.26,0.196,0.26
					s0.18,0.269,0.249,0.274c0.069,0.007-0.007,0.245,0.216,0.419c0,0-0.412,0.212-0.471,0.247
					c-0.061,0.035-0.212,0.097-0.279,0.118c-0.068,0.02-0.419,0.081-0.604-0.303c0,0,0.104-0.151,0.01-0.213
					c-0.095-0.061-0.222-0.043-0.222-0.043s-0.443-0.266-0.635-0.469C25.043,33.51,26.269,32.903,26.269,32.903z"/>
				<path id="nekring_3_" fill="#C1C1C1" d="M26.555,34.758c0,0,0.101-0.007,0.127-0.015c0.026-0.009,0.495-0.475,0.61-0.469
					c0,0,0.046-0.002,0-0.081l-0.021-0.078C27.272,34.114,26.71,34.155,26.555,34.758z"/>
				<path id="helm_3_" fill="#C1C1C1" d="M27.608,34.419c-0.216-0.238-0.495-0.271-0.731-0.057c-0.238,0.216-0.266,0.552-0.052,0.79
					c0.217,0.237,0.526,0.284,0.777,0.057C27.84,34.996,27.825,34.657,27.608,34.419z"/>
				<path id="helm_schaduw_3_" fill="#C1C1C1" d="M26.876,34.363c0.236-0.216,0.517-0.181,0.731,0.057
					c0.065,0.072,0.114,0.153,0.141,0.238c0.032,0.101,0.036,0.203,0.012,0.301c0,0-0.164-0.379-0.351-0.495
					C27.129,34.293,26.876,34.363,26.876,34.363z"/>
				<path fill="#C1C1C1" d="M27.52,34.44c-0.166-0.184-0.371-0.215-0.541-0.062c-0.168,0.153-0.18,0.401-0.014,0.585
					c0.166,0.183,0.396,0.226,0.571,0.065C27.704,34.875,27.686,34.624,27.52,34.44z"/>
				<path id="Rechterarm_5_" fill="#C1C1C1" d="M27.272,34.114c0,0,0.233-0.288,0.094-0.539c0,0,0.049-0.17-0.029-0.316
					c0,0-0.012-0.023,0.021-0.033c0.033-0.009,0.083-0.03,0.088-0.057c0,0,0.104,0.057,0.161-0.033c0,0,0.107-0.033,0.212-0.144
					c0,0-0.035-0.072-0.064-0.131c-0.03-0.06-0.056-0.074-0.046-0.14c0.009-0.066-0.049-0.049-0.049-0.049s-0.003-0.059-0.083,0.002
					c0,0-0.036-0.021-0.078,0.035c0,0-0.06-0.018-0.126,0.014c0,0-0.037-0.047-0.093,0.002c0,0-0.007,0.029-0.039-0.008
					c0,0-0.036-0.02-0.083,0.033c0,0-0.032-0.011-0.06,0.035c0,0-0.065,0.006-0.094,0.066c0,0-0.145,0.109-0.117,0.236
					c0,0-0.009,0.057-0.039,0.102c0,0-0.044,0.121-0.021,0.172c0,0-0.041,0.013-0.016,0.077c0,0,0.011,0.042-0.009,0.057H26.78
					c0,0,0.063,0.046,0.063,0.114c0,0,0.057,0.117,0.118,0.128c0,0,0.161,0.098,0.124,0.174c0,0-0.032,0.116,0.055,0.116
					C27.229,34.029,27.267,34.101,27.272,34.114z"/>
				<path id="leftarm_5_" fill="#C1C1C1" d="M26.474,34.799c0,0-0.23,0.155-0.471,0.097c0,0-0.157-0.012-0.258-0.18
					c0,0-0.078-0.002-0.09-0.106c0,0-0.057-0.021-0.083-0.048c0,0-0.046-0.054-0.106-0.051c0,0-0.141-0.023-0.154-0.188
					c0,0-0.09-0.053-0.037-0.125c0,0-0.042-0.125,0.046-0.292c0,0-0.044-0.196,0.198-0.429l0.115-0.133l0.153,0.06l0.011,0.048
					c0,0,0.085,0.096-0.022,0.168c0,0,0.116,0.107,0.021,0.242c0,0,0.039,0.059-0.051,0.131c0,0,0.083,0.037,0.034,0.135
					c0,0,0.004,0.026,0.024,0.031c0,0,0.02-0.018,0.067,0.021l0.041,0.018c0,0,0.018-0.07,0.152,0.021c0,0,0.046,0.097,0.115,0.043
					C26.256,34.208,26.692,34.531,26.474,34.799z"/>
				<path id="leftarm_4_" fill="#C1C1C1" d="M25.966,34.166c0,0,0.035-0.048,0.168,0.042c0,0,0.094,0.006,0.104,0.052
					c0,0-0.039,0.063-0.16,0.024c-0.122-0.039-0.111-0.062-0.153-0.024c0,0-0.097-0.071-0.146-0.073c0,0-0.062-0.062-0.122-0.037
					c-0.053,0.021,0.099-0.035,0.092-0.116s-0.053-0.14-0.053-0.14s0.06-0.049,0.063-0.104c0.004-0.058-0.051-0.101-0.013-0.157
					c0.04-0.057,0.07-0.092,0.052-0.122c-0.021-0.032-0.046-0.018-0.033-0.038l0.037-0.022c0,0,0.069,0.11,0.025,0.159
					c0,0,0.087,0.078-0.011,0.216c0,0,0.069,0.057-0.02,0.131c0,0,0.046,0.06,0,0.157c0,0,0.037,0.031,0.059,0.035l0.057,0.004
					L25.966,34.166z"/>
				<path id="Romp_4_" fill="#C1C1C1" d="M26.967,33.685c0,0-0.071-0.132-0.196-0.26c-0.046-0.048-0.096-0.044-0.15-0.096
					c-0.05-0.048-0.062-0.141-0.104-0.186c-0.044-0.049-0.122-0.092-0.159-0.127c-0.076-0.071-0.12-0.177-0.12-0.177
					c0.004,0.009-0.027,0.005-0.037,0.033c-0.025,0.089-0.066,0.267-0.02,0.236c0.061-0.04,0.113-0.021,0.113-0.021
					s0.195,0.106,0.195,0.174c0,0.068,0.083,0.116,0.087,0.123c0.005,0.004,0.153,0.103,0.16,0.225
					C26.736,33.61,26.928,33.627,26.967,33.685"/>
				<path id="Rechterarm_4_" fill="#C1C1C1" d="M26.904,33.61c-0.062-0.012-0.06-0.002-0.06-0.002
					c0.003-0.068-0.063-0.114-0.063-0.114h0.022c0.02-0.015,0.009-0.058,0.009-0.058c-0.026-0.062,0.015-0.075,0.015-0.075
					c-0.022-0.048,0.021-0.173,0.021-0.173c0.032-0.043,0.039-0.1,0.039-0.1c-0.026-0.127,0.117-0.236,0.117-0.236
					c0.027-0.061,0.094-0.067,0.094-0.067c0.029-0.046,0.06-0.035,0.06-0.035c0.046-0.052,0.083-0.033,0.083-0.033
					c0.032,0.037,0.039,0.007,0.039,0.007c0.056-0.049,0.092-0.003,0.092-0.003c0.067-0.03,0.127-0.013,0.127-0.013
					c0.041-0.057,0.078-0.035,0.078-0.035c0.08-0.061,0.083-0.002,0.083-0.002c0.043-0.009,0.043,0.014,0.048,0.028
					c0.005,0.018-0.078,0.048-0.182,0.069c-0.103,0.022-0.098,0.15-0.128,0.118c-0.031-0.034-0.153-0.036-0.231,0.024
					s0.021,0.168,0.021,0.168s-0.03-0.044-0.14-0.014c-0.109,0.028-0.12,0.272-0.093,0.348c0.03,0.074,0.063,0.125,0.063,0.125
					c-0.085,0.027,0.013,0.17,0.013,0.17C26.995,33.719,26.938,33.656,26.904,33.61z"/>
				<path id="armring_left_3_" fill="#C1C1C1" d="M25.649,34.618c0,0,0.249-0.258,0.226-0.469c0,0-0.032-0.021-0.062-0.026
					c0,0-0.017,0.12-0.067,0.228c-0.044,0.09-0.124,0.189-0.175,0.211C25.593,34.587,25.649,34.618,25.649,34.618L25.649,34.618"/>
				<path id="armring_right_3_" fill="#C1C1C1" d="M26.829,33.259c0,0,0.003-0.02,0.01-0.039c0.002-0.007,0.002-0.02,0.004-0.025
					c0.011-0.021,0.016-0.014,0.011-0.017c0,0,0.38,0.091,0.48,0.068c0,0,0.022,0.024,0.015,0.043
					C27.352,33.289,26.998,33.287,26.829,33.259z"/>
				<path opacity="0.1" fill="#C1C1C1" enable-background="new    " d="M27.432,35.05l-0.025-0.115c0,0-0.152,0.106-0.35,0.041
					C27.057,34.974,27.258,35.144,27.432,35.05z"/>
			</g>
		</g>
		<circle fill="#D6D6D6" cx="27.53" cy="36.119" r="0.262"/>
		<path fill="#C6C6C6" d="M27.53,36.381c-0.145,0-0.262-0.118-0.262-0.262s0.117-0.263,0.262-0.263c0,0-0.168,0.088-0.168,0.263
			S27.53,36.381,27.53,36.381z"/>
		<circle fill="#D6D6D6" cx="21.868" cy="32.955" r="0.166"/>
		<path fill="#C6C6C6" d="M21.857,33.121c-0.092-0.006-0.162-0.085-0.155-0.177c0.008-0.092,0.086-0.161,0.178-0.155
			c0,0-0.127,0.048-0.137,0.157C21.737,33.058,21.857,33.121,21.857,33.121z"/>
		<circle fill="#D6D6D6" cx="33.465" cy="37.529" r="0.166"/>
		<path fill="#C6C6C6" d="M33.454,37.694c-0.093-0.006-0.161-0.086-0.155-0.176c0.007-0.093,0.086-0.162,0.177-0.155
			c0,0-0.126,0.048-0.135,0.157C33.334,37.631,33.454,37.694,33.454,37.694z"/>
		<circle fill="#D6D6D6" cx="11.421" cy="43.699" r="0.165"/>
		<path fill="#C6C6C6" d="M11.411,43.864c-0.093-0.006-0.162-0.084-0.155-0.176c0.007-0.093,0.085-0.162,0.177-0.154
			c0,0-0.127,0.047-0.136,0.156C11.29,43.8,11.411,43.864,11.411,43.864z"/>
		<circle fill="#D6D6D6" cx="9.524" cy="37.529" r="0.166"/>
		<path fill="#C6C6C6" d="M9.514,37.694c-0.092-0.006-0.161-0.086-0.155-0.176c0.007-0.093,0.085-0.162,0.177-0.155
			c0,0-0.126,0.048-0.135,0.157C9.394,37.631,9.514,37.694,9.514,37.694z"/>
		<circle fill="#D6D6D6" cx="36.87" cy="41.638" r="0.166"/>
		<path fill="#C6C6C6" d="M36.858,41.804c-0.092-0.008-0.162-0.086-0.154-0.178c0.007-0.092,0.085-0.16,0.177-0.154
			c0,0-0.127,0.047-0.136,0.156C36.738,41.739,36.858,41.804,36.858,41.804z"/>
		<circle fill="#D6D6D6" cx="42.265" cy="41.472" r="0.166"/>
		<path fill="#C6C6C6" d="M42.254,41.638c-0.093-0.008-0.161-0.086-0.154-0.178c0.006-0.092,0.085-0.16,0.177-0.154
			c0,0-0.127,0.049-0.136,0.156C42.134,41.573,42.254,41.638,42.254,41.638z"/>
		<circle fill="#D6D6D6" cx="19.19" cy="47.267" r="0.166"/>
		<path fill="#C6C6C6" d="M19.18,47.433c-0.092-0.006-0.161-0.086-0.155-0.178c0.007-0.09,0.086-0.16,0.177-0.154
			c0,0-0.126,0.05-0.135,0.158C19.06,47.37,19.18,47.433,19.18,47.433z"/>
		<circle fill="#D6D6D6" cx="16.823" cy="46.186" r="0.359"/>
		<path fill="#C6C6C6" d="M16.799,46.544c-0.198-0.012-0.35-0.184-0.336-0.381c0.014-0.199,0.184-0.35,0.382-0.336
			c0,0-0.274,0.102-0.292,0.342C16.534,46.409,16.799,46.544,16.799,46.544z"/>
		<circle fill="#D6D6D6" cx="23.406" cy="46.91" r="0.304"/>
		<path fill="#C6C6C6" d="M23.387,47.212c-0.166-0.012-0.292-0.156-0.281-0.322c0.011-0.164,0.155-0.291,0.32-0.281
			c0,0-0.231,0.089-0.244,0.289C23.169,47.097,23.387,47.212,23.387,47.212z"/>
		<circle fill="#D6D6D6" cx="33.387" cy="46.187" r="0.203"/>
		<path fill="#C6C6C6" d="M33.373,46.388c-0.111-0.006-0.196-0.104-0.189-0.217c0.007-0.111,0.104-0.195,0.216-0.189
			c0,0-0.154,0.06-0.163,0.191C33.228,46.312,33.373,46.388,33.373,46.388z"/>
		<path fill="#D6D6D6" d="M28.61,47.78c-0.013,0.213-0.197,0.377-0.415,0.363c-0.214-0.015-0.377-0.197-0.363-0.414
			c0.014-0.218,0.198-0.377,0.415-0.365C28.462,47.38,28.623,47.565,28.61,47.78z"/>
		<path fill="#C6C6C6" d="M28.195,48.144c-0.214-0.014-0.377-0.196-0.363-0.414c0.014-0.217,0.198-0.377,0.415-0.364
			c0,0-0.3,0.11-0.316,0.369S28.195,48.144,28.195,48.144z"/>
		<circle fill="#D6D6D6" cx="28.545" cy="33.287" r="0.104"/>
		<path fill="#C6C6C6" d="M28.538,33.392c-0.058-0.004-0.102-0.052-0.099-0.11c0.004-0.058,0.052-0.102,0.111-0.099
			c0,0-0.083,0.035-0.088,0.104C28.46,33.356,28.538,33.392,28.538,33.392z"/>
		<circle fill="#D6D6D6" cx="35.547" cy="36.359" r="0.104"/>
		<path fill="#C6C6C6" d="M35.54,36.462c-0.058-0.004-0.102-0.052-0.099-0.111c0.004-0.057,0.052-0.101,0.111-0.098
			c0,0-0.083,0.035-0.088,0.105C35.462,36.427,35.54,36.462,35.54,36.462z"/>
		<circle fill="#D6D6D6" cx="8.515" cy="44.675" r="0.166"/>
		<path fill="#C6C6C6" d="M8.503,44.841c-0.092-0.008-0.161-0.086-0.154-0.178c0.006-0.092,0.085-0.16,0.177-0.154
			c0,0-0.127,0.049-0.136,0.156C8.384,44.776,8.503,44.841,8.503,44.841z"/>
		<circle fill="#D6D6D6" cx="7.76" cy="41.105" r="0.104"/>
		<path fill="#C6C6C6" d="M7.753,41.208c-0.058-0.006-0.102-0.053-0.1-0.111c0.005-0.057,0.054-0.102,0.111-0.1
			c0,0-0.083,0.035-0.087,0.105S7.753,41.208,7.753,41.208z"/>
		<circle fill="#D6D6D6" cx="38.722" cy="37.529" r="0.105"/>
		<path fill="#C6C6C6" d="M38.715,37.634c-0.058-0.004-0.102-0.053-0.099-0.111c0.004-0.057,0.053-0.101,0.111-0.098
			c0,0-0.083,0.035-0.088,0.104C38.637,37.599,38.715,37.634,38.715,37.634z"/>
		<circle fill="#D6D6D6" cx="19.533" cy="35.596" r="0.764"/>
		<path fill="#C6C6C6" d="M19.533,36.359c-0.421,0-0.764-0.343-0.764-0.765c0-0.421,0.343-0.764,0.764-0.764
			c0,0-0.472,0.257-0.472,0.764C19.062,36.103,19.533,36.359,19.533,36.359z"/>
		<circle fill="#D6D6D6" cx="12.388" cy="39.097" r="0.764"/>
		<path fill="#C6C6C6" d="M12.388,39.86c-0.422,0-0.764-0.342-0.764-0.764c0-0.421,0.342-0.765,0.764-0.765
			c0,0-0.472,0.258-0.472,0.765C11.916,39.604,12.388,39.86,12.388,39.86z"/>
		<circle fill="#D6D6D6" cx="31.872" cy="34.701" r="0.438"/>
		<path fill="#C6C6C6" d="M31.872,35.138c-0.242,0-0.438-0.197-0.438-0.438c0-0.242,0.196-0.438,0.438-0.438
			c0,0-0.307,0.146-0.307,0.438S31.872,35.138,31.872,35.138z"/>
		<circle fill="#AFAFAF" cx="25.305" cy="33.436" r="0.548"/>
		<path fill="#A0A0A0" d="M25.305,33.981c-0.301,0-0.548-0.245-0.548-0.547s0.244-0.549,0.548-0.549c0,0-0.408,0.184-0.408,0.549
			C24.896,33.798,25.305,33.981,25.305,33.981z"/>
		<circle fill="#D6D6D6" cx="9.945" cy="46.732" r="0.548"/>
		<path fill="#C6C6C6" d="M9.945,47.28c-0.301,0-0.547-0.244-0.547-0.549c0-0.302,0.244-0.547,0.547-0.547
			c0,0-0.407,0.184-0.407,0.547C9.536,47.097,9.945,47.28,9.945,47.28z"/>
		<circle fill="#C9C9C9" cx="37.142" cy="39.098" r="0.548"/>
		<path fill="#B7B7B7" d="M37.142,39.644c-0.301,0-0.548-0.244-0.548-0.549c0-0.301,0.245-0.547,0.548-0.547
			c0,0-0.408,0.184-0.408,0.547C36.733,39.46,37.142,39.644,37.142,39.644z"/>
		<circle fill="#D6D6D6" cx="14.7" cy="36.119" r="0.373"/>
		<path fill="#C6C6C6" d="M14.7,36.49c-0.205,0-0.373-0.166-0.373-0.373c0-0.205,0.166-0.373,0.373-0.373
			c0,0-0.304,0.124-0.304,0.373S14.7,36.49,14.7,36.49z"/>
		<circle fill="#D6D6D6" cx="38.741" cy="47.402" r="0.495"/>
		<path fill="#C6C6C6" d="M38.741,47.899c-0.274,0-0.494-0.224-0.494-0.496c0-0.273,0.223-0.494,0.494-0.494
			c0,0-0.402,0.166-0.405,0.494C38.335,47.731,38.741,47.899,38.741,47.899z"/>
		<circle fill="#D6D6D6" cx="33.631" cy="40.118" r="0.373"/>
		<path fill="#C6C6C6" d="M33.631,40.489c-0.205,0-0.373-0.166-0.373-0.373c0-0.205,0.166-0.373,0.373-0.373
			c0,0-0.304,0.125-0.304,0.373S33.631,40.489,33.631,40.489z"/>
		<circle fill="#D6D6D6" cx="24.406" cy="37.175" r="0.371"/>
		<path fill="#C6C6C6" d="M24.406,37.546c-0.205,0-0.37-0.166-0.37-0.371s0.166-0.371,0.37-0.371c0,0-0.315,0.148-0.315,0.396
			S24.406,37.546,24.406,37.546z"/>
		<circle fill="#D6D6D6" cx="40.428" cy="43.941" r="0.37"/>
		<path fill="#C6C6C6" d="M40.428,44.312c-0.205,0-0.371-0.164-0.371-0.369c0-0.207,0.166-0.371,0.371-0.371
			c0,0-0.316,0.147-0.316,0.395C40.109,44.212,40.428,44.312,40.428,44.312z"/>
		<circle fill="#D6D6D6" cx="13.958" cy="42.708" r="0.371"/>
		<path fill="#C6C6C6" d="M13.958,43.079c-0.205,0-0.371-0.166-0.371-0.371s0.166-0.371,0.371-0.371c0,0-0.316,0.148-0.316,0.396
			C13.642,42.979,13.958,43.079,13.958,43.079z"/>
		<circle fill="#D6D6D6" cx="9.509" cy="41.907" r="0.371"/>
		<path fill="#C6C6C6" d="M9.509,42.278c-0.205,0-0.37-0.166-0.37-0.371s0.165-0.371,0.37-0.371c0,0-0.316,0.148-0.316,0.396
			C9.192,42.179,9.509,42.278,9.509,42.278z"/>
		<circle fill="#D6D6D6" cx="4.77" cy="44.12" r="0.371"/>
		<path fill="#C6C6C6" d="M4.77,44.491c-0.205,0-0.37-0.166-0.37-0.371s0.165-0.371,0.37-0.371c0,0-0.315,0.148-0.315,0.395
			C4.454,44.392,4.77,44.491,4.77,44.491z"/>
		<g id="Astronaut_1_">
			<g>
				<g>
					<g>
						<path fill="#E8E8E8" d="M23.875,28.353c0.02-0.466,0.032-0.928,0.049-1.393c0.006-0.072,0.011-0.146,0.017-0.218
							c-0.054-0.224,0.049-0.48-0.146-0.672c-0.166-0.06-0.336-0.085-0.511-0.048c-0.261,0.164-0.213,0.426-0.222,0.67
							c-0.002,0.074,0.019,0.189-0.129,0.125c0.016,0.043,0.033,0.086,0.049,0.128c0.062,0.002,0.087,0.002,0.082,0.094
							c-0.022,0.56-0.032,1.119-0.046,1.678c0.012,0.007,0.024,0.013,0.035,0.021c0.018,0,0.035,0,0.053,0
							c0.218,0.011,0.438,0.021,0.652,0.033l0.087,0.006L23.875,28.353z"/>
					</g>
					<path fill="#FFFFFF" d="M22.98,26.946c0.062,0.002,0.088,0.002,0.083,0.094c-0.022,0.559-0.032,1.119-0.046,1.678
						c-0.106-0.025-0.144-0.085-0.14-0.199c0.021-0.457,0.027-0.912,0.042-1.369C22.922,27.075,22.918,27.001,22.98,26.946z"/>
					<path fill="#FFFFFF" d="M23.282,26.021c-0.26,0.164-0.212,0.427-0.221,0.67c-0.002,0.074,0.018,0.19-0.129,0.127
						c0.002-0.155,0.007-0.309,0.007-0.463C22.941,26.132,23.074,26.039,23.282,26.021z"/>
					<path fill="#FBFBFB" d="M23.053,28.738c0.018,0,0.035,0,0.053,0C23.088,28.738,23.07,28.738,23.053,28.738z"/>
					<path fill="#F8F8F8" d="M24.911,27.867c-0.005,0.015-0.007,0.028-0.012,0.042h-0.004c0.002-0.016,0.004-0.029,0.009-0.044
						L24.911,27.867z"/>
					<path fill="#F8F8F8" d="M24.893,27.952c0,0.004,0,0.007,0,0.011c0-0.004-0.003-0.006-0.003-0.011H24.893z"/>
				</g>
				<path id="Benen__x2F__schoenen_2_" fill="#FFFFFF" d="M23.204,28.777c0,0-0.03,0.018,0,0.067c0,0-0.039,0.03,0.011,0.07
					c0,0-0.062,0.074-0.025,0.096c0,0-0.067,0.035,0,0.081c0,0,0.004,0.089-0.018,0.145c0,0-0.037,0.091-0.015,0.174
					c0,0-0.018,0.04,0.019,0.059c0,0-0.028,0.033,0,0.072c0,0-0.023,0.035,0.007,0.07c0,0-0.016,0.048,0.007,0.064
					c0,0-0.021-0.002-0.018,0.031c0,0-0.017,0.062,0.022,0.074c0,0-0.006,0.02-0.006,0.065c0,0.045-0.007,0.104-0.025,0.125
					c-0.02,0.02-0.037,0.045-0.008,0.069c0.03,0.024,0.035,0.035,0.021,0.052c-0.013,0.019,0,0.039,0,0.039s-0.03,0.021-0.016,0.044
					c0.016,0.024-0.02,0.046-0.027,0.06c-0.009,0.013-0.053,0.146-0.04,0.216c0.014,0.069,0.062,0.174,0.04,0.233
					c-0.024,0.059,0.004,0.078,0.004,0.078s-0.094,0.051-0.048,0.146c0,0-0.013,0.094,0.004,0.152c0,0-0.048,0.037-0.017,0.07
					c0,0-0.04,0.042-0.004,0.085c0,0-0.018,0.083,0.015,0.118c0,0,0.015,0.016,0.013,0.102c-0.002,0.084,0.057,0.177,0.281,0.162
					c0.226-0.016,0.221-0.084,0.221-0.164c0,0-0.002-0.026-0.023-0.084c0,0,0.03,0.021,0.03-0.03c0,0-0.009-0.048-0.034-0.07
					c0,0,0.075-0.055,0.034-0.069c0,0,0.037-0.049,0.002-0.074c0,0,0.039,0.004,0.041-0.012c0.003-0.015,0-0.191,0-0.191
					s-0.006-0.021-0.029-0.01c0,0,0.02-0.061,0.002-0.082c0,0,0.044-0.079,0.014-0.086c0,0,0.074-0.02,0.057-0.062
					c0,0,0.058-0.025,0.048-0.104c0,0,0.045-0.024,0.028-0.1c0,0,0.056-0.124,0.021-0.168c0,0,0-0.105,0.03-0.14
					c0.03-0.032,0.083-0.076,0.028-0.101c0,0,0.041-0.039-0.005-0.085c0,0-0.002-0.131,0.028-0.161c0,0,0.042-0.051,0-0.07
					c0,0-0.016-0.081,0.018-0.125c0,0-0.011-0.06,0-0.086c0.011-0.025,0.044-0.098,0.058-0.138c0.016-0.038,0.044-0.122,0.044-0.122
					s-0.005,0.043,0.085,0.049c0,0,0.066,0.013-0.012,0.092c0,0-0.034,0.07,0.063,0.133c0,0,0.041,0.072,0,0.126
					c0,0-0.024,0.015,0.041,0.063c0,0,0.021,0.015,0.018,0.051c-0.004,0.037,0.044,0.092,0.044,0.092s-0.025,0.07-0.027,0.087
					c0,0.021,0.009,0.079,0.027,0.098c0,0-0.005,0.077,0.019,0.104c0,0-0.031,0.048-0.031,0.136c0,0.087-0.025,0.232,0.04,0.281
					c0,0,0.05,0.025,0.03,0.046c0,0-0.009,0.028,0.004,0.037c0,0-0.025,0.106,0.021,0.131c0,0,0.026,0.042,0,0.096
					c0,0-0.003,0.07,0.002,0.136s0.041,0.182,0.058,0.223c0.016,0.041,0.002,0.078,0.076,0.092c0,0,0.182,0.043,0.237,0.057
					c0.057,0.014,0.216,0.042,0.327-0.002c0,0,0.085-0.009,0.069-0.096S24.992,31.008,24.912,31c0,0-0.102,0-0.062-0.035
					c0,0,0.03-0.033-0.004-0.118c0,0-0.026-0.089-0.048-0.122c0,0,0.032-0.071-0.016-0.096c0,0,0.094-0.048,0.082-0.122
					c0,0-0.025-0.062,0-0.105c0,0,0.019-0.031,0.003-0.057c0,0,0.053-0.113,0-0.12l-0.014,0.009c0,0,0.078-0.23,0.03-0.252
					c0,0,0.037-0.093-0.018-0.095c0,0-0.03,0.002,0.002-0.046c0,0,0.018-0.07,0.005-0.092c-0.015-0.021,0.018-0.046,0-0.062
					c-0.019-0.019,0-0.072,0-0.072s0.039-0.074,0.062-0.07c0.024,0.004,0.024-0.072-0.021-0.1l-0.004-0.215
					c0,0-0.035-0.119,0.011-0.125c0.046-0.008,0.048-0.028,0.004-0.137c-0.046-0.104-0.043-0.091-0.235-0.087l-0.057-0.172
					c0,0,0-0.058-0.021-0.114c0,0-0.081-0.117-0.065-0.147l-1.306,0.069c0,0-0.021,0.041-0.005,0.078c0,0,0.012,0.019-0.013,0.026
					c0,0-0.021,0.018-0.007,0.069c0,0-0.037,0.014-0.021,0.062L23.204,28.777z"/>
				<g id="shaduw_linkerbeen_2_">
					<path fill="#E8E8E8" d="M23.221,30.948c0,0,0.281-0.042,0.308-0.127s0.042-0.196,0.042-0.196l-0.12-0.013l0.148-0.077
						c0,0,0.111-0.089,0.043-0.199c-0.067-0.108,0.055-0.31,0.055-0.31s0.085-0.256,0-0.316s-0.108-0.083-0.166-0.109
						c-0.057-0.025,0.263-0.084,0.263-0.084s0.069-0.123,0.032-0.182c-0.036-0.059,0.008-0.137,0.012-0.146
						c0.005-0.008-0.058-0.103-0.145-0.103c0,0,0-0.033-0.077-0.035c-0.075-0.004,0.026-0.118,0.378-0.03
						c0.125,0.03,0.254,0.125,0.244,0.157c-0.009,0.035-0.083,0.15-0.135,0.145c-0.122-0.013-0.134-0.091-0.134-0.091l0.029,0.032
						c0,0-0.029,0.083-0.044,0.122c-0.017,0.039-0.049,0.113-0.058,0.139c-0.009,0.023,0,0.084,0,0.084
						c-0.033,0.044-0.018,0.125-0.018,0.125c0.041,0.02,0,0.069,0,0.069c-0.03,0.03-0.028,0.161-0.028,0.161
						c0.046,0.046,0.004,0.085,0.004,0.085c0.055,0.024,0.002,0.068-0.027,0.102c-0.03,0.032-0.03,0.14-0.03,0.14
						c0.032,0.044-0.021,0.168-0.021,0.168c0.016,0.074-0.027,0.098-0.027,0.098c0.008,0.08-0.05,0.105-0.05,0.105
						c0.019,0.043-0.057,0.062-0.057,0.062c0.031,0.008-0.013,0.086-0.013,0.086c0.018,0.021-0.002,0.082-0.002,0.082
						c0.022-0.011,0.029,0.009,0.029,0.009l-0.044,0.004C23.609,30.907,23.484,31.015,23.221,30.948z"/>
				</g>
				<g id="shaduw_rechterbeen_2_">
					<path fill="#E8E8E8" d="M24.561,28.454c-0.016,0.03,0.065,0.148,0.065,0.148c0.021,0.057,0.021,0.112,0.021,0.112l0.058,0.172
						c0.191-0.004,0.189-0.017,0.235,0.087c0.046,0.104,0.041,0.127-0.005,0.135c-0.046,0.01-0.011,0.127-0.011,0.127l0.005,0.214
						c0.045,0.028,0.048,0.104,0.021,0.101c-0.025-0.004-0.062,0.07-0.062,0.07s-0.019,0.054,0,0.072
						c0.018,0.018-0.011,0.041,0,0.062s-0.004,0.092-0.004,0.092c-0.033,0.049-0.003,0.045-0.003,0.045
						c0.053,0.002,0.018,0.094,0.018,0.094c0.048,0.021-0.03,0.254-0.03,0.254l0.014-0.01c0.053,0.004,0,0.121,0,0.121
						c0.016,0.023-0.002,0.057-0.002,0.057c-0.026,0.042,0,0.104,0,0.104c0.011,0.074-0.083,0.122-0.083,0.122
						c0.048,0.024,0.016,0.097,0.016,0.097c0.021,0.032,0.048,0.123,0.048,0.123s-0.112,0.054-0.207,0.062
						c-0.094,0.009-0.205,0.042-0.104-0.068c0.1-0.108,0.28-0.091,0.168-0.273c0,0-0.231-0.074-0.051-0.188
						c0,0,0.145,0.011,0.038-0.098l-0.19-0.087l0.205-0.048c0,0,0.108-0.085,0.028-0.125c-0.081-0.039-0.143-0.249-0.028-0.3
						c0.114-0.05,0.069-0.119,0.064-0.193s-0.055-0.141-0.023-0.305c0.031-0.166-0.062-0.284-0.062-0.284l-0.103-0.091l0.062-0.025
						l-0.183-0.114c0,0,0.133,0.054,0.14,0.011c0.007-0.041-0.106-0.125-0.106-0.125s0.009-0.102,0.042-0.093L24.561,28.454z"/>
				</g>
				<g id="linkerschoen_2_">
					<path fill="#E8E8E8" d="M23.097,31.062c0,0-0.048,0.037-0.018,0.069c0,0-0.039,0.042-0.003,0.085c0,0-0.018,0.083,0.014,0.118
						c0,0,0.016,0.017,0.013,0.101c-0.002,0.086,0.058,0.178,0.282,0.162c0.224-0.015,0.22-0.082,0.22-0.164
						c0,0-0.002-0.025-0.023-0.082c0,0,0.03,0.021,0.03-0.031c0,0-0.009-0.049-0.035-0.07c0,0,0.076-0.055,0.035-0.07
						c0,0,0.037-0.048,0.002-0.074c0,0,0.039,0.005,0.042-0.011c0,0-0.011-0.161,0-0.191c0,0-0.007-0.024-0.03-0.009
						c0,0-0.141,0.158-0.532,0.015C23.092,30.909,23.06,31.022,23.097,31.062z"/>
				</g>
				<g id="Rechterschoen_2_">
					<path fill="#E8E8E8" d="M24.805,30.729c0.021,0.033,0.048,0.123,0.048,0.123c0.035,0.084,0.005,0.117,0.005,0.117
						c-0.042,0.035,0.062,0.035,0.062,0.035c0.081,0.009,0.156,0.207,0.175,0.294c0.018,0.087-0.069,0.097-0.069,0.097
						c-0.111,0.043-0.271,0.015-0.328,0.002c-0.057-0.014-0.236-0.058-0.236-0.058c-0.074-0.015-0.062-0.05-0.076-0.092
						c-0.017-0.042-0.051-0.157-0.058-0.224c-0.007-0.064-0.003-0.135-0.003-0.135c0.026-0.053,0-0.096,0-0.096
						s0.044,0.021,0.083,0.011c0,0-0.025,0.179,0.021,0.179s0.062-0.027,0.101-0.049C24.566,30.912,24.886,30.944,24.805,30.729z"/>
				</g>
				<path id="rechterbroekzak_2_" fill="#DBDBDB" d="M24.884,29.626c0,0-0.105-0.011-0.18,0.006c0,0-0.115-0.018-0.154-0.023
					c0,0-0.039-0.035-0.026-0.125s-0.066-0.273-0.078-0.314c0,0-0.083-0.164-0.007-0.191c0,0,0.214-0.051,0.266-0.09
					c0.192-0.004,0.19-0.017,0.236,0.088c0.046,0.104,0.041,0.125-0.005,0.135c-0.046,0.009-0.011,0.125-0.011,0.125l0.005,0.215
					c0.045,0.027,0.048,0.104,0.021,0.101c-0.025-0.004-0.062,0.07-0.062,0.07"/>
				<path id="Linkerlijn_2_" fill="#3986A8" d="M23.194,29.781c-0.037-0.015-0.022-0.074-0.022-0.074
					c-0.003-0.033,0.018-0.031,0.018-0.031s0.133,0.091,0.394,0.091c0,0,0.068,0.009,0.103,0.015
					c0.032,0.006,0.062-0.011,0.085-0.006c0.023,0.004,0.089,0.004,0.104-0.007c0.013-0.012,0.025,0.002,0.021,0.02
					c-0.004,0.018-0.025,0.04-0.028,0.059c0,0-0.007,0.019-0.025,0.019c-0.02,0-0.209,0.017-0.44-0.026c0,0-0.083-0.02-0.136-0.031
					C23.21,29.796,23.223,29.783,23.194,29.781z"/>
				<path id="Rechterlijn_2_" fill="#3986A8" d="M24.24,29.872c0,0-0.046-0.054-0.044-0.091l-0.005-0.035
					c0,0,0.031,0.04,0.061,0.055c0.028,0.016,0.083,0.062,0.23,0.037l0.235-0.018c0,0,0.149-0.033,0.17-0.065
					c0.013-0.021-0.004,0.092-0.004,0.092s-0.114,0.063-0.254,0.072C24.488,29.927,24.313,29.927,24.24,29.872z"/>
				<path id="Romp_3_" fill="#FFFFFF" d="M24.561,28.454c0,0-0.033-0.05-0.026-0.155c0.006-0.05,0.049-0.124,0.049-0.188
					c0-0.063-0.053-0.141-0.049-0.209c0.006-0.078,0.047-0.106,0.049-0.172c0.007-0.179-0.028-0.324-0.028-0.324
					s-0.048-0.318,0-0.371s-0.17-0.176-0.122-0.456c0,0-0.447,0.12-0.515,0.135c-0.07,0.015-0.224,0.07-0.286,0.101
					c-0.063,0.03-0.364,0.223-0.242,0.631c0,0,0.179,0.042,0.147,0.149c-0.027,0.109-0.135,0.182-0.135,0.182
					s-0.15,0.497-0.155,0.773C23.242,28.827,24.561,28.454,24.561,28.454z"/>
				<path id="nekring_2_" fill="#3986A8" d="M23.526,26.887c0,0,0.078-0.061,0.104-0.071c0.025-0.012,0.686,0.018,0.769-0.062
					c0,0,0.034-0.03,0.055,0.06l0.036,0.071C24.49,26.883,24.046,27.228,23.526,26.887z"/>
				<path id="helm_2_" fill="#FFFFFF" d="M24.534,26.429c0,0.321-0.184,0.535-0.506,0.535s-0.566-0.23-0.566-0.552
					s0.199-0.563,0.537-0.563C24.32,25.847,24.534,26.108,24.534,26.429z"/>
				<g id="helm_schaduw_2_">
					<path fill="#E8E8E8" d="M24.03,26.964c0.32,0,0.506-0.214,0.506-0.535c0-0.098-0.02-0.189-0.057-0.271
						c-0.043-0.097-0.107-0.175-0.193-0.231c0,0,0.136,0.392,0.073,0.603C24.264,26.847,24.03,26.964,24.03,26.964z"/>
				</g>
				<path fill="#0D3644" d="M24.454,26.474c0,0.246-0.132,0.409-0.357,0.409c-0.227,0-0.401-0.177-0.401-0.423
					c0-0.247,0.143-0.432,0.38-0.432C24.301,26.028,24.454,26.226,24.454,26.474z"/>
				<path id="Rechterarm_3_" fill="#FFFFFF" d="M24.49,26.883c0,0,0.367,0.058,0.434,0.336c0,0,0.147,0.095,0.188,0.257
					c0,0,0.01,0.022,0.039,0.008c0.031-0.016,0.083-0.035,0.104-0.018c0,0,0.04-0.111,0.143-0.083c0,0,0.104-0.046,0.253-0.034
					c0,0,0.021,0.076,0.039,0.14c0.019,0.062,0.009,0.092,0.062,0.135c0.052,0.044-0.003,0.067-0.003,0.067s0.037,0.047-0.062,0.056
					c0,0-0.014,0.041-0.083,0.026c0,0-0.031,0.052-0.103,0.073c0,0,0.004,0.062-0.07,0.062c0,0-0.026-0.019-0.026,0.031
					c0,0-0.015,0.039-0.082,0.03c0,0-0.018,0.028-0.067,0.015c0,0-0.053,0.039-0.113,0.014c0,0-0.179,0.015-0.244-0.096
					c0,0-0.044-0.037-0.096-0.049c0,0-0.114-0.061-0.129-0.112c0,0-0.04,0.018-0.063-0.046c0,0-0.02-0.037-0.044-0.037l-0.018,0.016
					c0,0,0.018-0.077-0.028-0.127c0,0-0.039-0.126,0-0.174c0,0,0.055-0.18-0.022-0.214c0,0-0.104-0.063-0.037-0.122
					C24.525,26.978,24.495,26.894,24.49,26.883z"/>
				<g>
					<path id="hand_3_" fill="#FFFFFF" d="M25.676,27.519c0,0-0.113-0.176,0.076-0.236c0,0,0.255-0.079,0.423,0.046
						c0,0,0.04,0.033-0.124,0.085c0,0-0.277,0.025-0.188,0.092c0,0,0.198-0.076,0.143,0.051c0,0-0.065,0.061-0.161,0.071
						c0,0-0.042,0.019-0.085,0.009C25.756,27.634,25.706,27.649,25.676,27.519z"/>
					<path id="schaduw_8_" fill="#DBDBDB" d="M25.756,27.634c0.044,0.01,0.086-0.009,0.086-0.009
						c0.096-0.011,0.161-0.072,0.161-0.072s-0.033,0.017-0.088,0.026c-0.065,0.013-0.145,0.027-0.161,0.03
						C25.736,27.606,25.71,27.631,25.756,27.634z"/>
					<path id="schaduw_5_" fill="#DBDBDB" d="M25.85,27.463c0,0,0.062-0.034,0.125-0.042c0.035-0.004,0.078-0.009,0.103-0.02
						c0.021-0.01,0.076-0.028,0.081-0.037c0.005-0.01-0.062-0.014-0.076-0.018C26.036,27.339,25.924,27.341,25.85,27.463z"/>
				</g>
				<path id="leftarm_3_" fill="#FFFFFF" d="M23.441,26.909c0,0-0.276,0.039-0.413,0.244c0,0-0.107,0.113-0.068,0.306
					c0,0-0.058,0.056,0.004,0.138c0,0-0.028,0.053-0.028,0.092c0,0,0.003,0.069-0.046,0.109c0,0-0.087,0.111,0.012,0.244
					c0,0-0.031,0.102,0.058,0.118c0,0,0.052,0.12,0.23,0.187c0,0,0.099,0.174,0.435,0.184l0.175,0.02l0.074-0.146l-0.024-0.044
					c0,0-0.002-0.128-0.128-0.109c0,0,0.015-0.156-0.148-0.191c0,0-0.012-0.069-0.127-0.063c0,0,0.037-0.081-0.062-0.125
					c0,0-0.016-0.021-0.002-0.039c0,0,0.025,0,0.035-0.062l0.02-0.041c0,0,0.062,0.039,0.098-0.118c0,0-0.027-0.104,0.061-0.109
					C23.677,27.494,23.781,26.961,23.441,26.909z"/>
				<g id="leftarm_2_">
					<path fill="#E8E8E8" d="M23.487,27.722c0,0,0.06,0.013,0.097-0.145c0,0,0.064-0.068,0.041-0.111c0,0-0.071-0.02-0.136,0.092
						c-0.063,0.11-0.039,0.123-0.096,0.119c0,0-0.021,0.118-0.06,0.153c0,0-0.005,0.087-0.065,0.108
						c-0.055,0.021,0.097-0.038,0.146,0.024c0.048,0.063,0.055,0.138,0.055,0.138s0.076-0.002,0.117,0.035
						c0.042,0.037,0.029,0.109,0.099,0.122c0.067,0.013,0.113,0.021,0.12,0.058c0.006,0.035-0.022,0.043,0.002,0.052l0.044-0.009
						c0,0-0.021-0.131-0.088-0.135c0,0,0.011-0.119-0.152-0.152c0,0,0.014-0.09-0.103-0.083c0,0-0.005-0.074-0.104-0.116
						c0,0,0.006-0.048,0.021-0.064l0.039-0.043L23.487,27.722z"/>
				</g>
				<g id="Romp_1_">
					<path fill="#E8E8E8" d="M24.554,27.404c0,0,0.035,0.146,0.028,0.325c-0.003,0.064-0.041,0.096-0.049,0.172
						c-0.004,0.067,0.049,0.144,0.049,0.208c0,0.063-0.028,0.149-0.032,0.2c-0.007,0.105,0.027,0.211,0.027,0.211
						c-0.002-0.011-0.023,0.017-0.048,0c-0.081-0.047-0.229-0.151-0.173-0.16c0.072-0.014,0.097-0.062,0.097-0.062
						s0.073-0.211,0.028-0.262c-0.046-0.05-0.018-0.143-0.018-0.148s0.043-0.179-0.033-0.271
						C24.432,27.614,24.562,27.476,24.554,27.404"/>
				</g>
				<g>
					<path fill="#EFEFEF" d="M23.62,28.528c0,0,0.17-0.021,0.225-0.17c0,0,0.101,0.018,0.138,0.061c0,0-0.007,0.031,0.021,0.062
						c0,0,0.104,0.109-0.035,0.229C23.967,28.711,23.684,28.84,23.62,28.528z"/>
					<path fill="#DBDBDB" d="M23.666,28.647c0.101,0.156,0.301,0.063,0.301,0.063c0.142-0.12,0.035-0.229,0.035-0.229
						c-0.026-0.032-0.021-0.062-0.021-0.062l-0.021,0.009l0.021,0.048L24,28.511l-0.093,0.159L23.666,28.647z"/>
				</g>
				<g id="Rechterarm_2_">
					<path fill="#E8E8E8" d="M24.556,27.503c-0.039,0.048-0.041,0.041-0.041,0.041c0.046,0.048,0.028,0.127,0.028,0.127l0.018-0.016
						c0.026-0.002,0.044,0.037,0.044,0.037c0.021,0.062,0.062,0.046,0.062,0.046c0.016,0.053,0.129,0.112,0.129,0.112
						c0.053,0.012,0.097,0.049,0.097,0.049c0.065,0.112,0.244,0.096,0.244,0.096c0.061,0.025,0.113-0.014,0.113-0.014
						c0.05,0.016,0.066-0.016,0.066-0.016c0.07,0.01,0.083-0.029,0.083-0.029c0-0.049,0.026-0.031,0.026-0.031
						c0.072,0,0.069-0.062,0.069-0.062c0.069-0.021,0.104-0.073,0.104-0.073c0.069,0.015,0.082-0.026,0.082-0.026
						c0.101-0.009,0.062-0.056,0.062-0.056c0.037-0.023,0.024-0.038,0.017-0.055c-0.009-0.015-0.09,0.019-0.183,0.07
						c-0.091,0.052-0.174-0.046-0.174,0s-0.088,0.131-0.188,0.138c-0.101,0.007-0.099-0.138-0.099-0.138s0.008,0.052-0.094,0.105
						c-0.101,0.052-0.271-0.121-0.301-0.196c-0.029-0.077-0.037-0.136-0.037-0.136c-0.083,0.037-0.104-0.136-0.104-0.136
						C24.552,27.358,24.552,27.444,24.556,27.503z"/>
				</g>
				<path id="armring_left_2_" fill="#3986A8" d="M22.95,27.599c0,0,0.357,0.024,0.48,0.199c0,0-0.012,0.037-0.028,0.061
					c0,0-0.095-0.078-0.203-0.121c-0.092-0.037-0.219-0.058-0.272-0.04C22.929,27.658,22.95,27.599,22.95,27.599L22.95,27.599"/>
				<path id="armring_right_2_" fill="#3986A8" d="M24.737,27.812c0,0,0.017,0.012,0.032,0.022c0.007,0.004,0.014,0.013,0.022,0.015
					c0.021,0.008,0.02,0,0.02,0.004c0,0,0.223-0.32,0.311-0.37c0,0,0.002-0.033-0.019-0.044
					C25.104,27.438,24.844,27.677,24.737,27.812z"/>
				<path opacity="0.1" fill="#FFFFFF" enable-background="new    " d="M23.982,26.082l0.06,0.104c0,0-0.187,0.024-0.286,0.205
					C23.753,26.39,23.788,26.128,23.982,26.082z"/>
			</g>
		</g>
		<g id="cracks_flag_1_">
			<polygon fill="#C1C1C1" points="25.687,31.537 25.802,31.653 25.922,31.696 25.9,31.782 25.944,31.681 25.815,31.624 
				25.791,31.504 			"/>
			<polygon fill="#C1C1C1" points="25.802,31.511 25.817,31.519 25.826,31.494 			"/>
			<polygon fill="#C1C1C1" points="25.586,31.568 25.602,31.56 25.586,31.537 			"/>
			<polygon fill="#C1C1C1" points="25.704,31.513 25.643,31.535 25.643,31.592 25.582,31.592 25.521,31.687 25.562,31.583 
				25.623,31.568 25.628,31.496 25.673,31.481 			"/>
			<polygon fill="#C1C1C1" points="25.824,31.433 25.824,31.467 25.959,31.433 26.044,31.45 26.116,31.339 26.188,31.363 
				26.252,31.317 26.188,31.358 26.116,31.328 26.107,31.326 26.038,31.428 25.966,31.404 			"/>
			<polygon fill="#C1C1C1" points="25.678,31.369 25.678,31.408 25.625,31.358 25.521,31.382 25.545,31.277 25.442,31.258 
				25.372,31.258 25.372,31.258 25.372,31.258 25.448,31.251 25.558,31.26 25.564,31.262 25.568,31.265 25.549,31.353 25.62,31.328 
							"/>
		</g>
		<g id="Flag_1_">
			<path fill="#FFFFFF" d="M26.302,25.076c0,0,0.186-0.179,0.759,0.106c0.574,0.286,1.659,0.228,1.792,0.109l-0.099,1.602
				c0,0-1.138,0.178-1.562-0.013c-0.426-0.19-0.579-0.286-0.799-0.262c-0.221,0.024-0.19,0.048-0.19,0.048L26.302,25.076z"/>
			<path fill="#DBDBDB" d="M25.805,31.472l0.395-6.43c0,0-0.046-0.092-0.11-0.006l-0.396,6.43l0.05,0.09L25.805,31.472z"/>
		</g>
		<g id="Rechterhand_V2_copy_2_1_">
			<path id="hand_2_" fill="#FFFFFF" d="M25.863,27.503c0,0,0.198-0.077,0.143,0.05c0,0-0.065,0.062-0.161,0.072
				c0,0-0.042,0.019-0.085,0.009c0,0-0.053,0.016-0.081-0.115"/>
			<path id="schaduw_4_" fill="#DBDBDB" d="M25.756,27.634c0.044,0.01,0.086-0.009,0.086-0.009c0.096-0.011,0.161-0.072,0.161-0.072
				s-0.033,0.017-0.088,0.026c-0.065,0.013-0.145,0.027-0.161,0.03C25.736,27.606,25.71,27.631,25.756,27.634z"/>
			<path id="schaduw_1_" fill="#DBDBDB" d="M25.85,27.463"/>
		</g>
		<g id="Logo_1_">
			<path fill="#2FB2C4" d="M27.611,25.84l0.58-0.292l-0.073,0.396l-0.342,0.147l0.279,0.187l-0.071,0.391l-0.461-0.354l-0.57,0.291
				l0.071-0.391l0.336-0.148l-0.274-0.186l0.071-0.391L27.611,25.84z"/>
			<polygon fill="#444394" points="27.523,26.312 26.95,26.603 27.021,26.213 27.587,25.962 			"/>
			<polygon fill="#37519E" points="27.587,25.962 28.056,26.274 27.981,26.667 27.523,26.312 			"/>
			<polygon fill="#2E9DC3" points="27.611,25.84 27.587,25.962 27.36,26.065 27.085,25.879 27.157,25.486 			"/>
		</g>
	</g>
</g>
</svg>
