<?xml version="1.0" encoding="UTF-8" standalone="no"?>
<svg width="144px" height="162px" viewBox="0 0 144 162" version="1.1" xmlns="http://www.w3.org/2000/svg" xmlns:xlink="http://www.w3.org/1999/xlink" xmlns:sketch="http://www.bohemiancoding.com/sketch/ns">
    <!-- Generator: Sketch 3.3.2 (12043) - http://www.bohemiancoding.com/sketch -->
    <title>Duxilio Logo Hexagon</title>
    <desc></desc>
    <defs></defs>
    <g id="Page-1" stroke="none" stroke-width="1" fill="none" fill-rule="evenodd" sketch:type="MSPage">
        <g id="Polygon-1-+-duxilio-logo" sketch:type="MSLayerGroup">
            <polygon id="Polygon-1" fill="#FFFFFF" sketch:type="MSShapeGroup" points="72 -1 143.014083 40 143.014083 122 72 163 0.98591689 122 0.98591689 40 "></polygon>
            <g id="duxilio-logo" transform="translate(32.000000, 37.000000)" sketch:type="MSShapeGroup">
                <path d="M39.9,26.2 L80.4,0.7 L80.4,31.7 L56.3,44.9 L80.4,57.9 L80.4,88.6 L39.9,63.2 L0,88.7 L0,58.1 L23.8,44.9 L0,31.7 L0,1 L39.9,26.2 L39.9,26.2 Z" id="Shape" fill="#2FB2C4"></path>
                <path d="M39.9,63.2 L0,88.7 L0,58.1 L39.9,35.9 L39.9,63.2 Z" id="Shape" fill="#444395"></path>
                <path d="M39.9,35.9 L80.4,57.9 L80.4,88.6 L39.9,63.2 L39.9,35.9 Z" id="Shape" fill="#37519F"></path>
                <path d="M39.9,26.2 L39.9,35.9 L23.8,44.9 L0,31.7 L0,1 L39.9,26.2 Z" id="Shape" fill="#309DC4"></path>
            </g>
        </g>
    </g>
</svg>