<?xml version="1.0" encoding="utf-8"?>
<!-- Generator: Adobe Illustrator 16.0.0, SVG Export Plug-In . SVG Version: 6.00 Build 0)  -->
<!DOCTYPE svg PUBLIC "-//W3C//DTD SVG 1.1//EN" "http://www.w3.org/Graphics/SVG/1.1/DTD/svg11.dtd">
<svg version="1.1" xmlns="http://www.w3.org/2000/svg" xmlns:xlink="http://www.w3.org/1999/xlink" x="0px" y="0px" width="50px"
	 height="50px" viewBox="0 0 50 50" enable-background="new 0 0 50 50" xml:space="preserve">
<g id="Layer_1">
</g>
<g id="Layer_2">
	<g>
		<g>
			<g>
				<defs>
					<path id="XMLID_1_" d="M749.992-971.792c-11.432,0-21.071,7.672-24.05,18.147h48.1
						C771.062-964.118,761.424-971.792,749.992-971.792z"/>
				</defs>
				<use xlink:href="#XMLID_1_"  overflow="visible" fill="#E8E8E8"/>
				<clipPath id="XMLID_3_">
					<use xlink:href="#XMLID_1_"  overflow="visible"/>
				</clipPath>
				<g id="Flag_2_" clip-path="url(#XMLID_3_)">
					<path fill="#C1C1C1" d="M755.33-969.622c0,0,0.004,0.031,0.119-0.11c0.115-0.144,0.117-0.293,0.175-0.677
						c0.058-0.382,0.692-1.099,0.692-1.099l1.164,0.65c-0.142,0.04-0.67,0.772-0.728,1.304c-0.058,0.527-0.266,0.578-0.266,0.578
						L755.33-969.622z"/>
					<path fill="#C1C1C1" d="M751.703-971.495l0.041,0.076l4.675,2.61c0.089-0.006,0.046-0.08,0.046-0.08l-4.675-2.611
						L751.703-971.495z"/>
				</g>
			</g>
		</g>
		<g id="Astronaut_shaduw_1_">
			<g id="Backpack_copy_1_">
			</g>
			<g id="Rechterhand_V2_copy_1_">
			</g>
			<g id="linkerhand_copy_1_">
			</g>
			<g>
				<path fill="#C1C1C1" d="M751.771-969.561c0.325,0.332,0.646,0.666,0.969,1c0.053,0.05,0.104,0.1,0.159,0.15
					c0.109,0.201,0.358,0.323,0.343,0.596c-0.085,0.155-0.192,0.288-0.347,0.38c-0.302,0.052-0.443-0.172-0.613-0.349
					c-0.053-0.055-0.113-0.153-0.181-0.009c-0.018-0.042-0.033-0.085-0.051-0.126c0.044-0.043,0.063-0.061-0.002-0.125
					c-0.393-0.397-0.774-0.807-1.161-1.213c0.005-0.013,0.009-0.026,0.014-0.04c0.013-0.011,0.025-0.024,0.039-0.037
					c0.154-0.155,0.308-0.308,0.462-0.462l0.062-0.061L751.771-969.561z"/>
				<path fill="#C1C1C1" d="M752.052-967.917c0.044-0.043,0.063-0.061-0.002-0.125c-0.393-0.397-0.774-0.807-1.161-1.213
					c-0.061,0.092-0.05,0.159,0.033,0.242c0.32,0.323,0.635,0.657,0.951,0.986C751.923-967.974,751.969-967.915,752.052-967.917z"/>
				<path fill="#C1C1C1" d="M752.896-967.435c-0.301,0.052-0.443-0.172-0.613-0.349c-0.052-0.055-0.113-0.153-0.181-0.009
					c0.104,0.113,0.211,0.225,0.316,0.338C752.571-967.289,752.73-967.307,752.896-967.435z"/>
				<path fill="#C1C1C1" d="M750.902-969.294c0.013-0.011,0.026-0.024,0.039-0.037C750.929-969.318,750.915-969.305,750.902-969.294
					z"/>
				<path fill="#C1C1C1" d="M752.866-969.898c-0.014-0.009-0.024-0.016-0.037-0.024l-0.002,0.005
					c0.011,0.009,0.023,0.017,0.034,0.026L752.866-969.898z"/>
				<path fill="#C1C1C1" d="M752.792-969.946c-0.002-0.002-0.005-0.005-0.009-0.007c0.002,0.004,0.004,0.007,0.007,0.011
					L752.792-969.946z"/>
				<path id="hand_5_" fill="#C1C1C1" d="M753.667-970.149c0,0,0.032,0.205,0.214,0.124c0,0,0.242-0.113,0.283-0.316
					c0,0,0.009-0.05-0.148,0.022c0,0-0.223,0.166-0.2,0.059c0,0,0.198-0.076,0.071-0.131c0,0-0.089-0.002-0.168,0.055
					c0,0-0.043,0.015-0.069,0.05C753.647-970.292,753.599-970.268,753.667-970.149z"/>
				<path id="schaduw_10_" fill="#C1C1C1" d="M753.647-970.292c0.025-0.037,0.069-0.05,0.069-0.05
					c0.079-0.057,0.168-0.054,0.168-0.054s-0.035,0.011-0.081,0.039c-0.057,0.035-0.126,0.077-0.139,0.087
					C753.651-970.259,753.614-970.259,753.647-970.292z"/>
				<path id="schaduw_9_" fill="#C1C1C1" d="M753.83-970.228c0,0,0.07-0.015,0.12-0.052c0.028-0.02,0.063-0.046,0.09-0.053
					c0.021-0.006,0.076-0.03,0.085-0.026s-0.037,0.052-0.046,0.063C754.053-970.261,753.968-970.187,753.83-970.228z"/>
				<path fill="#C1C1C1" d="M751.463-969.519c0,0,0.14-0.098,0.279-0.026c0,0,0.063-0.081,0.062-0.138c0,0-0.026-0.018-0.028-0.059
					c0,0,0.004-0.151-0.182-0.146C751.596-969.888,751.3-969.792,751.463-969.519z"/>
				<path fill="#C1C1C1" d="M751.417-969.639c-0.028-0.182,0.179-0.249,0.179-0.249c0.186-0.006,0.182,0.146,0.182,0.146
					c0.002,0.041,0.028,0.059,0.028,0.059l-0.021,0.009l-0.016-0.05l-0.009-0.037l-0.175-0.057L751.417-969.639z"/>
				<path id="Benen__x2F__schoenen_3_" fill="#C1C1C1" d="M750.987-969.423c0,0-0.035,0.009-0.046-0.05c0,0-0.05,0.004-0.039-0.059
					c0,0-0.094-0.013-0.083-0.054c0,0-0.074,0.02-0.055-0.059c0,0-0.057-0.067-0.109-0.096c0,0-0.089-0.042-0.126-0.12
					c0,0-0.039-0.018-0.028-0.055c0,0-0.044-0.004-0.048-0.055c0,0-0.04-0.009-0.042-0.057c0,0-0.044-0.024-0.039-0.052
					c0,0-0.014,0.013-0.033-0.011c0,0-0.05-0.035-0.032-0.069c0,0-0.018-0.011-0.051-0.044c-0.03-0.035-0.076-0.074-0.103-0.074
					c-0.025,0-0.057-0.009-0.052-0.048c0.007-0.039,0.002-0.05-0.02-0.053c-0.022-0.002-0.026-0.028-0.026-0.028
					s-0.035,0.007-0.039-0.021c-0.005-0.028-0.046-0.02-0.062-0.026c-0.015-0.004-0.135-0.074-0.175-0.133
					c-0.039-0.059-0.069-0.173-0.128-0.201c-0.058-0.028-0.049-0.061-0.049-0.061s-0.104,0.026-0.133-0.076
					c0,0-0.074-0.061-0.101-0.116c0,0-0.061,0.004-0.061-0.042c0,0-0.057-0.004-0.06-0.061c0,0-0.067-0.05-0.069-0.096
					c0,0,0-0.022-0.059-0.083c-0.06-0.062-0.077-0.17,0.098-0.31c0.177-0.14,0.221-0.087,0.272-0.026c0,0,0.018,0.021,0.04,0.076
					c0,0,0.006-0.037,0.043,0.002c0,0,0.026,0.042,0.022,0.077c0,0,0.094-0.011,0.074,0.028c0,0,0.061,0.011,0.052,0.052
					c0,0,0.024-0.03,0.039-0.02c0.014,0.009,0.129,0.142,0.129,0.142s0.009,0.02-0.018,0.026c0,0,0.055,0.03,0.058,0.059
					c0,0,0.085,0.028,0.067,0.054c0,0,0.067-0.037,0.085,0.009c0,0,0.059-0.02,0.104,0.046c0,0,0.048-0.013,0.088,0.055
					c0,0,0.124,0.055,0.128,0.109c0,0,0.072,0.081,0.118,0.083s0.113,0,0.09,0.055c0,0,0.059,0,0.055,0.065
					c0,0,0.085,0.098,0.128,0.103c0,0,0.065,0.009,0.046,0.052c0,0,0.044,0.07,0.097,0.079c0,0,0.032,0.052,0.057,0.063
					c0.023,0.011,0.098,0.044,0.135,0.063s0.113,0.061,0.113,0.061s-0.03-0.028,0.031-0.091c0,0,0.041-0.055-0.07-0.062
					c0,0-0.074-0.028-0.041-0.142c0,0-0.018-0.083-0.085-0.094c0,0-0.026,0.004-0.012-0.074c0,0,0.007-0.024-0.021-0.052
					c-0.028-0.026-0.028-0.098-0.028-0.098s-0.067-0.033-0.081-0.046c-0.013-0.013-0.046-0.065-0.046-0.092
					c0,0-0.054-0.052-0.057-0.087c0,0-0.055-0.015-0.113-0.081s-0.177-0.155-0.161-0.236c0,0,0.02-0.054-0.009-0.054
					c0,0-0.026-0.016-0.021-0.031c0,0-0.092-0.061-0.072-0.111c0,0-0.009-0.05-0.063-0.07c0,0-0.05-0.05-0.09-0.103
					c-0.039-0.052,0.114-0.101,0.097-0.142c-0.018-0.042-0.103-0.148-0.06-0.209c0,0-0.048-0.126-0.015-0.175
					c0.032-0.048,0.131-0.177,0.244-0.218c0,0,0.069-0.05,0.115,0.024c0.046,0.076,0.062,0.279,0.007,0.34
					c0,0-0.013,0.063,0.042,0.062c0,0,0.004,0.078,0.034,0.164c0,0,0.081,0.009,0.088,0.048c0,0,0.071,0.031,0.055,0.083
					c0,0,0.006,0.094,0.048,0.157c0,0,0.108-0.007,0.157,0.008c0,0,0.061,0.005,0.065,0.031c0,0,0.1,0.004,0.062,0.043l-0.015,0.002
					c0,0,0.214,0.118,0.191,0.166c0,0,0.09,0.044,0.051,0.081c0,0-0.024,0.018,0.032,0.03c0,0,0.06,0.04,0.065,0.063
					c0.007,0.024,0.044,0.022,0.044,0.048c-0.002,0.026,0.048,0.055,0.048,0.055s0.079,0.031,0.094,0.009
					c0.016-0.022,0.065,0.037,0.051,0.089l0.14,0.16c0,0,0.054,0.111,0.094,0.087c0.039-0.026,0.057-0.011,0.094,0.098
					c0.037,0.109,0.03,0.098-0.116,0.223l0.074,0.166c0,0,0.037,0.042,0.06,0.098c0,0,0.02,0.142,0.052,0.155l-1.015,0.823
					c0,0-0.043-0.018-0.055-0.055c0,0-0.002-0.02-0.028-0.011c0,0-0.025,0-0.052-0.046c0,0-0.035,0.015-0.055-0.031L750.987-969.423
					z"/>
				<path id="shaduw_linkerbeen_3_" fill="#C1C1C1" d="M749.543-971.044c0,0,0.237-0.159,0.312-0.114
					c0.077,0.044,0.162,0.118,0.162,0.118l-0.081,0.092l0.161-0.041c0,0,0.145-0.009,0.166,0.118s0.249,0.194,0.249,0.194
					s0.233,0.131,0.214,0.236c-0.02,0.103-0.026,0.133-0.051,0.192c-0.023,0.059,0.251-0.113,0.251-0.113s0.136,0.043,0.146,0.111
					c0.014,0.067,0.099,0.098,0.104,0.1c0.009,0.002,0.026,0.114-0.039,0.172c0,0,0.021,0.024-0.032,0.079
					c-0.055,0.055,0.098,0.07,0.301-0.231c0.072-0.107,0.104-0.262,0.076-0.282c-0.03-0.02-0.163-0.054-0.196-0.018
					c-0.083,0.092-0.037,0.157-0.037,0.157l-0.002-0.043c0,0-0.076-0.042-0.113-0.062c-0.037-0.02-0.111-0.052-0.136-0.063
					c-0.023-0.011-0.057-0.063-0.057-0.063c-0.055-0.011-0.096-0.079-0.096-0.079c0.018-0.041-0.046-0.052-0.046-0.052
					c-0.044-0.002-0.129-0.1-0.129-0.1c0.004-0.065-0.055-0.065-0.055-0.065c0.024-0.055-0.044-0.053-0.089-0.055
					c-0.046-0.002-0.118-0.083-0.118-0.083c-0.005-0.055-0.129-0.109-0.129-0.109c-0.039-0.065-0.087-0.055-0.087-0.055
					c-0.046-0.063-0.105-0.046-0.105-0.046c-0.015-0.043-0.085-0.009-0.085-0.009c0.018-0.026-0.067-0.054-0.067-0.054
					c-0.002-0.026-0.057-0.059-0.057-0.059c0.024-0.006,0.018-0.026,0.018-0.026l-0.037,0.026
					C749.859-971.273,749.695-971.269,749.543-971.044z"/>
				<path id="shaduw_rechterbeen_3_" fill="#C1C1C1" d="M752.211-970.095c-0.03-0.013-0.052-0.155-0.052-0.155
					c-0.022-0.057-0.059-0.098-0.059-0.098l-0.074-0.166c0.146-0.125,0.152-0.114,0.115-0.223c-0.037-0.109-0.055-0.122-0.094-0.098
					c-0.039,0.026-0.094-0.087-0.094-0.087l-0.14-0.159c0.013-0.053-0.035-0.109-0.051-0.09c-0.015,0.02-0.094-0.009-0.094-0.009
					s-0.05-0.028-0.048-0.054c0.002-0.026-0.037-0.024-0.044-0.048c-0.006-0.023-0.065-0.063-0.065-0.063
					c-0.057-0.013-0.032-0.031-0.032-0.031c0.039-0.037-0.05-0.081-0.05-0.081c0.021-0.048-0.192-0.166-0.192-0.166l0.016-0.002
					c0.034-0.04-0.081-0.046-0.081-0.046c-0.005-0.026-0.063-0.033-0.063-0.033c-0.048-0.013-0.144,0.013-0.144,0.013
					c-0.042-0.063-0.049-0.177-0.049-0.177c0.021-0.05-0.054-0.083-0.054-0.083c-0.007-0.039-0.143-0.083-0.143-0.083
					s-0.025-0.004-0.103,0.05c-0.076,0.055-0.181,0.107-0.032,0.12c0.146,0.013,0.271-0.12,0.31,0.092c0,0-0.122,0.209,0.09,0.174
					c0,0,0.1-0.105,0.094,0.048l-0.085,0.194l0.186-0.103c0,0,0.137-0.009,0.104,0.074c-0.033,0.083,0.063,0.279,0.179,0.24
					c0.115-0.039,0.131,0.044,0.179,0.099c0.048,0.057,0.053,0.14,0.188,0.242c0.134,0.103,0.145,0.251,0.145,0.251l-0.016,0.135
					l0.065-0.022l-0.059,0.207c0,0,0.063-0.128,0.096-0.103c0.031,0.026,0.005,0.164,0.005,0.164s0.074,0.069,0.094,0.039
					L752.211-970.095z"/>
				<path id="linkerschoen_3_" fill="#C1C1C1" d="M749.375-971.044c0,0-0.062,0.004-0.062-0.042c0,0-0.057-0.004-0.059-0.061
					c0,0-0.067-0.05-0.07-0.096c0,0,0-0.022-0.059-0.083s-0.076-0.17,0.099-0.31c0.177-0.14,0.22-0.087,0.272-0.026
					c0,0,0.018,0.022,0.039,0.077c0,0,0.007-0.037,0.044,0.002c0,0,0.026,0.042,0.021,0.076c0,0,0.094-0.011,0.074,0.028
					c0,0,0.062,0.011,0.053,0.053c0,0,0.023-0.031,0.039-0.02c0,0,0.101,0.126,0.129,0.142c0,0,0.011,0.024-0.018,0.026
					c0,0-0.212-0.024-0.403,0.347C749.473-970.929,749.375-970.989,749.375-971.044z"/>
				<path id="Rechterschoen_3_" fill="#C1C1C1" d="M750.786-972.002c-0.006-0.039-0.015-0.031-0.015-0.031
					c-0.03-0.085-0.03-0.126-0.03-0.126c-0.055,0.002-0.044-0.109-0.044-0.109c0.052-0.061,0.044-0.218-0.002-0.292
					c-0.046-0.076-0.116-0.024-0.116-0.024c-0.111,0.043-0.212,0.17-0.244,0.218c-0.033,0.048,0.016,0.174,0.016,0.174
					c-0.044,0.061,0.002,0.14,0.02,0.179c0.018,0.041-0.02,0.124-0.06,0.172c-0.041,0.053,0.09,0.103,0.09,0.103
					c0.057,0.022,0.063,0.07,0.063,0.07s0.018-0.046,0.055-0.065c0,0-0.138-0.116-0.107-0.146c0.033-0.033,0.065-0.02,0.109-0.03
					C750.562-971.919,750.701-972.214,750.786-972.002z"/>
				<path id="rechterbroekzak_3_" fill="#C1C1C1" d="M751.664-971.182c0,0-0.072,0.079-0.138,0.116c0,0-0.074,0.089-0.099,0.122
					c0,0-0.006,0.052,0.063,0.109c0.07,0.057,0.133,0.247,0.152,0.286c0,0,0.051,0.177,0.125,0.148c0,0,0.194-0.107,0.258-0.113
					c0.146-0.125,0.152-0.114,0.115-0.223c-0.037-0.109-0.055-0.122-0.094-0.098c-0.039,0.026-0.094-0.087-0.094-0.087l-0.14-0.159
					c0.013-0.053-0.035-0.109-0.051-0.09c-0.015,0.02-0.094-0.009-0.094-0.009"/>
				<path id="Linkerlijn_3_" fill="#C1C1C1" d="M750.309-970.163c-0.018,0.035,0.033,0.07,0.033,0.07
					c0.02,0.026,0.032,0.011,0.032,0.011s0.039-0.155,0.229-0.329c0,0,0.046-0.053,0.065-0.079c0.02-0.026,0.052-0.033,0.067-0.05
					c0.013-0.018,0.063-0.065,0.081-0.063c0.018,0.002,0.02-0.02,0.002-0.03c-0.016-0.011-0.046-0.011-0.062-0.024
					c0,0-0.017-0.008-0.03,0.005c-0.013,0.013-0.166,0.126-0.31,0.314c0,0-0.048,0.07-0.079,0.114
					C750.309-970.182,750.326-970.182,750.309-970.163z"/>
				<path id="Rechterlijn_3_" fill="#C1C1C1" d="M751.021-970.933c0,0,0.002,0.069,0.028,0.098l0.02,0.03
					c0,0-0.005-0.05,0.006-0.081c0.012-0.031,0.022-0.101,0.146-0.184l0.188-0.146c0,0,0.134-0.076,0.168-0.065
					c0.024,0.006-0.065-0.063-0.065-0.063s-0.129,0.028-0.235,0.118C751.168-971.138,751.04-971.02,751.021-970.933z"/>
				<path id="Romp_5_" fill="#C1C1C1" d="M752.211-970.095c0,0,0.009,0.059,0.086,0.131c0.034,0.035,0.119,0.061,0.161,0.109
					c0.041,0.046,0.055,0.137,0.104,0.186c0.057,0.055,0.104,0.05,0.15,0.096c0.125,0.128,0.196,0.259,0.196,0.259
					s0.18,0.269,0.249,0.275c0.07,0.007-0.007,0.245,0.216,0.419c0,0-0.412,0.212-0.471,0.247c-0.06,0.035-0.212,0.096-0.279,0.118
					c-0.068,0.02-0.419,0.081-0.603-0.303c0,0,0.104-0.151,0.009-0.212c-0.094-0.061-0.221-0.043-0.221-0.043
					s-0.444-0.266-0.635-0.469C750.985-969.488,752.211-970.095,752.211-970.095z"/>
				<path id="nekring_3_" fill="#C1C1C1" d="M752.497-968.24c0,0,0.101-0.007,0.127-0.015c0.026-0.009,0.495-0.474,0.61-0.469
					c0,0,0.046-0.002,0-0.081l-0.02-0.078C753.215-968.884,752.652-968.843,752.497-968.24z"/>
				<path id="helm_3_" fill="#C1C1C1" d="M753.551-968.579c-0.216-0.238-0.495-0.272-0.732-0.057
					c-0.238,0.216-0.265,0.552-0.051,0.79c0.216,0.238,0.526,0.284,0.777,0.057C753.782-968.002,753.768-968.341,753.551-968.579z"
					/>
				<path id="helm_schaduw_3_" fill="#C1C1C1" d="M752.818-968.635c0.237-0.216,0.517-0.181,0.732,0.057
					c0.065,0.072,0.114,0.153,0.14,0.238c0.033,0.101,0.037,0.203,0.012,0.301c0,0-0.164-0.379-0.35-0.495
					C753.071-968.705,752.818-968.635,752.818-968.635z"/>
				<path fill="#C1C1C1" d="M753.462-968.557c-0.166-0.184-0.371-0.216-0.541-0.063c-0.168,0.153-0.18,0.401-0.014,0.585
					c0.166,0.183,0.396,0.225,0.572,0.065C753.647-968.123,753.628-968.374,753.462-968.557z"/>
				<path id="Rechterarm_5_" fill="#C1C1C1" d="M753.215-968.884c0,0,0.233-0.288,0.094-0.539c0,0,0.048-0.17-0.03-0.316
					c0,0-0.011-0.024,0.021-0.033c0.033-0.009,0.083-0.031,0.088-0.057c0,0,0.103,0.057,0.161-0.033c0,0,0.107-0.033,0.212-0.144
					c0,0-0.035-0.072-0.065-0.131c-0.03-0.059-0.055-0.074-0.046-0.14c0.009-0.066-0.048-0.048-0.048-0.048
					s-0.003-0.059-0.083,0.002c0,0-0.037-0.022-0.079,0.035c0,0-0.059-0.018-0.126,0.013c0,0-0.037-0.046-0.092,0.002
					c0,0-0.007,0.03-0.039-0.007c0,0-0.037-0.02-0.083,0.033c0,0-0.033-0.011-0.06,0.035c0,0-0.065,0.006-0.094,0.067
					c0,0-0.144,0.109-0.117,0.236c0,0-0.009,0.057-0.039,0.101c0,0-0.044,0.122-0.021,0.172c0,0-0.041,0.013-0.015,0.077
					c0,0,0.011,0.042-0.009,0.057h-0.022c0,0,0.063,0.046,0.063,0.114c0,0,0.057,0.118,0.118,0.128c0,0,0.161,0.098,0.124,0.174
					c0,0-0.032,0.116,0.055,0.116C753.172-968.969,753.209-968.897,753.215-968.884z"/>
				<path id="leftarm_5_" fill="#C1C1C1" d="M752.416-968.199c0,0-0.23,0.155-0.471,0.096c0,0-0.157-0.011-0.258-0.179
					c0,0-0.078-0.002-0.089-0.107c0,0-0.057-0.02-0.083-0.048c0,0-0.046-0.053-0.107-0.05c0,0-0.14-0.024-0.154-0.188
					c0,0-0.09-0.052-0.037-0.125c0,0-0.042-0.125,0.046-0.292c0,0-0.044-0.196,0.198-0.428l0.115-0.133l0.153,0.059l0.011,0.048
					c0,0,0.085,0.096-0.022,0.168c0,0,0.116,0.107,0.021,0.242c0,0,0.039,0.059-0.051,0.131c0,0,0.083,0.037,0.035,0.135
					c0,0,0.004,0.026,0.024,0.031c0,0,0.02-0.018,0.067,0.021l0.041,0.018c0,0,0.018-0.07,0.153,0.022c0,0,0.046,0.096,0.115,0.042
					C752.198-968.79,752.635-968.467,752.416-968.199z"/>
				<path id="leftarm_4_" fill="#C1C1C1" d="M751.908-968.832c0,0,0.035-0.048,0.168,0.042c0,0,0.094,0.006,0.104,0.052
					c0,0-0.039,0.063-0.161,0.024c-0.122-0.039-0.111-0.063-0.153-0.024c0,0-0.096-0.072-0.146-0.074c0,0-0.062-0.061-0.122-0.037
					c-0.053,0.022,0.098-0.035,0.091-0.116c-0.006-0.081-0.052-0.14-0.052-0.14s0.059-0.048,0.063-0.104
					c0.004-0.057-0.051-0.101-0.012-0.157c0.04-0.057,0.07-0.092,0.051-0.122c-0.02-0.033-0.046-0.018-0.033-0.039l0.037-0.022
					c0,0,0.07,0.111,0.026,0.159c0,0,0.087,0.079-0.011,0.216c0,0,0.069,0.057-0.02,0.131c0,0,0.046,0.059,0,0.157
					c0,0,0.037,0.031,0.059,0.035l0.057,0.004L751.908-968.832z"/>
				<path id="Romp_4_" fill="#C1C1C1" d="M752.909-969.314c0,0-0.071-0.131-0.196-0.259c-0.046-0.048-0.096-0.044-0.15-0.096
					c-0.05-0.048-0.063-0.14-0.104-0.186c-0.044-0.048-0.122-0.091-0.159-0.126c-0.076-0.072-0.12-0.177-0.12-0.177
					c0.004,0.009-0.028,0.004-0.037,0.033c-0.026,0.089-0.067,0.266-0.02,0.236c0.061-0.04,0.113-0.02,0.113-0.02
					s0.196,0.106,0.196,0.174s0.083,0.116,0.087,0.122c0.005,0.004,0.153,0.103,0.16,0.225
					C752.679-969.388,752.87-969.371,752.909-969.314"/>
				<path id="Rechterarm_4_" fill="#C1C1C1" d="M752.847-969.388c-0.062-0.011-0.06-0.002-0.06-0.002
					c0.003-0.068-0.063-0.114-0.063-0.114h0.022c0.02-0.015,0.009-0.057,0.009-0.057c-0.026-0.063,0.015-0.076,0.015-0.076
					c-0.023-0.048,0.021-0.172,0.021-0.172c0.032-0.043,0.039-0.1,0.039-0.1c-0.026-0.127,0.117-0.236,0.117-0.236
					c0.028-0.061,0.094-0.068,0.094-0.068c0.029-0.046,0.06-0.035,0.06-0.035c0.046-0.052,0.083-0.033,0.083-0.033
					c0.032,0.037,0.039,0.006,0.039,0.006c0.055-0.048,0.092-0.002,0.092-0.002c0.067-0.031,0.126-0.013,0.126-0.013
					c0.042-0.057,0.079-0.035,0.079-0.035c0.08-0.061,0.083-0.002,0.083-0.002c0.043-0.009,0.043,0.013,0.048,0.028
					c0.004,0.018-0.079,0.048-0.182,0.07s-0.098,0.15-0.128,0.118c-0.031-0.035-0.153-0.037-0.231,0.024
					c-0.079,0.061,0.02,0.168,0.02,0.168s-0.03-0.044-0.14-0.013c-0.109,0.028-0.12,0.272-0.092,0.347
					c0.03,0.074,0.063,0.125,0.063,0.125c-0.085,0.028,0.013,0.17,0.013,0.17C752.938-969.279,752.881-969.342,752.847-969.388z"/>
				<path id="armring_left_3_" fill="#C1C1C1" d="M751.592-968.38c0,0,0.249-0.258,0.225-0.469c0,0-0.032-0.02-0.062-0.026
					c0,0-0.017,0.12-0.067,0.227c-0.044,0.09-0.124,0.19-0.175,0.212C751.535-968.411,751.592-968.38,751.592-968.38L751.592-968.38
					"/>
				<path id="armring_right_3_" fill="#C1C1C1" d="M752.772-969.739c0,0,0.002-0.02,0.009-0.039c0.002-0.007,0.002-0.02,0.004-0.026
					c0.011-0.02,0.016-0.013,0.011-0.016c0,0,0.38,0.09,0.48,0.068c0,0,0.023,0.024,0.015,0.043
					C753.294-969.709,752.94-969.711,752.772-969.739z"/>
				<path opacity="0.1" fill="#C1C1C1" enable-background="new    " d="M753.374-967.948l-0.025-0.116c0,0-0.153,0.107-0.35,0.042
					C752.999-968.024,753.2-967.854,753.374-967.948z"/>
			</g>
		</g>
		<circle fill="#D6D6D6" cx="753.473" cy="-966.879" r="0.262"/>
		<path fill="#C6C6C6" d="M753.473-966.617c-0.145,0-0.262-0.118-0.262-0.262c0-0.144,0.117-0.262,0.262-0.262
			c0,0-0.168,0.087-0.168,0.262C753.305-966.704,753.473-966.617,753.473-966.617z"/>
		<circle fill="#D6D6D6" cx="747.811" cy="-970.043" r="0.166"/>
		<path fill="#C6C6C6" d="M747.8-969.877c-0.092-0.006-0.162-0.085-0.155-0.177c0.007-0.091,0.085-0.161,0.177-0.155
			c0,0-0.127,0.048-0.136,0.157C747.68-969.94,747.8-969.877,747.8-969.877z"/>
		<circle fill="#D6D6D6" cx="759.407" cy="-965.469" r="0.166"/>
		<path fill="#C6C6C6" d="M759.396-965.304c-0.092-0.006-0.161-0.085-0.155-0.176c0.007-0.092,0.086-0.162,0.177-0.155
			c0,0-0.126,0.048-0.135,0.157C759.276-965.367,759.396-965.304,759.396-965.304z"/>
		<circle fill="#D6D6D6" cx="737.363" cy="-959.299" r="0.165"/>
		<path fill="#C6C6C6" d="M737.353-959.134c-0.092-0.006-0.162-0.084-0.155-0.176s0.085-0.162,0.177-0.154
			c0,0-0.127,0.047-0.136,0.156C737.232-959.198,737.353-959.134,737.353-959.134z"/>
		<circle fill="#D6D6D6" cx="735.467" cy="-965.469" r="0.166"/>
		<path fill="#C6C6C6" d="M735.456-965.304c-0.092-0.006-0.161-0.085-0.155-0.176c0.007-0.092,0.085-0.162,0.177-0.155
			c0,0-0.126,0.048-0.135,0.157C735.336-965.367,735.456-965.304,735.456-965.304z"/>
		<circle fill="#D6D6D6" cx="762.812" cy="-961.36" r="0.166"/>
		<path fill="#C6C6C6" d="M762.801-961.194c-0.092-0.008-0.162-0.086-0.155-0.178s0.085-0.16,0.177-0.154
			c0,0-0.127,0.047-0.135,0.156C762.681-961.259,762.801-961.194,762.801-961.194z"/>
		<circle fill="#D6D6D6" cx="768.207" cy="-961.526" r="0.166"/>
		<path fill="#C6C6C6" d="M768.196-961.36c-0.092-0.008-0.161-0.086-0.154-0.178c0.006-0.092,0.085-0.16,0.177-0.154
			c0,0-0.127,0.049-0.136,0.156C768.076-961.425,768.196-961.36,768.196-961.36z"/>
		<circle fill="#D6D6D6" cx="745.133" cy="-955.731" r="0.166"/>
		<path fill="#C6C6C6" d="M745.122-955.565c-0.092-0.006-0.161-0.086-0.155-0.178c0.007-0.09,0.086-0.16,0.177-0.154
			c0,0-0.126,0.049-0.135,0.158C745.002-955.628,745.122-955.565,745.122-955.565z"/>
		<circle fill="#D6D6D6" cx="742.766" cy="-956.812" r="0.359"/>
		<path fill="#C6C6C6" d="M742.741-956.454c-0.198-0.012-0.349-0.184-0.336-0.381c0.014-0.199,0.184-0.35,0.382-0.336
			c0,0-0.274,0.102-0.292,0.342S742.741-956.454,742.741-956.454z"/>
		<circle fill="#D6D6D6" cx="749.349" cy="-956.088" r="0.304"/>
		<path fill="#C6C6C6" d="M749.329-955.786c-0.166-0.012-0.292-0.156-0.281-0.322c0.011-0.164,0.155-0.291,0.32-0.281
			c0,0-0.231,0.088-0.244,0.289C749.111-955.901,749.329-955.786,749.329-955.786z"/>
		<circle fill="#D6D6D6" cx="759.329" cy="-956.812" r="0.203"/>
		<path fill="#C6C6C6" d="M759.315-956.61c-0.111-0.006-0.196-0.105-0.189-0.217s0.104-0.195,0.216-0.189
			c0,0-0.154,0.059-0.163,0.191C759.17-956.687,759.315-956.61,759.315-956.61z"/>
		<path fill="#D6D6D6" d="M754.553-955.218c-0.013,0.213-0.198,0.377-0.415,0.363c-0.214-0.014-0.377-0.197-0.364-0.414
			c0.014-0.217,0.199-0.377,0.415-0.365C754.404-955.618,754.565-955.433,754.553-955.218z"/>
		<path fill="#C6C6C6" d="M754.138-954.854c-0.214-0.014-0.377-0.197-0.364-0.414c0.014-0.217,0.199-0.377,0.415-0.365
			c0,0-0.299,0.111-0.316,0.369C753.856-955.005,754.138-954.854,754.138-954.854z"/>
		<circle fill="#D6D6D6" cx="754.487" cy="-969.711" r="0.104"/>
		<path fill="#C6C6C6" d="M754.48-969.606c-0.057-0.004-0.101-0.052-0.098-0.111c0.004-0.057,0.052-0.101,0.111-0.098
			c0,0-0.083,0.035-0.088,0.104C754.402-969.641,754.48-969.606,754.48-969.606z"/>
		<circle fill="#D6D6D6" cx="761.489" cy="-966.639" r="0.104"/>
		<path fill="#C6C6C6" d="M761.482-966.536c-0.057-0.004-0.101-0.052-0.098-0.111c0.004-0.057,0.052-0.101,0.111-0.098
			c0,0-0.083,0.035-0.088,0.105C761.404-966.571,761.482-966.536,761.482-966.536z"/>
		<circle fill="#D6D6D6" cx="734.457" cy="-958.323" r="0.166"/>
		<path fill="#C6C6C6" d="M734.445-958.157c-0.091-0.008-0.161-0.086-0.154-0.178c0.006-0.092,0.085-0.16,0.177-0.154
			c0,0-0.127,0.049-0.136,0.156C734.326-958.222,734.445-958.157,734.445-958.157z"/>
		<circle fill="#D6D6D6" cx="733.702" cy="-961.893" r="0.104"/>
		<path fill="#C6C6C6" d="M733.695-961.79c-0.057-0.006-0.101-0.053-0.099-0.111c0.005-0.057,0.053-0.102,0.111-0.1
			c0,0-0.083,0.035-0.087,0.105C733.616-961.825,733.695-961.79,733.695-961.79z"/>
		<circle fill="#D6D6D6" cx="764.664" cy="-965.469" r="0.105"/>
		<path fill="#C6C6C6" d="M764.657-965.364c-0.057-0.004-0.101-0.053-0.098-0.111c0.004-0.057,0.052-0.101,0.111-0.098
			c0,0-0.083,0.035-0.088,0.104C764.579-965.399,764.657-965.364,764.657-965.364z"/>
		<circle fill="#D6D6D6" cx="745.476" cy="-967.402" r="0.764"/>
		<path fill="#C6C6C6" d="M745.476-966.639c-0.421,0-0.764-0.343-0.764-0.764s0.343-0.764,0.764-0.764c0,0-0.472,0.257-0.472,0.764
			S745.476-966.639,745.476-966.639z"/>
		<circle fill="#D6D6D6" cx="738.33" cy="-963.901" r="0.764"/>
		<path fill="#C6C6C6" d="M738.33-963.138c-0.422,0-0.764-0.342-0.764-0.764c0-0.42,0.342-0.764,0.764-0.764
			c0,0-0.472,0.258-0.472,0.764C737.858-963.394,738.33-963.138,738.33-963.138z"/>
		<circle fill="#D6D6D6" cx="757.814" cy="-968.297" r="0.438"/>
		<path fill="#C6C6C6" d="M757.814-967.86c-0.242,0-0.438-0.197-0.438-0.439s0.196-0.438,0.438-0.438c0,0-0.306,0.146-0.306,0.438
			S757.814-967.86,757.814-967.86z"/>
		<circle fill="#AFAFAF" cx="751.247" cy="-969.562" r="0.548"/>
		<path fill="#A0A0A0" d="M751.247-969.017c-0.301,0-0.548-0.245-0.548-0.547c0-0.301,0.244-0.548,0.548-0.548
			c0,0-0.408,0.183-0.408,0.548C750.839-969.2,751.247-969.017,751.247-969.017z"/>
		<circle fill="#D6D6D6" cx="735.888" cy="-956.266" r="0.548"/>
		<path fill="#C6C6C6" d="M735.888-955.718c-0.301,0-0.547-0.244-0.547-0.549c0-0.301,0.244-0.547,0.547-0.547
			c0,0-0.408,0.184-0.408,0.547C735.479-955.901,735.888-955.718,735.888-955.718z"/>
		<circle fill="#C9C9C9" cx="763.084" cy="-963.9" r="0.548"/>
		<path fill="#B7B7B7" d="M763.084-963.354c-0.301,0-0.548-0.244-0.548-0.549c0-0.301,0.245-0.547,0.548-0.547
			c0,0-0.408,0.184-0.408,0.547C762.676-963.538,763.084-963.354,763.084-963.354z"/>
		<circle fill="#D6D6D6" cx="740.643" cy="-966.879" r="0.373"/>
		<path fill="#C6C6C6" d="M740.643-966.508c-0.205,0-0.373-0.166-0.373-0.373c0-0.205,0.166-0.373,0.373-0.373
			c0,0-0.304,0.124-0.304,0.373C740.339-966.632,740.643-966.508,740.643-966.508z"/>
		<circle fill="#D6D6D6" cx="764.684" cy="-955.596" r="0.495"/>
		<path fill="#C6C6C6" d="M764.684-955.099c-0.275,0-0.495-0.223-0.495-0.496s0.223-0.494,0.495-0.494c0,0-0.403,0.166-0.406,0.494
			C764.277-955.267,764.684-955.099,764.684-955.099z"/>
		<circle fill="#D6D6D6" cx="759.573" cy="-962.88" r="0.373"/>
		<path fill="#C6C6C6" d="M759.573-962.509c-0.205,0-0.373-0.166-0.373-0.373c0-0.205,0.166-0.373,0.373-0.373
			c0,0-0.303,0.125-0.303,0.373S759.573-962.509,759.573-962.509z"/>
		<circle fill="#D6D6D6" cx="750.349" cy="-965.823" r="0.371"/>
		<path fill="#C6C6C6" d="M750.349-965.452c-0.205,0-0.371-0.166-0.371-0.371s0.166-0.371,0.371-0.371c0,0-0.316,0.148-0.316,0.395
			S750.349-965.452,750.349-965.452z"/>
		<circle fill="#D6D6D6" cx="766.37" cy="-959.057" r="0.37"/>
		<path fill="#C6C6C6" d="M766.37-958.687c-0.205,0-0.371-0.164-0.371-0.369c0-0.207,0.166-0.371,0.371-0.371
			c0,0-0.316,0.148-0.316,0.395C766.052-958.786,766.37-958.687,766.37-958.687z"/>
		<circle fill="#D6D6D6" cx="739.9" cy="-960.29" r="0.371"/>
		<path fill="#C6C6C6" d="M739.9-959.919c-0.205,0-0.371-0.166-0.371-0.371s0.166-0.371,0.371-0.371c0,0-0.316,0.148-0.316,0.396
			C739.584-960.019,739.9-959.919,739.9-959.919z"/>
		<circle fill="#D6D6D6" cx="735.451" cy="-961.091" r="0.371"/>
		<path fill="#C6C6C6" d="M735.451-960.72c-0.205,0-0.37-0.166-0.37-0.371s0.165-0.371,0.37-0.371c0,0-0.316,0.148-0.316,0.396
			C735.135-960.819,735.451-960.72,735.451-960.72z"/>
		<circle fill="#D6D6D6" cx="730.712" cy="-958.878" r="0.371"/>
		<path fill="#C6C6C6" d="M730.712-958.507c-0.205,0-0.37-0.166-0.37-0.371s0.165-0.371,0.37-0.371c0,0-0.316,0.148-0.316,0.395
			C730.396-958.606,730.712-958.507,730.712-958.507z"/>
		<g id="Astronaut_1_">
			<g>
				<g>
					<g>
						<path fill="#E8E8E8" d="M749.817-974.646c0.02-0.465,0.033-0.927,0.049-1.392c0.006-0.072,0.011-0.146,0.017-0.218
							c-0.054-0.223,0.049-0.48-0.146-0.672c-0.166-0.059-0.336-0.085-0.511-0.048c-0.26,0.164-0.212,0.426-0.221,0.67
							c-0.002,0.074,0.018,0.19-0.129,0.126c0.016,0.042,0.033,0.085,0.049,0.127c0.061,0.002,0.087,0.002,0.082,0.094
							c-0.023,0.559-0.032,1.119-0.046,1.678c0.012,0.007,0.024,0.013,0.035,0.02c0.018,0,0.035,0,0.053,0
							c0.218,0.011,0.437,0.022,0.652,0.033l0.087,0.006L749.817-974.646z"/>
					</g>
					<path fill="#FFFFFF" d="M748.923-976.052c0.062,0.002,0.088,0.002,0.083,0.094c-0.023,0.559-0.032,1.119-0.046,1.678
						c-0.106-0.026-0.144-0.085-0.14-0.2c0.022-0.456,0.028-0.912,0.042-1.368C748.864-975.923,748.86-975.997,748.923-976.052z"/>
					<path fill="#FFFFFF" d="M749.225-976.977c-0.26,0.164-0.212,0.426-0.221,0.67c-0.002,0.074,0.018,0.19-0.129,0.126
						c0.002-0.155,0.007-0.308,0.007-0.462C748.884-976.866,749.017-976.959,749.225-976.977z"/>
					<path fill="#FBFBFB" d="M748.995-974.26c0.018,0,0.035,0,0.053,0C749.03-974.26,749.013-974.26,748.995-974.26z"/>
					<path fill="#F8F8F8" d="M750.854-975.131c-0.005,0.015-0.007,0.028-0.012,0.042h-0.004c0.002-0.015,0.004-0.029,0.009-0.044
						L750.854-975.131z"/>
					<path fill="#F8F8F8" d="M750.835-975.046c0,0.004,0,0.007,0,0.011c0-0.004-0.003-0.006-0.003-0.011H750.835z"/>
				</g>
				<path id="Benen__x2F__schoenen_2_" fill="#FFFFFF" d="M749.146-974.221c0,0-0.03,0.018,0,0.068c0,0-0.039,0.03,0.011,0.07
					c0,0-0.061,0.074-0.025,0.096c0,0-0.068,0.035,0,0.081c0,0,0.004,0.089-0.018,0.144c0,0-0.037,0.091-0.014,0.174
					c0,0-0.018,0.04,0.018,0.059c0,0-0.028,0.033,0,0.072c0,0-0.023,0.035,0.007,0.07c0,0-0.016,0.048,0.007,0.065
					c0,0-0.021-0.002-0.018,0.031c0,0-0.016,0.061,0.023,0.074c0,0-0.006,0.02-0.006,0.065s-0.007,0.105-0.026,0.125
					s-0.037,0.046-0.007,0.07s0.035,0.035,0.021,0.052c-0.013,0.018,0,0.039,0,0.039s-0.03,0.02-0.015,0.044
					c0.015,0.024-0.02,0.046-0.028,0.059c-0.009,0.013-0.053,0.146-0.04,0.216c0.014,0.07,0.063,0.174,0.04,0.233
					c-0.024,0.059,0.004,0.079,0.004,0.079s-0.094,0.05-0.048,0.146c0,0-0.013,0.094,0.004,0.153c0,0-0.048,0.037-0.017,0.07
					c0,0-0.04,0.042-0.003,0.085c0,0-0.018,0.083,0.014,0.118c0,0,0.015,0.016,0.013,0.101s0.057,0.177,0.281,0.162
					c0.226-0.015,0.221-0.083,0.221-0.164c0,0-0.002-0.026-0.024-0.083c0,0,0.031,0.021,0.031-0.031c0,0-0.009-0.048-0.035-0.07
					c0,0,0.076-0.055,0.035-0.07c0,0,0.037-0.048,0.002-0.074c0,0,0.039,0.004,0.041-0.011c0.003-0.015,0-0.192,0-0.192
					s-0.006-0.02-0.03-0.009c0,0,0.02-0.061,0.002-0.083c0,0,0.044-0.079,0.014-0.085c0,0,0.074-0.02,0.057-0.063
					c0,0,0.057-0.026,0.048-0.104c0,0,0.044-0.024,0.028-0.099c0,0,0.055-0.124,0.021-0.168c0,0,0-0.106,0.031-0.14
					c0.03-0.032,0.083-0.076,0.028-0.1c0,0,0.041-0.04-0.005-0.085c0,0-0.002-0.131,0.028-0.162c0,0,0.042-0.05,0-0.07
					c0,0-0.015-0.081,0.018-0.125c0,0-0.011-0.059,0-0.085s0.044-0.098,0.057-0.138c0.016-0.039,0.044-0.122,0.044-0.122
					s-0.004,0.042,0.085,0.048c0,0,0.067,0.013-0.011,0.092c0,0-0.035,0.07,0.063,0.133c0,0,0.041,0.072,0,0.126
					c0,0-0.024,0.015,0.041,0.063c0,0,0.022,0.015,0.018,0.052c-0.004,0.037,0.044,0.091,0.044,0.091s-0.026,0.07-0.028,0.087
					c0,0.02,0.009,0.079,0.028,0.098c0,0-0.005,0.077,0.018,0.103c0,0-0.031,0.048-0.031,0.136c0,0.087-0.025,0.233,0.04,0.281
					c0,0,0.05,0.026,0.03,0.046c0,0-0.009,0.028,0.004,0.037c0,0-0.025,0.107,0.022,0.131c0,0,0.026,0.042,0,0.096
					c0,0-0.003,0.07,0.002,0.136c0.004,0.065,0.041,0.181,0.057,0.222s0.002,0.079,0.076,0.092c0,0,0.182,0.043,0.238,0.057
					s0.216,0.042,0.327-0.002c0,0,0.085-0.009,0.069-0.096c-0.015-0.087-0.094-0.286-0.174-0.294c0,0-0.101,0-0.062-0.035
					c0,0,0.03-0.033-0.004-0.118c0,0-0.026-0.089-0.048-0.122c0,0,0.032-0.072-0.016-0.096c0,0,0.094-0.048,0.083-0.122
					c0,0-0.026-0.063,0-0.105c0,0,0.018-0.032,0.002-0.057c0,0,0.053-0.113,0-0.12l-0.013,0.009c0,0,0.078-0.231,0.03-0.253
					c0,0,0.037-0.092-0.018-0.094c0,0-0.03,0.002,0.002-0.046c0,0,0.018-0.07,0.005-0.092c-0.014-0.021,0.018-0.046,0-0.063
					c-0.018-0.018,0-0.072,0-0.072s0.039-0.074,0.062-0.07c0.024,0.004,0.024-0.072-0.021-0.1l-0.004-0.214
					c0,0-0.035-0.12,0.011-0.126c0.046-0.007,0.048-0.028,0.004-0.136c-0.046-0.104-0.043-0.091-0.235-0.087l-0.057-0.172
					c0,0,0-0.057-0.021-0.114c0,0-0.081-0.118-0.065-0.148l-1.306,0.07c0,0-0.021,0.041-0.004,0.078c0,0,0.011,0.018-0.013,0.026
					c0,0-0.021,0.018-0.007,0.07c0,0-0.037,0.013-0.02,0.061L749.146-974.221z"/>
				<g id="shaduw_linkerbeen_2_">
					<path fill="#E8E8E8" d="M749.163-972.05c0,0,0.281-0.042,0.308-0.127c0.026-0.085,0.042-0.196,0.042-0.196l-0.12-0.013
						l0.148-0.077c0,0,0.111-0.089,0.043-0.199c-0.067-0.109,0.055-0.31,0.055-0.31s0.085-0.255,0-0.316s-0.109-0.083-0.166-0.109
						c-0.057-0.026,0.262-0.085,0.262-0.085s0.07-0.122,0.033-0.181s0.007-0.137,0.011-0.146c0.005-0.009-0.057-0.103-0.144-0.103
						c0,0,0-0.033-0.077-0.035c-0.076-0.004,0.026-0.118,0.378-0.03c0.124,0.03,0.253,0.124,0.244,0.157
						c-0.009,0.035-0.083,0.15-0.135,0.144c-0.122-0.013-0.134-0.091-0.134-0.091l0.029,0.033c0,0-0.029,0.083-0.044,0.122
						c-0.016,0.039-0.048,0.113-0.057,0.138c-0.009,0.024,0,0.085,0,0.085c-0.033,0.043-0.018,0.124-0.018,0.124
						c0.041,0.02,0,0.07,0,0.07c-0.03,0.03-0.028,0.161-0.028,0.161c0.046,0.046,0.004,0.085,0.004,0.085
						c0.055,0.024,0.002,0.068-0.028,0.101s-0.03,0.14-0.03,0.14c0.032,0.044-0.021,0.168-0.021,0.168
						c0.015,0.074-0.028,0.098-0.028,0.098c0.008,0.079-0.049,0.105-0.049,0.105c0.018,0.043-0.057,0.063-0.057,0.063
						c0.031,0.007-0.013,0.085-0.013,0.085c0.018,0.021-0.002,0.083-0.002,0.083c0.023-0.011,0.03,0.008,0.03,0.008l-0.044,0.004
						C749.552-972.091,749.427-971.984,749.163-972.05z"/>
				</g>
				<g id="shaduw_rechterbeen_2_">
					<path fill="#E8E8E8" d="M750.503-974.544c-0.016,0.03,0.065,0.148,0.065,0.148c0.021,0.057,0.021,0.113,0.021,0.113
						l0.057,0.172c0.192-0.004,0.19-0.017,0.236,0.087s0.041,0.126-0.005,0.135s-0.011,0.126-0.011,0.126l0.005,0.214
						c0.045,0.028,0.048,0.104,0.021,0.101c-0.026-0.004-0.063,0.07-0.063,0.07s-0.018,0.054,0,0.072s-0.011,0.042,0,0.063
						c0.011,0.021-0.004,0.092-0.004,0.092c-0.033,0.048-0.003,0.045-0.003,0.045c0.053,0.002,0.018,0.094,0.018,0.094
						c0.048,0.02-0.03,0.253-0.03,0.253l0.013-0.009c0.053,0.004,0,0.12,0,0.12c0.016,0.024-0.002,0.057-0.002,0.057
						c-0.026,0.042,0,0.104,0,0.104c0.011,0.074-0.083,0.122-0.083,0.122c0.048,0.024,0.016,0.096,0.016,0.096
						c0.021,0.033,0.048,0.123,0.048,0.123s-0.113,0.054-0.207,0.063s-0.205,0.042-0.104-0.068c0.1-0.109,0.281-0.091,0.168-0.274
						c0,0-0.231-0.074-0.051-0.188c0,0,0.145,0.011,0.039-0.098l-0.191-0.087l0.205-0.048c0,0,0.109-0.085,0.028-0.125
						c-0.081-0.039-0.142-0.249-0.028-0.299s0.069-0.12,0.065-0.194c-0.005-0.074-0.055-0.14-0.024-0.305
						c0.031-0.166-0.061-0.284-0.061-0.284l-0.103-0.09l0.062-0.026l-0.183-0.114c0,0,0.133,0.053,0.14,0.011
						c0.006-0.042-0.107-0.126-0.107-0.126s0.009-0.101,0.042-0.092L750.503-974.544z"/>
				</g>
				<g id="linkerschoen_2_">
					<path fill="#E8E8E8" d="M749.039-971.937c0,0-0.048,0.037-0.018,0.07c0,0-0.039,0.042-0.002,0.085c0,0-0.018,0.083,0.013,0.118
						c0,0,0.016,0.016,0.013,0.101c-0.002,0.085,0.058,0.177,0.282,0.162s0.22-0.083,0.22-0.164c0,0-0.002-0.026-0.023-0.083
						c0,0,0.03,0.021,0.03-0.031c0,0-0.009-0.048-0.035-0.07c0,0,0.076-0.055,0.035-0.07c0,0,0.037-0.048,0.002-0.074
						c0,0,0.039,0.004,0.042-0.011c0,0-0.011-0.162,0-0.192c0,0-0.007-0.024-0.031-0.009c0,0-0.14,0.159-0.532,0.015
						C749.034-972.089,749.002-971.976,749.039-971.937z"/>
				</g>
				<g id="Rechterschoen_2_">
					<path fill="#E8E8E8" d="M750.747-972.268c0.022,0.033,0.048,0.122,0.048,0.122c0.035,0.085,0.005,0.118,0.005,0.118
						c-0.042,0.035,0.061,0.035,0.061,0.035c0.081,0.009,0.157,0.207,0.175,0.294s-0.069,0.096-0.069,0.096
						c-0.111,0.043-0.271,0.015-0.328,0.002c-0.057-0.013-0.237-0.057-0.237-0.057c-0.074-0.015-0.062-0.05-0.076-0.092
						c-0.016-0.042-0.051-0.157-0.057-0.223c-0.007-0.065-0.003-0.135-0.003-0.135c0.026-0.053,0-0.096,0-0.096
						s0.044,0.022,0.083,0.011c0,0-0.026,0.179,0.02,0.179s0.062-0.028,0.101-0.05S750.828-972.054,750.747-972.268z"/>
				</g>
				<path id="rechterbroekzak_2_" fill="#DBDBDB" d="M750.826-973.372c0,0-0.105-0.011-0.18,0.006c0,0-0.115-0.018-0.154-0.024
					c0,0-0.039-0.035-0.026-0.125s-0.067-0.273-0.078-0.314c0,0-0.083-0.164-0.007-0.192c0,0,0.214-0.05,0.266-0.089
					c0.192-0.004,0.19-0.017,0.236,0.087s0.041,0.126-0.005,0.135s-0.011,0.126-0.011,0.126l0.005,0.214
					c0.045,0.028,0.048,0.104,0.021,0.101c-0.026-0.004-0.063,0.07-0.063,0.07"/>
				<path id="Linkerlijn_2_" fill="#3986A8" d="M749.137-973.217c-0.037-0.015-0.023-0.074-0.023-0.074
					c-0.003-0.033,0.018-0.031,0.018-0.031s0.133,0.09,0.393,0.09c0,0,0.069,0.009,0.103,0.015c0.032,0.006,0.061-0.011,0.085-0.006
					c0.023,0.004,0.089,0.004,0.103-0.007c0.013-0.011,0.026,0.002,0.021,0.02c-0.004,0.018-0.026,0.04-0.028,0.059
					c0,0-0.007,0.018-0.026,0.018s-0.209,0.017-0.44-0.026c0,0-0.083-0.02-0.136-0.031
					C749.152-973.202,749.165-973.215,749.137-973.217z"/>
				<path id="Rechterlijn_2_" fill="#3986A8" d="M750.183-973.126c0,0-0.046-0.054-0.044-0.091l-0.005-0.035
					c0,0,0.031,0.04,0.06,0.055s0.083,0.061,0.231,0.037l0.235-0.018c0,0,0.15-0.033,0.17-0.065
					c0.013-0.022-0.004,0.092-0.004,0.092s-0.114,0.063-0.254,0.072C750.431-973.071,750.256-973.071,750.183-973.126z"/>
				<path id="Romp_3_" fill="#FFFFFF" d="M750.503-974.544c0,0-0.033-0.05-0.026-0.155c0.005-0.05,0.048-0.124,0.048-0.189
					c0-0.063-0.052-0.14-0.048-0.208c0.005-0.079,0.046-0.107,0.048-0.172c0.007-0.179-0.028-0.325-0.028-0.325
					s-0.048-0.318,0-0.371s-0.17-0.175-0.122-0.456c0,0-0.447,0.12-0.515,0.135c-0.07,0.015-0.223,0.07-0.286,0.101
					c-0.063,0.03-0.364,0.222-0.242,0.63c0,0,0.179,0.042,0.148,0.15c-0.028,0.109-0.135,0.181-0.135,0.181
					s-0.151,0.498-0.155,0.774C749.185-974.171,750.503-974.544,750.503-974.544z"/>
				<path id="nekring_2_" fill="#3986A8" d="M749.469-976.111c0,0,0.078-0.061,0.104-0.072s0.686,0.018,0.769-0.061
					c0,0,0.034-0.031,0.054,0.059l0.037,0.072C750.433-976.115,749.988-975.771,749.469-976.111z"/>
				<path id="helm_2_" fill="#FFFFFF" d="M750.477-976.569c0,0.321-0.184,0.535-0.506,0.535c-0.323,0-0.567-0.231-0.567-0.552
					s0.2-0.563,0.537-0.563C750.263-977.151,750.477-976.89,750.477-976.569z"/>
				<g id="helm_schaduw_2_">
					<path fill="#E8E8E8" d="M749.973-976.034c0.32,0,0.506-0.214,0.506-0.535c0-0.098-0.02-0.19-0.057-0.271
						c-0.043-0.096-0.108-0.175-0.194-0.231c0,0,0.136,0.391,0.074,0.602C750.206-976.152,749.973-976.034,749.973-976.034z"/>
				</g>
				<path fill="#0D3644" d="M750.396-976.525c0,0.247-0.131,0.41-0.357,0.41s-0.401-0.177-0.401-0.423
					c0-0.247,0.142-0.432,0.38-0.432C750.243-976.97,750.396-976.772,750.396-976.525z"/>
				<path id="Rechterarm_3_" fill="#FFFFFF" d="M750.433-976.115c0,0,0.367,0.057,0.433,0.336c0,0,0.148,0.094,0.189,0.256
					c0,0,0.009,0.023,0.039,0.008c0.031-0.015,0.083-0.035,0.103-0.017c0,0,0.04-0.111,0.143-0.083c0,0,0.103-0.046,0.253-0.035
					c0,0,0.021,0.077,0.039,0.14c0.018,0.063,0.009,0.092,0.062,0.135c0.052,0.044-0.003,0.068-0.003,0.068s0.037,0.046-0.062,0.055
					c0,0-0.014,0.041-0.083,0.026c0,0-0.031,0.052-0.103,0.074c0,0,0.004,0.061-0.07,0.061c0,0-0.026-0.018-0.026,0.031
					c0,0-0.015,0.039-0.082,0.031c0,0-0.018,0.028-0.068,0.015c0,0-0.052,0.039-0.113,0.013c0,0-0.179,0.015-0.244-0.096
					c0,0-0.044-0.037-0.096-0.048c0,0-0.114-0.061-0.129-0.113c0,0-0.04,0.018-0.063-0.046c0,0-0.02-0.037-0.044-0.037l-0.018,0.016
					c0,0,0.018-0.077-0.028-0.127c0,0-0.039-0.126,0-0.174c0,0,0.055-0.179-0.023-0.214c0,0-0.103-0.063-0.037-0.122
					S750.438-976.104,750.433-976.115z"/>
				<g>
					<path id="hand_3_" fill="#FFFFFF" d="M751.618-975.48c0,0-0.113-0.175,0.076-0.236c0,0,0.255-0.079,0.423,0.046
						c0,0,0.04,0.033-0.124,0.085c0,0-0.277,0.026-0.188,0.092c0,0,0.198-0.076,0.142,0.05c0,0-0.065,0.061-0.161,0.072
						c0,0-0.042,0.018-0.085,0.009C751.698-975.364,751.648-975.349,751.618-975.48z"/>
					<path id="schaduw_8_" fill="#DBDBDB" d="M751.698-975.364c0.044,0.009,0.086-0.009,0.086-0.009
						c0.096-0.011,0.161-0.072,0.161-0.072s-0.033,0.016-0.088,0.026c-0.065,0.013-0.144,0.028-0.161,0.03
						C751.679-975.391,751.652-975.367,751.698-975.364z"/>
					<path id="schaduw_5_" fill="#DBDBDB" d="M751.792-975.535c0,0,0.062-0.035,0.125-0.042c0.035-0.004,0.078-0.009,0.103-0.02
						c0.02-0.009,0.076-0.028,0.081-0.037c0.004-0.009-0.062-0.013-0.077-0.018C751.978-975.659,751.866-975.657,751.792-975.535z"
						/>
				</g>
				<path id="leftarm_3_" fill="#FFFFFF" d="M749.384-976.089c0,0-0.277,0.039-0.413,0.244c0,0-0.108,0.114-0.069,0.306
					c0,0-0.057,0.055,0.004,0.138c0,0-0.028,0.052-0.028,0.092c0,0,0.003,0.069-0.046,0.109c0,0-0.087,0.111,0.012,0.244
					c0,0-0.031,0.101,0.057,0.118c0,0,0.052,0.12,0.231,0.186c0,0,0.098,0.175,0.434,0.184l0.175,0.02l0.074-0.146l-0.024-0.044
					c0,0-0.002-0.128-0.128-0.109c0,0,0.015-0.157-0.148-0.192c0,0-0.012-0.069-0.127-0.063c0,0,0.037-0.081-0.063-0.125
					c0,0-0.015-0.021-0.002-0.039c0,0,0.026,0,0.035-0.061l0.02-0.042c0,0,0.061,0.039,0.098-0.118c0,0-0.028-0.103,0.06-0.109
					C749.619-975.504,749.724-976.037,749.384-976.089z"/>
				<g id="leftarm_2_">
					<path fill="#E8E8E8" d="M749.43-975.277c0,0,0.059,0.013,0.096-0.144c0,0,0.065-0.068,0.041-0.111c0,0-0.071-0.02-0.135,0.091
						s-0.039,0.123-0.096,0.12c0,0-0.022,0.118-0.06,0.153c0,0-0.004,0.087-0.065,0.109c-0.055,0.02,0.097-0.039,0.145,0.024
						c0.048,0.063,0.055,0.138,0.055,0.138s0.076-0.002,0.117,0.035c0.042,0.037,0.03,0.109,0.099,0.122
						c0.067,0.013,0.113,0.021,0.12,0.057c0.006,0.035-0.022,0.043,0.002,0.052l0.044-0.009c0,0-0.022-0.131-0.088-0.135
						c0,0,0.011-0.118-0.152-0.152c0,0,0.013-0.09-0.103-0.083c0,0-0.005-0.074-0.104-0.116c0,0,0.006-0.048,0.02-0.065l0.039-0.042
						L749.43-975.277z"/>
				</g>
				<g id="Romp_1_">
					<path fill="#E8E8E8" d="M750.496-975.594c0,0,0.035,0.146,0.028,0.325c-0.002,0.065-0.041,0.096-0.048,0.172
						c-0.004,0.068,0.048,0.144,0.048,0.208s-0.028,0.15-0.032,0.201c-0.007,0.105,0.028,0.211,0.028,0.211
						c-0.002-0.011-0.024,0.016-0.048,0c-0.081-0.048-0.229-0.152-0.173-0.161c0.072-0.013,0.096-0.062,0.096-0.062
						s0.074-0.211,0.029-0.262c-0.046-0.05-0.018-0.142-0.018-0.148c0-0.006,0.043-0.179-0.033-0.272
						C750.374-975.384,750.505-975.523,750.496-975.594"/>
				</g>
				<g>
					<path fill="#EFEFEF" d="M749.562-974.47c0,0,0.17-0.02,0.225-0.17c0,0,0.101,0.018,0.138,0.061c0,0-0.007,0.031,0.02,0.063
						c0,0,0.104,0.109-0.035,0.229C749.909-974.287,749.626-974.158,749.562-974.47z"/>
					<path fill="#DBDBDB" d="M749.608-974.35c0.101,0.155,0.301,0.063,0.301,0.063c0.142-0.12,0.035-0.229,0.035-0.229
						c-0.026-0.033-0.02-0.063-0.02-0.063l-0.021,0.009l0.021,0.048l0.018,0.035l-0.092,0.159L749.608-974.35z"/>
				</g>
				<g id="Rechterarm_2_">
					<path fill="#E8E8E8" d="M750.498-975.495c-0.039,0.048-0.041,0.041-0.041,0.041c0.046,0.048,0.028,0.127,0.028,0.127
						l0.018-0.016c0.026-0.002,0.044,0.037,0.044,0.037c0.021,0.063,0.062,0.046,0.062,0.046c0.016,0.053,0.129,0.113,0.129,0.113
						c0.053,0.011,0.097,0.048,0.097,0.048c0.065,0.113,0.244,0.096,0.244,0.096c0.061,0.026,0.113-0.013,0.113-0.013
						c0.05,0.015,0.067-0.016,0.067-0.016c0.07,0.009,0.083-0.03,0.083-0.03c0-0.048,0.026-0.031,0.026-0.031
						c0.072,0,0.069-0.061,0.069-0.061c0.07-0.022,0.104-0.074,0.104-0.074c0.069,0.015,0.082-0.026,0.082-0.026
						c0.101-0.009,0.063-0.055,0.063-0.055c0.037-0.024,0.024-0.039,0.016-0.055c-0.009-0.015-0.09,0.018-0.182,0.07
						c-0.091,0.052-0.174-0.046-0.174,0s-0.088,0.131-0.188,0.138c-0.1,0.006-0.098-0.138-0.098-0.138s0.007,0.052-0.094,0.105
						c-0.101,0.052-0.272-0.12-0.301-0.196c-0.029-0.077-0.037-0.136-0.037-0.136c-0.083,0.037-0.105-0.135-0.105-0.135
						C750.494-975.64,750.494-975.554,750.498-975.495z"/>
				</g>
				<path id="armring_left_2_" fill="#3986A8" d="M748.893-975.399c0,0,0.357,0.024,0.48,0.199c0,0-0.012,0.037-0.028,0.061
					c0,0-0.095-0.079-0.203-0.122c-0.092-0.037-0.219-0.057-0.273-0.04C748.871-975.34,748.893-975.399,748.893-975.399
					L748.893-975.399"/>
				<path id="armring_right_2_" fill="#3986A8" d="M750.68-975.186c0,0,0.016,0.011,0.032,0.022
					c0.007,0.004,0.014,0.013,0.022,0.015c0.021,0.007,0.02,0,0.02,0.004c0,0,0.223-0.321,0.31-0.371c0,0,0.002-0.033-0.018-0.043
					C751.046-975.559,750.786-975.321,750.68-975.186z"/>
				<path opacity="0.1" fill="#FFFFFF" enable-background="new    " d="M749.925-976.916l0.059,0.105c0,0-0.186,0.024-0.286,0.205
					C749.695-976.608,749.73-976.87,749.925-976.916z"/>
			</g>
		</g>
		<g id="cracks_flag_1_">
			<polygon fill="#C1C1C1" points="751.629,-971.461 751.744,-971.345 751.864,-971.302 751.843,-971.216 751.887,-971.317 
				751.758,-971.374 751.733,-971.494 			"/>
			<polygon fill="#C1C1C1" points="751.744,-971.487 751.76,-971.48 751.769,-971.504 			"/>
			<polygon fill="#C1C1C1" points="751.528,-971.43 751.544,-971.439 751.528,-971.461 			"/>
			<polygon fill="#C1C1C1" points="751.646,-971.485 751.585,-971.463 751.585,-971.406 751.524,-971.406 751.463,-971.312 
				751.505,-971.415 751.565,-971.43 751.57,-971.502 751.615,-971.516 			"/>
			<polygon fill="#C1C1C1" points="751.767,-971.565 751.767,-971.531 751.901,-971.565 751.986,-971.548 752.059,-971.659 
				752.131,-971.635 752.194,-971.681 752.131,-971.64 752.059,-971.67 752.05,-971.672 751.98,-971.57 751.908,-971.594 			"/>
			<polygon fill="#C1C1C1" points="751.62,-971.629 751.62,-971.59 751.567,-971.64 751.463,-971.616 751.487,-971.721 
				751.385,-971.74 751.314,-971.74 751.314,-971.74 751.314,-971.74 751.391,-971.747 751.5,-971.738 751.507,-971.736 
				751.511,-971.733 751.491,-971.646 751.563,-971.67 			"/>
		</g>
		<g id="Flag_1_">
			<path fill="#FFFFFF" d="M752.244-977.922c0,0,0.186-0.179,0.759,0.107c0.574,0.286,1.659,0.227,1.792,0.109l-0.099,1.602
				c0,0-1.137,0.177-1.562-0.013c-0.426-0.19-0.579-0.286-0.799-0.262c-0.221,0.024-0.19,0.048-0.19,0.048L752.244-977.922z"/>
			<path fill="#DBDBDB" d="M751.747-971.526l0.395-6.43c0,0-0.046-0.092-0.111-0.006l-0.395,6.43l0.05,0.089L751.747-971.526z"/>
		</g>
		<g id="Rechterhand_V2_copy_2_1_">
			<path id="hand_2_" fill="#FFFFFF" d="M751.806-975.495c0,0,0.198-0.077,0.142,0.05c0,0-0.065,0.062-0.161,0.072
				c0,0-0.042,0.018-0.085,0.009c0,0-0.053,0.015-0.081-0.116"/>
			<path id="schaduw_4_" fill="#DBDBDB" d="M751.698-975.364c0.044,0.009,0.086-0.009,0.086-0.009
				c0.096-0.011,0.161-0.072,0.161-0.072s-0.033,0.016-0.088,0.026c-0.065,0.013-0.144,0.028-0.161,0.03
				C751.679-975.391,751.652-975.367,751.698-975.364z"/>
			<path id="schaduw_1_" fill="#DBDBDB" d="M751.792-975.535"/>
		</g>
		<g id="Logo_1_">
			<path fill="#2FB2C4" d="M753.554-977.158l0.58-0.292l-0.074,0.395l-0.341,0.148l0.279,0.186l-0.071,0.391l-0.461-0.355
				l-0.571,0.292l0.072-0.391l0.336-0.148l-0.275-0.186l0.072-0.391L753.554-977.158z"/>
			<polygon fill="#444394" points="753.466,-976.687 752.893,-976.395 752.964,-976.785 753.529,-977.036 			"/>
			<polygon fill="#37519E" points="753.529,-977.036 753.998,-976.724 753.924,-976.331 753.466,-976.687 			"/>
			<polygon fill="#2E9DC3" points="753.554,-977.158 753.529,-977.036 753.303,-976.933 753.027,-977.119 753.1,-977.512 			"/>
		</g>
	</g>
</g>
</svg>
