<?xml version="1.0" encoding="utf-8"?>
<!-- Generator: Adobe Illustrator 18.1.0, SVG Export Plug-In . SVG Version: 6.00 Build 0)  -->
<svg version="1.1" id="Layer_1" xmlns="http://www.w3.org/2000/svg" xmlns:xlink="http://www.w3.org/1999/xlink" x="0px" y="0px"
	 viewBox="725 -990.8 2291.5 1116.3" enable-background="new 725 -990.8 2291.5 1116.3" xml:space="preserve">
<g>
	<path fill="#E8E8E8" d="M1870.8-706.3c-523.9,0-965.7,351.6-1102.2,831.7H2973C2836.4-354.6,2394.7-706.3,1870.8-706.3z"/>
</g>
<g id="Astronaut_shaduw">
	<g id="Backpack_copy">
	</g>
	<g id="Rechterhand_V2_copy">
	</g>
	<g id="linkerhand_copy">
	</g>
	<g>
		<path fill="#C1C1C1" d="M1952.3-604c14.9,15.2,29.6,30.5,44.4,45.8c2.4,2.3,4.8,4.6,7.3,6.9c5,9.2,16.4,14.8,15.7,27.3
			c-3.9,7.1-8.8,13.2-15.9,17.4c-13.8,2.4-20.3-7.9-28.1-16c-2.4-2.5-5.2-7-8.3-0.4c-0.8-1.9-1.5-3.9-2.3-5.8c2-2,2.9-2.8-0.1-5.7
			c-18-18.2-35.5-37-53.2-55.6c0.2-0.6,0.4-1.2,0.6-1.8c0.6-0.5,1.2-1.1,1.8-1.7c7.1-7.1,14.1-14.1,21.2-21.2l2.8-2.8L1952.3-604z"
			/>
		<path fill="#C1C1C1" d="M1965.2-528.7c2-2,2.9-2.8-0.1-5.7c-18-18.2-35.5-37-53.2-55.6c-2.8,4.2-2.3,7.3,1.5,11.1
			c14.7,14.8,29.1,30.1,43.6,45.2C1959.3-531.3,1961.4-528.6,1965.2-528.7z"/>
		<path fill="#C1C1C1" d="M2003.9-506.6c-13.8,2.4-20.3-7.9-28.1-16c-2.4-2.5-5.2-7-8.3-0.4c4.8,5.2,9.7,10.3,14.5,15.5
			C1989-499.9,1996.3-500.7,2003.9-506.6z"/>
		<path fill="#C1C1C1" d="M1912.5-591.8c0.6-0.5,1.2-1.1,1.8-1.7C1913.7-592.9,1913.1-592.3,1912.5-591.8z"/>
		<path fill="#C1C1C1" d="M2002.5-619.5c-0.6-0.4-1.1-0.7-1.7-1.1l-0.1,0.2c0.5,0.4,1.1,0.8,1.6,1.2
			C2002.3-619.2,2002.5-619.5,2002.5-619.5z"/>
		<path fill="#C1C1C1" d="M1999.1-621.7c-0.1-0.1-0.2-0.2-0.4-0.3c0.1,0.2,0.2,0.3,0.3,0.5L1999.1-621.7z"/>
		<path id="hand_1_" fill="#C1C1C1" d="M2039.2-631c0,0,1.5,9.4,9.8,5.7c0,0,11.1-5.2,13-14.5c0,0,0.4-2.3-6.8,1
			c0,0-10.2,7.6-9.2,2.7c0,0,9.1-3.5,3.3-6c0,0-4.1-0.1-7.7,2.5c0,0-2,0.7-3.2,2.3C2038.3-637.5,2036.1-636.4,2039.2-631z"/>
		<path id="schaduw_3_" fill="#C1C1C1" d="M2038.3-637.5c1.2-1.7,3.2-2.3,3.2-2.3c3.6-2.6,7.7-2.5,7.7-2.5s-1.6,0.5-3.7,1.8
			c-2.6,1.6-5.8,3.5-6.4,4C2038.5-636,2036.8-636,2038.3-637.5z"/>
		<path id="schaduw_2_" fill="#C1C1C1" d="M2046.7-634.6c0,0,3.2-0.7,5.5-2.4c1.3-0.9,2.9-2.1,4.1-2.4c1-0.3,3.5-1.4,3.9-1.2
			c0.4,0.2-1.7,2.4-2.1,2.9C2056.9-636.1,2053-632.7,2046.7-634.6z"/>
		<path fill="#C1C1C1" d="M1938.2-602.1c0,0,6.4-4.5,12.8-1.2c0,0,2.9-3.7,2.8-6.3c0,0-1.2-0.8-1.3-2.7c0,0,0.2-6.9-8.3-6.7
			C1944.3-619,1930.7-614.6,1938.2-602.1z"/>
		<path fill="#C1C1C1" d="M1936.1-607.6c-1.3-8.3,8.2-11.4,8.2-11.4c8.5-0.3,8.3,6.7,8.3,6.7c0.1,1.9,1.3,2.7,1.3,2.7l-1,0.4
			l-0.7-2.3l-0.4-1.7l-8-2.6L1936.1-607.6z"/>
		<path id="Benen__x2F__schoenen_1_" fill="#C1C1C1" d="M1916.4-597.7c0,0-1.6,0.4-2.1-2.3c0,0-2.3,0.2-1.8-2.7c0,0-4.3-0.6-3.8-2.5
			c0,0-3.4,0.9-2.5-2.7c0,0-2.6-3.1-5-4.4c0,0-4.1-1.9-5.8-5.5c0,0-1.8-0.8-1.3-2.5c0,0-2-0.2-2.2-2.5c0,0-1.8-0.4-1.9-2.6
			c0,0-2-1.1-1.8-2.4c0,0-0.6,0.6-1.5-0.5c0,0-2.3-1.6-1.5-3.2c0,0-0.8-0.5-2.3-2c-1.4-1.6-3.5-3.4-4.7-3.4c-1.2,0-2.6-0.4-2.4-2.2
			c0.3-1.8,0.1-2.3-0.9-2.4c-1-0.1-1.2-1.3-1.2-1.3s-1.6,0.3-1.8-1c-0.2-1.3-2.1-0.9-2.8-1.2c-0.7-0.2-6.2-3.4-8-6.1
			c-1.8-2.7-3.2-7.9-5.9-9.2c-2.6-1.3-2.2-2.8-2.2-2.8s-4.8,1.2-6.1-3.5c0,0-3.4-2.8-4.6-5.3c0,0-2.8,0.2-2.8-1.9
			c0,0-2.6-0.2-2.7-2.8c0,0-3.1-2.3-3.2-4.4c0,0,0-1-2.7-3.8c-2.7-2.8-3.5-7.8,4.5-14.2c8.1-6.4,10.1-4,12.5-1.2c0,0,0.8,1,1.8,3.5
			c0,0,0.3-1.7,2,0.1c0,0,1.2,1.9,1,3.5c0,0,4.3-0.5,3.4,1.3c0,0,2.8,0.5,2.4,2.4c0,0,1.1-1.4,1.8-0.9c0.6,0.4,5.9,6.5,5.9,6.5
			s0.4,0.9-0.8,1.2c0,0,2.5,1.4,2.6,2.7c0,0,3.9,1.3,3.1,2.5c0,0,3.1-1.7,3.9,0.4c0,0,2.7-0.9,4.8,2.1c0,0,2.2-0.6,4,2.5
			c0,0,5.7,2.5,5.9,5c0,0,3.3,3.7,5.4,3.8c2.1,0.1,5.2,0,4.1,2.5c0,0,2.7,0,2.5,3c0,0,3.9,4.5,5.9,4.7c0,0,3,0.4,2.1,2.4
			c0,0,2,3.2,4.4,3.6c0,0,1.5,2.4,2.6,2.9c1.1,0.5,4.5,2,6.2,2.9c1.7,0.9,5.2,2.8,5.2,2.8s-1.4-1.3,1.4-4.2c0,0,1.9-2.5-3.2-2.8
			c0,0-3.4-1.3-1.9-6.5c0,0-0.8-3.8-3.9-4.3c0,0-1.2,0.2-0.5-3.4c0,0,0.3-1.1-1-2.4c-1.3-1.2-1.3-4.5-1.3-4.5s-3.1-1.5-3.7-2.1
			c-0.6-0.6-2.1-3-2.1-4.2c0,0-2.5-2.4-2.6-4c0,0-2.5-0.7-5.2-3.7c-2.7-3-8.1-7.1-7.4-10.8c0,0,0.9-2.5-0.4-2.5c0,0-1.2-0.7-1-1.4
			c0,0-4.2-2.8-3.3-5.1c0,0-0.4-2.3-2.9-3.2c0,0-2.3-2.3-4.1-4.7c-1.8-2.4,5.2-4.6,4.4-6.5c-0.8-1.9-4.7-6.8-2.7-9.6
			c0,0-2.2-5.8-0.7-8c1.5-2.2,6-8.1,11.2-10c0,0,3.2-2.3,5.3,1.1c2.1,3.5,2.8,12.8,0.3,15.6c0,0-0.6,2.9,1.9,2.8
			c0,0,0.2,3.6,1.6,7.5c0,0,3.7,0.4,4,2.2c0,0,3.3,1.4,2.5,3.8c0,0,0.3,4.3,2.2,7.2c0,0,5-0.3,7.2,0.4c0,0,2.8,0.2,3,1.4
			c0,0,4.6,0.2,2.9,2l-0.7,0.1c0,0,9.8,5.4,8.8,7.6c0,0,4.1,2,2.3,3.7c0,0-1.1,0.8,1.5,1.4c0,0,2.7,1.8,3,2.9c0.3,1.1,2,1,2,2.2
			c-0.1,1.2,2.2,2.5,2.2,2.5s3.6,1.4,4.3,0.4c0.7-1,3,1.7,2.3,4.1l6.4,7.3c0,0,2.5,5.1,4.3,4c1.8-1.2,2.6-0.5,4.3,4.5
			c1.7,5,1.4,4.5-5.3,10.2l3.4,7.6c0,0,1.7,1.9,2.7,4.5c0,0,0.9,6.5,2.4,7.1l-46.5,37.7c0,0-2-0.8-2.5-2.5c0,0-0.1-0.9-1.3-0.5
			c0,0-1.2,0-2.4-2.1c0,0-1.6,0.7-2.5-1.4L1916.4-597.7z"/>
		<path id="shaduw_linkerbeen_1_" fill="#C1C1C1" d="M1850.2-672c0,0,10.9-7.3,14.3-5.2c3.5,2,7.4,5.4,7.4,5.4l-3.7,4.2l7.4-1.9
			c0,0,6.6-0.4,7.6,5.4c1,5.8,11.4,8.9,11.4,8.9s10.7,6,9.8,10.8c-0.9,4.7-1.2,6.1-2.3,8.8c-1.1,2.7,11.5-5.2,11.5-5.2
			s6.2,2,6.7,5.1c0.6,3.1,4.5,4.5,4.8,4.6c0.4,0.1,1.2,5.2-1.8,7.9c0,0,1,1.1-1.5,3.6c-2.5,2.5,4.5,3.2,13.8-10.6
			c3.3-4.9,4.8-12,3.5-12.9c-1.4-0.9-7.5-2.5-9-0.8c-3.8,4.2-1.7,7.2-1.7,7.2l-0.1-2c0,0-3.5-1.9-5.2-2.8c-1.7-0.9-5.1-2.4-6.2-2.9
			c-1.1-0.5-2.6-2.9-2.6-2.9c-2.5-0.5-4.4-3.6-4.4-3.6c0.8-1.9-2.1-2.4-2.1-2.4c-2-0.1-5.9-4.6-5.9-4.6c0.2-3-2.5-3-2.5-3
			c1.1-2.5-2-2.4-4.1-2.5c-2.1-0.1-5.4-3.8-5.4-3.8c-0.2-2.5-5.9-5-5.9-5c-1.8-3-4-2.5-4-2.5c-2.1-2.9-4.8-2.1-4.8-2.1
			c-0.7-2-3.9-0.4-3.9-0.4c0.8-1.2-3.1-2.5-3.1-2.5c-0.1-1.2-2.6-2.7-2.6-2.7c1.1-0.3,0.8-1.2,0.8-1.2l-1.7,1.2
			C1864.7-682.5,1857.2-682.3,1850.2-672z"/>
		<path id="shaduw_rechterbeen_1_" fill="#C1C1C1" d="M1972.5-628.5c-1.4-0.6-2.4-7.1-2.4-7.1c-1-2.6-2.7-4.5-2.7-4.5l-3.4-7.6
			c6.7-5.7,7-5.2,5.3-10.2c-1.7-5-2.5-5.6-4.3-4.5c-1.8,1.2-4.3-4-4.3-4l-6.4-7.3c0.6-2.4-1.6-5-2.3-4.1s-4.3-0.4-4.3-0.4
			s-2.3-1.3-2.2-2.5c0.1-1.2-1.7-1.1-2-2.2c-0.3-1.1-3-2.9-3-2.9c-2.6-0.6-1.5-1.4-1.5-1.4c1.8-1.7-2.3-3.7-2.3-3.7
			c1-2.2-8.8-7.6-8.8-7.6l0.7-0.1c1.6-1.8-3.7-2.1-3.7-2.1c-0.2-1.2-2.9-1.5-2.9-1.5c-2.2-0.6-6.6,0.6-6.6,0.6
			c-1.9-2.9-2.2-8.1-2.2-8.1c0.9-2.3-2.5-3.8-2.5-3.8c-0.3-1.8-6.5-3.8-6.5-3.8s-1.2-0.2-4.7,2.3c-3.5,2.5-8.3,4.9-1.5,5.5
			c6.7,0.6,12.4-5.5,14.2,4.2c0,0-5.6,9.6,4.1,8c0,0,4.6-4.8,4.3,2.2l-3.9,8.9l8.5-4.7c0,0,6.3-0.4,4.8,3.4
			c-1.5,3.8,2.9,12.8,8.2,11c5.3-1.8,6,2,8.2,4.5c2.2,2.6,2.4,6.4,8.6,11.1c6.1,4.7,6.6,11.5,6.6,11.5l-0.7,6.2l3-1l-2.7,9.5
			c0,0,2.9-5.9,4.4-4.7c1.4,1.2,0.2,7.5,0.2,7.5s3.4,3.2,4.3,1.8L1972.5-628.5z"/>
		<path id="linkerschoen_1_" fill="#C1C1C1" d="M1842.5-672c0,0-2.8,0.2-2.8-1.9c0,0-2.6-0.2-2.7-2.8c0,0-3.1-2.3-3.2-4.4
			c0,0,0-1-2.7-3.8c-2.7-2.8-3.5-7.8,4.5-14.2c8.1-6.4,10.1-4,12.5-1.2c0,0,0.8,1,1.8,3.5c0,0,0.3-1.7,2,0.1c0,0,1.2,1.9,1,3.5
			c0,0,4.3-0.5,3.4,1.3c0,0,2.8,0.5,2.4,2.4c0,0,1.1-1.4,1.8-0.9c0,0,4.6,5.8,5.9,6.5c0,0,0.5,1.1-0.8,1.2c0,0-9.7-1.1-18.5,15.9
			C1847-666.7,1842.5-669.5,1842.5-672z"/>
		<path id="Rechterschoen_1_" fill="#C1C1C1" d="M1907.2-715.9c-0.3-1.8-0.7-1.4-0.7-1.4c-1.4-3.9-1.4-5.8-1.4-5.8c-2.5,0.1-2-5-2-5
			c2.4-2.8,2-10-0.1-13.4c-2.1-3.5-5.3-1.1-5.3-1.1c-5.1,2-9.7,7.8-11.2,10c-1.5,2.2,0.7,8,0.7,8c-2,2.8,0.1,6.4,0.9,8.2
			c0.8,1.9-0.9,5.7-2.7,7.9c-1.9,2.4,4.1,4.7,4.1,4.7c2.6,1,2.9,3.2,2.9,3.2s0.8-2.1,2.5-3c0,0-6.3-5.3-4.9-6.7c1.5-1.5,3-0.9,5-1.4
			C1896.9-712.1,1903.3-725.6,1907.2-715.9z"/>
		<path id="rechterbroekzak_1_" fill="#C1C1C1" d="M1947.4-678.3c0,0-3.3,3.6-6.3,5.3c0,0-3.4,4.1-4.5,5.6c0,0-0.3,2.4,2.9,5
			c3.2,2.6,6.1,11.3,7,13.1c0,0,2.3,8.1,5.7,6.8c0,0,8.9-4.9,11.8-5.2c6.7-5.7,7-5.2,5.3-10.2c-1.7-5-2.5-5.6-4.3-4.5
			c-1.8,1.2-4.3-4-4.3-4l-6.4-7.3c0.6-2.4-1.6-5-2.3-4.1s-4.3-0.4-4.3-0.4"/>
		<path id="Linkerlijn_1_" fill="#C1C1C1" d="M1885.3-631.6c-0.8,1.6,1.5,3.2,1.5,3.2c0.9,1.2,1.5,0.5,1.5,0.5s1.8-7.1,10.5-15.1
			c0,0,2.1-2.4,3-3.6c0.9-1.2,2.4-1.5,3.1-2.3c0.6-0.8,2.9-3,3.7-2.9c0.8,0.1,0.9-0.9,0.1-1.4c-0.7-0.5-2.1-0.5-2.8-1.1
			c0,0-0.8-0.4-1.4,0.2c-0.6,0.6-7.6,5.8-14.2,14.4c0,0-2.2,3.2-3.6,5.2C1885.3-632.5,1886.1-632.5,1885.3-631.6z"/>
		<path id="Rechterlijn_1_" fill="#C1C1C1" d="M1917.9-666.9c0,0,0.1,3.2,1.3,4.5l0.9,1.4c0,0-0.2-2.3,0.3-3.7
			c0.5-1.4,1-4.6,6.7-8.4l8.6-6.7c0,0,6.1-3.5,7.7-3c1.1,0.3-3-2.9-3-2.9s-5.9,1.3-10.8,5.4C1924.7-676.3,1918.8-670.9,1917.9-666.9
			z"/>
		<path id="Romp_8_" fill="#C1C1C1" d="M1972.5-628.5c0,0,0.4,2.7,3.9,6c1.6,1.6,5.5,2.8,7.4,5c1.9,2.1,2.5,6.3,4.8,8.5
			c2.6,2.5,4.8,2.3,6.9,4.4c5.7,5.9,9,11.9,9,11.9s8.2,12.3,11.4,12.6c3.2,0.3-0.3,11.2,9.9,19.2c0,0-18.9,9.7-21.6,11.3
			s-9.7,4.4-12.8,5.4c-3.1,0.9-19.2,3.7-27.6-13.9c0,0,4.8-6.9,0.4-9.7c-4.3-2.8-10.1-2-10.1-2s-20.4-12.2-29.1-21.5
			C1916.3-600.7,1972.5-628.5,1972.5-628.5z"/>
		<path id="nekring_1_" fill="#C1C1C1" d="M1985.6-543.5c0,0,4.6-0.3,5.8-0.7c1.2-0.4,22.7-21.7,28-21.5c0,0,2.1-0.1,0-3.7l-0.9-3.6
			C2018.5-573,1992.7-571.1,1985.6-543.5z"/>
		<path id="helm_1_" fill="#C1C1C1" d="M2033.9-559c-9.9-10.9-22.7-12.5-33.6-2.6c-10.9,9.9-12.1,25.3-2.3,36.2
			c9.9,10.9,24.1,13,35.6,2.6C2044.5-532.6,2043.8-548.1,2033.9-559z"/>
		<path id="helm_schaduw_1_" fill="#C1C1C1" d="M2000.3-561.6c10.9-9.9,23.7-8.3,33.6,2.6c3,3.3,5.2,7,6.4,10.9
			c1.5,4.6,1.7,9.3,0.5,13.8c0,0-7.5-17.4-16-22.7C2011.9-564.8,2000.3-561.6,2000.3-561.6z"/>
		<path fill="#C1C1C1" d="M2029.8-558c-7.6-8.4-17-9.9-24.8-2.9c-7.7,7-8.2,18.4-0.6,26.8c7.6,8.4,18.1,10.3,26.2,3
			C2038.3-538.1,2037.4-549.6,2029.8-558z"/>
		<path id="Rechterarm_8_" fill="#C1C1C1" d="M2018.5-573c0,0,10.7-13.2,4.3-24.7c0,0,2.2-7.8-1.4-14.5c0,0-0.5-1.1,1-1.5
			c1.5-0.4,3.8-1.4,4-2.6c0,0,4.7,2.6,7.4-1.5c0,0,4.9-1.5,9.7-6.6c0,0-1.6-3.3-3-6c-1.4-2.7-2.5-3.4-2.1-6.4c0.4-3-2.2-2.2-2.2-2.2
			s-0.1-2.7-3.8,0.1c0,0-1.7-1-3.6,1.6c0,0-2.7-0.8-5.8,0.6c0,0-1.7-2.1-4.2,0.1c0,0-0.3,1.4-1.8-0.3c0,0-1.7-0.9-3.8,1.5
			c0,0-1.5-0.5-2.7,1.6c0,0-3,0.3-4.3,3.1c0,0-6.6,5-5.4,10.8c0,0-0.4,2.6-1.8,4.6c0,0-2,5.6-0.9,7.9c0,0-1.9,0.6-0.7,3.5
			c0,0,0.5,1.9-0.4,2.6l-1,0c0,0,2.9,2.1,2.9,5.2c0,0,2.6,5.4,5.4,5.9c0,0,7.4,4.5,5.7,8c0,0-1.5,5.3,2.5,5.3
			S2018.2-573.6,2018.5-573z"/>
		<path id="leftarm_8_" fill="#C1C1C1" d="M1981.9-541.6c0,0-10.6,7.1-21.6,4.4c0,0-7.2-0.5-11.8-8.2c0,0-3.6-0.1-4.1-4.9
			c0,0-2.6-0.9-3.8-2.2c0,0-2.1-2.4-4.9-2.3c0,0-6.4-1.1-7.1-8.6c0,0-4.1-2.4-1.7-5.7c0,0-1.9-5.7,2.1-13.4c0,0-2-9,9.1-19.6
			l5.3-6.1l7,2.7l0.5,2.2c0,0,3.9,4.4-1,7.7c0,0,5.3,4.9,0.9,11.1c0,0,1.8,2.7-2.3,6c0,0,3.8,1.7,1.6,6.2c0,0,0.2,1.2,1.1,1.4
			c0,0,0.9-0.8,3.1,1l1.9,0.8c0,0,0.8-3.2,7,1c0,0,2.1,4.4,5.3,1.9C1971.9-568.7,1991.9-553.9,1981.9-541.6z"/>
		<path id="leftarm_1_" fill="#C1C1C1" d="M1958.6-570.6c0,0,1.6-2.2,7.7,1.9c0,0,4.3,0.3,4.8,2.4c0,0-1.8,2.9-7.4,1.1
			c-5.6-1.8-5.1-2.9-7-1.1c0,0-4.4-3.3-6.7-3.4c0,0-2.8-2.8-5.6-1.7c-2.4,1,4.5-1.6,4.2-5.3c-0.3-3.7-2.4-6.4-2.4-6.4
			s2.7-2.2,2.9-4.8s-2.3-4.6-0.5-7.2c1.8-2.6,3.2-4.2,2.3-5.6c-0.9-1.5-2.1-0.8-1.5-1.8l1.7-1c0,0,3.2,5.1,1.2,7.3
			c0,0,4,3.6-0.5,9.9c0,0,3.2,2.6-0.9,6c0,0,2.1,2.7,0,7.2c0,0,1.7,1.4,2.7,1.6l2.6,0.2L1958.6-570.6z"/>
		<path id="Romp_2_" fill="#C1C1C1" d="M2004.5-592.7c0,0-3.3-6-9-11.9c-2.1-2.2-4.4-2-6.9-4.4c-2.3-2.2-2.9-6.4-4.8-8.5
			c-2-2.2-5.6-4.2-7.3-5.8c-3.5-3.3-5.5-8.1-5.5-8.1c0.2,0.4-1.3,0.2-1.7,1.5c-1.2,4.1-3.1,12.2-0.9,10.8c2.8-1.8,5.2-0.9,5.2-0.9
			s9,4.9,9,8c0,3.1,3.8,5.3,4,5.6c0.2,0.2,7,4.7,7.3,10.3C1993.9-596.1,2002.7-595.3,2004.5-592.7"/>
		<path id="Rechterarm_1_" fill="#C1C1C1" d="M2001.6-596.1c-2.8-0.5-2.7-0.1-2.7-0.1c0.1-3.1-2.9-5.2-2.9-5.2l1,0
			c0.9-0.7,0.4-2.6,0.4-2.6c-1.2-2.9,0.7-3.5,0.7-3.5c-1.1-2.2,0.9-7.9,0.9-7.9c1.5-2,1.8-4.6,1.8-4.6c-1.2-5.8,5.4-10.8,5.4-10.8
			c1.3-2.8,4.3-3.1,4.3-3.1c1.3-2.1,2.7-1.6,2.7-1.6c2.1-2.4,3.8-1.5,3.8-1.5c1.5,1.7,1.8,0.3,1.8,0.3c2.5-2.2,4.2-0.1,4.2-0.1
			c3.1-1.4,5.8-0.6,5.8-0.6c1.9-2.6,3.6-1.6,3.6-1.6c3.7-2.8,3.8-0.1,3.8-0.1c2-0.4,2,0.6,2.2,1.3c0.2,0.8-3.6,2.2-8.3,3.2
			c-4.7,1-4.5,6.9-5.9,5.4c-1.4-1.6-7-1.7-10.6,1.1c-3.6,2.8,0.9,7.7,0.9,7.7s-1.4-2-6.4-0.6c-5,1.3-5.5,12.5-4.2,15.9
			c1.4,3.4,2.9,5.7,2.9,5.7c-3.9,1.3,0.6,7.8,0.6,7.8C2005.8-591.1,2003.2-594,2001.6-596.1z"/>
		<path id="armring_left_1_" fill="#C1C1C1" d="M1944.1-549.9c0,0,11.4-11.8,10.3-21.5c0,0-1.5-0.9-2.8-1.2c0,0-0.8,5.5-3.1,10.4
			c-2,4.1-5.7,8.7-8,9.7C1941.5-551.3,1944.1-549.9,1944.1-549.9L1944.1-549.9"/>
		<path id="armring_right_1_" fill="#C1C1C1" d="M1998.2-612.2c0,0,0.1-0.9,0.4-1.8c0.1-0.3,0.1-0.9,0.2-1.2
			c0.5-0.9,0.7-0.6,0.5-0.7c0,0,17.4,4.1,22,3.1c0,0,1.1,1.1,0.7,2C2022.1-610.8,2005.9-610.9,1998.2-612.2z"/>
		<path opacity="0.1" fill="#C1C1C1" enable-background="new    " d="M2025.8-530.1l-1.2-5.3c0,0-7,4.9-16,1.9
			C2008.6-533.6,2017.8-525.8,2025.8-530.1z"/>
	</g>
</g>
<g id="Maancircels">
	<circle fill="#D6D6D6" cx="2030.3" cy="-481.1" r="12"/>
	<path fill="#C6C6C6" d="M2030.3-469.1c-6.6,0-12-5.4-12-12c0-6.6,5.4-12,12-12c0,0-7.7,4-7.7,12
		C2022.6-473.1,2030.3-469.1,2030.3-469.1z"/>
	<circle fill="#D6D6D6" cx="1770.8" cy="-626.1" r="7.6"/>
	<path fill="#C6C6C6" d="M1770.3-618.5c-4.2-0.3-7.4-3.9-7.1-8.1s3.9-7.4,8.1-7.1c0,0-5.8,2.2-6.2,7.2
		C1764.8-621.4,1770.3-618.5,1770.3-618.5z"/>
	<circle fill="#D6D6D6" cx="2302.3" cy="-416.5" r="7.6"/>
	<path fill="#C6C6C6" d="M2301.8-408.9c-4.2-0.3-7.4-3.9-7.1-8.1s3.9-7.4,8.1-7.1c0,0-5.8,2.2-6.2,7.2
		C2296.3-411.8,2301.8-408.9,2301.8-408.9z"/>
	<circle fill="#D6D6D6" cx="1292" cy="-133.7" r="7.6"/>
	<path fill="#C6C6C6" d="M1291.5-126.1c-4.2-0.3-7.4-3.9-7.1-8.1s3.9-7.4,8.1-7.1c0,0-5.8,2.2-6.2,7.2
		C1286-129.1,1291.5-126.1,1291.5-126.1z"/>
	<circle fill="#D6D6D6" cx="1205.1" cy="-416.5" r="7.6"/>
	<path fill="#C6C6C6" d="M1204.6-408.9c-4.2-0.3-7.4-3.9-7.1-8.1c0.3-4.2,3.9-7.4,8.1-7.1c0,0-5.8,2.2-6.2,7.2
		C1199.1-411.8,1204.6-408.9,1204.6-408.9z"/>
	<circle fill="#D6D6D6" cx="2458.3" cy="-228.2" r="7.6"/>
	<path fill="#C6C6C6" d="M2457.8-220.6c-4.2-0.3-7.4-3.9-7.1-8.1c0.3-4.2,3.9-7.4,8.1-7.1c0,0-5.8,2.2-6.2,7.2
		C2452.3-223.5,2457.8-220.6,2457.8-220.6z"/>
	<circle fill="#D6D6D6" cx="2705.6" cy="-235.8" r="7.6"/>
	<path fill="#C6C6C6" d="M2705.1-228.2c-4.2-0.3-7.4-3.9-7.1-8.1c0.3-4.2,3.9-7.4,8.1-7.1c0,0-5.8,2.2-6.2,7.2
		C2699.6-231.1,2705.1-228.2,2705.1-228.2z"/>
	<circle fill="#D6D6D6" cx="1648.1" cy="29.8" r="7.6"/>
	<path fill="#C6C6C6" d="M1647.6,37.4c-4.2-0.3-7.4-3.9-7.1-8.1c0.3-4.2,3.9-7.4,8.1-7.1c0,0-5.8,2.2-6.2,7.2
		C1642.1,34.5,1647.6,37.4,1647.6,37.4z"/>
	<circle fill="#D6D6D6" cx="1539.6" cy="-19.7" r="16.5"/>
	<path fill="#C6C6C6" d="M1538.5-3.3c-9.1-0.6-16-8.4-15.4-17.5c0.6-9.1,8.4-16,17.5-15.4c0,0-12.6,4.7-13.4,15.7
		S1538.5-3.3,1538.5-3.3z"/>
	<circle fill="#D6D6D6" cx="1847.8" cy="13.3" r="13.9"/>
	<path fill="#C6C6C6" d="M1846.9,27.1c-7.6-0.5-13.4-7.1-12.9-14.7c0.5-7.6,7.1-13.4,14.7-12.9c0,0-10.6,4-11.2,13.2
		C1836.9,21.8,1846.9,27.1,1846.9,27.1z"/>
	<circle fill="#D6D6D6" cx="2298.7" cy="-19.7" r="9.3"/>
	<path fill="#C6C6C6" d="M2298.1-10.5c-5.1-0.3-9-4.8-8.7-9.9c0.3-5.1,4.8-9,9.9-8.7c0,0-7.1,2.7-7.5,8.8
		C2291.4-14,2298.1-10.5,2298.1-10.5z"/>
	<path fill="#D6D6D6" d="M2079.8,53.3c-0.6,9.8-9.1,17.3-19,16.7c-9.8-0.6-17.3-9.1-16.7-19s9.1-17.3,19-16.7
		C2073,35,2080.4,43.5,2079.8,53.3z"/>
	<path fill="#C6C6C6" d="M2060.8,70c-9.8-0.6-17.3-9.1-16.7-19s9.1-17.3,19-16.7c0,0-13.7,5.1-14.5,16.9
		C2047.9,63.1,2060.8,70,2060.8,70z"/>
	<circle fill="#D6D6D6" cx="2076.8" cy="-610.9" r="4.8"/>
	<path fill="#C6C6C6" d="M2076.5-606.1c-2.6-0.2-4.6-2.4-4.5-5.1c0.2-2.6,2.4-4.6,5.1-4.5c0,0-3.8,1.6-4,4.8
		C2072.9-607.7,2076.5-606.1,2076.5-606.1z"/>
	<circle fill="#D6D6D6" cx="2397.7" cy="-470.1" r="4.8"/>
	<path fill="#C6C6C6" d="M2397.4-465.4c-2.6-0.2-4.6-2.4-4.5-5.1c0.2-2.6,2.4-4.6,5.1-4.5c0,0-3.8,1.6-4,4.8
		S2397.4-465.4,2397.4-465.4z"/>
	<circle fill="#D6D6D6" cx="1158.8" cy="-89" r="7.6"/>
	<path fill="#C6C6C6" d="M1158.3-81.4c-4.2-0.3-7.4-3.9-7.1-8.1s3.9-7.4,8.1-7.1c0,0-5.8,2.2-6.2,7.2
		C1152.8-84.3,1158.3-81.4,1158.3-81.4z"/>
	<circle fill="#D6D6D6" cx="1124.2" cy="-252.6" r="4.8"/>
	<path fill="#C6C6C6" d="M1123.9-247.9c-2.6-0.2-4.6-2.4-4.5-5.1c0.2-2.6,2.4-4.6,5.1-4.5c0,0-3.8,1.6-4,4.8
		S1123.9-247.9,1123.9-247.9z"/>
	<circle fill="#D6D6D6" cx="2543.2" cy="-416.5" r="4.8"/>
	<path fill="#C6C6C6" d="M2542.9-411.7c-2.6-0.2-4.6-2.4-4.5-5.1c0.2-2.6,2.4-4.6,5.1-4.5c0,0-3.8,1.6-4,4.8
		S2542.9-411.7,2542.9-411.7z"/>
	<circle fill="#D6D6D6" cx="1681.3" cy="-505.1" r="35"/>
	<path fill="#C6C6C6" d="M1681.3-470.1c-19.3,0-35-15.7-35-35c0-19.3,15.7-35,35-35c0,0-21.6,11.8-21.6,35
		C1659.7-481.9,1681.3-470.1,1681.3-470.1z"/>
	<circle fill="#D6D6D6" cx="1336.3" cy="-344.6" r="35"/>
	<path fill="#C6C6C6" d="M1336.3-309.6c-19.3,0-35-15.7-35-35c0-19.3,15.7-35,35-35c0,0-21.6,11.8-21.6,35
		C1314.7-321.4,1336.3-309.6,1336.3-309.6z"/>
	<circle fill="#D6D6D6" cx="2229.3" cy="-546.1" r="20.1"/>
	<path fill="#C6C6C6" d="M2229.3-526.1c-11.1,0-20.1-9-20.1-20.1c0-11.1,9-20.1,20.1-20.1c0,0-14,6.7-14,20.1
		C2215.3-532.8,2229.3-526.1,2229.3-526.1z"/>
	<circle fill="#C9C9C9" cx="1928.3" cy="-604.1" r="25.1"/>
	<path fill="#B7B7B7" d="M1928.3-579.1c-13.8,0-25.1-11.2-25.1-25.1c0-13.8,11.2-25.1,25.1-25.1c0,0-18.7,8.4-18.7,25.1
		C1909.6-587.5,1928.3-579.1,1928.3-579.1z"/>
	<circle fill="#D6D6D6" cx="1224.4" cy="5.3" r="25.1"/>
	<path fill="#C6C6C6" d="M1224.4,30.4c-13.8,0-25.1-11.2-25.1-25.1c0-13.8,11.2-25.1,25.1-25.1c0,0-18.7,8.4-18.7,25.1
		C1205.7,22,1224.4,30.4,1224.4,30.4z"/>
	<circle fill="#C9C9C9" cx="2470.8" cy="-344.6" r="25.1"/>
	<path fill="#B7B7B7" d="M2470.8-319.6c-13.8,0-25.1-11.2-25.1-25.1c0-13.8,11.2-25.1,25.1-25.1c0,0-18.7,8.4-18.7,25.1
		C2452.1-328,2470.8-319.6,2470.8-319.6z"/>
	<circle fill="#D6D6D6" cx="1442.3" cy="-481.1" r="17.1"/>
	<path fill="#C6C6C6" d="M1442.3-464.1c-9.4,0-17.1-7.6-17.1-17.1c0-9.4,7.6-17.1,17.1-17.1c0,0-13.9,5.7-13.9,17.1
		C1428.4-469.8,1442.3-464.1,1442.3-464.1z"/>
	<circle fill="#D6D6D6" cx="2544.1" cy="36" r="22.7"/>
	<path fill="#C6C6C6" d="M2544.1,58.8c-12.6,0-22.7-10.2-22.7-22.7c0-12.6,10.2-22.7,22.7-22.7c0,0-18.5,7.6-18.6,22.7
		C2525.5,51.1,2544.1,58.8,2544.1,58.8z"/>
	<circle fill="#D6D6D6" cx="2309.9" cy="-297.8" r="17.1"/>
	<path fill="#C6C6C6" d="M2309.9-280.8c-9.4,0-17.1-7.6-17.1-17.1c0-9.4,7.6-17.1,17.1-17.1c0,0-13.9,5.7-13.9,17.1
		C2296-286.5,2309.9-280.8,2309.9-280.8z"/>
	<circle fill="#D6D6D6" cx="1880.4" cy="-424.1" r="17"/>
	<path fill="#C6C6C6" d="M1880.4-407.1c-9.4,0-17-7.6-17-17c0-9.4,7.6-17,17-17c0,0-14.5,6.8-14.5,18.1
		C1865.9-411.7,1880.4-407.1,1880.4-407.1z"/>
	<circle fill="#D6D6D6" cx="2621.4" cy="-122.6" r="17"/>
	<path fill="#C6C6C6" d="M2621.4-105.6c-9.4,0-17-7.6-17-17c0-9.4,7.6-17,17-17c0,0-14.5,6.8-14.5,18.1
		C2606.8-110.2,2621.4-105.6,2621.4-105.6z"/>
	<circle fill="#D6D6D6" cx="1408.3" cy="-179.1" r="17"/>
	<path fill="#C6C6C6" d="M1408.3-162.1c-9.4,0-17-7.6-17-17c0-9.4,7.6-17,17-17c0,0-14.5,6.8-14.5,18.1
		C1393.8-166.7,1408.3-162.1,1408.3-162.1z"/>
	<circle fill="#D6D6D6" cx="1204.4" cy="-215.8" r="17"/>
	<path fill="#C6C6C6" d="M1204.4-198.8c-9.4,0-17-7.6-17-17c0-9.4,7.6-17,17-17c0,0-14.5,6.8-14.5,18.1
		C1189.9-203.4,1204.4-198.8,1204.4-198.8z"/>
	<circle fill="#D6D6D6" cx="987.2" cy="-114.4" r="17"/>
	<path fill="#C6C6C6" d="M987.2-97.4c-9.4,0-17-7.6-17-17c0-9.4,7.6-17,17-17c0,0-14.5,6.8-14.5,18.1
		C972.7-102,987.2-97.4,987.2-97.4z"/>
</g>
<g id="Astronaut">
	<g>
		<g>
			<g>
				<path fill="#E8E8E8" d="M1862.8-837.1c0.9-21.3,1.5-42.5,2.2-63.8c0.3-3.3,0.5-6.7,0.8-10c-2.5-10.2,2.2-22-6.7-30.8
					c-7.6-2.7-15.4-3.9-23.4-2.2c-11.9,7.5-9.7,19.5-10.1,30.7c-0.1,3.4,0.8,8.7-5.9,5.8c0.7,1.9,1.5,3.9,2.2,5.8
					c2.8,0.1,4,0.1,3.8,4.3c-1.1,25.6-1.5,51.3-2.1,76.9c0.5,0.3,1.1,0.6,1.6,0.9c0.8,0,1.6,0,2.4,0c10,0.5,20,1,29.9,1.5l4,0.3
					L1862.8-837.1z"/>
			</g>
			<path fill="#FFFFFF" d="M1821.8-901.5c2.8,0.1,4,0.1,3.8,4.3c-1.1,25.6-1.5,51.3-2.1,76.9c-4.9-1.2-6.6-3.9-6.4-9.2
				c1-20.9,1.3-41.8,1.9-62.7C1819.1-895.6,1818.9-899,1821.8-901.5z"/>
			<path fill="#FFFFFF" d="M1835.6-943.9c-11.9,7.5-9.7,19.5-10.1,30.7c-0.1,3.4,0.8,8.7-5.9,5.8c0.1-7.1,0.3-14.1,0.3-21.2
				C1820-938.8,1826.1-943.1,1835.6-943.9z"/>
			<path fill="#FBFBFB" d="M1825.1-819.4c0.8,0,1.6,0,2.4,0C1826.7-819.4,1825.9-819.4,1825.1-819.4z"/>
			<path fill="#F8F8F8" d="M1910.3-859.3c-0.2,0.7-0.3,1.3-0.5,1.9c0,0-0.2,0-0.2,0c0.1-0.7,0.2-1.3,0.4-2
				C1910-859.4,1910.3-859.3,1910.3-859.3z"/>
			<path fill="#F8F8F8" d="M1909.4-855.4c0,0.2,0,0.3,0,0.5c0-0.2-0.1-0.3-0.1-0.5L1909.4-855.4z"/>
		</g>
		<path id="Benen__x2F__schoenen_10_" fill="#FFFFFF" d="M1832-817.6c0,0-1.4,0.8,0,3.1c0,0-1.8,1.4,0.5,3.2c0,0-2.8,3.4-1.2,4.4
			c0,0-3.1,1.6,0,3.7c0,0,0.2,4.1-0.8,6.6c0,0-1.7,4.2-0.6,8c0,0-0.8,1.8,0.8,2.7c0,0-1.3,1.5,0,3.3c0,0-1.1,1.6,0.3,3.2
			c0,0-0.7,2.2,0.3,3c0,0-0.9-0.1-0.8,1.4c0,0-0.7,2.8,1.1,3.4c0,0-0.3,0.9-0.3,3s-0.3,4.8-1.2,5.7s-1.7,2.1-0.3,3.2s1.6,1.6,1,2.4
			s0,1.8,0,1.8s-1.4,0.9-0.7,2s-0.9,2.1-1.3,2.7s-2.4,6.7-1.8,9.9s2.9,8,1.8,10.7s0.2,3.6,0.2,3.6s-4.3,2.3-2.2,6.7
			c0,0-0.6,4.3,0.2,7c0,0-2.2,1.7-0.8,3.2c0,0-1.8,1.9-0.1,3.9c0,0-0.8,3.8,0.6,5.4c0,0,0.7,0.7,0.6,4.6s2.6,8.1,12.9,7.4
			s10.1-3.8,10.1-7.5c0,0-0.1-1.2-1.1-3.8c0,0,1.4,1,1.4-1.4c0,0-0.4-2.2-1.6-3.2c0,0,3.5-2.5,1.6-3.2c0,0,1.7-2.2,0.1-3.4
			c0,0,1.8,0.2,1.9-0.5s0-8.8,0-8.8s-0.3-0.9-1.4-0.4c0,0,0.9-2.8,0.1-3.8c0,0,2-3.6,0.6-3.9c0,0,3.4-0.9,2.6-2.9
			c0,0,2.6-1.2,2.2-4.8c0,0,2-1.1,1.3-4.5c0,0,2.5-5.7,1-7.7c0,0,0-4.9,1.4-6.4s3.8-3.5,1.3-4.6c0,0,1.9-1.8-0.2-3.9
			c0,0-0.1-6,1.3-7.4c0,0,1.9-2.3,0-3.2c0,0-0.7-3.7,0.8-5.7c0,0-0.5-2.7,0-3.9s2-4.5,2.6-6.3c0.7-1.8,2-5.6,2-5.6s-0.2,1.9,3.9,2.2
			c0,0,3.1,0.6-0.5,4.2c0,0-1.6,3.2,2.9,6.1c0,0,1.9,3.3,0,5.8c0,0-1.1,0.7,1.9,2.9c0,0,1,0.7,0.8,2.4s2,4.2,2,4.2s-1.2,3.2-1.3,4
			c0,0.9,0.4,3.6,1.3,4.5c0,0-0.2,3.5,0.8,4.7c0,0-1.4,2.2-1.4,6.2s-1.2,10.7,1.8,12.9c0,0,2.3,1.2,1.4,2.1c0,0-0.4,1.3,0.2,1.7
			c0,0-1.2,4.9,1,6c0,0,1.2,1.9,0,4.4c0,0-0.1,3.2,0.1,6.2s1.9,8.3,2.6,10.2s0.1,3.6,3.5,4.2c0,0,8.3,2,10.9,2.6s9.9,1.9,15-0.1
			c0,0,3.9-0.4,3.2-4.4s-4.3-13.1-8-13.5c0,0-4.6,0-2.8-1.6c0,0,1.4-1.5-0.2-5.4c0,0-1.2-4.1-2.2-5.6c0,0,1.5-3.3-0.7-4.4
			c0,0,4.3-2.2,3.8-5.6c0,0-1.2-2.9,0-4.8c0,0,0.8-1.5,0.1-2.6c0,0,2.4-5.2,0-5.5l-0.6,0.4c0,0,3.6-10.6,1.4-11.6
			c0,0,1.7-4.2-0.8-4.3c0,0-1.4,0.1,0.1-2.1c0,0,0.8-3.2,0.2-4.2s0.8-2.1,0-2.9s0-3.3,0-3.3s1.8-3.4,2.9-3.2s1.1-3.3-1-4.6l-0.2-9.8
			c0,0-1.6-5.5,0.5-5.8s2.2-1.3,0.2-6.2c-2.1-4.8-2-4.2-10.8-4l-2.6-7.9c0,0,0-2.6-1-5.2c0,0-3.7-5.4-3-6.8l-59.8,3.2
			c0,0-1,1.9-0.2,3.6c0,0,0.5,0.8-0.6,1.2c0,0-0.9,0.8-0.3,3.2c0,0-1.7,0.6-0.9,2.8L1832-817.6z"/>
		<g id="shaduw_linkerbeen_12_">
			<path fill="#E8E8E8" d="M1832.8-718.1c0,0,12.9-1.9,14.1-5.8s1.9-9,1.9-9l-5.5-0.6l6.8-3.5c0,0,5.1-4.1,2-9.1s2.5-14.2,2.5-14.2
				s3.9-11.7,0-14.5s-5-3.8-7.6-5s12-3.9,12-3.9s3.2-5.6,1.5-8.3c-1.7-2.7,0.3-6.3,0.5-6.7s-2.6-4.7-6.6-4.7c0,0,0-1.5-3.5-1.6
				c-3.5-0.2,1.2-5.4,17.3-1.4c5.7,1.4,11.6,5.7,11.2,7.2c-0.4,1.6-3.8,6.9-6.2,6.6c-5.6-0.6-6.1-4.2-6.1-4.2l1.3,1.5
				c0,0-1.3,3.8-2,5.6c-0.7,1.8-2.2,5.2-2.6,6.3s0,3.9,0,3.9c-1.5,2-0.8,5.7-0.8,5.7c1.9,0.9,0,3.2,0,3.2c-1.4,1.4-1.3,7.4-1.3,7.4
				c2.1,2.1,0.2,3.9,0.2,3.9c2.5,1.1,0.1,3.1-1.3,4.6s-1.4,6.4-1.4,6.4c1.5,2-1,7.7-1,7.7c0.7,3.4-1.3,4.5-1.3,4.5
				c0.4,3.6-2.2,4.8-2.2,4.8c0.8,2-2.6,2.9-2.6,2.9c1.4,0.3-0.6,3.9-0.6,3.9c0.8,1-0.1,3.8-0.1,3.8c1.1-0.5,1.4,0.4,1.4,0.4l-2,0.2
				C1850.6-720,1844.9-715.1,1832.8-718.1z"/>
		</g>
		<g id="shaduw_rechterbeen_12_">
			<path fill="#E8E8E8" d="M1894.2-832.4c-0.7,1.4,3,6.8,3,6.8c1,2.6,1,5.2,1,5.2l2.6,7.9c8.8-0.2,8.7-0.8,10.8,4s1.9,5.8-0.2,6.2
				s-0.5,5.8-0.5,5.8l0.2,9.8c2.1,1.3,2.2,4.8,1,4.6s-2.9,3.2-2.9,3.2s-0.8,2.5,0,3.3c0.8,0.8-0.5,1.9,0,2.9s-0.2,4.2-0.2,4.2
				c-1.5,2.2-0.1,2.1-0.1,2.1c2.4,0.1,0.8,4.3,0.8,4.3c2.2,0.9-1.4,11.6-1.4,11.6l0.6-0.4c2.4,0.2,0,5.5,0,5.5
				c0.7,1.1-0.1,2.6-0.1,2.6c-1.2,1.9,0,4.8,0,4.8c0.5,3.4-3.8,5.6-3.8,5.6c2.2,1.1,0.7,4.4,0.7,4.4c1,1.5,2.2,5.6,2.2,5.6
				s-5.2,2.5-9.5,2.9s-9.4,1.9-4.8-3.1s12.9-4.2,7.7-12.6c0,0-10.6-3.4-2.3-8.6c0,0,6.6,0.5,1.8-4.5l-8.8-4l9.4-2.2
				c0,0,5-3.9,1.3-5.7s-6.5-11.4-1.3-13.7s3.2-5.5,3-8.9s-2.5-6.4-1.1-14s-2.8-13-2.8-13l-4.7-4.1l2.9-1.2l-8.4-5.2
				c0,0,6.1,2.4,6.4,0.5s-4.9-5.8-4.9-5.8s0.4-4.6,1.9-4.2L1894.2-832.4z"/>
		</g>
		<g id="linkerschoen_12_">
			<path fill="#E8E8E8" d="M1827.1-712.9c0,0-2.2,1.7-0.8,3.2c0,0-1.8,1.9-0.1,3.9c0,0-0.8,3.8,0.6,5.4c0,0,0.7,0.7,0.6,4.6
				s2.6,8.1,12.9,7.4s10.1-3.8,10.1-7.5c0,0-0.1-1.2-1.1-3.8c0,0,1.4,1,1.4-1.4c0,0-0.4-2.2-1.6-3.2c0,0,3.5-2.5,1.6-3.2
				c0,0,1.7-2.2,0.1-3.4c0,0,1.8,0.2,1.9-0.5c0,0-0.5-7.4,0-8.8c0,0-0.3-1.1-1.4-0.4c0,0-6.4,7.3-24.4,0.7
				C1826.9-719.9,1825.4-714.7,1827.1-712.9z"/>
		</g>
		<g id="Rechterschoen_12_">
			<path fill="#E8E8E8" d="M1905.4-728.1c1,1.5,2.2,5.6,2.2,5.6c1.6,3.9,0.2,5.4,0.2,5.4c-1.9,1.6,2.8,1.6,2.8,1.6
				c3.7,0.4,7.2,9.5,8,13.5s-3.2,4.4-3.2,4.4c-5.1,2-12.4,0.7-15,0.1s-10.9-2.6-10.9-2.6c-3.4-0.7-2.8-2.3-3.5-4.2
				s-2.3-7.2-2.6-10.2s-0.1-6.2-0.1-6.2c1.2-2.4,0-4.4,0-4.4s2,1,3.8,0.5c0,0-1.2,8.2,0.9,8.2s2.8-1.3,4.6-2.3
				S1909.1-718.3,1905.4-728.1z"/>
		</g>
		<path id="rechterbroekzak_10_" fill="#DBDBDB" d="M1909-778.7c0,0-4.8-0.5-8.2,0.3c0,0-5.3-0.8-7.1-1.1c0,0-1.8-1.6-1.2-5.7
			s-3.1-12.5-3.6-14.4c0,0-3.8-7.5-0.3-8.8c0,0,9.8-2.3,12.2-4.1c8.8-0.2,8.7-0.8,10.8,4s1.9,5.8-0.2,6.2s-0.5,5.8-0.5,5.8l0.2,9.8
			c2.1,1.3,2.2,4.8,1,4.6s-2.9,3.2-2.9,3.2"/>
		<path id="Linkerlijn_10_" fill="#3986A8" d="M1831.6-771.6c-1.7-0.7-1.1-3.4-1.1-3.4c-0.1-1.5,0.8-1.4,0.8-1.4s6.1,4.1,18,4.1
			c0,0,3.2,0.4,4.7,0.7c1.5,0.3,2.8-0.5,3.9-0.3s4.1,0.2,4.7-0.3s1.2,0.1,1,0.9c-0.2,0.8-1.2,1.8-1.3,2.7c0,0-0.3,0.8-1.2,0.8
			s-9.6,0.8-20.2-1.2c0,0-3.8-0.9-6.2-1.4S1832.9-771.5,1831.6-771.6z"/>
		<path id="Rechterlijn_10_" fill="#3986A8" d="M1879.5-767.4c0,0-2.1-2.5-2-4.2l-0.2-1.6c0,0,1.4,1.8,2.7,2.5
			c1.3,0.7,3.8,2.8,10.6,1.7l10.8-0.8c0,0,6.9-1.5,7.8-3c0.6-1-0.2,4.2-0.2,4.2s-5.2,2.9-11.6,3.3
			C1890.9-764.9,1882.9-764.9,1879.5-767.4z"/>
		<path id="Romp_22_" fill="#FFFFFF" d="M1894.2-832.4c0,0-1.5-2.3-1.2-7.1c0.2-2.3,2.2-5.7,2.2-8.7c0-2.9-2.4-6.4-2.2-9.5
			c0.2-3.6,2.1-4.9,2.2-7.9c0.3-8.2-1.3-14.9-1.3-14.9s-2.2-14.6,0-17s-7.8-8-5.6-20.9c0,0-20.5,5.5-23.6,6.2
			c-3.2,0.7-10.2,3.2-13.1,4.6s-16.7,10.2-11.1,28.9c0,0,8.2,1.9,6.8,6.9c-1.3,5-6.2,8.3-6.2,8.3s-6.9,22.8-7.1,35.5
			S1894.2-832.4,1894.2-832.4z"/>
		<path id="nekring_10_" fill="#3986A8" d="M1846.8-904.2c0,0,3.6-2.8,4.8-3.3s31.4,0.8,35.2-2.8c0,0,1.6-1.4,2.5,2.7l1.7,3.3
			C1891-904.4,1870.6-888.6,1846.8-904.2z"/>
		<path id="helm_10_" fill="#FFFFFF" d="M1893-925.2c0,14.7-8.4,24.5-23.2,24.5s-26-10.6-26-25.3c0-14.7,9.2-25.8,24.6-25.8
			C1883.2-951.9,1893-939.9,1893-925.2z"/>
		<g id="helm_schaduw_12_">
			<path fill="#E8E8E8" d="M1869.9-900.7c14.7,0,23.2-9.8,23.2-24.5c0-4.5-0.9-8.7-2.6-12.4c-2-4.4-5-8-8.9-10.6
				c0,0,6.2,17.9,3.4,27.6C1880.6-906.1,1869.9-900.7,1869.9-900.7z"/>
		</g>
		<path fill="#0D3644" d="M1889.3-923.2c0,11.3-6,18.8-16.4,18.8c-10.4,0-18.4-8.1-18.4-19.4c0-11.3,6.5-19.8,17.4-19.8
			C1882.3-943.6,1889.3-934.5,1889.3-923.2z"/>
		<path id="Rechterarm_22_" fill="#FFFFFF" d="M1891-904.4c0,0,16.8,2.6,19.8,15.4c0,0,6.8,4.3,8.7,11.7c0,0,0.4,1.1,1.8,0.4
			c1.4-0.7,3.8-1.6,4.7-0.8c0,0,1.8-5.1,6.5-3.8c0,0,4.7-2.1,11.6-1.6c0,0,1,3.5,1.8,6.4c0.8,2.9,0.4,4.2,2.8,6.2s-0.1,3.1-0.1,3.1
			s1.7,2.1-2.9,2.5c0,0-0.6,1.9-3.8,1.2c0,0-1.4,2.4-4.7,3.4c0,0,0.2,2.8-3.2,2.8c0,0-1.2-0.8-1.2,1.4c0,0-0.7,1.8-3.8,1.4
			c0,0-0.8,1.3-3.1,0.7c0,0-2.4,1.8-5.2,0.6c0,0-8.2,0.7-11.2-4.4c0,0-2-1.7-4.4-2.2c0,0-5.2-2.8-5.9-5.2c0,0-1.8,0.8-2.9-2.1
			c0,0-0.9-1.7-2-1.7l-0.8,0.7c0,0,0.8-3.5-1.3-5.8c0,0-1.8-5.8,0-8c0,0,2.5-8.2-1.1-9.8c0,0-4.7-2.9-1.7-5.6
			S1891.2-903.9,1891-904.4z"/>
		<g>
			<path id="hand_10_" fill="#FFFFFF" d="M1945.3-875.3c0,0-5.2-8,3.5-10.8c0,0,11.7-3.6,19.4,2.1c0,0,1.8,1.5-5.7,3.9
				c0,0-12.7,1.2-8.6,4.2c0,0,9.1-3.5,6.5,2.3c0,0-3,2.8-7.4,3.3c0,0-1.9,0.8-3.9,0.4C1949-870,1946.7-869.3,1945.3-875.3z"/>
			<path id="schaduw_20_" fill="#DBDBDB" d="M1949-870c2,0.4,3.9-0.4,3.9-0.4c4.4-0.5,7.4-3.3,7.4-3.3s-1.5,0.7-4,1.2
				c-3,0.6-6.6,1.3-7.4,1.4C1948.1-871.2,1946.9-870.1,1949-870z"/>
			<path id="schaduw_19_" fill="#DBDBDB" d="M1953.3-877.8c0,0,2.8-1.6,5.7-1.9c1.6-0.2,3.6-0.4,4.7-0.9c0.9-0.4,3.5-1.3,3.7-1.7
				c0.2-0.4-2.8-0.6-3.5-0.8C1961.8-883.5,1956.7-883.4,1953.3-877.8z"/>
		</g>
		<path id="leftarm_22_" fill="#FFFFFF" d="M1842.9-903.2c0,0-12.7,1.8-18.9,11.2c0,0-5,5.2-3.2,14c0,0-2.6,2.5,0.2,6.3
			c0,0-1.3,2.4-1.3,4.2c0,0,0.1,3.2-2.1,5c0,0-4,5.1,0.5,11.2c0,0-1.4,4.6,2.6,5.4c0,0,2.4,5.5,10.6,8.5c0,0,4.5,8,19.9,8.4l8,0.9
			l3.4-6.7l-1.1-2c0,0-0.1-5.9-5.9-5c0,0,0.7-7.2-6.8-8.8c0,0-0.5-3.2-5.8-2.9c0,0,1.7-3.7-2.9-5.7c0,0-0.7-1-0.1-1.8
			c0,0,1.2,0,1.6-2.8l0.9-1.9c0,0,2.8,1.8,4.5-5.4c0,0-1.3-4.7,2.7-5S1858.5-900.8,1842.9-903.2z"/>
		<g id="leftarm_21_">
			<path fill="#E8E8E8" d="M1845-866c0,0,2.7,0.6,4.4-6.6c0,0,3-3.1,1.9-5.1c0,0-3.3-0.9-6.2,4.2s-1.8,5.6-4.4,5.5c0,0-1,5.4-2.7,7
				c0,0-0.2,4-3,5c-2.5,0.9,4.4-1.8,6.6,1.1c2.2,2.9,2.5,6.3,2.5,6.3s3.5-0.1,5.4,1.6s1.4,5,4.5,5.6s5.2,1,5.5,2.6s-1,2,0.1,2.4
				l2-0.4c0,0-1-6-4-6.2c0,0,0.5-5.4-7-7c0,0,0.6-4.1-4.7-3.8c0,0-0.2-3.4-4.8-5.3c0,0,0.3-2.2,0.9-3l1.8-1.9L1845-866z"/>
		</g>
		<g id="Romp_21_">
			<path fill="#E8E8E8" d="M1893.9-880.5c0,0,1.6,6.7,1.3,14.9c-0.1,3-1.9,4.4-2.2,7.9c-0.2,3.1,2.2,6.6,2.2,9.5
				c0,2.9-1.3,6.9-1.5,9.2c-0.3,4.8,1.3,9.7,1.3,9.7c-0.1-0.5-1.1,0.7-2.2,0c-3.7-2.2-10.5-7-7.9-7.4c3.3-0.6,4.4-2.8,4.4-2.8
				s3.4-9.7,1.3-12s-0.8-6.5-0.8-6.8s2-8.2-1.5-12.5C1888.3-870.9,1894.3-877.3,1893.9-880.5"/>
		</g>
		<g>
			<path fill="#EFEFEF" d="M1851.1-829c0,0,7.8-0.9,10.3-7.8c0,0,4.6,0.8,6.3,2.8c0,0-0.3,1.4,0.9,2.9c0,0,4.8,5-1.6,10.5
				C1867-820.6,1854-814.7,1851.1-829z"/>
			<path fill="#DBDBDB" d="M1853.2-823.5c4.6,7.1,13.8,2.9,13.8,2.9c6.5-5.5,1.6-10.5,1.6-10.5c-1.2-1.5-0.9-2.9-0.9-2.9l-1,0.4
				l1,2.2l0.8,1.6l-4.2,7.3L1853.2-823.5z"/>
		</g>
		<g id="Rechterarm_21_">
			<path fill="#E8E8E8" d="M1894-876c-1.8,2.2-1.9,1.9-1.9,1.9c2.1,2.2,1.3,5.8,1.3,5.8l0.8-0.7c1.2-0.1,2,1.7,2,1.7
				c1,2.9,2.9,2.1,2.9,2.1c0.7,2.4,5.9,5.2,5.9,5.2c2.4,0.5,4.4,2.2,4.4,2.2c3,5.2,11.2,4.4,11.2,4.4c2.8,1.2,5.2-0.6,5.2-0.6
				c2.3,0.7,3.1-0.7,3.1-0.7c3.2,0.4,3.8-1.4,3.8-1.4c0-2.2,1.2-1.4,1.2-1.4c3.3,0,3.2-2.8,3.2-2.8c3.2-1,4.7-3.4,4.7-3.4
				c3.2,0.7,3.8-1.2,3.8-1.2c4.6-0.4,2.9-2.5,2.9-2.5c1.7-1.1,1.1-1.8,0.7-2.5c-0.4-0.7-4.1,0.8-8.3,3.2c-4.2,2.4-8-2.1-8,0
				c0,2.1-4,6-8.6,6.3c-4.6,0.3-4.5-6.3-4.5-6.3s0.3,2.4-4.3,4.8s-12.5-5.5-13.8-9s-1.7-6.2-1.7-6.2c-3.8,1.7-4.8-6.2-4.8-6.2
				C1893.8-882.6,1893.8-878.7,1894-876z"/>
		</g>
		<path id="armring_left_10_" fill="#3986A8" d="M1820.4-871.6c0,0,16.4,1.1,22,9.1c0,0-0.5,1.7-1.3,2.8c0,0-4.3-3.6-9.3-5.6
			c-4.2-1.7-10-2.6-12.5-1.8C1819.4-868.9,1820.4-871.6,1820.4-871.6L1820.4-871.6"/>
		<path id="armring_right_10_" fill="#3986A8" d="M1902.3-861.8c0,0,0.7,0.5,1.5,1c0.3,0.2,0.6,0.6,1,0.7c1,0.3,0.9,0,0.9,0.2
			c0,0,10.2-14.7,14.2-17c0,0,0.1-1.5-0.8-2C1919.1-878.9,1907.2-868,1902.3-861.8z"/>
		<path opacity="0.1" fill="#FFFFFF" enable-background="new    " d="M1867.7-941.1l2.7,4.8c0,0-8.5,1.1-13.1,9.4
			C1857.2-927,1858.8-939,1867.7-941.1z"/>
	</g>
</g>
<g id="cracks_flag">
	<polygon fill="#C1C1C1" points="1945.8,-691.1 1951.1,-685.8 1956.6,-683.8 1955.6,-679.9 1957.6,-684.5 1951.7,-687.1 
		1950.6,-692.6 	"/>
	<polygon fill="#C1C1C1" points="1951.1,-692.3 1951.8,-692 1952.2,-693.1 	"/>
	<polygon fill="#C1C1C1" points="1941.2,-689.7 1941.9,-690.1 1941.2,-691.1 	"/>
	<polygon fill="#C1C1C1" points="1946.6,-692.2 1943.8,-691.2 1943.8,-688.6 1941,-688.6 1938.2,-684.3 1940.1,-689 1942.9,-689.7 
		1943.1,-693 1945.2,-693.6 	"/>
	<polygon fill="#C1C1C1" points="1952.1,-695.9 1952.1,-694.3 1958.3,-695.9 1962.2,-695.1 1965.5,-700.2 1968.8,-699.1 
		1971.7,-701.2 1968.8,-699.3 1965.5,-700.7 1965.1,-700.8 1961.9,-696.1 1958.6,-697.2 	"/>
	<polygon fill="#C1C1C1" points="1945.4,-698.8 1945.4,-697 1943,-699.3 1938.2,-698.2 1939.3,-703 1934.6,-703.9 1931.4,-703.9 
		1931.4,-703.9 1931.4,-703.9 1934.9,-704.2 1939.9,-703.8 1940.2,-703.7 1940.4,-703.6 1939.5,-699.6 1942.8,-700.7 	"/>
</g>
<g id="Flag">
	<path fill="#FFFFFF" d="M1974-987.2c0,0,8.5-8.2,34.8,4.9s76,10.4,82.1,5l-4.5,73.4c0,0-52.1,8.1-71.6-0.6
		c-19.5-8.7-26.5-13.1-36.6-12c-10.1,1.1-8.7,2.2-8.7,2.2L1974-987.2z"/>
	<path fill="#DBDBDB" d="M1951.2-694.1l18.1-294.7c0,0-2.1-4.2-5.1-0.3l-18.1,294.7l2.3,4.1L1951.2-694.1z"/>
</g>
<g id="Rechterhand_V2_copy_2">
	<path id="hand_4_" fill="#FFFFFF" d="M1953.9-876c0,0,9.1-3.5,6.5,2.3c0,0-3,2.8-7.4,3.3c0,0-1.9,0.8-3.9,0.4c0,0-2.4,0.7-3.7-5.3"
		/>
	<path id="schaduw_6_" fill="#DBDBDB" d="M1949-870c2,0.4,3.9-0.4,3.9-0.4c4.4-0.5,7.4-3.3,7.4-3.3s-1.5,0.7-4,1.2
		c-3,0.6-6.6,1.3-7.4,1.4C1948.1-871.2,1946.9-870.1,1949-870z"/>
	<path id="schaduw_7_" fill="#DBDBDB" d="M1953.3-877.8"/>
</g>
<g id="Logo">
	<path fill="#2FB2C4" d="M2034-952.2l26.6-13.4l-3.4,18.1l-15.6,6.8l12.8,8.5l-3.3,17.9l-21.1-16.3l-26.2,13.4l3.3-17.9l15.4-6.8
		l-12.6-8.5l3.3-17.9L2034-952.2z"/>
	<polygon fill="#444394" points="2030,-930.6 2003.7,-917.2 2007,-935.1 2032.9,-946.6 	"/>
	<polygon fill="#37519E" points="2032.9,-946.6 2054.4,-932.3 2051,-914.3 2030,-930.6 	"/>
	<polygon fill="#2E9DC3" points="2034,-952.2 2032.9,-946.6 2022.5,-941.9 2009.9,-950.4 2013.2,-968.4 	"/>
</g>
</svg>
