<?xml version="1.0" encoding="utf-8"?>
<!-- Generator: Adobe Illustrator 18.1.0, SVG Export Plug-In . SVG Version: 6.00 Build 0)  -->
<svg version="1.1" id="Layer_1" xmlns="http://www.w3.org/2000/svg" xmlns:xlink="http://www.w3.org/1999/xlink" x="0px" y="0px"
	 viewBox="0 0 360.9 451" enable-background="new 0 0 360.9 451" xml:space="preserve">
<path fill="#FFFFFF" d="M184.1,133.4l102-64.2v78.1l-60.7,33.3l60.7,32.8v77.3l-102-64L83.6,290.9v-77.1l60-33.3l-60-33.3V69.9
	L184.1,133.4z"/>
<g>
	<path fill="#FFFFFF" d="M180.9,360c-99.3,0-180-80.7-180-180S81.7,0,180.9,0s180,80.7,180,180S280.2,360,180.9,360z M180.9,8
		C86.1,8,8.9,85.2,8.9,180s77.2,172,172,172s172-77.2,172-172S275.7,8,180.9,8z"/>
</g>
<g>
	<path fill="#FFFFFF" d="M82.1,425.5c0,8.2-2.3,14.5-7,18.9S63.7,451,54.8,451H40.7v-50h15.7c8.2,0,14.5,2.2,19,6.5
		S82.1,417.8,82.1,425.5z M71.1,425.8c0-10.7-4.7-16.1-14.2-16.1h-5.6v32.5h4.5C66,442.2,71.1,436.8,71.1,425.8z"/>
	<path fill="#FFFFFF" d="M133.2,401v32.3c0,3.7-0.8,6.9-2.5,9.7c-1.7,2.8-4,4.9-7.2,6.4c-3.1,1.5-6.8,2.2-11.1,2.2
		c-6.4,0-11.4-1.6-15-4.9c-3.6-3.3-5.3-7.8-5.3-13.5V401h10.6v30.6c0,3.9,0.8,6.7,2.3,8.5c1.5,1.8,4.1,2.7,7.7,2.7
		c3.5,0,6-0.9,7.5-2.7c1.6-1.8,2.3-4.7,2.3-8.5V401H133.2z"/>
	<path fill="#FFFFFF" d="M185.8,451h-12.1l-11.6-18.9L150.5,451h-11.3l16.6-25.8L140.2,401h11.7l10.8,18l10.6-18h11.4l-15.7,24.8
		L185.8,451z"/>
	<path fill="#FFFFFF" d="M192.1,451v-50h10.6v50H192.1z"/>
	<path fill="#FFFFFF" d="M215.3,451v-50h10.6v41.2h20.3v8.8H215.3z"/>
	<path fill="#FFFFFF" d="M254.8,451v-50h10.6v50H254.8z"/>
	<path fill="#FFFFFF" d="M323.3,425.9c0,8.3-2.1,14.6-6.2,19.1s-10,6.7-17.6,6.7s-13.5-2.2-17.6-6.7s-6.2-10.8-6.2-19.1
		c0-8.3,2.1-14.7,6.2-19.1c4.1-4.4,10-6.6,17.7-6.6c7.7,0,13.6,2.2,17.6,6.6C321.3,411.3,323.3,417.7,323.3,425.9z M286.9,425.9
		c0,5.6,1.1,9.8,3.2,12.6c2.1,2.8,5.3,4.2,9.5,4.2c8.5,0,12.7-5.6,12.7-16.9c0-11.3-4.2-16.9-12.6-16.9c-4.2,0-7.4,1.4-9.5,4.3
		C287.9,416.2,286.9,420.4,286.9,425.9z"/>
</g>
</svg>
