<?xml version="1.0" encoding="utf-8"?>
<!-- Generator: Adobe Illustrator 16.0.0, SVG Export Plug-In . SVG Version: 6.00 Build 0)  -->
<!DOCTYPE svg PUBLIC "-//W3C//DTD SVG 1.1//EN" "http://www.w3.org/Graphics/SVG/1.1/DTD/svg11.dtd">
<svg version="1.1" id="Layer_1" xmlns="http://www.w3.org/2000/svg" xmlns:xlink="http://www.w3.org/1999/xlink" x="0px" y="0px"
	 width="48.1px" height="24.354px" viewBox="0.95 12.824 48.1 24.354" enable-background="new 0.95 12.824 48.1 24.354"
	 xml:space="preserve">
<g>
	<g>
		<defs>
			<path id="XMLID_1_" d="M25,19.03c-11.432,0-21.071,7.672-24.05,18.147h48.1C46.069,26.704,36.432,19.03,25,19.03z"/>
		</defs>
		<use xlink:href="#XMLID_1_"  overflow="visible" fill="#E8E8E8"/>
		<clipPath id="XMLID_3_">
			<use xlink:href="#XMLID_1_"  overflow="visible"/>
		</clipPath>
		<g id="Flag_1_" clip-path="url(#XMLID_3_)">
			<path fill="#C1C1C1" d="M30.338,21.201c0,0,0.004,0.031,0.119-0.11c0.115-0.144,0.117-0.293,0.175-0.677
				c0.058-0.382,0.692-1.099,0.692-1.099l1.164,0.65c-0.142,0.04-0.67,0.772-0.728,1.304c-0.058,0.527-0.266,0.578-0.266,0.578
				L30.338,21.201z"/>
			<path fill="#C1C1C1" d="M26.711,19.328l0.041,0.076l4.675,2.61c0.089-0.006,0.046-0.08,0.046-0.08l-4.675-2.611L26.711,19.328z"
				/>
		</g>
	</g>
</g>
<g id="Astronaut_shaduw">
	<g id="Backpack_copy">
	</g>
	<g id="Rechterhand_V2_copy">
	</g>
	<g id="linkerhand_copy">
	</g>
	<g>
		<path fill="#C1C1C1" d="M26.778,21.262c0.325,0.332,0.646,0.666,0.969,1c0.053,0.05,0.104,0.1,0.159,0.15
			c0.109,0.201,0.358,0.323,0.343,0.596c-0.085,0.155-0.192,0.288-0.347,0.38c-0.302,0.052-0.443-0.172-0.613-0.349
			c-0.053-0.055-0.113-0.153-0.181-0.009c-0.018-0.042-0.033-0.085-0.051-0.126c0.044-0.043,0.063-0.061-0.002-0.125
			c-0.393-0.397-0.774-0.807-1.161-1.213c0.005-0.013,0.009-0.026,0.014-0.04c0.013-0.011,0.025-0.024,0.039-0.037
			c0.154-0.155,0.308-0.308,0.462-0.462l0.062-0.061L26.778,21.262z"/>
		<path fill="#C1C1C1" d="M27.06,22.905c0.044-0.043,0.063-0.061-0.002-0.125c-0.393-0.397-0.774-0.807-1.161-1.213
			c-0.061,0.092-0.05,0.159,0.033,0.242c0.32,0.323,0.635,0.657,0.951,0.986C26.931,22.849,26.977,22.908,27.06,22.905z"/>
		<path fill="#C1C1C1" d="M27.904,23.388c-0.301,0.052-0.443-0.172-0.613-0.349c-0.052-0.055-0.113-0.153-0.181-0.009
			c0.104,0.113,0.211,0.225,0.316,0.338C27.579,23.534,27.738,23.516,27.904,23.388z"/>
		<path fill="#C1C1C1" d="M25.91,21.529c0.013-0.011,0.026-0.024,0.039-0.037C25.937,21.504,25.923,21.518,25.91,21.529z"/>
		<path fill="#C1C1C1" d="M27.874,20.924c-0.014-0.009-0.024-0.016-0.037-0.024l-0.002,0.005c0.011,0.009,0.023,0.017,0.034,0.026
			L27.874,20.924z"/>
		<path fill="#C1C1C1" d="M27.8,20.876c-0.002-0.002-0.005-0.005-0.009-0.007c0.002,0.004,0.004,0.007,0.007,0.011L27.8,20.876z"/>
		<path id="hand_1_" fill="#C1C1C1" d="M28.675,20.673c0,0,0.032,0.205,0.214,0.124c0,0,0.242-0.113,0.283-0.316
			c0,0,0.009-0.05-0.148,0.022c0,0-0.223,0.166-0.2,0.059c0,0,0.198-0.076,0.071-0.131c0,0-0.089-0.002-0.168,0.055
			c0,0-0.043,0.015-0.069,0.05C28.655,20.531,28.606,20.555,28.675,20.673z"/>
		<path id="schaduw_3_" fill="#C1C1C1" d="M28.655,20.531c0.025-0.037,0.069-0.05,0.069-0.05c0.079-0.057,0.168-0.054,0.168-0.054
			s-0.035,0.011-0.081,0.039c-0.057,0.035-0.126,0.077-0.139,0.087C28.659,20.564,28.622,20.564,28.655,20.531z"/>
		<path id="schaduw_2_" fill="#C1C1C1" d="M28.838,20.595c0,0,0.07-0.015,0.12-0.052c0.028-0.02,0.063-0.046,0.09-0.053
			c0.021-0.006,0.076-0.03,0.085-0.026s-0.037,0.052-0.046,0.063C29.061,20.562,28.976,20.636,28.838,20.595z"/>
		<path fill="#C1C1C1" d="M26.471,21.304c0,0,0.14-0.098,0.279-0.026c0,0,0.063-0.081,0.062-0.138c0,0-0.026-0.018-0.028-0.059
			c0,0,0.004-0.151-0.182-0.146C26.604,20.935,26.308,21.031,26.471,21.304z"/>
		<path fill="#C1C1C1" d="M26.425,21.184c-0.028-0.182,0.179-0.249,0.179-0.249c0.186-0.006,0.182,0.146,0.182,0.146
			c0.002,0.041,0.028,0.059,0.028,0.059l-0.021,0.009l-0.016-0.05l-0.009-0.037l-0.175-0.057L26.425,21.184z"/>
		<path id="Benen__x2F__schoenen_1_" fill="#C1C1C1" d="M25.995,21.4c0,0-0.035,0.009-0.046-0.05c0,0-0.05,0.004-0.039-0.059
			c0,0-0.094-0.013-0.083-0.054c0,0-0.074,0.02-0.055-0.059c0,0-0.057-0.067-0.109-0.096c0,0-0.089-0.042-0.126-0.12
			c0,0-0.039-0.018-0.028-0.055c0,0-0.044-0.004-0.048-0.055c0,0-0.04-0.009-0.042-0.057c0,0-0.044-0.024-0.039-0.052
			c0,0-0.014,0.013-0.033-0.011c0,0-0.05-0.035-0.032-0.069c0,0-0.018-0.011-0.051-0.044c-0.03-0.035-0.076-0.074-0.103-0.074
			c-0.025,0-0.057-0.009-0.052-0.048c0.007-0.039,0.002-0.05-0.02-0.053c-0.022-0.002-0.026-0.028-0.026-0.028
			s-0.035,0.007-0.039-0.021c-0.005-0.028-0.046-0.02-0.062-0.026c-0.015-0.004-0.135-0.074-0.175-0.133
			c-0.039-0.059-0.069-0.173-0.128-0.201c-0.058-0.028-0.049-0.061-0.049-0.061s-0.104,0.026-0.133-0.076
			c0,0-0.074-0.061-0.101-0.116c0,0-0.061,0.004-0.061-0.042c0,0-0.057-0.004-0.06-0.061c0,0-0.067-0.05-0.069-0.096
			c0,0,0-0.022-0.059-0.083c-0.06-0.062-0.077-0.17,0.098-0.31c0.177-0.14,0.221-0.087,0.272-0.026c0,0,0.018,0.021,0.04,0.076
			c0,0,0.006-0.037,0.043,0.002c0,0,0.026,0.042,0.022,0.077c0,0,0.094-0.011,0.074,0.028c0,0,0.061,0.011,0.052,0.052
			c0,0,0.024-0.03,0.039-0.02c0.014,0.009,0.129,0.142,0.129,0.142s0.009,0.02-0.018,0.026c0,0,0.055,0.03,0.058,0.059
			c0,0,0.085,0.028,0.067,0.054c0,0,0.067-0.037,0.085,0.009c0,0,0.059-0.02,0.104,0.046c0,0,0.048-0.013,0.088,0.055
			c0,0,0.124,0.055,0.128,0.109c0,0,0.072,0.081,0.118,0.083s0.113,0,0.09,0.055c0,0,0.059,0,0.055,0.065
			c0,0,0.085,0.098,0.128,0.103c0,0,0.065,0.009,0.046,0.052c0,0,0.044,0.07,0.097,0.079c0,0,0.032,0.052,0.057,0.063
			c0.023,0.011,0.098,0.044,0.135,0.063s0.113,0.061,0.113,0.061s-0.03-0.028,0.031-0.091c0,0,0.041-0.055-0.07-0.062
			c0,0-0.074-0.028-0.041-0.142c0,0-0.018-0.083-0.085-0.094c0,0-0.026,0.004-0.012-0.074c0,0,0.007-0.024-0.021-0.052
			c-0.028-0.026-0.028-0.098-0.028-0.098s-0.067-0.033-0.081-0.046c-0.013-0.013-0.046-0.065-0.046-0.092
			c0,0-0.054-0.052-0.057-0.087c0,0-0.055-0.015-0.113-0.081s-0.177-0.155-0.161-0.236c0,0,0.02-0.054-0.009-0.054
			c0,0-0.026-0.016-0.021-0.031c0,0-0.092-0.061-0.072-0.111c0,0-0.009-0.05-0.063-0.07c0,0-0.05-0.05-0.09-0.103
			c-0.039-0.052,0.114-0.101,0.097-0.142c-0.018-0.042-0.103-0.148-0.06-0.209c0,0-0.048-0.126-0.015-0.175
			c0.032-0.048,0.131-0.177,0.244-0.218c0,0,0.069-0.05,0.115,0.024c0.046,0.076,0.062,0.279,0.007,0.34
			c0,0-0.013,0.063,0.042,0.062c0,0,0.004,0.078,0.034,0.164c0,0,0.081,0.009,0.088,0.048c0,0,0.071,0.031,0.055,0.083
			c0,0,0.006,0.094,0.048,0.157c0,0,0.108-0.007,0.157,0.008c0,0,0.061,0.005,0.065,0.031c0,0,0.1,0.004,0.062,0.043l-0.015,0.002
			c0,0,0.214,0.118,0.191,0.166c0,0,0.09,0.044,0.051,0.081c0,0-0.024,0.018,0.032,0.03c0,0,0.06,0.04,0.065,0.063
			c0.007,0.024,0.044,0.022,0.044,0.048c-0.002,0.026,0.048,0.055,0.048,0.055s0.079,0.031,0.094,0.009
			c0.016-0.022,0.065,0.037,0.051,0.089l0.14,0.16c0,0,0.054,0.111,0.094,0.087c0.039-0.026,0.057-0.011,0.094,0.098
			c0.037,0.109,0.03,0.098-0.116,0.223l0.074,0.166c0,0,0.037,0.042,0.06,0.098c0,0,0.02,0.142,0.052,0.155l-1.015,0.823
			c0,0-0.043-0.018-0.055-0.055c0,0-0.002-0.02-0.028-0.011c0,0-0.025,0-0.052-0.046c0,0-0.035,0.015-0.055-0.031L25.995,21.4z"/>
		<path id="shaduw_linkerbeen_1_" fill="#C1C1C1" d="M24.551,19.779c0,0,0.237-0.159,0.312-0.114
			c0.077,0.044,0.162,0.118,0.162,0.118l-0.081,0.092l0.161-0.041c0,0,0.145-0.009,0.166,0.118s0.249,0.194,0.249,0.194
			s0.233,0.131,0.214,0.236c-0.02,0.103-0.026,0.133-0.051,0.192c-0.023,0.059,0.251-0.113,0.251-0.113s0.136,0.043,0.146,0.111
			c0.014,0.067,0.099,0.098,0.104,0.1c0.009,0.002,0.026,0.114-0.039,0.172c0,0,0.021,0.024-0.032,0.079
			c-0.055,0.055,0.098,0.07,0.301-0.231c0.072-0.107,0.104-0.262,0.076-0.282c-0.03-0.02-0.163-0.054-0.196-0.018
			c-0.083,0.092-0.037,0.157-0.037,0.157l-0.002-0.043c0,0-0.076-0.042-0.113-0.062c-0.037-0.02-0.111-0.052-0.136-0.063
			c-0.023-0.011-0.057-0.063-0.057-0.063c-0.055-0.011-0.096-0.079-0.096-0.079c0.018-0.041-0.046-0.052-0.046-0.052
			c-0.044-0.002-0.129-0.1-0.129-0.1c0.004-0.065-0.055-0.065-0.055-0.065c0.024-0.055-0.044-0.053-0.089-0.055
			c-0.046-0.002-0.118-0.083-0.118-0.083c-0.005-0.055-0.129-0.109-0.129-0.109c-0.039-0.065-0.087-0.055-0.087-0.055
			c-0.046-0.063-0.105-0.046-0.105-0.046c-0.015-0.043-0.085-0.009-0.085-0.009c0.018-0.026-0.067-0.054-0.067-0.054
			c-0.002-0.026-0.057-0.059-0.057-0.059c0.024-0.006,0.018-0.026,0.018-0.026l-0.037,0.026
			C24.867,19.549,24.703,19.554,24.551,19.779z"/>
		<path id="shaduw_rechterbeen_1_" fill="#C1C1C1" d="M27.219,20.728c-0.03-0.013-0.052-0.155-0.052-0.155
			c-0.022-0.057-0.059-0.098-0.059-0.098l-0.074-0.166c0.146-0.125,0.152-0.114,0.115-0.223c-0.037-0.109-0.055-0.122-0.094-0.098
			c-0.039,0.026-0.094-0.087-0.094-0.087l-0.14-0.159c0.013-0.053-0.035-0.109-0.051-0.09c-0.015,0.02-0.094-0.009-0.094-0.009
			s-0.05-0.028-0.048-0.054c0.002-0.026-0.037-0.024-0.044-0.048c-0.006-0.023-0.065-0.063-0.065-0.063
			c-0.057-0.013-0.032-0.031-0.032-0.031c0.039-0.037-0.05-0.081-0.05-0.081c0.021-0.048-0.192-0.166-0.192-0.166l0.016-0.002
			c0.034-0.04-0.081-0.046-0.081-0.046c-0.005-0.026-0.063-0.033-0.063-0.033c-0.048-0.013-0.144,0.013-0.144,0.013
			c-0.042-0.063-0.049-0.177-0.049-0.177c0.021-0.05-0.054-0.083-0.054-0.083c-0.007-0.039-0.143-0.083-0.143-0.083
			s-0.025-0.004-0.103,0.05c-0.076,0.055-0.181,0.107-0.032,0.12c0.146,0.013,0.271-0.12,0.31,0.092c0,0-0.122,0.209,0.09,0.174
			c0,0,0.1-0.105,0.094,0.048l-0.085,0.194l0.186-0.103c0,0,0.137-0.009,0.104,0.074c-0.033,0.083,0.063,0.279,0.179,0.24
			c0.115-0.039,0.131,0.044,0.179,0.099c0.048,0.057,0.053,0.14,0.188,0.242c0.134,0.103,0.145,0.251,0.145,0.251l-0.016,0.135
			l0.065-0.022l-0.059,0.207c0,0,0.063-0.128,0.096-0.103c0.031,0.026,0.005,0.164,0.005,0.164s0.074,0.069,0.094,0.039
			L27.219,20.728z"/>
		<path id="linkerschoen_1_" fill="#C1C1C1" d="M24.383,19.779c0,0-0.062,0.004-0.062-0.042c0,0-0.057-0.004-0.059-0.061
			c0,0-0.067-0.05-0.07-0.096c0,0,0-0.022-0.059-0.083s-0.076-0.17,0.099-0.31c0.177-0.14,0.22-0.087,0.272-0.026
			c0,0,0.018,0.022,0.039,0.077c0,0,0.007-0.037,0.044,0.002c0,0,0.026,0.042,0.021,0.076c0,0,0.094-0.011,0.074,0.028
			c0,0,0.062,0.011,0.053,0.053c0,0,0.023-0.031,0.039-0.02c0,0,0.101,0.126,0.129,0.142c0,0,0.011,0.024-0.018,0.026
			c0,0-0.212-0.024-0.403,0.347C24.48,19.894,24.383,19.833,24.383,19.779z"/>
		<path id="Rechterschoen_1_" fill="#C1C1C1" d="M25.794,18.821c-0.006-0.039-0.015-0.031-0.015-0.031
			c-0.03-0.085-0.03-0.126-0.03-0.126c-0.055,0.002-0.044-0.109-0.044-0.109c0.052-0.061,0.044-0.218-0.002-0.292
			c-0.046-0.076-0.116-0.024-0.116-0.024c-0.111,0.043-0.212,0.17-0.244,0.218c-0.033,0.048,0.016,0.174,0.016,0.174
			c-0.044,0.061,0.002,0.14,0.02,0.179c0.018,0.041-0.02,0.124-0.06,0.172c-0.041,0.053,0.09,0.103,0.09,0.103
			c0.057,0.022,0.063,0.07,0.063,0.07s0.018-0.046,0.055-0.065c0,0-0.138-0.116-0.107-0.146c0.033-0.033,0.065-0.02,0.109-0.03
			C25.569,18.904,25.709,18.609,25.794,18.821z"/>
		<path id="rechterbroekzak_1_" fill="#C1C1C1" d="M26.672,19.641c0,0-0.072,0.079-0.138,0.116c0,0-0.074,0.089-0.099,0.122
			c0,0-0.006,0.052,0.063,0.109c0.07,0.057,0.133,0.247,0.152,0.286c0,0,0.051,0.177,0.125,0.148c0,0,0.194-0.107,0.258-0.113
			c0.146-0.125,0.152-0.114,0.115-0.223c-0.037-0.109-0.055-0.122-0.094-0.098c-0.039,0.026-0.094-0.087-0.094-0.087l-0.14-0.159
			c0.013-0.053-0.035-0.109-0.051-0.09c-0.015,0.02-0.094-0.009-0.094-0.009"/>
		<path id="Linkerlijn_1_" fill="#C1C1C1" d="M25.316,20.66c-0.018,0.035,0.033,0.07,0.033,0.07c0.02,0.026,0.032,0.011,0.032,0.011
			s0.039-0.155,0.229-0.329c0,0,0.046-0.053,0.065-0.079c0.02-0.026,0.052-0.033,0.067-0.05c0.013-0.018,0.063-0.065,0.081-0.063
			c0.018,0.002,0.02-0.02,0.002-0.03c-0.016-0.011-0.046-0.011-0.062-0.024c0,0-0.017-0.008-0.03,0.005
			c-0.013,0.013-0.166,0.126-0.31,0.314c0,0-0.048,0.07-0.079,0.114C25.316,20.641,25.334,20.641,25.316,20.66z"/>
		<path id="Rechterlijn_1_" fill="#C1C1C1" d="M26.028,19.89c0,0,0.002,0.069,0.028,0.098l0.02,0.03c0,0-0.005-0.05,0.006-0.081
			c0.012-0.031,0.022-0.101,0.146-0.184l0.188-0.146c0,0,0.134-0.076,0.168-0.065c0.024,0.006-0.065-0.063-0.065-0.063
			s-0.129,0.028-0.235,0.118C26.176,19.685,26.048,19.803,26.028,19.89z"/>
		<path id="Romp_8_" fill="#C1C1C1" d="M27.219,20.728c0,0,0.009,0.059,0.086,0.131c0.034,0.035,0.119,0.061,0.161,0.109
			c0.041,0.046,0.055,0.137,0.104,0.186c0.057,0.055,0.104,0.05,0.15,0.096c0.125,0.128,0.196,0.259,0.196,0.259
			s0.18,0.269,0.249,0.275c0.07,0.007-0.007,0.245,0.216,0.419c0,0-0.412,0.212-0.471,0.247c-0.06,0.035-0.212,0.096-0.279,0.118
			c-0.068,0.02-0.419,0.081-0.603-0.303c0,0,0.104-0.151,0.009-0.212c-0.094-0.061-0.221-0.043-0.221-0.043
			s-0.444-0.266-0.635-0.469C25.993,21.334,27.219,20.728,27.219,20.728z"/>
		<path id="nekring_1_" fill="#C1C1C1" d="M27.505,22.583c0,0,0.101-0.007,0.127-0.015c0.026-0.009,0.495-0.474,0.61-0.469
			c0,0,0.046-0.002,0-0.081l-0.02-0.078C28.223,21.939,27.66,21.98,27.505,22.583z"/>
		<path id="helm_1_" fill="#C1C1C1" d="M28.559,22.244c-0.216-0.238-0.495-0.272-0.732-0.057c-0.238,0.216-0.265,0.552-0.051,0.79
			c0.216,0.238,0.526,0.284,0.777,0.057C28.79,22.82,28.775,22.482,28.559,22.244z"/>
		<path id="helm_schaduw_1_" fill="#C1C1C1" d="M27.826,22.188c0.237-0.216,0.517-0.181,0.732,0.057
			c0.065,0.072,0.114,0.153,0.14,0.238c0.033,0.101,0.037,0.203,0.012,0.301c0,0-0.164-0.379-0.35-0.495
			C28.079,22.118,27.826,22.188,27.826,22.188z"/>
		<path fill="#C1C1C1" d="M28.47,22.266c-0.166-0.184-0.371-0.216-0.541-0.063c-0.168,0.153-0.18,0.401-0.014,0.585
			c0.166,0.183,0.396,0.225,0.572,0.065C28.655,22.7,28.636,22.449,28.47,22.266z"/>
		<path id="Rechterarm_8_" fill="#C1C1C1" d="M28.223,21.939c0,0,0.233-0.288,0.094-0.539c0,0,0.048-0.17-0.03-0.316
			c0,0-0.011-0.024,0.021-0.033c0.033-0.009,0.083-0.031,0.088-0.057c0,0,0.103,0.057,0.161-0.033c0,0,0.107-0.033,0.212-0.144
			c0,0-0.035-0.072-0.065-0.131c-0.03-0.059-0.055-0.074-0.046-0.14c0.009-0.066-0.048-0.048-0.048-0.048s-0.003-0.059-0.083,0.002
			c0,0-0.037-0.022-0.079,0.035c0,0-0.059-0.018-0.126,0.013c0,0-0.037-0.046-0.092,0.002c0,0-0.007,0.03-0.039-0.007
			c0,0-0.037-0.02-0.083,0.033c0,0-0.033-0.011-0.06,0.035c0,0-0.065,0.006-0.094,0.067c0,0-0.144,0.109-0.117,0.236
			c0,0-0.009,0.057-0.039,0.101c0,0-0.044,0.122-0.021,0.172c0,0-0.041,0.013-0.015,0.077c0,0,0.011,0.042-0.009,0.057h-0.022
			c0,0,0.063,0.046,0.063,0.114c0,0,0.057,0.118,0.118,0.128c0,0,0.161,0.098,0.124,0.174c0,0-0.032,0.116,0.055,0.116
			C28.18,21.854,28.217,21.926,28.223,21.939z"/>
		<path id="leftarm_8_" fill="#C1C1C1" d="M27.424,22.624c0,0-0.23,0.155-0.471,0.096c0,0-0.157-0.011-0.258-0.179
			c0,0-0.078-0.002-0.089-0.107c0,0-0.057-0.02-0.083-0.048c0,0-0.046-0.053-0.107-0.05c0,0-0.14-0.024-0.154-0.188
			c0,0-0.09-0.052-0.037-0.125c0,0-0.042-0.125,0.046-0.292c0,0-0.044-0.196,0.198-0.428l0.115-0.133l0.153,0.059l0.011,0.048
			c0,0,0.085,0.096-0.022,0.168c0,0,0.116,0.107,0.021,0.242c0,0,0.039,0.059-0.051,0.131c0,0,0.083,0.037,0.035,0.135
			c0,0,0.004,0.026,0.024,0.031c0,0,0.02-0.018,0.067,0.021l0.041,0.018c0,0,0.018-0.07,0.153,0.022c0,0,0.046,0.096,0.115,0.042
			C27.206,22.033,27.643,22.355,27.424,22.624z"/>
		<path id="leftarm_1_" fill="#C1C1C1" d="M26.916,21.991c0,0,0.035-0.048,0.168,0.042c0,0,0.094,0.006,0.104,0.052
			c0,0-0.039,0.063-0.161,0.024c-0.122-0.039-0.111-0.063-0.153-0.024c0,0-0.096-0.072-0.146-0.074c0,0-0.062-0.061-0.122-0.037
			c-0.053,0.022,0.098-0.035,0.091-0.116c-0.006-0.081-0.052-0.14-0.052-0.14s0.059-0.048,0.063-0.104
			c0.004-0.057-0.051-0.101-0.012-0.157c0.04-0.057,0.07-0.092,0.051-0.122c-0.02-0.033-0.046-0.018-0.033-0.039l0.037-0.022
			c0,0,0.07,0.111,0.026,0.159c0,0,0.087,0.079-0.011,0.216c0,0,0.069,0.057-0.02,0.131c0,0,0.046,0.059,0,0.157
			c0,0,0.037,0.031,0.059,0.035l0.057,0.004L26.916,21.991z"/>
		<path id="Romp_2_" fill="#C1C1C1" d="M27.917,21.509c0,0-0.071-0.131-0.196-0.259c-0.046-0.048-0.096-0.044-0.15-0.096
			c-0.05-0.048-0.063-0.14-0.104-0.186c-0.044-0.048-0.122-0.091-0.159-0.126c-0.076-0.072-0.12-0.177-0.12-0.177
			c0.004,0.009-0.028,0.004-0.037,0.033c-0.026,0.089-0.067,0.266-0.02,0.236c0.061-0.04,0.113-0.02,0.113-0.02
			s0.196,0.106,0.196,0.174s0.083,0.116,0.087,0.122c0.005,0.004,0.153,0.103,0.16,0.225C27.687,21.435,27.878,21.452,27.917,21.509
			"/>
		<path id="Rechterarm_1_" fill="#C1C1C1" d="M27.854,21.435c-0.062-0.011-0.06-0.002-0.06-0.002
			c0.003-0.068-0.063-0.114-0.063-0.114h0.022c0.02-0.015,0.009-0.057,0.009-0.057c-0.026-0.063,0.015-0.076,0.015-0.076
			c-0.023-0.048,0.021-0.172,0.021-0.172c0.032-0.043,0.039-0.1,0.039-0.1c-0.026-0.127,0.117-0.236,0.117-0.236
			c0.028-0.061,0.094-0.068,0.094-0.068c0.029-0.046,0.06-0.035,0.06-0.035c0.046-0.052,0.083-0.033,0.083-0.033
			c0.032,0.037,0.039,0.006,0.039,0.006c0.055-0.048,0.092-0.002,0.092-0.002c0.067-0.031,0.126-0.013,0.126-0.013
			c0.042-0.057,0.079-0.035,0.079-0.035c0.08-0.061,0.083-0.002,0.083-0.002c0.043-0.009,0.043,0.013,0.048,0.028
			c0.004,0.018-0.079,0.048-0.182,0.07s-0.098,0.15-0.128,0.118c-0.031-0.035-0.153-0.037-0.231,0.024
			c-0.079,0.061,0.02,0.168,0.02,0.168s-0.03-0.044-0.14-0.013c-0.109,0.028-0.12,0.272-0.092,0.347
			c0.03,0.074,0.063,0.125,0.063,0.125c-0.085,0.028,0.013,0.17,0.013,0.17C27.945,21.544,27.889,21.48,27.854,21.435z"/>
		<path id="armring_left_1_" fill="#C1C1C1" d="M26.6,22.443c0,0,0.249-0.258,0.225-0.469c0,0-0.032-0.02-0.062-0.026
			c0,0-0.017,0.12-0.067,0.227c-0.044,0.09-0.124,0.19-0.175,0.212C26.543,22.412,26.6,22.443,26.6,22.443L26.6,22.443"/>
		<path id="armring_right_1_" fill="#C1C1C1" d="M27.78,21.083c0,0,0.002-0.02,0.009-0.039c0.002-0.007,0.002-0.02,0.004-0.026
			c0.011-0.02,0.016-0.013,0.011-0.016c0,0,0.38,0.09,0.48,0.068c0,0,0.023,0.024,0.015,0.043
			C28.302,21.114,27.948,21.112,27.78,21.083z"/>
		<path opacity="0.1" fill="#C1C1C1" enable-background="new    " d="M28.382,22.875l-0.025-0.116c0,0-0.153,0.107-0.35,0.042
			C28.007,22.798,28.208,22.969,28.382,22.875z"/>
	</g>
</g>
<circle fill="#D6D6D6" cx="28.48" cy="23.944" r="0.262"/>
<path fill="#C6C6C6" d="M28.48,24.206c-0.145,0-0.262-0.118-0.262-0.262c0-0.144,0.117-0.262,0.262-0.262
	c0,0-0.168,0.087-0.168,0.262C28.312,24.119,28.48,24.206,28.48,24.206z"/>
<circle fill="#D6D6D6" cx="22.818" cy="20.78" r="0.166"/>
<path fill="#C6C6C6" d="M22.808,20.946c-0.092-0.006-0.162-0.085-0.155-0.177c0.007-0.091,0.085-0.161,0.177-0.155
	c0,0-0.127,0.048-0.136,0.157C22.688,20.883,22.808,20.946,22.808,20.946z"/>
<circle fill="#D6D6D6" cx="34.415" cy="25.354" r="0.166"/>
<path fill="#C6C6C6" d="M34.404,25.52c-0.092-0.006-0.161-0.085-0.155-0.177c0.007-0.092,0.086-0.162,0.177-0.155
	c0,0-0.126,0.048-0.135,0.157C34.284,25.456,34.404,25.52,34.404,25.52z"/>
<circle fill="#D6D6D6" cx="12.371" cy="31.524" r="0.166"/>
<path fill="#C6C6C6" d="M12.36,31.689c-0.092-0.006-0.162-0.084-0.155-0.176s0.085-0.162,0.177-0.155c0,0-0.127,0.048-0.136,0.157
	C12.24,31.625,12.36,31.689,12.36,31.689z"/>
<circle fill="#D6D6D6" cx="10.475" cy="25.354" r="0.166"/>
<path fill="#C6C6C6" d="M10.464,25.52c-0.092-0.006-0.161-0.085-0.155-0.177c0.007-0.092,0.085-0.162,0.177-0.155
	c0,0-0.126,0.048-0.135,0.157C10.344,25.456,10.464,25.52,10.464,25.52z"/>
<circle fill="#D6D6D6" cx="37.819" cy="29.462" r="0.166"/>
<path fill="#C6C6C6" d="M37.809,29.628c-0.092-0.007-0.162-0.085-0.155-0.177s0.085-0.161,0.177-0.154c0,0-0.127,0.047-0.135,0.156
	C37.688,29.564,37.809,29.628,37.809,29.628z"/>
<circle fill="#D6D6D6" cx="43.215" cy="29.297" r="0.166"/>
<path fill="#C6C6C6" d="M43.204,29.463c-0.092-0.008-0.161-0.086-0.154-0.178c0.006-0.092,0.085-0.161,0.177-0.154
	c0,0-0.127,0.048-0.136,0.156C43.084,29.398,43.204,29.463,43.204,29.463z"/>
<circle fill="#D6D6D6" cx="20.141" cy="35.092" r="0.166"/>
<path fill="#C6C6C6" d="M20.13,35.258c-0.092-0.007-0.161-0.086-0.155-0.178c0.007-0.091,0.086-0.16,0.177-0.154
	c0,0-0.126,0.049-0.135,0.157C20.01,35.194,20.13,35.258,20.13,35.258z"/>
<circle fill="#D6D6D6" cx="17.773" cy="34.012" r="0.359"/>
<path fill="#C6C6C6" d="M17.749,34.369c-0.198-0.013-0.349-0.184-0.336-0.381c0.014-0.199,0.184-0.35,0.382-0.336
	c0,0-0.274,0.102-0.292,0.342S17.749,34.369,17.749,34.369z"/>
<circle fill="#D6D6D6" cx="24.356" cy="34.734" r="0.304"/>
<path fill="#C6C6C6" d="M24.337,35.036c-0.166-0.012-0.292-0.155-0.281-0.321c0.011-0.165,0.155-0.292,0.32-0.281
	c0,0-0.231,0.087-0.244,0.288C24.119,34.921,24.337,35.036,24.337,35.036z"/>
<circle fill="#D6D6D6" cx="34.337" cy="34.012" r="0.203"/>
<path fill="#C6C6C6" d="M34.323,34.213c-0.111-0.007-0.196-0.105-0.189-0.217s0.104-0.195,0.216-0.189c0,0-0.154,0.059-0.163,0.191
	C34.178,34.137,34.323,34.213,34.323,34.213z"/>
<path fill="#D6D6D6" d="M29.561,35.604c-0.013,0.214-0.198,0.378-0.415,0.364c-0.214-0.014-0.377-0.198-0.364-0.414
	c0.014-0.217,0.199-0.378,0.415-0.365C29.412,35.205,29.573,35.391,29.561,35.604z"/>
<path fill="#C6C6C6" d="M29.146,35.969c-0.214-0.014-0.377-0.198-0.364-0.414c0.014-0.217,0.199-0.378,0.415-0.365
	c0,0-0.299,0.111-0.316,0.369C28.864,35.818,29.146,35.969,29.146,35.969z"/>
<circle fill="#D6D6D6" cx="29.495" cy="21.112" r="0.104"/>
<path fill="#C6C6C6" d="M29.488,21.216c-0.057-0.004-0.101-0.052-0.098-0.111c0.004-0.057,0.052-0.101,0.111-0.098
	c0,0-0.083,0.035-0.088,0.104C29.41,21.182,29.488,21.216,29.488,21.216z"/>
<circle fill="#D6D6D6" cx="36.497" cy="24.184" r="0.104"/>
<path fill="#C6C6C6" d="M36.49,24.287c-0.057-0.004-0.101-0.052-0.098-0.111c0.004-0.057,0.052-0.101,0.111-0.098
	c0,0-0.083,0.035-0.088,0.105C36.412,24.251,36.49,24.287,36.49,24.287z"/>
<circle fill="#D6D6D6" cx="9.465" cy="32.5" r="0.166"/>
<path fill="#C6C6C6" d="M9.453,32.666c-0.091-0.008-0.161-0.086-0.154-0.178c0.006-0.092,0.085-0.161,0.177-0.154
	c0,0-0.127,0.048-0.136,0.156C9.334,32.602,9.453,32.666,9.453,32.666z"/>
<circle fill="#D6D6D6" cx="8.71" cy="28.93" r="0.105"/>
<path fill="#C6C6C6" d="M8.703,29.032c-0.057-0.005-0.101-0.052-0.099-0.11c0.005-0.058,0.053-0.102,0.111-0.1
	c0,0-0.083,0.035-0.087,0.105C8.624,28.998,8.703,29.032,8.703,29.032z"/>
<circle fill="#D6D6D6" cx="39.672" cy="25.354" r="0.105"/>
<path fill="#C6C6C6" d="M39.665,25.458c-0.057-0.004-0.101-0.053-0.098-0.111c0.004-0.057,0.052-0.101,0.111-0.098
	c0,0-0.083,0.035-0.088,0.104C39.587,25.423,39.665,25.458,39.665,25.458z"/>
<circle fill="#D6D6D6" cx="20.483" cy="23.42" r="0.764"/>
<path fill="#C6C6C6" d="M20.483,24.184c-0.421,0-0.764-0.343-0.764-0.764s0.343-0.764,0.764-0.764c0,0-0.472,0.257-0.472,0.764
	S20.483,24.184,20.483,24.184z"/>
<circle fill="#D6D6D6" cx="13.338" cy="26.922" r="0.764"/>
<path fill="#C6C6C6" d="M13.338,27.686c-0.422,0-0.764-0.342-0.764-0.764c0-0.42,0.342-0.764,0.764-0.764
	c0,0-0.472,0.258-0.472,0.764C12.866,27.429,13.338,27.686,13.338,27.686z"/>
<circle fill="#D6D6D6" cx="32.822" cy="22.526" r="0.438"/>
<path fill="#C6C6C6" d="M32.822,22.962c-0.242,0-0.438-0.197-0.438-0.439s0.196-0.438,0.438-0.438c0,0-0.306,0.146-0.306,0.438
	S32.822,22.962,32.822,22.962z"/>
<circle fill="#AFAFAF" cx="26.255" cy="21.26" r="0.548"/>
<path fill="#A0A0A0" d="M26.255,21.806c-0.301,0-0.548-0.245-0.548-0.547c0-0.301,0.244-0.548,0.548-0.548
	c0,0-0.408,0.183-0.408,0.548C25.847,21.623,26.255,21.806,26.255,21.806z"/>
<circle fill="#D6D6D6" cx="10.896" cy="34.558" r="0.548"/>
<path fill="#C6C6C6" d="M10.896,35.105c-0.301,0-0.547-0.245-0.547-0.549c0-0.301,0.244-0.547,0.547-0.547
	c0,0-0.408,0.184-0.408,0.547C10.487,34.922,10.896,35.105,10.896,35.105z"/>
<circle fill="#C9C9C9" cx="38.092" cy="26.923" r="0.548"/>
<path fill="#B7B7B7" d="M38.092,27.468c-0.301,0-0.548-0.244-0.548-0.548c0-0.301,0.245-0.547,0.548-0.547
	c0,0-0.408,0.184-0.408,0.547C37.684,27.285,38.092,27.468,38.092,27.468z"/>
<circle fill="#D6D6D6" cx="15.65" cy="23.944" r="0.373"/>
<path fill="#C6C6C6" d="M15.65,24.315c-0.205,0-0.373-0.166-0.373-0.373c0-0.205,0.166-0.373,0.373-0.373
	c0,0-0.304,0.124-0.304,0.373C15.347,24.19,15.65,24.315,15.65,24.315z"/>
<circle fill="#D6D6D6" cx="39.691" cy="35.228" r="0.495"/>
<path fill="#C6C6C6" d="M39.691,35.725c-0.275,0-0.495-0.223-0.495-0.496s0.223-0.494,0.495-0.494c0,0-0.403,0.166-0.406,0.494
	C39.285,35.557,39.691,35.725,39.691,35.725z"/>
<circle fill="#D6D6D6" cx="34.581" cy="27.943" r="0.373"/>
<path fill="#C6C6C6" d="M34.581,28.314c-0.205,0-0.373-0.166-0.373-0.373c0-0.205,0.166-0.373,0.373-0.373
	c0,0-0.303,0.125-0.303,0.373S34.581,28.314,34.581,28.314z"/>
<circle fill="#D6D6D6" cx="25.357" cy="25" r="0.371"/>
<path fill="#C6C6C6" d="M25.357,25.371c-0.205,0-0.371-0.166-0.371-0.371s0.166-0.371,0.371-0.371c0,0-0.316,0.148-0.316,0.395
	S25.357,25.371,25.357,25.371z"/>
<circle fill="#D6D6D6" cx="41.378" cy="31.766" r="0.371"/>
<path fill="#C6C6C6" d="M41.378,32.137c-0.205,0-0.371-0.165-0.371-0.37c0-0.206,0.166-0.371,0.371-0.371
	c0,0-0.316,0.148-0.316,0.396C41.06,32.037,41.378,32.137,41.378,32.137z"/>
<circle fill="#D6D6D6" cx="14.908" cy="30.533" r="0.371"/>
<path fill="#C6C6C6" d="M14.908,30.904c-0.205,0-0.371-0.166-0.371-0.371s0.166-0.371,0.371-0.371c0,0-0.316,0.148-0.316,0.396
	S14.908,30.904,14.908,30.904z"/>
<circle fill="#D6D6D6" cx="10.459" cy="29.732" r="0.371"/>
<path fill="#C6C6C6" d="M10.459,30.104c-0.205,0-0.37-0.166-0.37-0.371s0.165-0.371,0.37-0.371c0,0-0.316,0.148-0.316,0.396
	S10.459,30.104,10.459,30.104z"/>
<circle fill="#D6D6D6" cx="5.72" cy="31.945" r="0.371"/>
<path fill="#C6C6C6" d="M5.72,32.316c-0.205,0-0.37-0.166-0.37-0.371s0.165-0.371,0.37-0.371c0,0-0.316,0.148-0.316,0.395
	C5.403,32.216,5.72,32.316,5.72,32.316z"/>
<g id="Astronaut">
	<g>
		<g>
			<g>
				<path fill="#E8E8E8" d="M24.825,16.176c0.02-0.465,0.033-0.927,0.049-1.392c0.006-0.072,0.011-0.146,0.017-0.218
					c-0.054-0.223,0.049-0.48-0.146-0.672c-0.166-0.059-0.336-0.085-0.511-0.048c-0.26,0.164-0.212,0.426-0.221,0.67
					c-0.002,0.074,0.018,0.19-0.129,0.126c0.016,0.042,0.033,0.085,0.049,0.127c0.061,0.002,0.087,0.002,0.082,0.094
					c-0.023,0.559-0.032,1.119-0.046,1.678c0.012,0.007,0.024,0.013,0.035,0.02c0.018,0,0.035,0,0.053,0
					c0.218,0.011,0.437,0.022,0.652,0.033l0.087,0.006L24.825,16.176z"/>
			</g>
			<path fill="#FFFFFF" d="M23.931,14.771c0.062,0.002,0.088,0.002,0.083,0.094c-0.023,0.559-0.032,1.119-0.046,1.678
				c-0.106-0.026-0.144-0.085-0.14-0.2c0.022-0.456,0.028-0.912,0.042-1.368C23.872,14.9,23.868,14.826,23.931,14.771z"/>
			<path fill="#FFFFFF" d="M24.232,13.846c-0.26,0.164-0.212,0.426-0.221,0.67c-0.002,0.074,0.018,0.19-0.129,0.126
				c0.002-0.155,0.007-0.308,0.007-0.462C23.892,13.957,24.024,13.863,24.232,13.846z"/>
			<path fill="#FBFBFB" d="M24.003,16.562c0.018,0,0.035,0,0.053,0C24.038,16.562,24.021,16.562,24.003,16.562z"/>
			<path fill="#F8F8F8" d="M25.862,15.692c-0.005,0.015-0.007,0.028-0.012,0.042h-0.004c0.002-0.015,0.004-0.029,0.009-0.044
				L25.862,15.692z"/>
			<path fill="#F8F8F8" d="M25.843,15.777c0,0.004,0,0.007,0,0.011c0-0.004-0.003-0.006-0.003-0.011H25.843z"/>
		</g>
		<path id="Benen__x2F__schoenen_10_" fill="#FFFFFF" d="M24.153,16.602c0,0-0.03,0.018,0,0.068c0,0-0.039,0.03,0.011,0.07
			c0,0-0.061,0.074-0.025,0.096c0,0-0.068,0.035,0,0.081c0,0,0.004,0.089-0.018,0.144c0,0-0.037,0.091-0.014,0.174
			c0,0-0.018,0.04,0.018,0.059c0,0-0.028,0.033,0,0.072c0,0-0.023,0.035,0.007,0.07c0,0-0.016,0.048,0.007,0.065
			c0,0-0.021-0.002-0.018,0.031c0,0-0.016,0.061,0.023,0.074c0,0-0.006,0.02-0.006,0.065s-0.007,0.105-0.026,0.125
			s-0.037,0.046-0.007,0.07s0.035,0.035,0.021,0.052c-0.013,0.018,0,0.039,0,0.039s-0.03,0.02-0.015,0.044
			c0.015,0.024-0.02,0.046-0.028,0.059c-0.009,0.013-0.053,0.146-0.04,0.216c0.014,0.07,0.063,0.174,0.04,0.233
			c-0.024,0.059,0.004,0.079,0.004,0.079s-0.094,0.05-0.048,0.146c0,0-0.013,0.094,0.004,0.153c0,0-0.048,0.037-0.017,0.07
			c0,0-0.04,0.042-0.003,0.085c0,0-0.018,0.083,0.014,0.118c0,0,0.015,0.016,0.013,0.101s0.057,0.177,0.281,0.162
			c0.226-0.015,0.221-0.083,0.221-0.164c0,0-0.002-0.026-0.024-0.083c0,0,0.031,0.021,0.031-0.031c0,0-0.009-0.048-0.035-0.07
			c0,0,0.076-0.055,0.035-0.07c0,0,0.037-0.048,0.002-0.074c0,0,0.039,0.004,0.041-0.011c0.003-0.015,0-0.192,0-0.192
			s-0.006-0.02-0.03-0.009c0,0,0.02-0.061,0.002-0.083c0,0,0.044-0.079,0.014-0.085c0,0,0.074-0.02,0.057-0.063
			c0,0,0.057-0.026,0.048-0.104c0,0,0.044-0.024,0.028-0.099c0,0,0.055-0.124,0.021-0.168c0,0,0-0.106,0.031-0.14
			c0.03-0.032,0.083-0.076,0.028-0.1c0,0,0.041-0.04-0.005-0.085c0,0-0.002-0.131,0.028-0.162c0,0,0.042-0.05,0-0.07
			c0,0-0.015-0.081,0.018-0.125c0,0-0.011-0.059,0-0.085s0.044-0.098,0.057-0.138c0.016-0.039,0.044-0.122,0.044-0.122
			s-0.004,0.042,0.085,0.048c0,0,0.067,0.013-0.011,0.092c0,0-0.035,0.07,0.063,0.133c0,0,0.041,0.072,0,0.126
			c0,0-0.024,0.015,0.041,0.063c0,0,0.022,0.015,0.018,0.052c-0.004,0.037,0.044,0.091,0.044,0.091s-0.026,0.07-0.028,0.087
			c0,0.02,0.009,0.079,0.028,0.098c0,0-0.005,0.077,0.018,0.103c0,0-0.031,0.048-0.031,0.136c0,0.087-0.025,0.233,0.04,0.281
			c0,0,0.05,0.026,0.03,0.046c0,0-0.009,0.028,0.004,0.037c0,0-0.025,0.107,0.022,0.131c0,0,0.026,0.042,0,0.096
			c0,0-0.003,0.07,0.002,0.136c0.004,0.065,0.041,0.181,0.057,0.222s0.002,0.079,0.076,0.092c0,0,0.182,0.043,0.238,0.057
			s0.216,0.042,0.327-0.002c0,0,0.085-0.009,0.069-0.096c-0.015-0.087-0.094-0.286-0.174-0.294c0,0-0.101,0-0.062-0.035
			c0,0,0.03-0.033-0.004-0.118c0,0-0.026-0.089-0.048-0.122c0,0,0.032-0.072-0.016-0.096c0,0,0.094-0.048,0.083-0.122
			c0,0-0.026-0.063,0-0.105c0,0,0.018-0.032,0.002-0.057c0,0,0.053-0.113,0-0.12l-0.013,0.009c0,0,0.078-0.231,0.03-0.253
			c0,0,0.037-0.092-0.018-0.094c0,0-0.03,0.002,0.002-0.046c0,0,0.018-0.07,0.005-0.092c-0.014-0.021,0.018-0.046,0-0.063
			c-0.018-0.018,0-0.072,0-0.072s0.039-0.074,0.062-0.07c0.024,0.004,0.024-0.072-0.021-0.1l-0.004-0.214
			c0,0-0.035-0.12,0.011-0.126c0.046-0.007,0.048-0.028,0.004-0.136c-0.046-0.104-0.043-0.091-0.235-0.087l-0.057-0.172
			c0,0,0-0.057-0.021-0.114c0,0-0.081-0.118-0.065-0.148l-1.306,0.07c0,0-0.021,0.041-0.004,0.078c0,0,0.011,0.018-0.013,0.026
			c0,0-0.021,0.018-0.007,0.07c0,0-0.037,0.013-0.02,0.061L24.153,16.602z"/>
		<g id="shaduw_linkerbeen_12_">
			<path fill="#E8E8E8" d="M24.171,18.773c0,0,0.281-0.042,0.308-0.127c0.026-0.085,0.042-0.196,0.042-0.196l-0.12-0.013
				l0.148-0.077c0,0,0.111-0.089,0.043-0.199c-0.067-0.109,0.055-0.31,0.055-0.31s0.085-0.255,0-0.316s-0.109-0.083-0.166-0.109
				c-0.057-0.026,0.262-0.085,0.262-0.085s0.07-0.122,0.033-0.181s0.007-0.137,0.011-0.146c0.005-0.009-0.057-0.103-0.144-0.103
				c0,0,0-0.033-0.077-0.035c-0.076-0.004,0.026-0.118,0.378-0.03c0.124,0.03,0.253,0.124,0.244,0.157
				c-0.009,0.035-0.083,0.15-0.135,0.144c-0.122-0.013-0.134-0.091-0.134-0.091l0.029,0.033c0,0-0.029,0.083-0.044,0.122
				c-0.016,0.039-0.048,0.113-0.057,0.138c-0.009,0.024,0,0.085,0,0.085c-0.033,0.043-0.018,0.124-0.018,0.124
				c0.041,0.02,0,0.07,0,0.07c-0.03,0.03-0.028,0.161-0.028,0.161c0.046,0.046,0.004,0.085,0.004,0.085
				c0.055,0.024,0.002,0.068-0.028,0.101s-0.03,0.14-0.03,0.14c0.032,0.044-0.021,0.168-0.021,0.168
				c0.015,0.074-0.028,0.098-0.028,0.098c0.008,0.079-0.049,0.105-0.049,0.105c0.018,0.043-0.057,0.063-0.057,0.063
				c0.031,0.007-0.013,0.085-0.013,0.085c0.018,0.021-0.002,0.083-0.002,0.083c0.023-0.011,0.03,0.008,0.03,0.008l-0.044,0.004
				C24.56,18.731,24.435,18.838,24.171,18.773z"/>
		</g>
		<g id="shaduw_rechterbeen_12_">
			<path fill="#E8E8E8" d="M25.511,16.279c-0.016,0.03,0.065,0.148,0.065,0.148c0.021,0.057,0.021,0.113,0.021,0.113l0.057,0.172
				c0.192-0.004,0.19-0.017,0.236,0.087s0.041,0.126-0.005,0.135s-0.011,0.126-0.011,0.126l0.005,0.214
				c0.045,0.028,0.048,0.104,0.021,0.101c-0.026-0.004-0.063,0.07-0.063,0.07s-0.018,0.054,0,0.072s-0.011,0.042,0,0.063
				c0.011,0.021-0.004,0.092-0.004,0.092c-0.033,0.048-0.003,0.045-0.003,0.045c0.053,0.002,0.018,0.094,0.018,0.094
				c0.048,0.02-0.03,0.253-0.03,0.253l0.013-0.009c0.053,0.004,0,0.12,0,0.12c0.016,0.024-0.002,0.057-0.002,0.057
				c-0.026,0.042,0,0.104,0,0.104c0.011,0.074-0.083,0.122-0.083,0.122c0.048,0.024,0.016,0.096,0.016,0.096
				c0.021,0.033,0.048,0.123,0.048,0.123s-0.113,0.054-0.207,0.063s-0.205,0.042-0.104-0.068c0.1-0.109,0.281-0.091,0.168-0.274
				c0,0-0.231-0.074-0.051-0.188c0,0,0.145,0.011,0.039-0.098l-0.191-0.087l0.205-0.048c0,0,0.109-0.085,0.028-0.125
				c-0.081-0.039-0.142-0.249-0.028-0.299s0.069-0.12,0.065-0.194c-0.005-0.074-0.055-0.14-0.024-0.305
				c0.031-0.166-0.061-0.284-0.061-0.284l-0.103-0.09l0.062-0.026l-0.183-0.114c0,0,0.133,0.053,0.14,0.011
				c0.006-0.042-0.107-0.126-0.107-0.126s0.009-0.101,0.042-0.092L25.511,16.279z"/>
		</g>
		<g id="linkerschoen_12_">
			<path fill="#E8E8E8" d="M24.047,18.886c0,0-0.048,0.037-0.018,0.07c0,0-0.039,0.042-0.002,0.085c0,0-0.018,0.083,0.013,0.118
				c0,0,0.016,0.016,0.013,0.101c-0.002,0.085,0.058,0.177,0.282,0.162s0.22-0.083,0.22-0.164c0,0-0.002-0.026-0.023-0.083
				c0,0,0.03,0.021,0.03-0.031c0,0-0.009-0.048-0.035-0.07c0,0,0.076-0.055,0.035-0.07c0,0,0.037-0.048,0.002-0.074
				c0,0,0.039,0.004,0.042-0.011c0,0-0.011-0.162,0-0.192c0,0-0.007-0.024-0.031-0.009c0,0-0.14,0.159-0.532,0.015
				C24.042,18.733,24.01,18.847,24.047,18.886z"/>
		</g>
		<g id="Rechterschoen_12_">
			<path fill="#E8E8E8" d="M25.755,18.555c0.022,0.033,0.048,0.122,0.048,0.122c0.035,0.085,0.005,0.118,0.005,0.118
				c-0.042,0.035,0.061,0.035,0.061,0.035c0.081,0.009,0.157,0.207,0.175,0.294s-0.069,0.096-0.069,0.096
				c-0.111,0.043-0.271,0.015-0.328,0.002c-0.057-0.013-0.237-0.057-0.237-0.057c-0.074-0.015-0.062-0.05-0.076-0.092
				c-0.016-0.042-0.051-0.157-0.057-0.223c-0.007-0.065-0.003-0.135-0.003-0.135c0.026-0.053,0-0.096,0-0.096
				s0.044,0.022,0.083,0.011c0,0-0.026,0.179,0.02,0.179s0.062-0.028,0.101-0.05S25.836,18.769,25.755,18.555z"/>
		</g>
		<path id="rechterbroekzak_10_" fill="#DBDBDB" d="M25.834,17.451c0,0-0.105-0.011-0.18,0.006c0,0-0.115-0.018-0.154-0.024
			c0,0-0.039-0.035-0.026-0.125s-0.067-0.273-0.078-0.314c0,0-0.083-0.164-0.007-0.192c0,0,0.214-0.05,0.266-0.089
			c0.192-0.004,0.19-0.017,0.236,0.087s0.041,0.126-0.005,0.135s-0.011,0.126-0.011,0.126l0.005,0.214
			c0.045,0.028,0.048,0.104,0.021,0.101c-0.026-0.004-0.063,0.07-0.063,0.07"/>
		<path id="Linkerlijn_10_" fill="#3986A8" d="M24.145,17.605c-0.037-0.015-0.023-0.074-0.023-0.074
			c-0.003-0.033,0.018-0.031,0.018-0.031s0.133,0.09,0.393,0.09c0,0,0.069,0.009,0.103,0.015c0.032,0.006,0.061-0.011,0.085-0.006
			c0.023,0.004,0.089,0.004,0.103-0.007c0.013-0.011,0.026,0.002,0.021,0.02c-0.004,0.018-0.026,0.04-0.028,0.059
			c0,0-0.007,0.018-0.026,0.018s-0.209,0.017-0.44-0.026c0,0-0.083-0.02-0.136-0.031C24.16,17.621,24.173,17.607,24.145,17.605z"/>
		<path id="Rechterlijn_10_" fill="#3986A8" d="M25.19,17.697c0,0-0.046-0.054-0.044-0.091l-0.005-0.035c0,0,0.031,0.04,0.06,0.055
			s0.083,0.061,0.231,0.037l0.235-0.018c0,0,0.15-0.033,0.17-0.065c0.013-0.022-0.004,0.092-0.004,0.092s-0.114,0.063-0.254,0.072
			C25.438,17.751,25.264,17.751,25.19,17.697z"/>
		<path id="Romp_22_" fill="#FFFFFF" d="M25.511,16.279c0,0-0.033-0.05-0.026-0.155c0.005-0.05,0.048-0.124,0.048-0.189
			c0-0.063-0.052-0.14-0.048-0.208c0.005-0.079,0.046-0.107,0.048-0.172c0.007-0.179-0.028-0.325-0.028-0.325s-0.048-0.318,0-0.371
			s-0.17-0.175-0.122-0.456c0,0-0.447,0.12-0.515,0.135c-0.07,0.015-0.223,0.07-0.286,0.101c-0.063,0.03-0.364,0.222-0.242,0.63
			c0,0,0.179,0.042,0.148,0.15c-0.028,0.109-0.135,0.181-0.135,0.181s-0.151,0.498-0.155,0.774
			C24.192,16.652,25.511,16.279,25.511,16.279z"/>
		<path id="nekring_10_" fill="#3986A8" d="M24.477,14.712c0,0,0.078-0.061,0.104-0.072s0.686,0.018,0.769-0.061
			c0,0,0.034-0.031,0.054,0.059l0.037,0.072C25.44,14.708,24.996,15.052,24.477,14.712z"/>
		<path id="helm_10_" fill="#FFFFFF" d="M25.484,14.254c0,0.321-0.184,0.535-0.506,0.535c-0.323,0-0.567-0.231-0.567-0.552
			s0.2-0.563,0.537-0.563C25.271,13.671,25.484,13.933,25.484,14.254z"/>
		<g id="helm_schaduw_12_">
			<path fill="#E8E8E8" d="M24.98,14.789c0.32,0,0.506-0.214,0.506-0.535c0-0.098-0.02-0.19-0.057-0.271
				c-0.043-0.096-0.108-0.175-0.194-0.231c0,0,0.136,0.391,0.074,0.602C25.214,14.67,24.98,14.789,24.98,14.789z"/>
		</g>
		<path fill="#0D3644" d="M25.403,14.297c0,0.247-0.131,0.41-0.357,0.41s-0.401-0.177-0.401-0.423c0-0.247,0.142-0.432,0.38-0.432
			C25.251,13.853,25.403,14.051,25.403,14.297z"/>
		<path id="Rechterarm_22_" fill="#FFFFFF" d="M25.44,14.708c0,0,0.367,0.057,0.433,0.336c0,0,0.148,0.094,0.189,0.256
			c0,0,0.009,0.023,0.039,0.008c0.031-0.015,0.083-0.035,0.103-0.017c0,0,0.04-0.111,0.143-0.083c0,0,0.103-0.046,0.253-0.035
			c0,0,0.021,0.077,0.039,0.14c0.018,0.063,0.009,0.092,0.062,0.135c0.052,0.044-0.003,0.068-0.003,0.068s0.037,0.046-0.062,0.055
			c0,0-0.014,0.041-0.083,0.026c0,0-0.031,0.052-0.103,0.074c0,0,0.004,0.061-0.07,0.061c0,0-0.026-0.018-0.026,0.031
			c0,0-0.015,0.039-0.082,0.031c0,0-0.018,0.028-0.068,0.015c0,0-0.052,0.039-0.113,0.013c0,0-0.179,0.015-0.244-0.096
			c0,0-0.044-0.037-0.096-0.048c0,0-0.114-0.061-0.129-0.113c0,0-0.04,0.018-0.063-0.046c0,0-0.02-0.037-0.044-0.037l-0.018,0.016
			c0,0,0.018-0.077-0.028-0.127c0,0-0.039-0.126,0-0.174c0,0,0.055-0.179-0.023-0.214c0,0-0.103-0.063-0.037-0.122
			S25.445,14.719,25.44,14.708z"/>
		<g>
			<path id="hand_10_" fill="#FFFFFF" d="M26.626,15.343c0,0-0.113-0.175,0.076-0.236c0,0,0.255-0.079,0.423,0.046
				c0,0,0.04,0.033-0.124,0.085c0,0-0.277,0.026-0.188,0.092c0,0,0.198-0.076,0.142,0.05c0,0-0.065,0.061-0.161,0.072
				c0,0-0.042,0.018-0.085,0.009C26.706,15.458,26.656,15.474,26.626,15.343z"/>
			<path id="schaduw_20_" fill="#DBDBDB" d="M26.706,15.458c0.044,0.009,0.086-0.009,0.086-0.009
				c0.096-0.011,0.161-0.072,0.161-0.072s-0.033,0.016-0.088,0.026c-0.065,0.013-0.144,0.028-0.161,0.03
				C26.687,15.432,26.66,15.456,26.706,15.458z"/>
			<path id="schaduw_19_" fill="#DBDBDB" d="M26.8,15.288c0,0,0.062-0.035,0.125-0.042c0.035-0.004,0.078-0.009,0.103-0.02
				c0.02-0.009,0.076-0.028,0.081-0.037c0.004-0.009-0.062-0.013-0.077-0.018C26.985,15.164,26.874,15.166,26.8,15.288z"/>
		</g>
		<path id="leftarm_22_" fill="#FFFFFF" d="M24.392,14.734c0,0-0.277,0.039-0.413,0.244c0,0-0.108,0.114-0.069,0.306
			c0,0-0.057,0.055,0.004,0.138c0,0-0.028,0.052-0.028,0.092c0,0,0.003,0.069-0.046,0.109c0,0-0.087,0.111,0.012,0.244
			c0,0-0.031,0.101,0.057,0.118c0,0,0.052,0.12,0.231,0.186c0,0,0.098,0.175,0.434,0.184l0.175,0.02l0.074-0.146l-0.024-0.044
			c0,0-0.002-0.128-0.128-0.109c0,0,0.015-0.157-0.148-0.192c0,0-0.012-0.069-0.127-0.063c0,0,0.037-0.081-0.063-0.125
			c0,0-0.015-0.021-0.002-0.039c0,0,0.026,0,0.035-0.061l0.02-0.042c0,0,0.061,0.039,0.098-0.118c0,0-0.028-0.103,0.06-0.109
			C24.627,15.319,24.731,14.786,24.392,14.734z"/>
		<g id="leftarm_21_">
			<path fill="#E8E8E8" d="M24.438,15.545c0,0,0.059,0.013,0.096-0.144c0,0,0.065-0.068,0.041-0.111c0,0-0.071-0.02-0.135,0.091
				s-0.039,0.123-0.096,0.12c0,0-0.022,0.118-0.06,0.153c0,0-0.004,0.087-0.065,0.109c-0.055,0.02,0.097-0.039,0.145,0.024
				c0.048,0.063,0.055,0.138,0.055,0.138s0.076-0.002,0.117,0.035c0.042,0.037,0.03,0.109,0.099,0.122
				c0.067,0.013,0.113,0.021,0.12,0.057c0.006,0.035-0.022,0.043,0.002,0.052l0.044-0.009c0,0-0.022-0.131-0.088-0.135
				c0,0,0.011-0.118-0.152-0.152c0,0,0.013-0.09-0.103-0.083c0,0-0.005-0.074-0.104-0.116c0,0,0.006-0.048,0.02-0.065l0.039-0.042
				L24.438,15.545z"/>
		</g>
		<g id="Romp_21_">
			<path fill="#E8E8E8" d="M25.504,15.229c0,0,0.035,0.146,0.028,0.325c-0.002,0.065-0.041,0.096-0.048,0.172
				c-0.004,0.068,0.048,0.144,0.048,0.208s-0.028,0.15-0.032,0.201c-0.007,0.105,0.028,0.211,0.028,0.211
				c-0.002-0.011-0.024,0.016-0.048,0c-0.081-0.048-0.229-0.152-0.173-0.161c0.072-0.013,0.096-0.062,0.096-0.062
				s0.074-0.211,0.029-0.262c-0.046-0.05-0.018-0.142-0.018-0.148c0-0.006,0.043-0.179-0.033-0.272
				C25.382,15.439,25.513,15.299,25.504,15.229"/>
		</g>
		<g>
			<path fill="#EFEFEF" d="M24.57,16.353c0,0,0.17-0.02,0.225-0.17c0,0,0.101,0.018,0.138,0.061c0,0-0.007,0.031,0.02,0.063
				c0,0,0.104,0.109-0.035,0.229C24.917,16.536,24.634,16.665,24.57,16.353z"/>
			<path fill="#DBDBDB" d="M24.616,16.473c0.101,0.155,0.301,0.063,0.301,0.063c0.142-0.12,0.035-0.229,0.035-0.229
				c-0.026-0.033-0.02-0.063-0.02-0.063l-0.021,0.009l0.021,0.048l0.018,0.035l-0.092,0.159L24.616,16.473z"/>
		</g>
		<g id="Rechterarm_21_">
			<path fill="#E8E8E8" d="M25.506,15.328c-0.039,0.048-0.041,0.041-0.041,0.041c0.046,0.048,0.028,0.127,0.028,0.127l0.018-0.016
				c0.026-0.002,0.044,0.037,0.044,0.037c0.021,0.063,0.062,0.046,0.062,0.046c0.016,0.053,0.129,0.113,0.129,0.113
				c0.053,0.011,0.097,0.048,0.097,0.048c0.065,0.113,0.244,0.096,0.244,0.096c0.061,0.026,0.113-0.013,0.113-0.013
				c0.05,0.015,0.067-0.016,0.067-0.016c0.07,0.009,0.083-0.03,0.083-0.03c0-0.048,0.026-0.031,0.026-0.031
				c0.072,0,0.069-0.061,0.069-0.061c0.07-0.022,0.104-0.074,0.104-0.074c0.069,0.015,0.082-0.026,0.082-0.026
				c0.101-0.009,0.063-0.055,0.063-0.055c0.037-0.024,0.024-0.039,0.016-0.055c-0.009-0.015-0.09,0.018-0.182,0.07
				c-0.091,0.052-0.174-0.046-0.174,0s-0.088,0.131-0.188,0.138c-0.1,0.006-0.098-0.138-0.098-0.138s0.007,0.052-0.094,0.105
				c-0.101,0.052-0.272-0.12-0.301-0.196c-0.029-0.077-0.037-0.136-0.037-0.136c-0.083,0.037-0.105-0.135-0.105-0.135
				C25.502,15.183,25.502,15.269,25.506,15.328z"/>
		</g>
		<path id="armring_left_10_" fill="#3986A8" d="M23.9,15.423c0,0,0.357,0.024,0.48,0.199c0,0-0.012,0.037-0.028,0.061
			c0,0-0.095-0.079-0.203-0.122c-0.092-0.037-0.219-0.057-0.273-0.04C23.879,15.482,23.9,15.423,23.9,15.423L23.9,15.423"/>
		<path id="armring_right_10_" fill="#3986A8" d="M25.688,15.637c0,0,0.016,0.011,0.032,0.022c0.007,0.004,0.014,0.013,0.022,0.015
			c0.021,0.007,0.02,0,0.02,0.004c0,0,0.223-0.321,0.31-0.371c0,0,0.002-0.033-0.018-0.043
			C26.054,15.264,25.794,15.502,25.688,15.637z"/>
		<path opacity="0.1" fill="#FFFFFF" enable-background="new    " d="M24.933,13.907l0.059,0.105c0,0-0.186,0.024-0.286,0.205
			C24.703,14.214,24.738,13.953,24.933,13.907z"/>
	</g>
</g>
<g id="cracks_flag">
	<polygon fill="#C1C1C1" points="26.637,19.362 26.752,19.478 26.872,19.521 26.851,19.606 26.895,19.506 26.766,19.449 
		26.741,19.329 	"/>
	<polygon fill="#C1C1C1" points="26.752,19.335 26.768,19.342 26.776,19.318 	"/>
	<polygon fill="#C1C1C1" points="26.536,19.393 26.552,19.384 26.536,19.362 	"/>
	<polygon fill="#C1C1C1" points="26.654,19.338 26.593,19.36 26.593,19.417 26.532,19.417 26.471,19.51 26.513,19.408 
		26.573,19.393 26.578,19.32 26.623,19.307 	"/>
	<polygon fill="#C1C1C1" points="26.774,19.257 26.774,19.292 26.909,19.257 26.994,19.275 27.066,19.164 27.139,19.188 
		27.202,19.142 27.139,19.183 27.066,19.152 27.058,19.15 26.988,19.253 26.916,19.229 	"/>
	<polygon fill="#C1C1C1" points="26.628,19.194 26.628,19.233 26.575,19.183 26.471,19.207 26.495,19.102 26.393,19.083 
		26.322,19.083 26.322,19.083 26.322,19.083 26.398,19.076 26.508,19.084 26.515,19.087 26.519,19.089 26.499,19.176 26.571,19.152 
			"/>
</g>
<g id="Flag">
	<path fill="#FFFFFF" d="M27.252,12.901c0,0,0.186-0.179,0.759,0.107c0.574,0.286,1.659,0.227,1.792,0.109l-0.099,1.602
		c0,0-1.137,0.177-1.562-0.013c-0.426-0.19-0.579-0.286-0.799-0.262c-0.221,0.024-0.19,0.048-0.19,0.048L27.252,12.901z"/>
	<path fill="#DBDBDB" d="M26.755,19.296l0.395-6.43c0,0-0.046-0.092-0.111-0.006l-0.395,6.43l0.05,0.089L26.755,19.296z"/>
</g>
<g id="Rechterhand_V2_copy_2">
	<path id="hand_4_" fill="#FFFFFF" d="M26.813,15.328c0,0,0.198-0.077,0.142,0.05c0,0-0.065,0.062-0.161,0.072
		c0,0-0.042,0.018-0.085,0.009c0,0-0.053,0.015-0.081-0.116"/>
	<path id="schaduw_6_" fill="#DBDBDB" d="M26.706,15.458c0.044,0.009,0.086-0.009,0.086-0.009c0.096-0.011,0.161-0.072,0.161-0.072
		s-0.033,0.016-0.088,0.026c-0.065,0.013-0.144,0.028-0.161,0.03C26.687,15.432,26.66,15.456,26.706,15.458z"/>
	<path id="schaduw_7_" fill="#DBDBDB" d="M26.8,15.288"/>
</g>
<g id="Logo">
	<path fill="#2FB2C4" d="M28.562,13.665l0.58-0.292l-0.074,0.395l-0.341,0.148l0.279,0.186l-0.071,0.391l-0.461-0.355l-0.571,0.292
		l0.072-0.391l0.336-0.148l-0.275-0.186l0.072-0.391L28.562,13.665z"/>
	<polygon fill="#444394" points="28.474,14.136 27.9,14.428 27.972,14.038 28.537,13.787 	"/>
	<polygon fill="#37519E" points="28.537,13.787 29.006,14.099 28.932,14.492 28.474,14.136 	"/>
	<polygon fill="#2E9DC3" points="28.562,13.665 28.537,13.787 28.311,13.89 28.035,13.704 28.107,13.311 	"/>
</g>
</svg>
