<?xml version="1.0" encoding="utf-8"?>
<!-- Generator: Adobe Illustrator 16.0.0, SVG Export Plug-In . SVG Version: 6.00 Build 0)  -->
<!DOCTYPE svg PUBLIC "-//W3C//DTD SVG 1.1//EN" "http://www.w3.org/Graphics/SVG/1.1/DTD/svg11.dtd">
<svg version="1.1" id="Layer_1" xmlns="http://www.w3.org/2000/svg" xmlns:xlink="http://www.w3.org/1999/xlink" x="0px" y="0px"
	 width="146.996px" height="189.747px" viewBox="26.955 14.004 146.996 189.747"
	 enable-background="new 26.955 14.004 146.996 189.747" xml:space="preserve">
<g>
	<path fill="#FFFFFF" d="M100.453,69.487l40.465-25.485v31l-24.09,13.135l24.09,12.996v30.744l-40.465-25.359l-39.932,25.488
		v-30.674l23.765-13.195L60.522,75.012V44.27L100.453,69.487z"/>
	<polygon fill="#FFFFFF" points="100.453,106.518 60.522,132.006 60.522,101.333 100.453,79.14 	"/>
	<polygon fill="#FFFFFF" points="100.453,79.14 140.918,101.133 140.918,131.877 100.453,106.518 	"/>
	<polygon fill="#FFFFFF" points="100.453,69.487 100.453,79.14 84.286,88.141 60.522,75.012 60.522,44.27 	"/>
	<g>
		<path fill="#FFFFFF" d="M100.453,161c-40.527,0-73.498-32.971-73.498-73.498s32.971-73.499,73.498-73.499
			s73.498,32.971,73.498,73.499S140.981,161,100.453,161z M100.453,18.004c-38.321,0-69.498,31.177-69.498,69.499
			S62.132,157,100.453,157s69.498-31.177,69.498-69.498S138.775,18.004,100.453,18.004z"/>
	</g>
	<g>
		<path fill="#FFFFFF" d="M49.165,191.499c0,3.854-1.098,6.807-3.291,8.856s-5.363,3.075-9.505,3.075h-6.63v-23.415h7.351
			c3.822,0,6.791,1.009,8.906,3.027C48.109,185.06,49.165,187.879,49.165,191.499z M44.009,191.626c0-5.028-2.221-7.543-6.663-7.543
			h-2.643v15.247h2.13C41.616,199.331,44.009,196.762,44.009,191.626z"/>
		<path fill="#FFFFFF" d="M74.717,180.015v15.151c0,1.729-0.388,3.245-1.161,4.548c-0.774,1.303-1.893,2.301-3.355,2.995
			s-3.192,1.041-5.189,1.041c-3.011,0-5.349-0.771-7.015-2.314s-2.498-3.654-2.498-6.334v-15.087h4.948v14.334
			c0,1.805,0.363,3.129,1.089,3.972c0.727,0.844,1.928,1.266,3.604,1.266c1.623,0,2.801-0.425,3.532-1.273
			c0.73-0.849,1.097-2.181,1.097-3.996v-14.302H74.717z"/>
		<path fill="#FFFFFF" d="M101.021,203.43h-5.669l-5.445-8.856l-5.445,8.856h-5.317l7.768-12.076l-7.271-11.339h5.478l5.045,8.425
			l4.949-8.425h5.349l-7.351,11.611L101.021,203.43z"/>
		<path fill="#FFFFFF" d="M105.608,203.43v-23.415h4.965v23.415H105.608z"/>
		<path fill="#FFFFFF" d="M118.106,203.43v-23.415h4.965v19.315h9.497v4.1H118.106z"/>
		<path fill="#FFFFFF" d="M138.277,203.43v-23.415h4.965v23.415H138.277z"/>
		<path fill="#FFFFFF" d="M172.027,191.691c0,3.876-0.961,6.854-2.883,8.937s-4.676,3.123-8.264,3.123s-6.342-1.041-8.264-3.123
			s-2.883-5.071-2.883-8.969s0.963-6.873,2.891-8.929c1.927-2.056,4.689-3.083,8.288-3.083c3.598,0,6.35,1.036,8.256,3.107
			S172.027,187.804,172.027,191.691z M154.939,191.691c0,2.616,0.496,4.586,1.489,5.909c0.993,1.324,2.477,1.986,4.452,1.986
			c3.961,0,5.941-2.632,5.941-7.896c0-5.274-1.97-7.912-5.909-7.912c-1.976,0-3.465,0.665-4.469,1.994
			S154.939,189.075,154.939,191.691z"/>
	</g>
</g>
</svg>
