<?xml version="1.0" encoding="UTF-8" standalone="no"?>
<svg width="81px" height="89px" viewBox="0 0 81 89" version="1.1" xmlns="http://www.w3.org/2000/svg" xmlns:xlink="http://www.w3.org/1999/xlink" xmlns:sketch="http://www.bohemiancoding.com/sketch/ns">
    <!-- Generator: Sketch 3.3.2 (12043) - http://www.bohemiancoding.com/sketch -->
    <title>duxilio-logo</title>
    <desc>Created with Sketch.</desc>
    <defs></defs>
    <g id="Page-1" stroke="none" stroke-width="1" fill="none" fill-rule="evenodd" sketch:type="MSPage">
        <g id="duxilio-logo" sketch:type="MSLayerGroup">
            <path d="M39.9,26.2 L80.4,0.7 L80.4,31.7 L56.3,44.9 L80.4,57.9 L80.4,88.6 L39.9,63.2 L0,88.7 L0,58.1 L23.8,44.9 L0,31.7 L0,1 L39.9,26.2 L39.9,26.2 Z" id="Shape" fill="#2FB2C4" sketch:type="MSShapeGroup"></path>
            <path d="M39.9,63.2 L0,88.7 L0,58.1 L39.9,35.9 L39.9,63.2 Z" id="Shape" fill="#444395" sketch:type="MSShapeGroup"></path>
            <path d="M39.9,35.9 L80.4,57.9 L80.4,88.6 L39.9,63.2 L39.9,35.9 Z" id="Shape" fill="#37519F" sketch:type="MSShapeGroup"></path>
            <path d="M39.9,26.2 L39.9,35.9 L23.8,44.9 L0,31.7 L0,1 L39.9,26.2 Z" id="Shape" fill="#309DC4" sketch:type="MSShapeGroup"></path>
        </g>
    </g>
</svg>