<?xml version="1.0" encoding="utf-8"?>
<!-- Generator: Adobe Illustrator 16.0.0, SVG Export Plug-In . SVG Version: 6.00 Build 0)  -->
<!DOCTYPE svg PUBLIC "-//W3C//DTD SVG 1.1//EN" "http://www.w3.org/Graphics/SVG/1.1/DTD/svg11.dtd">
<svg version="1.1" id="Layer_1" xmlns="http://www.w3.org/2000/svg" xmlns:xlink="http://www.w3.org/1999/xlink" x="0px" y="0px"
	 width="50px" height="50px" viewBox="0 0 50 50" enable-background="new 0 0 50 50" xml:space="preserve">
<g id="Layer_2">
	<g>
		<g>
			<g>
				<g>
					<path id="XMLID_1_" fill="#E8E8E8" d="M749.972-971.793c-11.433,0-21.071,7.672-24.05,18.147h48.1
						C771.042-964.12,761.403-971.793,749.972-971.793z"/>
				</g>
				<g>
					<defs>
						<path id="SVGID_1_" d="M749.972-971.793c-11.433,0-21.071,7.672-24.05,18.147h48.1
							C771.042-964.12,761.403-971.793,749.972-971.793z"/>
					</defs>
					<clipPath id="SVGID_2_">
						<use xlink:href="#SVGID_1_"  overflow="visible"/>
					</clipPath>
					<g id="Flag_2_" clip-path="url(#SVGID_2_)">
						<path fill="#C1C1C1" d="M755.31-969.624c0,0,0.004,0.031,0.119-0.11c0.115-0.144,0.117-0.293,0.175-0.677
							c0.058-0.382,0.692-1.099,0.692-1.099l1.164,0.65c-0.143,0.04-0.67,0.772-0.729,1.304c-0.058,0.527-0.266,0.578-0.266,0.578
							L755.31-969.624z"/>
						<path fill="#C1C1C1" d="M751.683-971.497l0.041,0.076l4.675,2.61c0.089-0.006,0.046-0.08,0.046-0.08l-4.675-2.611
							L751.683-971.497z"/>
					</g>
				</g>
			</g>
		</g>
		<g id="Astronaut_shaduw_1_">
			<g id="Backpack_copy_1_">
			</g>
			<g id="Rechterhand_V2_copy_1_">
			</g>
			<g id="linkerhand_copy_1_">
			</g>
			<g>
				<path fill="#C1C1C1" d="M751.751-969.562c0.324,0.332,0.646,0.666,0.969,1c0.053,0.05,0.104,0.1,0.159,0.15
					c0.108,0.201,0.357,0.323,0.343,0.596c-0.085,0.155-0.192,0.288-0.348,0.38c-0.302,0.052-0.442-0.172-0.612-0.349
					c-0.053-0.055-0.113-0.153-0.182-0.009c-0.018-0.042-0.032-0.085-0.051-0.126c0.044-0.043,0.063-0.061-0.002-0.125
					c-0.393-0.397-0.773-0.807-1.161-1.213c0.005-0.013,0.009-0.026,0.015-0.04c0.013-0.011,0.024-0.024,0.038-0.037
					c0.154-0.155,0.309-0.308,0.463-0.462l0.062-0.061L751.751-969.562z"/>
				<path fill="#C1C1C1" d="M752.031-967.918c0.044-0.043,0.063-0.061-0.002-0.125c-0.393-0.397-0.773-0.807-1.161-1.213
					c-0.061,0.092-0.05,0.159,0.033,0.242c0.32,0.323,0.635,0.657,0.951,0.986C751.902-967.976,751.948-967.917,752.031-967.918z"/>
				<path fill="#C1C1C1" d="M752.876-967.437c-0.302,0.052-0.443-0.172-0.613-0.349c-0.052-0.055-0.113-0.153-0.182-0.009
					c0.104,0.113,0.211,0.225,0.316,0.338C752.551-967.291,752.71-967.309,752.876-967.437z"/>
				<path fill="#C1C1C1" d="M750.882-969.295c0.013-0.011,0.025-0.024,0.039-0.037C750.908-969.319,750.895-969.306,750.882-969.295
					z"/>
				<path fill="#C1C1C1" d="M752.846-969.899c-0.015-0.009-0.024-0.016-0.037-0.024l-0.002,0.005
					c0.011,0.009,0.022,0.017,0.034,0.026L752.846-969.899z"/>
				<path fill="#C1C1C1" d="M752.771-969.948c-0.002-0.002-0.005-0.005-0.009-0.007c0.002,0.004,0.004,0.007,0.007,0.011
					L752.771-969.948z"/>
				<path id="hand_5_" fill="#C1C1C1" d="M753.646-970.15c0,0,0.032,0.205,0.214,0.124c0,0,0.242-0.113,0.283-0.316
					c0,0,0.009-0.05-0.148,0.022c0,0-0.223,0.166-0.199,0.059c0,0,0.197-0.076,0.07-0.131c0,0-0.089-0.002-0.168,0.055
					c0,0-0.043,0.015-0.068,0.05C753.626-970.293,753.578-970.27,753.646-970.15z"/>
				<path id="schaduw_10_" fill="#C1C1C1" d="M753.626-970.293c0.025-0.037,0.069-0.05,0.069-0.05
					c0.079-0.057,0.168-0.054,0.168-0.054s-0.035,0.011-0.081,0.039c-0.057,0.035-0.126,0.077-0.139,0.087
					C753.631-970.26,753.594-970.26,753.626-970.293z"/>
				<path id="schaduw_9_" fill="#C1C1C1" d="M753.81-970.229c0,0,0.07-0.015,0.12-0.052c0.028-0.02,0.062-0.046,0.09-0.053
					c0.021-0.006,0.076-0.03,0.085-0.026c0.009,0.004-0.037,0.052-0.046,0.063C754.032-970.262,753.947-970.188,753.81-970.229z"/>
				<path fill="#C1C1C1" d="M751.442-969.521c0,0,0.141-0.098,0.279-0.026c0,0,0.062-0.081,0.062-0.138c0,0-0.025-0.018-0.027-0.059
					c0,0,0.004-0.151-0.183-0.146C751.575-969.889,751.279-969.793,751.442-969.521z"/>
				<path fill="#C1C1C1" d="M751.396-969.64c-0.028-0.183,0.179-0.249,0.179-0.249c0.187-0.006,0.183,0.146,0.183,0.146
					c0.002,0.041,0.027,0.059,0.027,0.059l-0.021,0.009l-0.016-0.05l-0.01-0.037l-0.175-0.057L751.396-969.64z"/>
				<path id="Benen__x2F__schoenen_3_" fill="#C1C1C1" d="M750.967-969.424c0,0-0.035,0.009-0.046-0.05c0,0-0.051,0.004-0.039-0.06
					c0,0-0.095-0.013-0.083-0.054c0,0-0.074,0.02-0.056-0.059c0,0-0.057-0.067-0.108-0.096c0,0-0.089-0.042-0.126-0.12
					c0,0-0.039-0.018-0.028-0.055c0,0-0.044-0.004-0.048-0.055c0,0-0.04-0.009-0.042-0.058c0,0-0.044-0.023-0.039-0.052
					c0,0-0.014,0.013-0.033-0.011c0,0-0.05-0.035-0.032-0.069c0,0-0.018-0.011-0.051-0.044c-0.03-0.035-0.076-0.074-0.103-0.074
					c-0.025,0-0.058-0.009-0.053-0.048c0.008-0.039,0.002-0.05-0.02-0.053c-0.022-0.002-0.026-0.028-0.026-0.028
					s-0.035,0.007-0.039-0.021c-0.005-0.028-0.046-0.021-0.062-0.026c-0.016-0.004-0.135-0.074-0.175-0.133
					c-0.039-0.059-0.069-0.173-0.128-0.201c-0.059-0.028-0.05-0.061-0.05-0.061s-0.104,0.026-0.133-0.076
					c0,0-0.074-0.061-0.101-0.116c0,0-0.062,0.004-0.062-0.042c0,0-0.057-0.004-0.06-0.061c0,0-0.067-0.05-0.069-0.096
					c0,0,0-0.022-0.059-0.083c-0.061-0.062-0.077-0.17,0.098-0.31c0.177-0.14,0.221-0.087,0.272-0.026c0,0,0.018,0.021,0.04,0.076
					c0,0,0.006-0.037,0.043,0.002c0,0,0.025,0.042,0.021,0.077c0,0,0.094-0.011,0.074,0.028c0,0,0.061,0.011,0.052,0.052
					c0,0,0.024-0.03,0.039-0.02c0.014,0.009,0.129,0.142,0.129,0.142s0.009,0.02-0.018,0.026c0,0,0.055,0.03,0.058,0.059
					c0,0,0.085,0.028,0.067,0.054c0,0,0.066-0.037,0.085,0.009c0,0,0.059-0.02,0.104,0.046c0,0,0.049-0.013,0.088,0.055
					c0,0,0.125,0.055,0.129,0.109c0,0,0.071,0.081,0.117,0.083s0.113,0,0.091,0.055c0,0,0.059,0,0.055,0.065
					c0,0,0.085,0.098,0.128,0.103c0,0,0.064,0.009,0.046,0.052c0,0,0.044,0.07,0.097,0.079c0,0,0.032,0.052,0.058,0.063
					c0.022,0.011,0.098,0.044,0.135,0.063s0.113,0.061,0.113,0.061s-0.03-0.028,0.03-0.091c0,0,0.041-0.055-0.069-0.062
					c0,0-0.074-0.028-0.041-0.142c0,0-0.019-0.083-0.085-0.094c0,0-0.026,0.004-0.013-0.074c0,0,0.008-0.024-0.021-0.052
					c-0.028-0.026-0.028-0.098-0.028-0.098s-0.066-0.033-0.081-0.046c-0.013-0.013-0.046-0.065-0.046-0.092
					c0,0-0.054-0.052-0.057-0.087c0,0-0.056-0.015-0.113-0.081s-0.177-0.155-0.161-0.236c0,0,0.021-0.054-0.009-0.054
					c0,0-0.026-0.016-0.021-0.031c0,0-0.093-0.062-0.072-0.111c0,0-0.009-0.05-0.063-0.07c0,0-0.05-0.05-0.09-0.103
					c-0.039-0.052,0.114-0.101,0.097-0.142c-0.018-0.042-0.103-0.148-0.06-0.209c0,0-0.048-0.126-0.015-0.175
					c0.031-0.048,0.131-0.177,0.243-0.218c0,0,0.069-0.05,0.115,0.024c0.046,0.076,0.062,0.279,0.007,0.34
					c0,0-0.013,0.062,0.042,0.062c0,0,0.005,0.078,0.034,0.164c0,0,0.081,0.009,0.088,0.048c0,0,0.071,0.031,0.056,0.083
					c0,0,0.006,0.094,0.048,0.157c0,0,0.107-0.007,0.156,0.008c0,0,0.062,0.005,0.065,0.031c0,0,0.1,0.004,0.062,0.043l-0.016,0.002
					c0,0,0.214,0.118,0.191,0.166c0,0,0.09,0.044,0.051,0.081c0,0-0.024,0.018,0.032,0.03c0,0,0.06,0.04,0.064,0.062
					c0.008,0.024,0.044,0.022,0.044,0.048c-0.002,0.026,0.048,0.055,0.048,0.055s0.079,0.031,0.095,0.009s0.064,0.037,0.051,0.089
					l0.14,0.16c0,0,0.055,0.111,0.095,0.087c0.039-0.026,0.057-0.011,0.094,0.098c0.037,0.109,0.03,0.098-0.116,0.223l0.074,0.166
					c0,0,0.037,0.042,0.06,0.098c0,0,0.021,0.142,0.052,0.155l-1.015,0.823c0,0-0.043-0.018-0.055-0.055c0,0-0.002-0.02-0.028-0.011
					c0,0-0.025,0-0.052-0.046c0,0-0.035,0.015-0.055-0.031L750.967-969.424z"/>
				<path id="shaduw_linkerbeen_3_" fill="#C1C1C1" d="M749.522-971.045c0,0,0.237-0.159,0.312-0.114
					c0.076,0.044,0.161,0.118,0.161,0.118l-0.081,0.092l0.161-0.041c0,0,0.146-0.009,0.166,0.118
					c0.021,0.127,0.249,0.194,0.249,0.194s0.233,0.131,0.215,0.236c-0.021,0.104-0.026,0.133-0.052,0.192
					c-0.022,0.059,0.251-0.113,0.251-0.113s0.137,0.043,0.146,0.111c0.014,0.067,0.099,0.098,0.104,0.1
					c0.009,0.002,0.026,0.114-0.039,0.172c0,0,0.021,0.024-0.031,0.079c-0.056,0.055,0.098,0.07,0.301-0.23
					c0.072-0.107,0.104-0.262,0.076-0.282c-0.03-0.02-0.163-0.054-0.196-0.018c-0.083,0.092-0.037,0.157-0.037,0.157l-0.002-0.043
					c0,0-0.076-0.042-0.113-0.062c-0.037-0.021-0.11-0.052-0.136-0.063c-0.023-0.011-0.057-0.062-0.057-0.062
					c-0.056-0.011-0.097-0.079-0.097-0.079c0.019-0.041-0.046-0.052-0.046-0.052c-0.044-0.002-0.129-0.1-0.129-0.1
					c0.004-0.064-0.055-0.064-0.055-0.064c0.023-0.055-0.044-0.053-0.089-0.055c-0.046-0.002-0.118-0.083-0.118-0.083
					c-0.005-0.055-0.129-0.109-0.129-0.109c-0.039-0.065-0.087-0.055-0.087-0.055c-0.046-0.063-0.105-0.046-0.105-0.046
					c-0.015-0.043-0.085-0.009-0.085-0.009c0.019-0.026-0.066-0.054-0.066-0.054c-0.003-0.026-0.058-0.059-0.058-0.059
					c0.024-0.006,0.019-0.026,0.019-0.026l-0.037,0.026C749.839-971.274,749.675-971.271,749.522-971.045z"/>
				<path id="shaduw_rechterbeen_3_" fill="#C1C1C1" d="M752.19-970.096c-0.03-0.013-0.052-0.155-0.052-0.155
					c-0.022-0.057-0.06-0.098-0.06-0.098l-0.073-0.166c0.146-0.125,0.151-0.114,0.114-0.223c-0.037-0.109-0.055-0.122-0.094-0.098
					c-0.039,0.026-0.094-0.087-0.094-0.087l-0.141-0.159c0.014-0.053-0.034-0.109-0.051-0.09c-0.015,0.02-0.094-0.009-0.094-0.009
					s-0.05-0.028-0.048-0.054c0.002-0.025-0.037-0.023-0.044-0.048c-0.006-0.023-0.065-0.062-0.065-0.062
					c-0.057-0.013-0.032-0.031-0.032-0.031c0.039-0.037-0.05-0.081-0.05-0.081c0.021-0.048-0.191-0.166-0.191-0.166l0.016-0.002
					c0.034-0.04-0.081-0.046-0.081-0.046c-0.005-0.026-0.062-0.033-0.062-0.033c-0.049-0.013-0.145,0.013-0.145,0.013
					c-0.042-0.062-0.049-0.177-0.049-0.177c0.021-0.05-0.054-0.083-0.054-0.083c-0.007-0.039-0.144-0.083-0.144-0.083
					s-0.024-0.004-0.103,0.05c-0.076,0.055-0.182,0.107-0.032,0.12c0.146,0.013,0.271-0.12,0.31,0.092c0,0-0.122,0.209,0.091,0.174
					c0,0,0.1-0.105,0.094,0.048l-0.085,0.194l0.186-0.103c0,0,0.138-0.009,0.104,0.074s0.062,0.279,0.179,0.24
					c0.115-0.039,0.131,0.044,0.179,0.099c0.049,0.057,0.054,0.14,0.188,0.242c0.134,0.103,0.145,0.251,0.145,0.251l-0.016,0.135
					l0.065-0.022l-0.06,0.207c0,0,0.063-0.128,0.096-0.103c0.031,0.026,0.006,0.164,0.006,0.164s0.073,0.069,0.094,0.039
					L752.19-970.096z"/>
				<path id="linkerschoen_3_" fill="#C1C1C1" d="M749.354-971.045c0,0-0.062,0.004-0.062-0.042c0,0-0.057-0.004-0.059-0.061
					c0,0-0.067-0.05-0.07-0.096c0,0,0-0.021-0.059-0.083c-0.059-0.061-0.076-0.17,0.099-0.31c0.178-0.14,0.221-0.087,0.272-0.026
					c0,0,0.018,0.022,0.039,0.077c0,0,0.007-0.037,0.044,0.002c0,0,0.025,0.042,0.021,0.076c0,0,0.095-0.011,0.074,0.028
					c0,0,0.062,0.011,0.053,0.053c0,0,0.023-0.031,0.039-0.021c0,0,0.102,0.126,0.129,0.143c0,0,0.012,0.023-0.018,0.026
					c0,0-0.212-0.024-0.403,0.347C749.452-970.93,749.354-970.991,749.354-971.045z"/>
				<path id="Rechterschoen_3_" fill="#C1C1C1" d="M750.766-972.003c-0.006-0.039-0.015-0.031-0.015-0.031
					c-0.03-0.085-0.03-0.126-0.03-0.126c-0.056,0.002-0.044-0.109-0.044-0.109c0.052-0.061,0.044-0.218-0.002-0.292
					c-0.047-0.076-0.116-0.024-0.116-0.024c-0.111,0.043-0.212,0.17-0.244,0.218c-0.033,0.048,0.016,0.174,0.016,0.174
					c-0.044,0.061,0.002,0.14,0.021,0.179c0.018,0.041-0.021,0.124-0.061,0.172c-0.041,0.053,0.091,0.103,0.091,0.103
					c0.057,0.022,0.062,0.07,0.062,0.07s0.019-0.046,0.055-0.065c0,0-0.138-0.116-0.106-0.146c0.033-0.033,0.064-0.02,0.108-0.03
					C750.542-971.92,750.681-972.215,750.766-972.003z"/>
				<path id="rechterbroekzak_3_" fill="#C1C1C1" d="M751.644-971.184c0,0-0.072,0.079-0.138,0.116c0,0-0.074,0.089-0.1,0.122
					c0,0-0.006,0.052,0.063,0.109s0.133,0.247,0.151,0.286c0,0,0.052,0.177,0.125,0.148c0,0,0.194-0.107,0.259-0.113
					c0.146-0.125,0.151-0.114,0.114-0.223s-0.055-0.122-0.094-0.098c-0.039,0.026-0.094-0.087-0.094-0.087l-0.141-0.159
					c0.014-0.053-0.034-0.109-0.051-0.09c-0.015,0.02-0.094-0.009-0.094-0.009"/>
				<path id="Linkerlijn_3_" fill="#C1C1C1" d="M750.288-970.165c-0.018,0.035,0.033,0.07,0.033,0.07
					c0.021,0.026,0.032,0.011,0.032,0.011s0.039-0.155,0.229-0.329c0,0,0.046-0.053,0.064-0.079c0.021-0.026,0.052-0.033,0.067-0.05
					c0.013-0.018,0.062-0.065,0.081-0.063c0.018,0.002,0.02-0.02,0.002-0.03c-0.017-0.011-0.046-0.011-0.062-0.024
					c0,0-0.017-0.008-0.03,0.005c-0.013,0.013-0.166,0.126-0.31,0.314c0,0-0.048,0.07-0.079,0.114
					C750.288-970.184,750.306-970.184,750.288-970.165z"/>
				<path id="Rechterlijn_3_" fill="#C1C1C1" d="M751.001-970.935c0,0,0.002,0.069,0.027,0.098l0.021,0.03
					c0,0-0.005-0.05,0.006-0.081c0.012-0.031,0.021-0.101,0.146-0.184l0.188-0.146c0,0,0.134-0.076,0.168-0.065
					c0.023,0.006-0.065-0.062-0.065-0.062s-0.129,0.028-0.234,0.118C751.147-971.139,751.02-971.021,751.001-970.935z"/>
				<path id="Romp_5_" fill="#C1C1C1" d="M752.19-970.096c0,0,0.009,0.059,0.086,0.131c0.034,0.035,0.119,0.061,0.161,0.109
					c0.041,0.046,0.055,0.137,0.104,0.186c0.057,0.055,0.104,0.05,0.149,0.096c0.125,0.128,0.196,0.259,0.196,0.259
					s0.18,0.269,0.249,0.275c0.069,0.007-0.007,0.245,0.216,0.419c0,0-0.412,0.212-0.471,0.247
					c-0.061,0.035-0.212,0.096-0.279,0.118c-0.068,0.02-0.419,0.081-0.604-0.303c0,0,0.104-0.151,0.01-0.212
					s-0.222-0.043-0.222-0.043s-0.443-0.266-0.635-0.469C750.965-969.49,752.19-970.096,752.19-970.096z"/>
				<path id="nekring_3_" fill="#C1C1C1" d="M752.477-968.242c0,0,0.101-0.007,0.127-0.015c0.026-0.009,0.495-0.474,0.61-0.469
					c0,0,0.046-0.002,0-0.081l-0.021-0.078C753.194-968.885,752.632-968.844,752.477-968.242z"/>
				<path id="helm_3_" fill="#C1C1C1" d="M753.53-968.581c-0.216-0.238-0.495-0.272-0.731-0.057
					c-0.238,0.216-0.266,0.552-0.052,0.79c0.217,0.238,0.526,0.284,0.777,0.057C753.762-968.003,753.747-968.342,753.53-968.581z"/>
				<path id="helm_schaduw_3_" fill="#C1C1C1" d="M752.798-968.636c0.236-0.216,0.517-0.181,0.731,0.057
					c0.065,0.072,0.114,0.153,0.141,0.238c0.032,0.101,0.036,0.203,0.012,0.301c0,0-0.164-0.379-0.351-0.495
					C753.051-968.707,752.798-968.636,752.798-968.636z"/>
				<path fill="#C1C1C1" d="M753.441-968.559c-0.166-0.184-0.371-0.216-0.541-0.063c-0.168,0.153-0.18,0.401-0.014,0.585
					c0.166,0.183,0.396,0.225,0.571,0.065C753.626-968.125,753.607-968.375,753.441-968.559z"/>
				<path id="Rechterarm_5_" fill="#C1C1C1" d="M753.194-968.885c0,0,0.233-0.288,0.094-0.539c0,0,0.049-0.17-0.029-0.316
					c0,0-0.012-0.023,0.021-0.033c0.033-0.009,0.083-0.031,0.088-0.057c0,0,0.104,0.057,0.161-0.033c0,0,0.107-0.033,0.212-0.144
					c0,0-0.035-0.072-0.064-0.131c-0.03-0.06-0.056-0.074-0.046-0.14c0.009-0.066-0.049-0.048-0.049-0.048s-0.003-0.059-0.083,0.002
					c0,0-0.036-0.021-0.078,0.035c0,0-0.06-0.018-0.126,0.013c0,0-0.037-0.046-0.093,0.002c0,0-0.007,0.03-0.039-0.007
					c0,0-0.036-0.02-0.083,0.033c0,0-0.032-0.011-0.06,0.035c0,0-0.065,0.006-0.094,0.067c0,0-0.145,0.109-0.117,0.236
					c0,0-0.009,0.057-0.039,0.102c0,0-0.044,0.122-0.021,0.172c0,0-0.041,0.013-0.016,0.077c0,0,0.011,0.042-0.009,0.057h-0.022
					c0,0,0.063,0.046,0.063,0.114c0,0,0.057,0.118,0.118,0.128c0,0,0.161,0.098,0.124,0.174c0,0-0.032,0.116,0.055,0.116
					C753.151-968.97,753.188-968.898,753.194-968.885z"/>
				<path id="leftarm_5_" fill="#C1C1C1" d="M752.396-968.201c0,0-0.23,0.155-0.471,0.096c0,0-0.157-0.011-0.258-0.179
					c0,0-0.078-0.002-0.09-0.106c0,0-0.057-0.021-0.083-0.048c0,0-0.046-0.053-0.106-0.05c0,0-0.141-0.024-0.154-0.188
					c0,0-0.09-0.052-0.037-0.125c0,0-0.042-0.125,0.046-0.292c0,0-0.044-0.196,0.198-0.428l0.115-0.133l0.153,0.059l0.011,0.048
					c0,0,0.085,0.096-0.022,0.168c0,0,0.116,0.107,0.021,0.242c0,0,0.039,0.059-0.051,0.131c0,0,0.083,0.037,0.034,0.135
					c0,0,0.004,0.026,0.024,0.031c0,0,0.02-0.018,0.067,0.021l0.041,0.018c0,0,0.018-0.07,0.152,0.022c0,0,0.046,0.096,0.115,0.042
					C752.178-968.792,752.614-968.468,752.396-968.201z"/>
				<path id="leftarm_4_" fill="#C1C1C1" d="M751.888-968.833c0,0,0.035-0.048,0.168,0.042c0,0,0.094,0.006,0.104,0.052
					c0,0-0.039,0.063-0.16,0.024c-0.122-0.039-0.111-0.063-0.153-0.024c0,0-0.097-0.072-0.146-0.074c0,0-0.062-0.061-0.122-0.037
					c-0.053,0.021,0.099-0.035,0.092-0.116s-0.053-0.14-0.053-0.14s0.06-0.048,0.063-0.104c0.004-0.057-0.051-0.101-0.013-0.157
					c0.04-0.057,0.07-0.092,0.052-0.122c-0.021-0.033-0.046-0.018-0.033-0.039l0.037-0.022c0,0,0.069,0.111,0.025,0.159
					c0,0,0.087,0.079-0.011,0.216c0,0,0.069,0.057-0.02,0.131c0,0,0.046,0.059,0,0.157c0,0,0.037,0.031,0.059,0.035l0.057,0.004
					L751.888-968.833z"/>
				<path id="Romp_4_" fill="#C1C1C1" d="M752.889-969.315c0,0-0.071-0.131-0.196-0.259c-0.046-0.048-0.096-0.044-0.15-0.096
					c-0.05-0.048-0.062-0.14-0.104-0.186c-0.044-0.048-0.122-0.091-0.159-0.126c-0.076-0.072-0.12-0.177-0.12-0.177
					c0.004,0.009-0.027,0.004-0.037,0.033c-0.025,0.089-0.066,0.266-0.02,0.236c0.061-0.04,0.113-0.021,0.113-0.021
					s0.195,0.106,0.195,0.174s0.083,0.116,0.087,0.122c0.005,0.004,0.153,0.103,0.16,0.225
					C752.658-969.389,752.85-969.373,752.889-969.315"/>
				<path id="Rechterarm_4_" fill="#C1C1C1" d="M752.826-969.389c-0.062-0.011-0.06-0.002-0.06-0.002
					c0.003-0.068-0.063-0.114-0.063-0.114h0.022c0.02-0.015,0.009-0.057,0.009-0.057c-0.026-0.063,0.015-0.076,0.015-0.076
					c-0.022-0.048,0.021-0.172,0.021-0.172c0.032-0.043,0.039-0.1,0.039-0.1c-0.026-0.127,0.117-0.236,0.117-0.236
					c0.027-0.061,0.094-0.068,0.094-0.068c0.029-0.046,0.06-0.035,0.06-0.035c0.046-0.052,0.083-0.033,0.083-0.033
					c0.032,0.037,0.039,0.006,0.039,0.006c0.056-0.048,0.092-0.002,0.092-0.002c0.067-0.031,0.127-0.013,0.127-0.013
					c0.041-0.057,0.078-0.035,0.078-0.035c0.08-0.061,0.083-0.002,0.083-0.002c0.043-0.009,0.043,0.013,0.048,0.028
					c0.005,0.018-0.078,0.048-0.182,0.07c-0.103,0.022-0.098,0.15-0.128,0.118c-0.031-0.035-0.153-0.037-0.231,0.024
					c-0.078,0.061,0.021,0.168,0.021,0.168s-0.03-0.044-0.14-0.013c-0.109,0.028-0.12,0.272-0.093,0.347
					c0.03,0.074,0.063,0.125,0.063,0.125c-0.085,0.028,0.013,0.17,0.013,0.17C752.917-969.281,752.86-969.343,752.826-969.389z"/>
				<path id="armring_left_3_" fill="#C1C1C1" d="M751.571-968.381c0,0,0.249-0.258,0.226-0.469c0,0-0.032-0.02-0.062-0.026
					c0,0-0.017,0.12-0.067,0.227c-0.044,0.09-0.124,0.19-0.175,0.212C751.515-968.413,751.571-968.381,751.571-968.381
					L751.571-968.381"/>
				<path id="armring_right_3_" fill="#C1C1C1" d="M752.751-969.741c0,0,0.003-0.02,0.01-0.039c0.002-0.007,0.002-0.02,0.004-0.025
					c0.011-0.021,0.016-0.013,0.011-0.017c0,0,0.38,0.09,0.48,0.068c0,0,0.022,0.024,0.015,0.043
					C753.273-969.71,752.92-969.712,752.751-969.741z"/>
				<path opacity="0.1" fill="#C1C1C1" enable-background="new    " d="M753.354-967.95l-0.025-0.116c0,0-0.152,0.107-0.35,0.042
					C752.979-968.025,753.18-967.855,753.354-967.95z"/>
			</g>
		</g>
		<circle fill="#D6D6D6" cx="753.452" cy="-966.881" r="0.262"/>
		<path fill="#C6C6C6" d="M753.452-966.619c-0.145,0-0.262-0.118-0.262-0.262s0.117-0.262,0.262-0.262c0,0-0.168,0.087-0.168,0.262
			C753.284-966.706,753.452-966.619,753.452-966.619z"/>
		<circle fill="#D6D6D6" cx="747.79" cy="-970.044" r="0.166"/>
		<path fill="#C6C6C6" d="M747.779-969.878c-0.092-0.006-0.162-0.085-0.155-0.177c0.008-0.091,0.086-0.161,0.178-0.155
			c0,0-0.127,0.048-0.137,0.157C747.659-969.941,747.779-969.878,747.779-969.878z"/>
		<circle fill="#D6D6D6" cx="759.387" cy="-965.47" r="0.166"/>
		<path fill="#C6C6C6" d="M759.376-965.305c-0.093-0.006-0.161-0.085-0.155-0.176c0.007-0.092,0.086-0.162,0.177-0.155
			c0,0-0.126,0.048-0.135,0.157C759.256-965.369,759.376-965.305,759.376-965.305z"/>
		<circle fill="#D6D6D6" cx="737.343" cy="-959.3" r="0.165"/>
		<path fill="#C6C6C6" d="M737.333-959.135c-0.093-0.006-0.162-0.084-0.155-0.176s0.085-0.162,0.177-0.154
			c0,0-0.127,0.047-0.136,0.156C737.212-959.2,737.333-959.135,737.333-959.135z"/>
		<circle fill="#D6D6D6" cx="735.446" cy="-965.47" r="0.166"/>
		<path fill="#C6C6C6" d="M735.436-965.305c-0.092-0.006-0.161-0.085-0.155-0.176c0.007-0.092,0.085-0.162,0.177-0.155
			c0,0-0.126,0.048-0.135,0.157C735.315-965.369,735.436-965.305,735.436-965.305z"/>
		<circle fill="#D6D6D6" cx="762.792" cy="-961.361" r="0.166"/>
		<path fill="#C6C6C6" d="M762.78-961.195c-0.092-0.008-0.162-0.086-0.154-0.178c0.007-0.092,0.085-0.16,0.177-0.154
			c0,0-0.127,0.047-0.136,0.156C762.66-961.26,762.78-961.195,762.78-961.195z"/>
		<circle fill="#D6D6D6" cx="768.187" cy="-961.527" r="0.166"/>
		<path fill="#C6C6C6" d="M768.176-961.361c-0.093-0.008-0.161-0.086-0.154-0.178c0.006-0.092,0.085-0.16,0.177-0.154
			c0,0-0.127,0.049-0.136,0.156C768.056-961.426,768.176-961.361,768.176-961.361z"/>
		<circle fill="#D6D6D6" cx="745.112" cy="-955.732" r="0.166"/>
		<path fill="#C6C6C6" d="M745.102-955.566c-0.092-0.006-0.161-0.086-0.155-0.178c0.007-0.09,0.086-0.16,0.177-0.154
			c0,0-0.126,0.049-0.135,0.158C744.981-955.629,745.102-955.566,745.102-955.566z"/>
		<circle fill="#D6D6D6" cx="742.745" cy="-956.813" r="0.359"/>
		<path fill="#C6C6C6" d="M742.721-956.456c-0.198-0.012-0.35-0.184-0.336-0.381c0.014-0.199,0.184-0.35,0.382-0.336
			c0,0-0.274,0.102-0.292,0.342C742.456-956.59,742.721-956.456,742.721-956.456z"/>
		<circle fill="#D6D6D6" cx="749.328" cy="-956.09" r="0.304"/>
		<path fill="#C6C6C6" d="M749.309-955.788c-0.166-0.012-0.292-0.156-0.281-0.322c0.011-0.164,0.155-0.291,0.32-0.281
			c0,0-0.231,0.088-0.244,0.289C749.091-955.902,749.309-955.788,749.309-955.788z"/>
		<circle fill="#D6D6D6" cx="759.309" cy="-956.813" r="0.203"/>
		<path fill="#C6C6C6" d="M759.295-956.611c-0.111-0.006-0.196-0.105-0.189-0.217c0.007-0.112,0.104-0.195,0.216-0.189
			c0,0-0.154,0.059-0.163,0.191C759.149-956.688,759.295-956.611,759.295-956.611z"/>
		<path fill="#D6D6D6" d="M754.532-955.219c-0.013,0.213-0.197,0.377-0.415,0.363c-0.214-0.014-0.377-0.197-0.363-0.414
			s0.198-0.377,0.415-0.365C754.384-955.62,754.545-955.435,754.532-955.219z"/>
		<path fill="#C6C6C6" d="M754.117-954.855c-0.214-0.014-0.377-0.197-0.363-0.414c0.014-0.217,0.198-0.377,0.415-0.365
			c0,0-0.3,0.111-0.316,0.369C753.836-955.006,754.117-954.855,754.117-954.855z"/>
		<circle fill="#D6D6D6" cx="754.467" cy="-969.712" r="0.104"/>
		<path fill="#C6C6C6" d="M754.46-969.607c-0.058-0.004-0.102-0.052-0.099-0.111c0.004-0.057,0.052-0.102,0.111-0.098
			c0,0-0.083,0.035-0.088,0.104C754.382-969.643,754.46-969.607,754.46-969.607z"/>
		<circle fill="#D6D6D6" cx="761.469" cy="-966.641" r="0.104"/>
		<path fill="#C6C6C6" d="M761.462-966.538c-0.058-0.004-0.102-0.052-0.099-0.111c0.004-0.057,0.052-0.101,0.111-0.098
			c0,0-0.083,0.035-0.088,0.105C761.384-966.573,761.462-966.538,761.462-966.538z"/>
		<circle fill="#D6D6D6" cx="734.437" cy="-958.325" r="0.166"/>
		<path fill="#C6C6C6" d="M734.425-958.159c-0.092-0.008-0.161-0.086-0.154-0.178c0.006-0.092,0.085-0.16,0.177-0.154
			c0,0-0.127,0.049-0.136,0.156C734.306-958.223,734.425-958.159,734.425-958.159z"/>
		<circle fill="#D6D6D6" cx="733.682" cy="-961.895" r="0.104"/>
		<path fill="#C6C6C6" d="M733.675-961.792c-0.058-0.006-0.102-0.053-0.1-0.111c0.005-0.057,0.054-0.102,0.111-0.1
			c0,0-0.083,0.035-0.087,0.105C733.596-961.827,733.675-961.792,733.675-961.792z"/>
		<circle fill="#D6D6D6" cx="764.644" cy="-965.471" r="0.105"/>
		<path fill="#C6C6C6" d="M764.637-965.366c-0.058-0.004-0.102-0.053-0.099-0.111c0.004-0.057,0.053-0.101,0.111-0.098
			c0,0-0.083,0.035-0.088,0.104C764.559-965.4,764.637-965.366,764.637-965.366z"/>
		<circle fill="#D6D6D6" cx="745.455" cy="-967.403" r="0.764"/>
		<path fill="#C6C6C6" d="M745.455-966.64c-0.421,0-0.764-0.343-0.764-0.764c0-0.421,0.343-0.764,0.764-0.764
			c0,0-0.472,0.257-0.472,0.764C744.983-966.897,745.455-966.64,745.455-966.64z"/>
		<circle fill="#D6D6D6" cx="738.31" cy="-963.902" r="0.764"/>
		<path fill="#C6C6C6" d="M738.31-963.139c-0.422,0-0.764-0.342-0.764-0.764c0-0.42,0.342-0.764,0.764-0.764
			c0,0-0.472,0.258-0.472,0.764C737.838-963.396,738.31-963.139,738.31-963.139z"/>
		<circle fill="#D6D6D6" cx="757.794" cy="-968.298" r="0.438"/>
		<path fill="#C6C6C6" d="M757.794-967.861c-0.242,0-0.438-0.197-0.438-0.439c0-0.242,0.196-0.438,0.438-0.438
			c0,0-0.307,0.146-0.307,0.438S757.794-967.861,757.794-967.861z"/>
		<circle fill="#AFAFAF" cx="751.227" cy="-969.563" r="0.548"/>
		<path fill="#A0A0A0" d="M751.227-969.019c-0.301,0-0.548-0.245-0.548-0.547c0-0.301,0.244-0.548,0.548-0.548
			c0,0-0.408,0.184-0.408,0.548C750.818-969.202,751.227-969.019,751.227-969.019z"/>
		<circle fill="#D6D6D6" cx="735.867" cy="-956.267" r="0.548"/>
		<path fill="#C6C6C6" d="M735.867-955.719c-0.301,0-0.547-0.244-0.547-0.549c0-0.301,0.244-0.547,0.547-0.547
			c0,0-0.407,0.184-0.407,0.547C735.458-955.902,735.867-955.719,735.867-955.719z"/>
		<circle fill="#C9C9C9" cx="763.063" cy="-963.902" r="0.548"/>
		<path fill="#B7B7B7" d="M763.063-963.355c-0.301,0-0.548-0.244-0.548-0.549c0-0.301,0.245-0.547,0.548-0.547
			c0,0-0.408,0.184-0.408,0.547C762.655-963.54,763.063-963.355,763.063-963.355z"/>
		<circle fill="#D6D6D6" cx="740.622" cy="-966.88" r="0.373"/>
		<path fill="#C6C6C6" d="M740.622-966.509c-0.205,0-0.373-0.166-0.373-0.373c0-0.205,0.166-0.373,0.373-0.373
			c0,0-0.304,0.124-0.304,0.373S740.622-966.509,740.622-966.509z"/>
		<circle fill="#D6D6D6" cx="764.663" cy="-955.597" r="0.495"/>
		<path fill="#C6C6C6" d="M764.663-955.101c-0.274,0-0.494-0.223-0.494-0.496c0-0.273,0.223-0.494,0.494-0.494
			c0,0-0.402,0.166-0.405,0.494C764.257-955.269,764.663-955.101,764.663-955.101z"/>
		<circle fill="#D6D6D6" cx="759.553" cy="-962.881" r="0.373"/>
		<path fill="#C6C6C6" d="M759.553-962.51c-0.205,0-0.373-0.166-0.373-0.373c0-0.205,0.166-0.373,0.373-0.373
			c0,0-0.304,0.125-0.304,0.373S759.553-962.51,759.553-962.51z"/>
		<circle fill="#D6D6D6" cx="750.328" cy="-965.824" r="0.371"/>
		<path fill="#C6C6C6" d="M750.328-965.454c-0.205,0-0.37-0.166-0.37-0.371c0-0.205,0.166-0.371,0.37-0.371
			c0,0-0.315,0.148-0.315,0.395S750.328-965.454,750.328-965.454z"/>
		<circle fill="#D6D6D6" cx="766.35" cy="-959.058" r="0.37"/>
		<path fill="#C6C6C6" d="M766.35-958.688c-0.205,0-0.371-0.164-0.371-0.369c0-0.207,0.166-0.371,0.371-0.371
			c0,0-0.316,0.147-0.316,0.395C766.031-958.788,766.35-958.688,766.35-958.688z"/>
		<circle fill="#D6D6D6" cx="739.88" cy="-960.292" r="0.371"/>
		<path fill="#C6C6C6" d="M739.88-959.92c-0.205,0-0.371-0.166-0.371-0.371s0.166-0.371,0.371-0.371c0,0-0.316,0.148-0.316,0.396
			C739.563-960.021,739.88-959.92,739.88-959.92z"/>
		<circle fill="#D6D6D6" cx="735.431" cy="-961.092" r="0.371"/>
		<path fill="#C6C6C6" d="M735.431-960.721c-0.205,0-0.37-0.166-0.37-0.371s0.165-0.371,0.37-0.371c0,0-0.316,0.148-0.316,0.396
			C735.114-960.82,735.431-960.721,735.431-960.721z"/>
		<circle fill="#D6D6D6" cx="730.691" cy="-958.879" r="0.371"/>
		<path fill="#C6C6C6" d="M730.691-958.508c-0.205,0-0.37-0.166-0.37-0.371s0.165-0.371,0.37-0.371c0,0-0.315,0.148-0.315,0.395
			C730.376-958.607,730.691-958.508,730.691-958.508z"/>
		<g id="Astronaut_1_">
			<g>
				<g>
					<g>
						<path fill="#E8E8E8" d="M749.797-974.647c0.02-0.465,0.032-0.927,0.049-1.392c0.006-0.072,0.011-0.146,0.017-0.218
							c-0.054-0.223,0.049-0.48-0.146-0.672c-0.166-0.06-0.336-0.085-0.511-0.048c-0.261,0.164-0.213,0.426-0.222,0.67
							c-0.002,0.074,0.019,0.19-0.129,0.126c0.016,0.042,0.033,0.085,0.049,0.127c0.062,0.002,0.087,0.002,0.082,0.094
							c-0.022,0.559-0.032,1.119-0.046,1.678c0.012,0.007,0.024,0.013,0.035,0.021c0.018,0,0.035,0,0.053,0
							c0.218,0.011,0.438,0.021,0.652,0.033l0.087,0.006L749.797-974.647z"/>
					</g>
					<path fill="#FFFFFF" d="M748.902-976.053c0.062,0.002,0.088,0.002,0.083,0.094c-0.022,0.559-0.032,1.119-0.046,1.678
						c-0.106-0.026-0.144-0.085-0.14-0.2c0.021-0.456,0.027-0.912,0.042-1.368C748.844-975.924,748.84-975.999,748.902-976.053z"/>
					<path fill="#FFFFFF" d="M749.204-976.979c-0.26,0.164-0.212,0.426-0.221,0.67c-0.002,0.074,0.018,0.19-0.129,0.126
						c0.002-0.155,0.007-0.308,0.007-0.462C748.863-976.868,748.996-976.96,749.204-976.979z"/>
					<path fill="#FBFBFB" d="M748.975-974.261c0.018,0,0.035,0,0.053,0C749.01-974.261,748.992-974.261,748.975-974.261z"/>
					<path fill="#F8F8F8" d="M750.833-975.132c-0.005,0.015-0.007,0.028-0.012,0.042h-0.004c0.002-0.015,0.004-0.029,0.009-0.044
						L750.833-975.132z"/>
					<path fill="#F8F8F8" d="M750.814-975.047c0,0.004,0,0.007,0,0.011c0-0.004-0.003-0.006-0.003-0.011H750.814z"/>
				</g>
				<path id="Benen__x2F__schoenen_2_" fill="#FFFFFF" d="M749.126-974.222c0,0-0.03,0.018,0,0.067c0,0-0.039,0.03,0.011,0.07
					c0,0-0.062,0.074-0.025,0.096c0,0-0.067,0.035,0,0.081c0,0,0.004,0.089-0.018,0.145c0,0-0.037,0.091-0.015,0.174
					c0,0-0.018,0.04,0.019,0.059c0,0-0.028,0.033,0,0.072c0,0-0.023,0.035,0.007,0.07c0,0-0.016,0.048,0.007,0.064
					c0,0-0.021-0.002-0.018,0.031c0,0-0.017,0.061,0.022,0.074c0,0-0.006,0.02-0.006,0.065c0,0.045-0.007,0.105-0.025,0.125
					c-0.02,0.02-0.037,0.046-0.008,0.07c0.03,0.024,0.035,0.035,0.021,0.052c-0.013,0.019,0,0.039,0,0.039s-0.03,0.021-0.016,0.044
					c0.016,0.024-0.02,0.046-0.027,0.06c-0.009,0.013-0.053,0.146-0.04,0.216c0.014,0.07,0.062,0.174,0.04,0.233
					c-0.024,0.059,0.004,0.079,0.004,0.079s-0.094,0.05-0.048,0.146c0,0-0.013,0.094,0.004,0.153c0,0-0.048,0.037-0.017,0.07
					c0,0-0.04,0.042-0.004,0.085c0,0-0.018,0.083,0.015,0.118c0,0,0.015,0.016,0.013,0.101s0.057,0.177,0.281,0.162
					c0.226-0.015,0.221-0.083,0.221-0.164c0,0-0.002-0.026-0.023-0.083c0,0,0.03,0.021,0.03-0.031c0,0-0.009-0.048-0.034-0.07
					c0,0,0.075-0.055,0.034-0.07c0,0,0.037-0.048,0.002-0.074c0,0,0.039,0.004,0.041-0.011c0.003-0.015,0-0.192,0-0.192
					s-0.006-0.021-0.029-0.009c0,0,0.02-0.061,0.002-0.083c0,0,0.044-0.079,0.014-0.085c0,0,0.074-0.02,0.057-0.063
					c0,0,0.058-0.026,0.048-0.104c0,0,0.045-0.024,0.028-0.099c0,0,0.056-0.124,0.021-0.168c0,0,0-0.106,0.03-0.14
					c0.03-0.032,0.083-0.076,0.028-0.101c0,0,0.041-0.04-0.005-0.085c0,0-0.002-0.131,0.028-0.162c0,0,0.042-0.05,0-0.07
					c0,0-0.016-0.081,0.018-0.125c0,0-0.011-0.06,0-0.085s0.044-0.098,0.058-0.138c0.016-0.039,0.044-0.122,0.044-0.122
					s-0.005,0.042,0.085,0.048c0,0,0.066,0.013-0.012,0.092c0,0-0.034,0.07,0.063,0.133c0,0,0.041,0.072,0,0.126
					c0,0-0.024,0.015,0.041,0.063c0,0,0.021,0.015,0.018,0.052c-0.004,0.037,0.044,0.091,0.044,0.091s-0.025,0.07-0.027,0.087
					c0,0.02,0.009,0.079,0.027,0.098c0,0-0.005,0.077,0.019,0.104c0,0-0.031,0.048-0.031,0.136c0,0.087-0.025,0.233,0.04,0.281
					c0,0,0.05,0.026,0.03,0.046c0,0-0.009,0.028,0.004,0.037c0,0-0.025,0.106,0.021,0.131c0,0,0.026,0.042,0,0.096
					c0,0-0.003,0.07,0.002,0.136c0.005,0.065,0.041,0.181,0.058,0.222c0.016,0.041,0.002,0.079,0.076,0.092
					c0,0,0.182,0.043,0.237,0.057c0.057,0.014,0.216,0.042,0.327-0.002c0,0,0.085-0.009,0.069-0.096s-0.094-0.286-0.174-0.294
					c0,0-0.102,0-0.062-0.035c0,0,0.03-0.033-0.004-0.118c0,0-0.026-0.089-0.048-0.122c0,0,0.032-0.072-0.016-0.096
					c0,0,0.094-0.048,0.082-0.122c0,0-0.025-0.063,0-0.105c0,0,0.019-0.032,0.003-0.057c0,0,0.053-0.113,0-0.12l-0.014,0.009
					c0,0,0.078-0.231,0.03-0.253c0,0,0.037-0.092-0.018-0.094c0,0-0.03,0.002,0.002-0.046c0,0,0.018-0.07,0.005-0.092
					c-0.015-0.021,0.018-0.046,0-0.063c-0.019-0.018,0-0.072,0-0.072s0.039-0.074,0.062-0.07c0.024,0.004,0.024-0.072-0.021-0.1
					l-0.004-0.214c0,0-0.035-0.12,0.011-0.126c0.046-0.007,0.048-0.028,0.004-0.136c-0.046-0.104-0.043-0.091-0.235-0.087
					l-0.057-0.172c0,0,0-0.057-0.021-0.114c0,0-0.081-0.118-0.065-0.147l-1.306,0.07c0,0-0.021,0.041-0.005,0.078
					c0,0,0.012,0.019-0.013,0.026c0,0-0.021,0.018-0.007,0.07c0,0-0.037,0.013-0.021,0.061L749.126-974.222z"/>
				<g id="shaduw_linkerbeen_2_">
					<path fill="#E8E8E8" d="M749.143-972.051c0,0,0.281-0.042,0.308-0.127s0.042-0.196,0.042-0.196l-0.12-0.013l0.148-0.077
						c0,0,0.111-0.089,0.043-0.199c-0.067-0.109,0.055-0.31,0.055-0.31s0.085-0.255,0-0.316c-0.085-0.061-0.108-0.083-0.166-0.109
						c-0.057-0.026,0.263-0.085,0.263-0.085s0.069-0.122,0.032-0.181c-0.036-0.059,0.008-0.137,0.012-0.146
						c0.005-0.009-0.058-0.103-0.145-0.103c0,0,0-0.033-0.077-0.035c-0.075-0.004,0.026-0.118,0.378-0.03
						c0.125,0.03,0.254,0.124,0.244,0.157c-0.009,0.035-0.083,0.15-0.135,0.145c-0.122-0.013-0.134-0.091-0.134-0.091l0.029,0.033
						c0,0-0.029,0.083-0.044,0.122c-0.017,0.039-0.049,0.113-0.058,0.138c-0.009,0.024,0,0.085,0,0.085
						c-0.033,0.043-0.018,0.124-0.018,0.124c0.041,0.02,0,0.07,0,0.07c-0.03,0.03-0.028,0.161-0.028,0.161
						c0.046,0.046,0.004,0.085,0.004,0.085c0.055,0.024,0.002,0.068-0.027,0.102c-0.03,0.033-0.03,0.14-0.03,0.14
						c0.032,0.044-0.021,0.168-0.021,0.168c0.016,0.074-0.027,0.098-0.027,0.098c0.008,0.079-0.05,0.105-0.05,0.105
						c0.019,0.043-0.057,0.063-0.057,0.063c0.031,0.007-0.013,0.085-0.013,0.085c0.018,0.021-0.002,0.083-0.002,0.083
						c0.022-0.011,0.029,0.008,0.029,0.008l-0.044,0.004C749.531-972.092,749.406-971.985,749.143-972.051z"/>
				</g>
				<g id="shaduw_rechterbeen_2_">
					<path fill="#E8E8E8" d="M750.482-974.545c-0.016,0.03,0.065,0.148,0.065,0.148c0.021,0.057,0.021,0.113,0.021,0.113
						l0.058,0.172c0.191-0.004,0.189-0.017,0.235,0.087s0.041,0.126-0.005,0.135c-0.046,0.009-0.011,0.126-0.011,0.126l0.005,0.214
						c0.045,0.028,0.048,0.104,0.021,0.101c-0.025-0.004-0.062,0.07-0.062,0.07s-0.019,0.054,0,0.072
						c0.018,0.018-0.011,0.042,0,0.063s-0.004,0.092-0.004,0.092c-0.033,0.048-0.003,0.045-0.003,0.045
						c0.053,0.002,0.018,0.094,0.018,0.094c0.048,0.02-0.03,0.253-0.03,0.253l0.014-0.009c0.053,0.004,0,0.12,0,0.12
						c0.016,0.024-0.002,0.057-0.002,0.057c-0.026,0.042,0,0.104,0,0.104c0.011,0.074-0.083,0.122-0.083,0.122
						c0.048,0.024,0.016,0.096,0.016,0.096c0.021,0.033,0.048,0.123,0.048,0.123s-0.112,0.054-0.207,0.063
						c-0.094,0.009-0.205,0.042-0.104-0.068c0.1-0.108,0.28-0.091,0.168-0.273c0,0-0.231-0.074-0.051-0.188
						c0,0,0.145,0.011,0.038-0.098l-0.19-0.087l0.205-0.048c0,0,0.108-0.085,0.028-0.125c-0.081-0.039-0.143-0.249-0.028-0.299
						s0.069-0.12,0.064-0.194c-0.005-0.074-0.055-0.14-0.023-0.305c0.031-0.166-0.062-0.284-0.062-0.284l-0.103-0.09l0.062-0.026
						l-0.183-0.114c0,0,0.133,0.053,0.14,0.011s-0.106-0.126-0.106-0.126s0.009-0.101,0.042-0.092L750.482-974.545z"/>
				</g>
				<g id="linkerschoen_2_">
					<path fill="#E8E8E8" d="M749.019-971.938c0,0-0.048,0.037-0.018,0.07c0,0-0.039,0.042-0.003,0.085c0,0-0.018,0.083,0.014,0.118
						c0,0,0.016,0.016,0.013,0.101c-0.002,0.085,0.058,0.177,0.282,0.162c0.224-0.015,0.22-0.083,0.22-0.164
						c0,0-0.002-0.026-0.023-0.083c0,0,0.03,0.021,0.03-0.031c0,0-0.009-0.048-0.035-0.07c0,0,0.076-0.055,0.035-0.07
						c0,0,0.037-0.048,0.002-0.074c0,0,0.039,0.004,0.042-0.011c0,0-0.011-0.162,0-0.191c0,0-0.007-0.024-0.03-0.009
						c0,0-0.141,0.159-0.532,0.015C749.014-972.09,748.981-971.978,749.019-971.938z"/>
				</g>
				<g id="Rechterschoen_2_">
					<path fill="#E8E8E8" d="M750.727-972.27c0.021,0.033,0.048,0.122,0.048,0.122c0.035,0.085,0.005,0.118,0.005,0.118
						c-0.042,0.035,0.062,0.035,0.062,0.035c0.081,0.009,0.156,0.207,0.175,0.294c0.018,0.087-0.069,0.096-0.069,0.096
						c-0.111,0.043-0.271,0.015-0.328,0.002c-0.057-0.013-0.236-0.057-0.236-0.057c-0.074-0.015-0.062-0.05-0.076-0.092
						c-0.017-0.042-0.051-0.157-0.058-0.223c-0.007-0.065-0.003-0.135-0.003-0.135c0.026-0.053,0-0.096,0-0.096
						s0.044,0.022,0.083,0.011c0,0-0.025,0.179,0.021,0.179s0.062-0.028,0.101-0.05S750.808-972.055,750.727-972.27z"/>
				</g>
				<path id="rechterbroekzak_2_" fill="#DBDBDB" d="M750.806-973.374c0,0-0.105-0.011-0.18,0.006c0,0-0.115-0.018-0.154-0.024
					c0,0-0.039-0.035-0.026-0.125c0.013-0.09-0.066-0.273-0.078-0.314c0,0-0.083-0.164-0.007-0.192c0,0,0.214-0.05,0.266-0.089
					c0.192-0.004,0.19-0.017,0.236,0.087s0.041,0.126-0.005,0.135c-0.046,0.009-0.011,0.126-0.011,0.126l0.005,0.214
					c0.045,0.028,0.048,0.104,0.021,0.101c-0.025-0.004-0.062,0.07-0.062,0.07"/>
				<path id="Linkerlijn_2_" fill="#3986A8" d="M749.116-973.218c-0.037-0.015-0.022-0.074-0.022-0.074
					c-0.003-0.033,0.018-0.031,0.018-0.031s0.133,0.09,0.394,0.09c0,0,0.068,0.009,0.103,0.015c0.032,0.006,0.062-0.011,0.085-0.006
					c0.023,0.004,0.089,0.004,0.104-0.007c0.013-0.011,0.025,0.002,0.021,0.02c-0.004,0.018-0.025,0.04-0.028,0.059
					c0,0-0.007,0.018-0.025,0.018c-0.02,0-0.209,0.017-0.44-0.026c0,0-0.083-0.02-0.136-0.031
					C749.132-973.204,749.145-973.216,749.116-973.218z"/>
				<path id="Rechterlijn_2_" fill="#3986A8" d="M750.162-973.127c0,0-0.046-0.054-0.044-0.091l-0.005-0.035
					c0,0,0.031,0.04,0.061,0.055c0.028,0.016,0.083,0.062,0.23,0.037l0.235-0.018c0,0,0.149-0.033,0.17-0.065
					c0.013-0.021-0.004,0.092-0.004,0.092s-0.114,0.063-0.254,0.072C750.41-973.073,750.235-973.073,750.162-973.127z"/>
				<path id="Romp_3_" fill="#FFFFFF" d="M750.482-974.545c0,0-0.033-0.05-0.026-0.155c0.006-0.05,0.049-0.124,0.049-0.189
					c0-0.063-0.053-0.14-0.049-0.208c0.006-0.079,0.047-0.107,0.049-0.172c0.007-0.179-0.028-0.325-0.028-0.325
					s-0.048-0.318,0-0.371c0.048-0.053-0.17-0.175-0.122-0.456c0,0-0.447,0.12-0.515,0.135c-0.07,0.015-0.224,0.07-0.286,0.101
					c-0.063,0.03-0.364,0.222-0.242,0.63c0,0,0.179,0.042,0.147,0.149c-0.027,0.109-0.135,0.182-0.135,0.182
					s-0.15,0.498-0.155,0.773C749.164-974.172,750.482-974.545,750.482-974.545z"/>
				<path id="nekring_2_" fill="#3986A8" d="M749.448-976.113c0,0,0.078-0.061,0.104-0.072c0.025-0.011,0.686,0.018,0.769-0.061
					c0,0,0.034-0.031,0.055,0.059l0.036,0.072C750.412-976.117,749.968-975.772,749.448-976.113z"/>
				<path id="helm_2_" fill="#FFFFFF" d="M750.456-976.57c0,0.321-0.184,0.535-0.506,0.535s-0.566-0.231-0.566-0.552
					c0-0.321,0.199-0.563,0.537-0.563C750.242-977.152,750.456-976.892,750.456-976.57z"/>
				<g id="helm_schaduw_2_">
					<path fill="#E8E8E8" d="M749.952-976.036c0.32,0,0.506-0.214,0.506-0.535c0-0.098-0.02-0.19-0.057-0.271
						c-0.043-0.096-0.107-0.175-0.193-0.231c0,0,0.136,0.392,0.073,0.603C750.186-976.153,749.952-976.036,749.952-976.036z"/>
				</g>
				<path fill="#0D3644" d="M750.376-976.526c0,0.247-0.132,0.41-0.357,0.41c-0.227,0-0.401-0.177-0.401-0.423
					c0-0.247,0.143-0.432,0.38-0.432C750.223-976.971,750.376-976.773,750.376-976.526z"/>
				<path id="Rechterarm_3_" fill="#FFFFFF" d="M750.412-976.117c0,0,0.367,0.057,0.434,0.336c0,0,0.147,0.094,0.188,0.256
					c0,0,0.01,0.023,0.039,0.008c0.031-0.015,0.083-0.035,0.104-0.017c0,0,0.04-0.111,0.143-0.083c0,0,0.104-0.046,0.253-0.035
					c0,0,0.021,0.077,0.039,0.14c0.019,0.062,0.009,0.092,0.062,0.135c0.052,0.044-0.003,0.068-0.003,0.068s0.037,0.046-0.062,0.055
					c0,0-0.014,0.041-0.083,0.026c0,0-0.031,0.052-0.103,0.074c0,0,0.004,0.062-0.07,0.062c0,0-0.026-0.019-0.026,0.031
					c0,0-0.015,0.039-0.082,0.031c0,0-0.018,0.028-0.067,0.015c0,0-0.053,0.039-0.113,0.013c0,0-0.179,0.015-0.244-0.096
					c0,0-0.044-0.037-0.096-0.048c0,0-0.114-0.061-0.129-0.113c0,0-0.04,0.018-0.063-0.046c0,0-0.02-0.037-0.044-0.037l-0.018,0.016
					c0,0,0.018-0.077-0.028-0.127c0,0-0.039-0.126,0-0.174c0,0,0.055-0.179-0.022-0.214c0,0-0.104-0.063-0.037-0.122
					C750.447-976.022,750.417-976.105,750.412-976.117z"/>
				<g>
					<path id="hand_3_" fill="#FFFFFF" d="M751.598-975.481c0,0-0.113-0.175,0.076-0.236c0,0,0.255-0.079,0.423,0.046
						c0,0,0.04,0.033-0.124,0.085c0,0-0.277,0.026-0.188,0.092c0,0,0.198-0.076,0.143,0.05c0,0-0.065,0.061-0.161,0.072
						c0,0-0.042,0.018-0.085,0.009C751.678-975.366,751.628-975.351,751.598-975.481z"/>
					<path id="schaduw_8_" fill="#DBDBDB" d="M751.678-975.366c0.044,0.009,0.086-0.009,0.086-0.009
						c0.096-0.011,0.161-0.072,0.161-0.072s-0.033,0.017-0.088,0.026c-0.065,0.013-0.145,0.028-0.161,0.03
						C751.658-975.393,751.632-975.369,751.678-975.366z"/>
					<path id="schaduw_5_" fill="#DBDBDB" d="M751.771-975.537c0,0,0.062-0.035,0.125-0.042c0.035-0.004,0.078-0.009,0.103-0.02
						c0.021-0.009,0.076-0.028,0.081-0.037c0.005-0.009-0.062-0.013-0.076-0.018C751.958-975.661,751.846-975.659,751.771-975.537z"
						/>
				</g>
				<path id="leftarm_3_" fill="#FFFFFF" d="M749.363-976.09c0,0-0.276,0.039-0.413,0.244c0,0-0.107,0.114-0.068,0.306
					c0,0-0.058,0.055,0.004,0.138c0,0-0.028,0.052-0.028,0.092c0,0,0.003,0.069-0.046,0.109c0,0-0.087,0.111,0.012,0.244
					c0,0-0.031,0.101,0.058,0.118c0,0,0.052,0.12,0.23,0.186c0,0,0.099,0.175,0.435,0.184l0.175,0.02l0.074-0.146l-0.024-0.044
					c0,0-0.002-0.128-0.128-0.109c0,0,0.015-0.157-0.148-0.192c0,0-0.012-0.069-0.127-0.063c0,0,0.037-0.081-0.062-0.125
					c0,0-0.016-0.021-0.002-0.039c0,0,0.025,0,0.035-0.061l0.02-0.042c0,0,0.062,0.039,0.098-0.118c0,0-0.027-0.104,0.061-0.109
					C749.599-975.505,749.703-976.039,749.363-976.09z"/>
				<g id="leftarm_2_">
					<path fill="#E8E8E8" d="M749.409-975.278c0,0,0.06,0.013,0.097-0.144c0,0,0.064-0.068,0.041-0.111c0,0-0.071-0.02-0.136,0.091
						c-0.063,0.111-0.039,0.123-0.096,0.12c0,0-0.021,0.118-0.06,0.153c0,0-0.005,0.087-0.065,0.109
						c-0.055,0.02,0.097-0.039,0.146,0.024c0.048,0.063,0.055,0.138,0.055,0.138s0.076-0.002,0.117,0.035
						c0.042,0.037,0.029,0.109,0.099,0.122c0.067,0.013,0.113,0.021,0.12,0.057c0.006,0.035-0.022,0.043,0.002,0.052l0.044-0.009
						c0,0-0.021-0.131-0.088-0.135c0,0,0.011-0.118-0.152-0.152c0,0,0.014-0.09-0.103-0.083c0,0-0.005-0.074-0.104-0.116
						c0,0,0.006-0.048,0.021-0.065l0.039-0.042L749.409-975.278z"/>
				</g>
				<g id="Romp_1_">
					<path fill="#E8E8E8" d="M750.476-975.595c0,0,0.035,0.146,0.028,0.325c-0.003,0.065-0.041,0.096-0.049,0.172
						c-0.004,0.067,0.049,0.144,0.049,0.208c0,0.063-0.028,0.149-0.032,0.201c-0.007,0.105,0.027,0.211,0.027,0.211
						c-0.002-0.011-0.023,0.016-0.048,0c-0.081-0.048-0.229-0.152-0.173-0.161c0.072-0.013,0.097-0.062,0.097-0.062
						s0.073-0.211,0.028-0.262c-0.046-0.05-0.018-0.142-0.018-0.148c0-0.006,0.043-0.179-0.033-0.271
						C750.354-975.385,750.484-975.524,750.476-975.595"/>
				</g>
				<g>
					<path fill="#EFEFEF" d="M749.542-974.471c0,0,0.17-0.021,0.225-0.17c0,0,0.101,0.018,0.138,0.061c0,0-0.007,0.031,0.021,0.063
						c0,0,0.104,0.109-0.035,0.229C749.889-974.289,749.605-974.16,749.542-974.471z"/>
					<path fill="#DBDBDB" d="M749.588-974.352c0.101,0.155,0.301,0.063,0.301,0.063c0.142-0.12,0.035-0.229,0.035-0.229
						c-0.026-0.033-0.021-0.063-0.021-0.063l-0.021,0.009l0.021,0.048l0.019,0.035l-0.093,0.159L749.588-974.352z"/>
				</g>
				<g id="Rechterarm_2_">
					<path fill="#E8E8E8" d="M750.478-975.497c-0.039,0.048-0.041,0.041-0.041,0.041c0.046,0.048,0.028,0.127,0.028,0.127
						l0.018-0.016c0.026-0.002,0.044,0.037,0.044,0.037c0.021,0.062,0.062,0.046,0.062,0.046c0.016,0.053,0.129,0.113,0.129,0.113
						c0.053,0.011,0.097,0.048,0.097,0.048c0.065,0.113,0.244,0.096,0.244,0.096c0.061,0.026,0.113-0.013,0.113-0.013
						c0.05,0.015,0.066-0.016,0.066-0.016c0.07,0.009,0.083-0.03,0.083-0.03c0-0.048,0.026-0.031,0.026-0.031
						c0.072,0,0.069-0.062,0.069-0.062c0.069-0.021,0.104-0.074,0.104-0.074c0.069,0.015,0.082-0.026,0.082-0.026
						c0.101-0.009,0.062-0.055,0.062-0.055c0.037-0.024,0.024-0.039,0.017-0.055c-0.009-0.015-0.09,0.019-0.183,0.07
						c-0.091,0.052-0.174-0.046-0.174,0s-0.088,0.131-0.188,0.138c-0.101,0.006-0.099-0.138-0.099-0.138s0.008,0.052-0.094,0.105
						c-0.101,0.052-0.271-0.12-0.301-0.196c-0.029-0.077-0.037-0.136-0.037-0.136c-0.083,0.037-0.104-0.135-0.104-0.135
						C750.474-975.642,750.474-975.555,750.478-975.497z"/>
				</g>
				<path id="armring_left_2_" fill="#3986A8" d="M748.872-975.4c0,0,0.357,0.024,0.48,0.199c0,0-0.012,0.037-0.028,0.061
					c0,0-0.095-0.079-0.203-0.122c-0.092-0.037-0.219-0.058-0.272-0.04C748.851-975.341,748.872-975.4,748.872-975.4L748.872-975.4"
					/>
				<path id="armring_right_2_" fill="#3986A8" d="M750.659-975.188c0,0,0.017,0.011,0.032,0.022
					c0.007,0.004,0.014,0.013,0.022,0.015c0.021,0.007,0.02,0,0.02,0.004c0,0,0.223-0.321,0.311-0.371c0,0,0.002-0.033-0.019-0.043
					C751.025-975.561,750.766-975.323,750.659-975.188z"/>
				<path opacity="0.1" fill="#FFFFFF" enable-background="new    " d="M749.904-976.917l0.06,0.105c0,0-0.187,0.024-0.286,0.205
					C749.675-976.609,749.71-976.872,749.904-976.917z"/>
			</g>
		</g>
		<g id="cracks_flag_1_">
			<polygon fill="#C1C1C1" points="751.608,-971.462 751.724,-971.346 751.844,-971.303 751.822,-971.217 751.866,-971.318 
				751.737,-971.375 751.713,-971.496 			"/>
			<polygon fill="#C1C1C1" points="751.724,-971.489 751.739,-971.481 751.748,-971.505 			"/>
			<polygon fill="#C1C1C1" points="751.508,-971.431 751.523,-971.44 751.508,-971.462 			"/>
			<polygon fill="#C1C1C1" points="751.626,-971.486 751.564,-971.464 751.564,-971.408 751.504,-971.408 751.442,-971.313 
				751.484,-971.417 751.545,-971.431 751.55,-971.503 751.595,-971.518 			"/>
			<polygon fill="#C1C1C1" points="751.746,-971.566 751.746,-971.533 751.881,-971.566 751.966,-971.549 752.038,-971.661 
				752.11,-971.636 752.174,-971.683 752.11,-971.642 752.038,-971.671 752.029,-971.673 751.96,-971.572 751.888,-971.595 			"/>
			<polygon fill="#C1C1C1" points="751.6,-971.63 751.6,-971.591 751.547,-971.642 751.442,-971.618 751.467,-971.722 
				751.364,-971.742 751.294,-971.742 751.294,-971.742 751.294,-971.742 751.37,-971.749 751.479,-971.74 751.486,-971.738 
				751.49,-971.734 751.471,-971.647 751.542,-971.671 			"/>
		</g>
		<g id="Flag_1_">
			<path fill="#FFFFFF" d="M752.224-977.923c0,0,0.186-0.179,0.759,0.107c0.574,0.286,1.659,0.227,1.792,0.109l-0.099,1.602
				c0,0-1.138,0.177-1.562-0.013c-0.426-0.19-0.579-0.286-0.799-0.262c-0.221,0.024-0.19,0.048-0.19,0.048L752.224-977.923z"/>
			<path fill="#DBDBDB" d="M751.727-971.527l0.395-6.43c0,0-0.046-0.092-0.11-0.006l-0.396,6.43l0.05,0.089L751.727-971.527z"/>
		</g>
		<g id="Rechterhand_V2_copy_2_1_">
			<path id="hand_2_" fill="#FFFFFF" d="M751.785-975.497c0,0,0.198-0.077,0.143,0.05c0,0-0.065,0.062-0.161,0.072
				c0,0-0.042,0.018-0.085,0.009c0,0-0.053,0.015-0.081-0.116"/>
			<path id="schaduw_4_" fill="#DBDBDB" d="M751.678-975.366c0.044,0.009,0.086-0.009,0.086-0.009
				c0.096-0.011,0.161-0.072,0.161-0.072s-0.033,0.017-0.088,0.026c-0.065,0.013-0.145,0.028-0.161,0.03
				C751.658-975.393,751.632-975.369,751.678-975.366z"/>
			<path id="schaduw_1_" fill="#DBDBDB" d="M751.771-975.537"/>
		</g>
		<g id="Logo_1_">
			<path fill="#2FB2C4" d="M753.533-977.16l0.58-0.292l-0.073,0.396l-0.342,0.147l0.279,0.187l-0.071,0.391l-0.461-0.355
				l-0.57,0.292l0.071-0.391l0.336-0.148l-0.274-0.186l0.071-0.391L753.533-977.16z"/>
			<polygon fill="#444394" points="753.445,-976.688 752.872,-976.396 752.943,-976.787 753.509,-977.038 			"/>
			<polygon fill="#37519E" points="753.509,-977.038 753.978,-976.726 753.903,-976.333 753.445,-976.688 			"/>
			<polygon fill="#2E9DC3" points="753.533,-977.16 753.509,-977.038 753.282,-976.935 753.007,-977.121 753.079,-977.513 			"/>
		</g>
	</g>
</g>
</svg>
