<?xml version="1.0" encoding="utf-8"?>
<!-- Generator: Adobe Illustrator 18.1.0, SVG Export Plug-In . SVG Version: 6.00 Build 0)  -->
<svg version="1.1" xmlns="http://www.w3.org/2000/svg" xmlns:xlink="http://www.w3.org/1999/xlink" x="0px" y="0px"
	 viewBox="0 0 215.3 270.5" enable-background="new 0 0 215.3 270.5" xml:space="preserve">
<g id="Layer_1">
	<path fill="#FFFFFF" d="M118.8,138.4l37.3,18.1c0,0-45.8,111.7-16.4,168.9c2.4,4.7-4.7-52.6-9.5-54.9l-128,0.2
		c-4.2-2-2.1-8.1,2.2-10C27.4,250.6,79.2,220,118.8,138.4z"/>
	
		<image display="none" overflow="visible" width="1920" height="1080" xlink:href="D6A599624E0DCCA0.jpg"  transform="matrix(1 0 0 1 -824.991 -459.546)">
	</image>
	<path fill="#FFFFFF" d="M188.6,10.3c0,0,29.8-30,25.2,12.2c0,0-2,23.9-20.1,66.6c-18.1,42.7-25.6,52.8-25.6,52.8l-45-21.8
		C123.1,120.1,152.5,49.5,188.6,10.3z"/>
	<path fill="#E8E8E8" d="M208.9,0.4c3.8,1.7,6.2,7.8,4.6,22c0,0-0.4,24.3-18.6,67s-26,53-26,53l-23.5-11.4"/>
	<path fill="#E0E0E0" d="M188.6,10.3c0,0,29.8-30,25.2,12.2"/>
	<path fill="#EDEDED" d="M144.2,76.4c0,0-11.3,14.3-27.3,16.2S101,109.3,101,109.3l22.1,10.7L144.2,76.4z"/>
	<path fill="#D6D6D6" d="M190.3,98.8c0,0-4.2,17.7,4.1,31.5s-3.3,22.8-3.3,22.8L169,142.4L190.3,98.8z"/>
	<circle fill="#D1D1D1" cx="187.5" cy="45.2" r="15.5"/>
	<path fill="#606060" d="M129,122.8c0,0-11.9,7.1-12.3,8.2c-0.4,1.1,1,2.7,1,2.7s1.5,2.4,0.6,5.4l37.1,18c0,0,3.3-3.3,5.3-2.4
		s2.4-1.3,2.4-1.3l-1.6-14.8L129,122.8z"/>
	<circle fill="#237BA1" cx="187.7" cy="45.3" r="12.8"/>
	
		<linearGradient id="SVGID_1_" gradientUnits="userSpaceOnUse" x1="134.5095" y1="40.5187" x2="143.421" y2="25.0836" gradientTransform="matrix(0.3271 0.945 -0.945 0.3271 177.0045 -95.6264)">
		<stop  offset="0" style="stop-color:#FFFFFF;stop-opacity:0"/>
		<stop  offset="1" style="stop-color:#BDBEBE"/>
	</linearGradient>
	<path opacity="0.2" fill="url(#SVGID_1_)" d="M194.5,34.5c2.4,1.5,4.3,3.8,5.3,6.6c2.3,6.7-1.2,13.9-7.9,16.2
		c-4,1.4-8.1,0.7-11.4-1.5"/>
	
		<rect x="146" y="95.5" transform="matrix(-0.8995 -0.4369 0.4369 -0.8995 231.9974 296.3678)" fill="#C4C4C4" width="8.2" height="52"/>
	<polygon fill="#D3D3D3" points="165.2,99.9 159.7,137.9 149.2,132.8 	"/>
</g>
<g id="reflection">
</g>
</svg>
