<?xml version="1.0" encoding="utf-8"?>
<!-- Generator: Adobe Illustrator 16.0.0, SVG Export Plug-In . SVG Version: 6.00 Build 0)  -->
<!DOCTYPE svg PUBLIC "-//W3C//DTD SVG 1.1//EN" "http://www.w3.org/Graphics/SVG/1.1/DTD/svg11.dtd">
<svg version="1.1" id="Layer_1" xmlns="http://www.w3.org/2000/svg" xmlns:xlink="http://www.w3.org/1999/xlink" x="0px" y="0px"
	 width="766.569px" height="421.308px" viewBox="0 0 766.569 421.308" enable-background="new 0 0 766.569 421.308"
	 xml:space="preserve">
<path fill-rule="evenodd" clip-rule="evenodd" fill="#1F7399" d="M151.303,218.645c-0.155,21.652-17.689,38.83-39.448,38.648
	c-20.887-0.174-38.17-17.788-38.212-38.941c-0.042-21.078,17.969-38.956,39.004-38.714
	C134.045,179.882,151.455,197.451,151.303,218.645z"/>
<path fill-rule="evenodd" clip-rule="evenodd" fill="#20739A" d="M194.263,91.821c0.033,14.532-11.708,26.417-26.163,26.481
	c-14.672,0.066-26.731-11.949-26.646-26.545c0.084-14.36,12.109-26.291,26.486-26.279C182.327,65.491,194.229,77.402,194.263,91.821
	z"/>
<path fill-rule="evenodd" clip-rule="evenodd" fill="#20739A" d="M60.8,355.289c-14.411-0.057-26.348-12.009-26.348-26.381
	c-0.001-14.576,12.221-26.636,26.828-26.472c14.419,0.162,26.085,12.128,26.01,26.679C87.216,343.564,75.292,355.347,60.8,355.289z"
	/>
<path fill-rule="evenodd" clip-rule="evenodd" fill="#20739A" d="M79.251,126.668c12.139-0.044,21.982,9.651,22.074,21.741
	c0.093,12.35-9.793,22.297-22.097,22.233c-12.046-0.063-21.869-9.95-21.874-22.015C57.349,136.567,67.176,126.711,79.251,126.668z"
	/>
<path fill-rule="evenodd" clip-rule="evenodd" fill="#20739A" d="M166.154,348.01c-11.13-0.084-20.67-9.714-20.607-20.806
	c0.063-11.142,9.661-20.66,20.786-20.614c11.107,0.046,20.689,9.704,20.628,20.789C186.899,338.506,177.23,348.094,166.154,348.01z"
	/>
<path fill-rule="evenodd" clip-rule="evenodd" fill="#20739A" d="M39.214,19.69c-0.021,11.067-8.625,19.596-19.704,19.533
	c-10.7-0.061-19.392-8.673-19.51-19.334C-0.118,9.157,8.818,0.065,19.549,0C30.386-0.065,39.236,8.795,39.214,19.69z"/>
<path fill-rule="evenodd" clip-rule="evenodd" fill="#20739A" d="M205.823,421.308c-8.643,0.018-15.486-6.745-15.555-15.371
	c-0.069-8.669,6.635-15.565,15.243-15.68c8.896-0.118,15.844,6.752,15.791,15.617C221.251,414.543,214.484,421.289,205.823,421.308z
	"/>
<path fill-rule="evenodd" clip-rule="evenodd" fill="#20739A" d="M150.312,166.479c-0.079,7.666-6.342,13.853-14.004,13.834
	c-7.82-0.019-14.175-6.571-13.964-14.399c0.205-7.589,6.657-13.726,14.28-13.581C144.267,152.479,150.391,158.808,150.312,166.479z"
	/>
<path fill-rule="evenodd" clip-rule="evenodd" fill="#20739A" d="M48.151,65.349c7.529,0.147,13.438,6.438,13.17,14.021
	c-0.257,7.283-6.44,13.108-13.756,12.958c-7.278-0.149-13.231-6.256-13.205-13.547C34.387,71.25,40.597,65.202,48.151,65.349z"/>
<path fill-rule="evenodd" clip-rule="evenodd" fill="#20739A" d="M149.301,142.324c-5.361-0.018-9.846-4.424-9.953-9.782
	c-0.112-5.574,4.452-10.22,10.02-10.202c5.386,0.018,9.838,4.39,9.94,9.764C159.415,137.687,154.856,142.342,149.301,142.324z"/>
<path fill-rule="evenodd" clip-rule="evenodd" fill="#20739A" d="M39.313,52.585c-0.111,2.135-1.167,3.523-3.252,3.666
	c-2.107,0.145-3.462-1.13-3.617-3.191c-0.158-2.109,1.128-3.455,3.188-3.62C37.76,49.268,38.888,50.617,39.313,52.585z"/>
<path fill-rule="evenodd" clip-rule="evenodd" fill="#20739A" d="M57.626,96.31c2.268,0.319,3.634,1.424,3.628,3.529
	c-0.006,2.091-1.33,3.423-3.41,3.42c-2.077-0.002-3.398-1.34-3.428-3.421C54.386,97.698,55.886,96.725,57.626,96.31z"/>
<path fill-rule="evenodd" clip-rule="evenodd" fill="#20739A" d="M65.889,121.332c-2.053-0.263-3.44-1.354-3.465-3.45
	c-0.025-2.087,1.296-3.43,3.372-3.463c2.084-0.033,3.416,1.278,3.454,3.372C69.288,119.902,67.936,121.016,65.889,121.332z"/>
<g>
	<path fill="#20739A" d="M1.864,246.46l1.44-2.56c0.64-1.121,2.08-1.281,3.36-0.32c1.92,1.6,9.76,7.199,20.16,7.199
		c11.2,0,18.4-5.439,18.4-13.279c0-8.48-8.96-12.48-21.44-17.121c-12.96-4.64-22.08-9.76-22.08-21.44c0-8,6.72-18.881,23.68-18.881
		c9.761,0,17.121,3.36,20.801,5.601c1.12,0.8,1.601,2.08,0.96,3.36l-0.96,1.76c-0.64,1.28-1.92,1.28-3.2,0.64
		c-1.76-0.96-9.76-4.8-17.601-4.8c-11.68,0-16.64,6.56-16.64,12.16c0,7.36,7.36,11.36,18.24,15.36
		c13.76,5.121,25.28,9.281,25.28,23.361c0,11.199-10.561,19.84-25.44,19.84c-12.48,0-20.16-5.119-24.16-8.16
		C1.864,248.54,1.224,247.58,1.864,246.46z"/>
	<path fill="#20739A" d="M112.744,180.058c20.64,0,37.12,17.44,37.12,38.401c0,21.601-16.48,38.881-37.12,38.881
		c-21.121,0-37.121-17.28-37.121-38.881C75.623,197.499,91.623,180.058,112.744,180.058z M112.744,250.46
		c16.48,0,29.601-14.24,29.601-32.001c0-17.28-13.12-31.521-29.601-31.521c-16.801,0-30.081,14.24-30.081,31.521
		C82.663,236.22,95.943,250.46,112.744,250.46z"/>
	<path fill="#20739A" d="M212.743,180.058c14.24,0,24,7.2,27.2,11.36c0.96,1.12,0.8,2.4-0.16,3.36l-1.28,1.28
		c-1.439,1.44-2.72,0.96-4-0.32c-1.76-1.92-10.08-8.8-21.76-8.8c-16.801,0-31.201,13.92-31.201,31.521
		c0,17.92,13.761,32.001,31.36,32.001c13.44,0,21.281-9.12,23.361-11.36c1.279-1.439,2.399-1.279,3.52-0.16l1.44,1.28
		c0.96,0.96,1.12,1.92,0.479,2.88c-3.04,4.48-13.6,14.24-28.96,14.24c-20.961,0-38.241-16.32-38.241-38.721
		C174.501,196.379,191.782,180.058,212.743,180.058z"/>
	<path fill="#20739A" d="M267.301,155.098c0-3.52,2.88-6.24,6.4-6.24c3.52,0,6.239,2.72,6.239,6.24c0,3.36-2.72,6.08-6.239,6.08
		C270.181,161.178,267.301,158.458,267.301,155.098z M270.341,184.059c0-1.28,0.96-2.4,2.4-2.4h2.239c1.12,0,2.4,1.12,2.4,2.4
		v69.121c0,1.601-0.8,2.4-2.4,2.4h-2.56c-1.44,0-2.08-1.12-2.08-2.4V184.059z"/>
	<path fill="#20739A" d="M336.581,207.899c8.48,0,17.12,2.72,19.041,3.36c0-16.321-2.08-24.641-16.641-24.641
		c-12.16,0-20.641,4.48-22.081,4.96c-1.6,0.64-2.56,0-2.88-1.12l-0.8-2.24c-0.8-1.44,0.16-2.24,0.96-2.72
		c0.48-0.32,9.92-5.44,25.44-5.44c22.4,0,23.041,13.121,23.041,32.161v40.96c0,1.28-1.28,2.4-2.561,2.4h-1.28
		c-1.279,0-2.08-0.641-2.239-2.08l-0.801-6.721c-4.64,4.641-14.24,10.561-25.92,10.561c-13.761,0-24.001-9.279-24.001-24.48
		C305.86,218.619,317.22,207.899,336.581,207.899z M330.661,250.46c11.2,0,21.44-6.72,24.961-11.2v-21.281
		c-2.4-1.119-10.24-3.839-19.041-3.839c-14.08,0-23.841,7.68-23.841,18.56C312.74,243.26,320.42,250.46,330.661,250.46z"/>
	<path fill="#20739A" d="M397.859,145.978c0-1.28,0.96-2.4,2.4-2.4h2.239c1.12,0,2.4,1.12,2.4,2.4V253.18c0,1.601-0.8,2.4-2.4,2.4
		h-2.56c-1.44,0-2.08-1.12-2.08-2.4V145.978z"/>
	<path fill="#20739A" d="M440.739,145.978c0-1.28,0.96-2.4,2.56-2.4h2.08c1.12,0,2.4,1.12,2.4,2.4v45.601
		c2.24-2.4,11.04-11.521,25.44-11.521c19.36,0,27.681,12,27.681,32.641v40.48c0,1.28-1.12,2.4-2.4,2.4h-2.239
		c-1.28,0-2.4-1.12-2.4-2.4v-40.48c0-17.121-6.72-25.761-20.961-25.761c-14.24,0-23.04,11.041-25.12,13.6v52.641
		c0,1.601-0.8,2.4-2.4,2.4h-2.56c-1.44,0-2.08-1.12-2.08-2.4V145.978z"/>
	<path fill="#20739A" d="M559.297,207.899c8.48,0,17.12,2.72,19.041,3.36c0-16.321-2.08-24.641-16.641-24.641
		c-12.16,0-20.641,4.48-22.081,4.96c-1.6,0.64-2.56,0-2.88-1.12l-0.8-2.24c-0.8-1.44,0.16-2.24,0.96-2.72
		c0.48-0.32,9.92-5.44,25.44-5.44c22.4,0,23.041,13.121,23.041,32.161v40.96c0,1.28-1.28,2.4-2.561,2.4h-1.28
		c-1.279,0-2.08-0.641-2.239-2.08l-0.801-6.721c-4.64,4.641-14.24,10.561-25.92,10.561c-13.761,0-24.001-9.279-24.001-24.48
		C528.577,218.619,539.937,207.899,559.297,207.899z M553.377,250.46c11.2,0,21.44-6.72,24.961-11.2v-21.281
		c-2.4-1.119-10.24-3.839-19.041-3.839c-14.08,0-23.841,7.68-23.841,18.56C535.457,243.26,543.137,250.46,553.377,250.46z"/>
	<path fill="#20739A" d="M652.737,180.058c14.24,0,24,7.2,27.2,11.36c0.96,1.12,0.8,2.4-0.16,3.36l-1.28,1.28
		c-1.439,1.44-2.72,0.96-4-0.32c-1.76-1.92-10.08-8.8-21.76-8.8c-16.801,0-31.201,13.92-31.201,31.521
		c0,17.92,13.761,32.001,31.36,32.001c13.44,0,21.281-9.12,23.361-11.36c1.279-1.439,2.399-1.279,3.52-0.16l1.44,1.28
		c0.96,0.96,1.12,1.92,0.479,2.88c-3.04,4.48-13.6,14.24-28.96,14.24c-20.961,0-38.241-16.32-38.241-38.721
		C614.496,196.379,631.776,180.058,652.737,180.058z"/>
	<path fill="#20739A" d="M710.335,145.978c0-1.28,0.96-2.4,2.4-2.4h2.08c1.119,0,2.399,1.12,2.399,2.4v65.762l38.081-28.961
		c1.12-0.8,2.08-1.12,3.04-1.12h5.28c1.76,0,1.92,2.24,0.479,3.36l-39.2,29.601l40.961,37.761c1.439,1.28,0.479,3.2-0.96,3.2h-4.16
		c-1.12,0-1.92-0.16-3.681-1.439l-39.841-37.121v36.16c0,1.601-0.8,2.4-2.399,2.4h-2.4c-1.44,0-2.08-1.12-2.08-2.4V145.978z"/>
</g>
</svg>
