<?xml version="1.0" encoding="utf-8"?>
<!-- Generator: Adobe Illustrator 18.0.0, SVG Export Plug-In . SVG Version: 6.00 Build 0)  -->
<!DOCTYPE svg PUBLIC "-//W3C//DTD SVG 1.1//EN" "http://www.w3.org/Graphics/SVG/1.1/DTD/svg11.dtd">
<svg version="1.1" id="Layer_1" xmlns="http://www.w3.org/2000/svg" xmlns:xlink="http://www.w3.org/1999/xlink" x="0px" y="0px"
	 viewBox="-0.2 137.1 1024.9 226.8" enable-background="new -0.2 137.1 1024.9 226.8" xml:space="preserve">
<g>
	<g>
		
			<rect id="XMLID_3_" x="33" y="170.3" transform="matrix(-0.7071 -0.7071 0.7071 -0.7071 16.1169 507.6293)" fill="#FFFFFF" width="160.4" height="160.4"/>
	</g>
	<g>
		<defs>
			
				<rect id="SVGID_1_" x="33" y="170.3" transform="matrix(-0.7071 -0.7071 0.7071 -0.7071 16.1169 507.6293)" width="160.4" height="160.4"/>
		</defs>
		<clipPath id="SVGID_2_">
			<use xlink:href="#SVGID_1_"  overflow="visible"/>
		</clipPath>
		<path clip-path="url(#SVGID_2_)" fill="#2FB2C4" d="M114.5,133.4l440.8-277.7v337.4l-263.1,143l262.4,141.6v334.6L114.5,536.7
			L-320,814.4V479.8l259-143.7l-259.6-142.3v-334.6L114.5,133.4z"/>
	</g>
	<g>
		<defs>
			
				<rect id="SVGID_3_" x="33" y="170.3" transform="matrix(-0.7071 -0.7071 0.7071 -0.7071 16.1169 507.6293)" width="160.4" height="160.4"/>
		</defs>
		<clipPath id="SVGID_4_">
			<use xlink:href="#SVGID_3_"  overflow="visible"/>
		</clipPath>
		<polygon clip-path="url(#SVGID_4_)" fill="#37519F" points="115.2,243.1 118.7,243.8 119.4,247.2 -38.2,406.2 -39.6,402 
			-44.4,400.6 112.5,243.8 		"/>
	</g>
	<g>
		<defs>
			
				<rect id="SVGID_5_" x="33" y="170.3" transform="matrix(-0.7071 -0.7071 0.7071 -0.7071 16.1169 507.6293)" width="160.4" height="160.4"/>
		</defs>
		<clipPath id="SVGID_6_">
			<use xlink:href="#SVGID_5_"  overflow="visible"/>
		</clipPath>
		<polygon clip-path="url(#SVGID_6_)" fill="#444395" points="114.5,536.7 -320.7,814.4 -320.7,479.8 114.5,238.2 		"/>
	</g>
	<g>
		<defs>
			
				<rect id="SVGID_7_" x="33" y="170.3" transform="matrix(-0.7071 -0.7071 0.7071 -0.7071 16.1169 507.6293)" width="160.4" height="160.4"/>
		</defs>
		<clipPath id="SVGID_8_">
			<use xlink:href="#SVGID_7_"  overflow="visible"/>
		</clipPath>
		<polygon clip-path="url(#SVGID_8_)" fill="#37519F" points="114.5,238.2 554.7,477.7 554.7,813 114.5,536.7 		"/>
	</g>
	<g>
		<defs>
			
				<rect id="SVGID_9_" x="33" y="170.3" transform="matrix(-0.7071 -0.7071 0.7071 -0.7071 16.1169 507.6293)" width="160.4" height="160.4"/>
		</defs>
		<clipPath id="SVGID_10_">
			<use xlink:href="#SVGID_9_"  overflow="visible"/>
		</clipPath>
		<polygon clip-path="url(#SVGID_10_)" fill="#309DC4" points="114.5,133.4 114.5,238.2 -61.8,336.8 -320.7,193.8 -320.7,-141.5 		
			"/>
	</g>
</g>
<g>
	<path fill="#444444" d="M307.5,181.3h38.2c41.7,0,68,20.8,68,67.3s-26.4,68.7-66.6,68.7h-40.3V181.3H307.5z M344.3,292.3
		c22.9,0,38.2-11.1,38.2-43.7s-15.3-42.3-38.2-42.3h-5.6v86.1H344.3z"/>
	<path fill="#444444" d="M439.5,181.3H470v75.7c0,26.4,8.3,36.1,23.6,36.1s24.3-9,24.3-36.1v-75.7h29.9v72.9
		c0,45.8-18.7,65.3-53.5,65.3s-54.2-19.4-54.2-65.3v-72.9H439.5z"/>
	<path fill="#444444" d="M599.8,247.2l-35.4-66h34l11.8,25.7c2.8,6.2,6.2,13.2,9.7,21.5h0.7c2.8-8.3,5.6-15.3,8.3-21.5l11.1-25.7
		h33.3L638,248.6l37.5,68h-34l-13.2-27.8c-3.5-6.9-6.9-13.9-10.4-22.2h-0.7c-3.5,8.3-6.2,15.3-9.7,22.2L595,316.6h-32.6L599.8,247.2
		z"/>
	<path fill="#444444" d="M693.5,181.3h85.4V207h-54.2V234h46.5v25.7h-46.5V291H781v25.7h-87.5V181.3z"/>
	<path fill="#444444" d="M807.4,181.3h30.5V291h53.5v25.7h-84L807.4,181.3L807.4,181.3z"/>
	<path fill="#444444" d="M901.1,248.6c0-44.4,25-69.4,61.8-69.4c36.8,0,61.8,25.7,61.8,69.4c0,44.4-25,70.8-61.8,70.8
		C926.1,319.4,901.1,293,901.1,248.6z M992.8,248.6c0-27.1-11.8-43-29.9-43c-18.1,0-29.9,16-29.9,43s11.8,44.4,29.9,44.4
		C981,293,992.8,275.7,992.8,248.6z"/>
</g>
</svg>
