<?xml version="1.0" encoding="utf-8"?>
<!-- Generator: Adobe Illustrator 18.0.0, SVG Export Plug-In . SVG Version: 6.00 Build 0)  -->
<!DOCTYPE svg PUBLIC "-//W3C//DTD SVG 1.1//EN" "http://www.w3.org/Graphics/SVG/1.1/DTD/svg11.dtd">
<svg version="1.1" id="Layer_1" xmlns="http://www.w3.org/2000/svg" xmlns:xlink="http://www.w3.org/1999/xlink" x="0px" y="0px"
	 viewBox="0 0 283 88.1" enable-background="new 0 0 283 88.1" xml:space="preserve">
<g id="Myndoo_Logo_Full_Colour">
	<path id="Dropshadow" opacity="0.2" d="M281.6,35.8c-1-3.3-2.6-6.3-4.8-8.8c-2.2-2.5-5.1-4.6-8.6-6c-3.3-1.4-7.2-2.1-11.6-2.1
		c-4.2,0-8,0.7-11.3,2.1c-3.4,1.4-6.2,3.3-8.6,5.8c-0.4,0.4-0.7,0.8-1,1.2c-0.3-0.3-0.5-0.7-0.8-1c-2.2-2.5-5.1-4.6-8.6-6
		c-3.3-1.4-7.2-2.1-11.6-2.1c-4.2,0-8,0.7-11.3,2.1c-2,0.8-3.7,1.9-5.4,3.1v-5.8c0-2.8-0.5-5.3-1.6-7.3c-1.1-2.2-2.6-3.9-4.5-5.2
		c-1.7-1.1-3.6-1.9-5.7-2.3c-1.6-0.3-3.3-0.5-5-0.5c-0.8,0-1.7,0-2.5,0.1c-0.9,0.1-1.8,0.2-2.6,0.3c-0.3,0-0.7,0.1-1.2,0.1l-6.9,0.6
		V11v7.9c-0.2,0-0.4,0-0.7,0c-2.8,0-5.6,0.5-8.2,1.6c-2.8,1.2-5.2,3-7.3,5.4c-0.8-1.1-1.7-2.1-2.8-3c-3.2-2.6-7.2-4-12.1-4
		c-3.9,0-7.3,0.8-10,2.3c-2.4-1-5.1-1.5-8.3-1.5c-1.1,0-2.1,0-2.9,0.1c-1,0.1-1.9,0.2-2.7,0.3c-0.7,0.1-1.3,0.2-1.9,0.4l-1.5,0.3
		c-2.5-0.7-5.2-1.1-7.8-1.1c-6,0-9.6,2.6-11.6,4.7c-0.2,0.2-0.3,0.4-0.5,0.5c-0.2-0.2-0.4-0.4-0.6-0.6c-1.4-1.5-3.1-2.6-5.2-3.4
		c-2-0.8-4.2-1.2-6.6-1.2c-1.7,0-3.4,0.1-5.3,0.4c-0.5,0.1-0.9,0.2-1.4,0.3l-0.5-7.1l-0.3-4.9l-4.6-1.6c-1.2-0.4-2.7-0.8-4.7-1
		c-1.7-0.2-3.5-0.3-5.3-0.3c-3.3,0-6.2,0.7-8.7,2c-2.9,1.6-5.1,4.4-6.5,8.1l-1.4,3.7L37.2,15c-1.2-3.2-3-5.6-5.5-7.2
		c-2.4-1.6-5.5-2.4-9.4-2.4c-1.9,0-3.7,0.1-5.5,0.4c-1.9,0.3-3.3,0.5-4.4,0.9L7.5,8.2l-0.4,5.1L3.6,63l-0.6,8h8h14.4h7l0.4-7
		l0.1-2.2h0.5h10h0.9l0.1,2.2l0.4,7h7.1h13.5C65.3,72.4,65,73.7,65,75c0,2.5,0.6,4.8,1.8,6.7c1.2,1.9,2.7,3.3,4.7,4.4
		c1.5,0.8,3.2,1.4,5.1,1.7c1.5,0.2,3.1,0.4,4.8,0.4c4.8,0,9.1-1,12.7-2.8c3.9-2,7.1-5.3,9.5-9.7c0.7-1.2,1.4-2.7,2.1-4.5h7.2h15.1
		h7.5v-0.4c2.1,0.7,4.5,1.1,7.5,1.1c1.2,0,2.3-0.1,3.3-0.2c0.8-0.1,1.5-0.2,2.1-0.4l0.3-0.1l0.3-0.1c0.8-0.2,1.7-0.5,2.4-0.8
		l4.3-1.7c1.3,0.9,2.8,1.6,4.3,2.1c2.4,0.8,4.9,1.2,7.4,1.2c3,0,5.7-0.5,8.1-1.4c1.2,0.4,2.6,0.7,3.9,0.7h11.2h7.5v-3.7
		c1.4,1,3,1.9,4.6,2.6c3.3,1.5,7.3,2.2,11.8,2.2c4.5,0,8.5-0.8,11.9-2.3c3.5-1.5,6.3-3.7,8.6-6.3c0.2-0.2,0.3-0.4,0.5-0.6
		c0.2,0.3,0.4,0.5,0.6,0.8c2.2,2.6,5.1,4.7,8.6,6.2c3.3,1.5,7.3,2.2,11.8,2.2c4.5,0,8.5-0.8,11.9-2.3c3.5-1.5,6.3-3.7,8.6-6.3
		c2.2-2.6,3.8-5.6,4.8-9c0.9-3.1,1.4-6.3,1.4-9.5C283,41.9,282.5,38.8,281.6,35.8z"/>
	<path id="Stroke" fill="#FFFFFF" d="M278.7,32.8c-1-3.3-2.6-6.3-4.8-8.8c-2.2-2.5-5.1-4.6-8.6-6c-3.3-1.4-7.2-2.1-11.6-2.1
		c-4.2,0-8,0.7-11.3,2.1c-3.4,1.4-6.2,3.3-8.6,5.8c-0.4,0.4-0.7,0.8-1,1.2c-0.3-0.3-0.5-0.7-0.8-1c-2.2-2.5-5.1-4.6-8.6-6
		c-3.3-1.4-7.2-2.1-11.6-2.1c-4.2,0-8,0.7-11.3,2.1c-2,0.8-3.7,1.9-5.4,3.1v-5.8c0-2.8-0.5-5.3-1.6-7.3c-1.1-2.2-2.6-3.9-4.5-5.2
		c-1.7-1.1-3.6-1.9-5.7-2.3c-1.6-0.3-3.3-0.5-5-0.5c-0.8,0-1.7,0-2.5,0.1c-0.9,0.1-1.8,0.2-2.6,0.3c-0.3,0-0.7,0.1-1.2,0.1l-6.9,0.6
		V8V16c-0.2,0-0.4,0-0.7,0c-2.8,0-5.6,0.5-8.2,1.6c-2.8,1.2-5.2,3-7.3,5.4c-0.8-1.1-1.7-2.1-2.8-3c-3.2-2.6-7.2-4-12.1-4
		c-3.9,0-7.3,0.8-10,2.3c-2.4-1-5.1-1.5-8.3-1.5c-1.1,0-2.1,0-2.9,0.1c-1,0.1-1.9,0.2-2.7,0.3c-0.7,0.1-1.3,0.2-1.9,0.4l-1.5,0.3
		c-2.5-0.7-5.2-1.1-7.8-1.1c-6,0-9.6,2.6-11.6,4.7c-0.2,0.2-0.3,0.4-0.5,0.5c-0.2-0.2-0.4-0.4-0.6-0.6c-1.4-1.5-3.1-2.6-5.2-3.4
		c-2-0.8-4.2-1.2-6.6-1.2c-1.7,0-3.4,0.1-5.3,0.4c-0.5,0.1-0.9,0.2-1.4,0.3l-0.5-7.1l-0.3-4.9l-4.6-1.6c-1.2-0.4-2.7-0.8-4.7-1
		c-1.7-0.2-3.5-0.3-5.3-0.3c-3.3,0-6.2,0.7-8.7,2c-2.9,1.6-5.1,4.4-6.5,8.1l-1.4,3.7L34.3,12c-1.2-3.2-3-5.6-5.5-7.2
		c-2.4-1.6-5.5-2.4-9.4-2.4c-1.9,0-3.7,0.1-5.5,0.4c-1.9,0.3-3.3,0.5-4.4,0.9L4.5,5.2l-0.4,5.1L0.6,60l-0.6,8h8h14.4h7l0.4-7
		l0.1-2.2h0.5h10h0.9l0.1,2.2l0.4,7h7.1h13.5C62.3,69.4,62,70.7,62,72c0,2.5,0.6,4.8,1.8,6.7c1.2,1.9,2.7,3.3,4.7,4.4
		c1.5,0.8,3.2,1.4,5.1,1.7c1.5,0.2,3.1,0.4,4.8,0.4c4.8,0,9.1-1,12.7-2.8c3.9-2,7.1-5.3,9.5-9.7c0.7-1.2,1.4-2.7,2.1-4.5h7.2H125
		h7.4h0.1h1.4c1.8,0.5,3.8,0.7,6.1,0.7c1.2,0,2.3-0.1,3.3-0.2c0.8-0.1,1.5-0.2,2.1-0.4l0.3-0.1l0.3-0.1c0.8-0.2,1.7-0.5,2.4-0.8
		l4.3-1.7c1.3,0.9,2.8,1.6,4.3,2.1c2.4,0.8,4.9,1.2,7.4,1.2c3,0,5.7-0.5,8.1-1.4c1.2,0.4,2.6,0.7,3.9,0.7h11.2h7.5v-3.7
		c1.4,1,3,1.9,4.6,2.6c3.3,1.5,7.3,2.2,11.8,2.2c4.5,0,8.5-0.8,11.9-2.2c3.5-1.5,6.3-3.7,8.6-6.3c0.2-0.2,0.3-0.4,0.5-0.6
		c0.2,0.3,0.4,0.5,0.6,0.8c2.2,2.6,5.1,4.7,8.6,6.2c3.3,1.5,7.3,2.2,11.8,2.2c4.5,0,8.5-0.8,11.9-2.2c3.5-1.5,6.3-3.7,8.6-6.3
		c2.2-2.6,3.8-5.6,4.8-9c0.9-3.1,1.4-6.3,1.4-9.5C280,38.9,279.5,35.8,278.7,32.8z"/>
	<g id="Typografie">
		<g>
			<radialGradient id="SVGID_1_" cx="97.5075" cy="10.2111" r="131.1688" gradientUnits="userSpaceOnUse">
				<stop  offset="0" style="stop-color:#378DBB"/>
				<stop  offset="0.9947" style="stop-color:#156F9E"/>
			</radialGradient>
			<path fill="url(#SVGID_1_)" d="M19.4,9.9c2.4,0,4.2,0.4,5.3,1.1c1.1,0.7,2,1.9,2.6,3.5l8.5,23.2H36l8.2-22.6
				c0.7-2,1.8-3.4,3.1-4.2c1.3-0.7,3-1.1,5.1-1.1c1.5,0,3,0.1,4.4,0.3c1.4,0.2,2.4,0.4,3.1,0.6l3.5,49.7H49.2l-1.5-25.2h-0.3
				l-6.7,16h-10l-6.3-15.4H24l-1.6,24.6H8l3.6-49.7c0.6-0.2,1.7-0.4,3.2-0.6C16.3,10,17.8,9.9,19.4,9.9z"/>
		</g>
		<g>
			<radialGradient id="SVGID_2_" cx="97.5075" cy="10.2111" r="131.1688" gradientUnits="userSpaceOnUse">
				<stop  offset="0" style="stop-color:#378DBB"/>
				<stop  offset="0.9947" style="stop-color:#156F9E"/>
			</radialGradient>
			<path fill="url(#SVGID_2_)" d="M97,61.5c-0.2,1-0.7,2.2-1.2,3.7c-0.6,1.5-1.1,2.7-1.7,3.6c-1.7,3.1-3.9,5.4-6.4,6.7
				c-2.5,1.3-5.6,2-9.2,2c-1.3,0-2.5-0.1-3.6-0.3c-1.1-0.2-2-0.5-2.8-0.9c-0.8-0.4-1.4-1-1.9-1.7c-0.4-0.7-0.7-1.6-0.7-2.7
				c0-0.9,0.2-1.9,0.6-3c0.4-1.2,1.1-2.6,2-4.2c0.8,0.5,1.7,0.9,2.7,1.2c0.9,0.2,1.8,0.3,2.5,0.3c1.8,0,3.2-0.4,4.2-1.3
				c1-0.9,1.7-2.5,2.2-4.9h-5.9L66.7,25.4c1.1-0.4,2.4-0.7,3.8-0.9s2.8-0.3,4.1-0.3c1.5,0,2.8,0.2,3.8,0.6c1,0.4,1.9,1,2.6,1.7
				c0.7,0.7,1.2,1.5,1.6,2.4c0.4,0.9,0.7,1.8,0.9,2.8l3.3,16.5h0.3l3.3-16.6c0.4-2,1.3-3.7,2.6-5.2s3.3-2.2,6-2.2
				c2.6,0,5.1,0.5,7.6,1.4L97,61.5z"/>
		</g>
		<g>
			<radialGradient id="SVGID_3_" cx="97.5075" cy="10.2111" r="131.1688" gradientUnits="userSpaceOnUse">
				<stop  offset="0" style="stop-color:#378DBB"/>
				<stop  offset="0.9947" style="stop-color:#156F9E"/>
			</radialGradient>
			<path fill="url(#SVGID_3_)" d="M130.4,38.5c0-1.1-0.1-2-0.4-2.6c-0.3-0.6-0.9-1-2-1c-1.1,0-1.9,0.2-2.4,0.7
				c-0.5,0.5-0.7,1-0.7,1.5v23.4h-15.1V24.8c0.4-0.1,1-0.2,1.6-0.3c0.5-0.1,1.2-0.2,1.9-0.2c0.7,0,1.5-0.1,2.4-0.1
				c2.2,0,4.1,0.3,5.5,1c1.4,0.7,2.4,1.6,2.9,2.7c0.6-1,1.7-2.1,3.3-3c1.6-1,3.8-1.5,6.6-1.5c3.1,0,5.5,0.7,7.3,2.2
				c1.8,1.5,3,3.5,3.5,5.9c0.1,0.6,0.3,1.2,0.3,1.9c0.1,0.7,0.1,1.4,0.1,2.2c0,0.7,0,1.4,0.1,2.1c0,0.7,0,1.3,0,1.8v20.7
				c-0.5,0.2-1,0.4-1.6,0.5c-0.5,0.1-1.1,0.2-1.8,0.3c-0.7,0.1-1.4,0.1-2.2,0.1c-2.3,0-4.1-0.3-5.4-0.8c-1.3-0.5-2.2-1.3-2.8-2.2
				c-0.6-0.9-1-1.9-1.1-3.1c-0.1-1.2-0.2-2.4-0.2-3.7V38.5z"/>
		</g>
		<g>
			<radialGradient id="SVGID_4_" cx="97.5075" cy="10.2111" r="131.1688" gradientUnits="userSpaceOnUse">
				<stop  offset="0" style="stop-color:#378DBB"/>
				<stop  offset="0.9947" style="stop-color:#156F9E"/>
			</radialGradient>
			<path fill="url(#SVGID_4_)" d="M176.3,60.5c-0.7,0-1.4-0.2-2-0.5c-0.6-0.3-0.9-1.1-0.9-2.2c-0.7,0.9-1.8,1.7-3.3,2.4
				c-1.5,0.7-3.4,1.1-5.7,1.1c-1.7,0-3.4-0.3-5-0.8c-1.6-0.5-3.1-1.5-4.5-2.9c-1.3-1.4-2.4-3.2-3.2-5.6c-0.8-2.4-1.2-5.4-1.2-8.9
				c0-3.6,0.4-6.6,1.2-9.1c0.8-2.5,1.8-4.5,3.1-6.1c1.3-1.5,2.8-2.7,4.5-3.4c1.7-0.7,3.5-1,5.3-1c1.2,0,2.3,0.1,3.2,0.4
				c0.9,0.3,1.8,0.5,2.4,0.9c0.7,0.3,1.2,0.6,1.6,1c0.4,0.3,0.7,0.6,0.9,0.7V8c0.6,0,1.2-0.1,1.9-0.2c0.5-0.1,1.1-0.2,1.8-0.2
				c0.6,0,1.3-0.1,1.9-0.1c1.2,0,2.4,0.1,3.5,0.3c1.1,0.2,2.1,0.6,3,1.2c0.8,0.6,1.5,1.4,2.1,2.4c0.5,1,0.8,2.3,0.8,3.9v45.2H176.3z
				 M165.6,42.8c0,1.2,0.1,2.3,0.2,3.3c0.1,1,0.4,1.9,0.8,2.7c0.4,0.8,0.9,1.4,1.5,1.8c0.6,0.4,1.3,0.7,2.2,0.7c0.6,0,1.1,0,1.4-0.1
				c0.3-0.1,0.6-0.1,0.7-0.2V34.9c-0.3-0.2-0.7-0.3-1.2-0.4s-0.9-0.1-1.3-0.1c-1.7,0-2.9,0.7-3.5,2.2
				C165.9,38.2,165.6,40.2,165.6,42.8z"/>
		</g>
		<g>
			<radialGradient id="SVGID_5_" cx="97.5075" cy="10.2111" r="131.1688" gradientUnits="userSpaceOnUse">
				<stop  offset="0" style="stop-color:#378DBB"/>
				<stop  offset="0.9947" style="stop-color:#156F9E"/>
			</radialGradient>
			<path fill="url(#SVGID_5_)" d="M230.5,42.1c0,2.5-0.4,5-1,7.4c-0.7,2.4-1.8,4.5-3.3,6.3c-1.5,1.8-3.5,3.2-5.9,4.3
				c-2.4,1.1-5.4,1.6-8.9,1.6c-3.4,0-6.4-0.5-8.8-1.6c-2.4-1-4.4-2.5-5.9-4.2c-1.5-1.8-2.6-3.8-3.3-6.1c-0.7-2.3-1-4.8-1-7.4
				c0-2.6,0.4-5.1,1.2-7.4c0.8-2.3,2-4.3,3.6-6c1.6-1.7,3.6-3,6-4c2.4-1,5.2-1.5,8.5-1.5c3.4,0,6.4,0.5,8.8,1.5c2.4,1,4.3,2.3,5.8,4
				c1.5,1.7,2.6,3.7,3.3,6C230.2,37.2,230.5,39.6,230.5,42.1z M216.5,42.3c0-2.4-0.4-4.5-1.1-6.1c-0.7-1.7-2-2.5-3.9-2.5
				c-1,0-1.9,0.2-2.5,0.7c-0.7,0.5-1.2,1.2-1.6,2c-0.4,0.8-0.7,1.8-0.9,2.8c-0.2,1-0.2,2.1-0.2,3.2c0,1.2,0.1,2.4,0.2,3.5
				c0.2,1.1,0.4,2.1,0.9,2.9c0.4,0.9,0.9,1.5,1.6,2c0.6,0.5,1.5,0.7,2.5,0.7s1.9-0.3,2.5-0.8c0.7-0.5,1.2-1.2,1.5-2.1
				c0.4-0.9,0.6-1.8,0.8-2.9C216.4,44.7,216.5,43.5,216.5,42.3z"/>
		</g>
		<g>
			<radialGradient id="SVGID_6_" cx="97.5075" cy="10.2111" r="131.1688" gradientUnits="userSpaceOnUse">
				<stop  offset="0" style="stop-color:#378DBB"/>
				<stop  offset="0.9947" style="stop-color:#156F9E"/>
			</radialGradient>
			<path fill="url(#SVGID_6_)" d="M272.5,42.1c0,2.5-0.4,5-1,7.4c-0.7,2.4-1.8,4.5-3.3,6.3c-1.5,1.8-3.5,3.2-5.9,4.3
				c-2.4,1.1-5.4,1.6-8.9,1.6c-3.4,0-6.4-0.5-8.8-1.6c-2.4-1-4.4-2.5-5.9-4.2c-1.5-1.8-2.6-3.8-3.3-6.1c-0.7-2.3-1-4.8-1-7.4
				c0-2.6,0.4-5.1,1.2-7.4c0.8-2.3,2-4.3,3.6-6c1.6-1.7,3.6-3,6-4c2.4-1,5.2-1.5,8.5-1.5c3.4,0,6.4,0.5,8.8,1.5c2.4,1,4.3,2.3,5.8,4
				c1.5,1.7,2.6,3.7,3.3,6C272.1,37.2,272.5,39.6,272.5,42.1z M258.5,42.3c0-2.4-0.4-4.5-1.1-6.1c-0.7-1.7-2-2.5-3.9-2.5
				c-1,0-1.9,0.2-2.5,0.7c-0.7,0.5-1.2,1.2-1.6,2c-0.4,0.8-0.7,1.8-0.9,2.8c-0.2,1-0.2,2.1-0.2,3.2c0,1.2,0.1,2.4,0.2,3.5
				c0.2,1.1,0.4,2.1,0.9,2.9c0.4,0.9,0.9,1.5,1.6,2c0.6,0.5,1.5,0.7,2.5,0.7s1.9-0.3,2.5-0.8c0.7-0.5,1.2-1.2,1.5-2.1
				c0.4-0.9,0.6-1.8,0.8-2.9C258.4,44.7,258.5,43.5,258.5,42.3z"/>
		</g>
	</g>
	<g id="InnerShadow" opacity="0.1">
		<polygon fill="#252525" points="102.7,68.1 104.6,62.5 106.5,68.1 		"/>
		<path fill="#252525" d="M62.6,68.1c0.7-2.2,2.7-5.6,2.7-5.6l-6.4,5.6C58.9,68.1,61.6,68.1,62.6,68.1z"/>
		<path fill="#252525" d="M149,62.5l0.6,4.2l3-1.2C151.3,64.6,150,63.7,149,62.5z"/>
		<path fill="#252525" d="M191.5,60.8L191.5,60.8l3.5,7.3v-3.7C193.7,63.4,192.5,62.1,191.5,60.8z"/>
		<g>
			<path fill="#252525" d="M231.8,60.7l0.4-0.5l0.1-0.1c-0.7-1-1.5-1.9-2.1-3.1c-0.1-0.2-0.2-0.5-0.3-0.7v6.4
				C230.6,62,231.3,61.4,231.8,60.7z"/>
		</g>
	</g>
</g>
</svg>
