<?xml version="1.0" encoding="utf-8"?>
<!-- Generator: Adobe Illustrator 22.0.1, SVG Export Plug-In . SVG Version: 6.00 Build 0)  -->
<svg version="1.1" id="Layer_1" xmlns="http://www.w3.org/2000/svg" xmlns:xlink="http://www.w3.org/1999/xlink" x="0px" y="0px"
	 viewBox="0 0 334.4 180.7" style="enable-background:new 0 0 334.4 180.7;" xml:space="preserve">
<style type="text/css">
	.st0{fill:#FFFFFF;}
	.st1{fill:#FFFFFF;stroke:#FFFFFF;stroke-width:1.6031;stroke-miterlimit:10;}
</style>
<g id="Layer_1_1_">
</g>
<g id="Layer_10">
	<path class="st0" d="M48.3,32.1c4.6,2.7,8.3,6.2,10.9,10.5c0.5,0.9,0.8,1.8,0.8,2.8c0,1.5-0.7,2.6-2.1,3.5
		c-0.6,0.3-1.3,0.5-2.1,0.5c-0.9,0-1.6-0.2-2.4-0.6c-0.7-0.4-1.3-1-1.8-1.8C47.3,40.2,40.7,36.8,32,36.7c-6.3,0-11.2,1.3-14.8,3.9
		c-3.6,2.6-5.4,6.4-5.4,11.2c0,9,7.3,14.5,21.9,16.5c9.6,1.4,16.7,4.3,21.4,8.8s7.1,10.4,7.1,17.7c0,5.4-1.3,10.1-3.9,14
		c-2.6,3.9-6.2,6.9-10.8,9c-4.6,2-9.7,3.1-15.3,3.1c-7.3,0-13.9-1.6-19.5-4.7C7,113,2.9,108.8,0.5,103.5C0.2,103,0,102.3,0,101.6
		c0-1.1,0.4-2,1.2-2.7s1.9-1.1,3.3-1.1c0.9,0,1.8,0.3,2.6,0.8s1.4,1.2,1.8,2.1c1.8,3.5,4.7,6.3,8.9,8.4c4.1,2.1,8.9,3.2,14.4,3.2
		c6.3,0,11.4-1.5,15.3-4.6s5.8-7.3,5.8-12.8c0-4.9-1.8-9-5.4-12.3c-3.6-3.3-9-5.4-16.2-6.4c-9-1.1-16-3.9-21.2-8.4
		c-5.1-4.5-7.7-10.1-7.7-16.6c0-4.6,1.3-8.7,3.8-12.2s6-6.2,10.4-8.1s9.5-2.8,15.1-2.8C38.3,28,43.7,29.3,48.3,32.1z"/>
	<path class="st0" d="M146.7,34c7.1,4,12.6,9.5,16.6,16.6c4,7,6,15,6,23.8s-2,16.7-6,23.8c-4,7.1-9.5,12.6-16.6,16.6s-15,6-23.7,6
		c-8.8,0-16.7-2-23.8-6c-7-4-12.5-9.6-16.5-16.6c-4-7.1-6-15-6-23.8s2-16.7,6-23.8c4-7,9.5-12.6,16.5-16.6s15-6,23.8-6
		C131.7,28,139.6,30,146.7,34z M103.8,41.6c-5.7,3.3-10.1,7.9-13.4,13.6c-3.2,5.8-4.9,12.2-4.9,19.2c0,7.1,1.6,13.5,4.9,19.3
		c3.2,5.8,7.7,10.3,13.4,13.6c5.7,3.3,12.1,5,19.2,5c7,0,13.4-1.7,19.1-5c5.7-3.3,10.1-7.9,13.4-13.6c3.2-5.8,4.9-12.2,4.9-19.3
		c0-7-1.6-13.4-4.9-19.2c-3.2-5.8-7.7-10.3-13.4-13.6c-5.7-3.3-12-5-19.1-5C115.9,36.6,109.5,38.2,103.8,41.6z"/>
	<path class="st0" d="M241.4,30.4c4.6,1.6,9,4.2,13.2,7.8c0.8,0.6,1.3,1.5,1.3,2.7c0,0.6-0.2,1.2-0.5,1.7s-0.7,0.9-1.3,1.1
		c-0.2,0.5-0.5,1-1,1.3s-1.1,0.5-1.7,0.5c-1.2,0-2.1-0.3-2.9-1c-3-2.7-6.3-4.7-9.9-5.9c-3.6-1.2-7.7-1.9-12.4-1.9
		c-6.5,0-12.5,1.7-18.1,5.2c-5.6,3.4-10,8.1-13.3,13.9s-4.9,12.1-4.9,18.8c0,6.9,1.6,13.2,4.9,19c3.2,5.8,7.6,10.4,13.2,13.8
		c5.6,3.4,11.6,5.1,18.2,5.1c8.4,0,16-2.7,22.8-8.1c0.8-0.6,1.7-0.9,2.5-0.9c1.2,0,2.2,0.4,3,1.2c0.8,0.8,1.3,1.9,1.3,3.2
		c0,1.2-0.4,2.3-1.3,3.2c-7.3,6.6-16.7,10-28.4,10c-8.2,0-15.7-2.1-22.6-6.3c-6.9-4.2-12.3-9.8-16.4-16.9C183,90.8,181,83,181,74.6
		c0-8.3,2-16.1,6-23.2s9.5-12.8,16.3-16.9c6.9-4.2,14.4-6.3,22.7-6.3C231.8,28,236.9,28.8,241.4,30.4z"/>
	<path class="st0" d="M282.7,118.3c-0.9,0.9-1.9,1.3-3.2,1.3c-1.2,0-2.3-0.4-3.2-1.3c-0.9-0.9-1.3-2-1.3-3.2V33.7
		c0-1.2,0.4-2.3,1.3-3.2c0.9-0.9,2-1.3,3.2-1.3c1.3,0,2.4,0.4,3.2,1.3c0.8,0.9,1.3,1.9,1.3,3.2v39.4l42.3-42.3
		c1.1-1.1,2.3-1.6,3.6-1.6c1.3,0,2.3,0.4,3.1,1.2c0.7,0.8,1.1,1.7,1.1,2.9c0,1.4-0.5,2.6-1.5,3.7l-31.8,31.8l32.1,43.8
		c0.6,1,0.9,1.9,0.9,2.8c0,1.2-0.4,2.2-1.2,3.1c-0.8,0.9-1.8,1.3-3,1.3c-1.7,0-3-0.7-3.8-2l-31.5-42.7L284,85.5v29.7
		C284,116.4,283.6,117.5,282.7,118.3z"/>
	<path class="st1" d="M103,19.8L103,19.8c0,0.9,0.9,1.6,1.9,1.6c1.1,0,1.9-0.7,1.9-1.6l0,0v-2c0-2.6,0.7-4.9,2.1-7s3.3-3.8,5.8-5
		S119.9,4,123,4c3,0,5.8,0.6,8.2,1.8c2.5,1.2,4.4,2.9,5.8,5c1.4,2.1,2.1,4.5,2.1,7v2l0,0c0,0.9,0.9,1.6,1.9,1.6s1.9-0.7,1.9-1.6l0,0
		v-2c0-3.2-0.9-6.1-2.6-8.7c-1.7-2.6-4.1-4.6-7.2-6.1c-3.1-1.5-6.5-2.2-10.2-2.2c-3.8,0-7.2,0.7-10.3,2.2c-3,1.5-5.4,3.5-7.1,6.1
		s-2.6,5.5-2.6,8.7L103,19.8z"/>
	<g>
		<path class="st0" d="M20.7,153.9c1.6,0.8,2.9,1.8,3.9,3.1c0.3,0.4,0.4,0.8,0.4,1.1c0,0.6-0.3,1-0.8,1.4c-0.2,0.2-0.5,0.2-1,0.2
			c-0.7,0-1.3-0.2-1.8-0.8c-1.6-1.9-3.9-2.8-6.7-2.8c-1.8,0-3.3,0.4-4.4,1.1c-1.1,0.8-1.7,1.7-1.7,2.8c0,1.2,0.5,2.2,1.6,2.9
			c1,0.7,2.9,1.3,5.5,1.7c3.6,0.6,6.1,1.6,7.6,2.9c1.5,1.3,2.3,3,2.3,5c0,1.5-0.5,2.9-1.4,4.1c-0.9,1.2-2.2,2.1-3.8,2.8
			c-1.6,0.7-3.5,1-5.6,1s-4-0.3-5.9-1s-3.4-1.7-4.6-3c-0.3-0.4-0.5-0.8-0.5-1.2c0-0.6,0.3-1.1,0.8-1.5c0.4-0.3,0.8-0.4,1.2-0.4
			c0.6,0,1.1,0.2,1.5,0.7c0.8,0.9,1.9,1.7,3.2,2.2s2.8,0.8,4.4,0.8c2.3,0,4.1-0.4,5.2-1.2c1.2-0.8,1.8-1.8,1.8-3.1
			c0-1.2-0.6-2.2-1.8-3c-1.2-0.8-3-1.4-5.6-1.8c-3.3-0.5-5.7-1.5-7.3-2.8s-2.4-2.9-2.4-4.8c0-2.4,0.9-4.3,2.8-5.6s4.2-2,7.1-2
			C17.2,152.8,19.1,153.2,20.7,153.9z"/>
		<path class="st0" d="M55.2,154.5c1.9,1.2,3.4,2.7,4.4,4.8s1.6,4.3,1.6,6.9c0,0.5-0.2,1-0.5,1.3s-0.8,0.5-1.3,0.5H39.2
			c0.3,2.7,1.3,5,3.2,6.7s4.2,2.5,7,2.5c1.2,0,2.4-0.2,3.6-0.6c1.2-0.4,2.2-0.9,2.9-1.6c0.4-0.3,0.9-0.5,1.3-0.5
			c0.4,0,0.7,0.1,1.1,0.4c0.4,0.4,0.6,0.8,0.6,1.3c0,0.4-0.2,0.8-0.5,1.2c-1.1,0.9-2.5,1.7-4.2,2.3s-3.3,0.9-4.9,0.9
			c-2.7,0-5-0.6-7.1-1.8s-3.7-2.8-4.9-4.9c-1.2-2.1-1.8-4.5-1.8-7.2s0.6-5.1,1.7-7.2c1.1-2.1,2.7-3.8,4.6-5c2-1.2,4.2-1.8,6.8-1.8
			C51.1,152.8,53.3,153.4,55.2,154.5z M42.3,158.6c-1.7,1.6-2.7,3.6-3.1,6.2h18.3c-0.3-2.6-1.2-4.6-2.8-6.2
			c-1.6-1.6-3.6-2.4-6.1-2.4C46.1,156.2,44,157,42.3,158.6z"/>
		<path class="st0" d="M93,157.6c0.3,0.3,0.4,0.6,0.4,1c0,0.5-0.3,1-0.9,1.4c-0.3,0.2-0.6,0.3-0.9,0.3c-0.5,0-1-0.2-1.5-0.8
			c-1-1.1-2.1-1.9-3.3-2.5c-1.2-0.5-2.5-0.8-4-0.8c-1.8,0-3.5,0.4-4.9,1.3c-1.4,0.9-2.5,2.1-3.3,3.7c-0.8,1.6-1.2,3.4-1.2,5.4
			s0.4,3.7,1.2,5.3c0.8,1.6,2,2.8,3.5,3.7s3.2,1.3,5.2,1.3c2.7,0,4.8-0.7,6.4-2.2c0.4-0.4,0.9-0.5,1.4-0.5c0.4,0,0.8,0.1,1.1,0.4
			c0.5,0.4,0.7,0.8,0.7,1.3c0,0.4-0.2,0.8-0.5,1.1c-2.4,2.2-5.4,3.3-9.1,3.3c-2.6,0-4.9-0.6-7-1.8s-3.7-2.9-4.9-5
			c-1.2-2.1-1.8-4.5-1.8-7.1c0-2.7,0.6-5.1,1.7-7.2c1.1-2.1,2.7-3.8,4.7-5s4.2-1.8,6.8-1.8C87,152.8,90.4,154.4,93,157.6z"/>
		<path class="st0" d="M129.8,153.6c0.4,0.4,0.6,0.8,0.6,1.4v23.5c0,0.6-0.2,1-0.6,1.4c-0.4,0.4-0.8,0.5-1.4,0.5
			c-0.6,0-1-0.2-1.4-0.5c-0.4-0.4-0.5-0.8-0.5-1.4v-1.7c-1.1,1.2-2.4,2.2-4,2.9s-3.3,1-5.1,1c-2.4,0-4.5-0.5-6.4-1.5
			s-3.4-2.5-4.4-4.4c-1.1-1.9-1.6-4.2-1.6-6.9v-13c0-0.5,0.2-1,0.5-1.3c0.4-0.4,0.8-0.5,1.4-0.5s1,0.2,1.4,0.5
			c0.4,0.4,0.6,0.8,0.6,1.3v13c0,3,0.8,5.2,2.5,6.8c1.6,1.5,3.8,2.3,6.5,2.3c1.6,0,3.1-0.3,4.4-1c1.3-0.6,2.4-1.5,3.1-2.6
			c0.8-1.1,1.1-2.4,1.1-3.7v-14.8c0-0.6,0.2-1,0.5-1.4c0.4-0.3,0.8-0.5,1.4-0.5C128.9,153,129.4,153.2,129.8,153.6z"/>
		<path class="st0" d="M159.5,153.3c0.8,0.4,1.2,0.9,1.2,1.5c0,0.2,0,0.3,0,0.5c-0.1,0.5-0.3,0.8-0.6,0.9c-0.3,0.2-0.7,0.2-1.2,0.2
			c-0.3,0-0.8,0-1.5-0.1c-0.3,0-0.7,0-1.2,0c-2.5,0-4.5,0.7-6.1,2s-2.4,3.1-2.4,5.2v14.9c0,0.6-0.2,1.1-0.5,1.4
			c-0.3,0.3-0.8,0.5-1.4,0.5s-1.1-0.2-1.4-0.5c-0.3-0.3-0.5-0.8-0.5-1.4v-23.5c0-0.6,0.2-1.1,0.5-1.4c0.3-0.3,0.8-0.5,1.4-0.5
			s1.1,0.2,1.4,0.5c0.3,0.3,0.5,0.8,0.5,1.4v2.2c1-1.4,2.2-2.5,3.7-3.2c1.5-0.8,3.1-1.2,4.9-1.2
			C157.6,152.7,158.7,152.9,159.5,153.3z"/>
		<path class="st0" d="M187.4,154.5c1.9,1.2,3.4,2.7,4.4,4.8s1.6,4.3,1.6,6.9c0,0.5-0.2,1-0.5,1.3s-0.8,0.5-1.3,0.5h-20.2
			c0.3,2.7,1.3,5,3.2,6.7s4.2,2.5,7,2.5c1.2,0,2.4-0.2,3.6-0.6c1.2-0.4,2.2-0.9,2.9-1.6c0.4-0.3,0.9-0.5,1.3-0.5
			c0.4,0,0.7,0.1,1.1,0.4c0.4,0.4,0.6,0.8,0.6,1.3c0,0.4-0.2,0.8-0.5,1.2c-1.1,0.9-2.5,1.7-4.2,2.3s-3.3,0.9-4.9,0.9
			c-2.7,0-5-0.6-7.2-1.8c-2.1-1.2-3.7-2.8-4.9-4.9c-1.2-2.1-1.8-4.5-1.8-7.2s0.6-5.1,1.7-7.2c1.1-2.1,2.7-3.8,4.6-5
			c2-1.2,4.2-1.8,6.8-1.8C183.3,152.8,185.5,153.4,187.4,154.5z M174.6,158.6c-1.7,1.6-2.7,3.6-3.1,6.2h18.3
			c-0.3-2.6-1.2-4.6-2.8-6.2c-1.6-1.6-3.6-2.4-6.1-2.4C178.3,156.2,176.2,157,174.6,158.6z"/>
		<path class="st0" d="M223.1,141.9c0.4-0.3,0.8-0.5,1.4-0.5c0.6,0,1,0.2,1.4,0.5c0.3,0.4,0.5,0.8,0.5,1.4v28.5
			c0,1.4,0.3,2.6,0.9,3.5c0.6,0.9,1.3,1.4,2.2,1.4h1.2c0.5,0,0.9,0.2,1.2,0.5c0.3,0.4,0.4,0.8,0.4,1.4c0,0.6-0.2,1-0.6,1.4
			c-0.4,0.4-1,0.5-1.6,0.5h-0.6c-2,0-3.7-0.8-5-2.4c-1.3-1.6-1.9-3.7-1.9-6.2v-28.5C222.6,142.7,222.8,142.2,223.1,141.9z"/>
		<path class="st0" d="M260.2,154.6c2.1,1.2,3.8,2.9,5,5s1.8,4.5,1.8,7.1s-0.6,5-1.8,7.1c-1.2,2.1-2.9,3.8-5,5s-4.5,1.8-7.1,1.8
			s-5-0.6-7.1-1.8s-3.8-2.9-5-5s-1.8-4.5-1.8-7.1s0.6-5,1.8-7.1s2.9-3.8,5-5s4.5-1.8,7.1-1.8C255.8,152.8,258.1,153.4,260.2,154.6z
			 M248,157.6c-1.5,0.9-2.8,2.1-3.6,3.7c-0.9,1.6-1.3,3.4-1.3,5.4s0.4,3.7,1.3,5.3c0.9,1.6,2.1,2.8,3.6,3.7c1.6,0.9,3.3,1.3,5.2,1.3
			s3.7-0.5,5.2-1.3c1.5-0.9,2.7-2.1,3.6-3.7c0.9-1.6,1.3-3.4,1.3-5.3c0-2-0.4-3.8-1.3-5.4c-0.9-1.6-2.1-2.8-3.6-3.7
			s-3.3-1.3-5.2-1.3C251.2,156.3,249.5,156.7,248,157.6z"/>
		<path class="st0" d="M300.9,157.6c0.3,0.3,0.4,0.6,0.4,1c0,0.5-0.3,1-0.8,1.4c-0.3,0.2-0.6,0.3-1,0.3c-0.5,0-1-0.2-1.5-0.8
			c-1-1.1-2.1-1.9-3.3-2.5c-1.2-0.5-2.5-0.8-4-0.8c-1.8,0-3.5,0.4-4.9,1.3c-1.4,0.9-2.5,2.1-3.3,3.7c-0.8,1.6-1.2,3.4-1.2,5.4
			s0.4,3.7,1.2,5.3c0.8,1.6,2,2.8,3.5,3.7s3.2,1.3,5.2,1.3c2.7,0,4.8-0.7,6.5-2.2c0.4-0.4,0.9-0.5,1.3-0.5s0.8,0.1,1.1,0.4
			c0.5,0.4,0.7,0.8,0.7,1.3c0,0.4-0.2,0.8-0.5,1.1c-2.4,2.2-5.4,3.3-9.1,3.3c-2.6,0-4.9-0.6-7-1.8s-3.7-2.9-4.9-5
			c-1.2-2.1-1.8-4.5-1.8-7.1c0-2.7,0.6-5.1,1.7-7.2c1.1-2.1,2.7-3.8,4.7-5s4.2-1.8,6.8-1.8C294.9,152.8,298.3,154.4,300.9,157.6z"/>
		<path class="st0" d="M334.4,178.8c0,0.5-0.2,0.9-0.7,1.3c-0.4,0.3-0.8,0.5-1.2,0.5c-0.5,0-1-0.2-1.3-0.7l-10.3-12.7l-3.8,3.4v7.8
			c0,0.6-0.2,1-0.5,1.4c-0.4,0.4-0.8,0.5-1.4,0.5s-1-0.2-1.4-0.5s-0.5-0.8-0.5-1.4v-35.2c0-0.6,0.2-1,0.5-1.4
			c0.3-0.3,0.8-0.5,1.4-0.5s1,0.2,1.4,0.5c0.3,0.4,0.5,0.8,0.5,1.4V166l14.1-12.8c0.4-0.3,0.8-0.5,1.2-0.5c0.5,0,0.9,0.2,1.2,0.6
			c0.4,0.4,0.5,0.8,0.5,1.2c0,0.5-0.2,0.9-0.7,1.2l-10,9l10.4,12.8C334.3,178,334.4,178.4,334.4,178.8z"/>
	</g>
</g>
</svg>
